mtllib Wall1.mtl
o Wall
usemtl Ground
v -2 6 -1.9500000476837158
v -2 6 -2.049999952316284
v -2 0 -2.049999952316284
v -2 0 -1.9500000476837158
v -2 2.9000000953674316 -1.9500000476837158
v -2 2.9000000953674316 -2
v -2 3.0999999046325684 -2
v -2 3.0999999046325684 -1.9500000476837158
v -2 0 -2.049999952316284
v -2 6 -2.049999952316284
v 2 6 -2.049999952316284
v 2 0 -2.049999952316284
v 2 2.9000000953674316 -1.9500000476837158
v 2 0 -1.9500000476837158
v 2 0 -2.049999952316284
v 2 6 -2.049999952316284
v 2 6 -1.9500000476837158
v 2 3.0999999046325684 -1.9500000476837158
v 2 3.0999999046325684 -2
v 2 2.9000000953674316 -2
v 2 3.0999999046325684 -1.9500000476837158
v 2 6 -1.9500000476837158
v -2 6 -1.9500000476837158
v -2 3.0999999046325684 -1.9500000476837158
v -0.9238799810409546 3.0999999046325684 -1.9500000476837158
v -0.9238799810409546 3.3826839923858643 -1.9500000476837158
v -0.38268300890922546 3.923880100250244 -1.9500000476837158
v 0.38268300890922546 3.923880100250244 -1.9500000476837158
v 0.9238799810409546 3.3826839923858643 -1.9500000476837158
v 0.9238799810409546 3.0999999046325684 -1.9500000476837158
v -2 2.9000000953674316 -1.9500000476837158
v -2 0 -1.9500000476837158
v -0.10000000149011612 0 -1.9500000476837158
v -0.10000000149011612 0.05000000074505806 -1.9500000476837158
v 0.10000000149011612 0.05000000074505806 -1.9500000476837158
v 0.10000000149011612 0 -1.9500000476837158
v 2 0 -1.9500000476837158
v 2 2.9000000953674316 -1.9500000476837158
v 0.9238799810409546 2.9000000953674316 -1.9500000476837158
v 0.9238799810409546 2.6173160076141357 -1.9500000476837158
v 0.38268300890922546 2.076119899749756 -1.9500000476837158
v -0.38268300890922546 2.076119899749756 -1.9500000476837158
v -0.9238799810409546 2.6173160076141357 -1.9500000476837158
v -0.9238799810409546 2.9000000953674316 -1.9500000476837158
v -0.10000000149011612 0 -1.9500000476837158
v -2 0 -1.9500000476837158
v -2 0 -2.049999952316284
v 2 0 -2.049999952316284
v 2 0 -1.9500000476837158
v 0.10000000149011612 0 -1.9500000476837158
v 0.10000000149011612 0 -2.000432014465332
v -0.10000000149011612 0 -2.000432014465332
v 2 6 -2.049999952316284
v -2 6 -2.049999952316284
v -2 6 -1.9500000476837158
v 2 6 -1.9500000476837158
v -0.10000000149011612 0 -1.9500000476837158
v -0.10000000149011612 0 -2.000432014465332
v -0.10000000149011612 0.05000000074505806 -2.000432014465332
v -0.10000000149011612 0.05000000074505806 -1.9500000476837158
v 0.10000000149011612 0 -2.000432014465332
v 0.10000000149011612 0.05000000074505806 -2.000432014465332
v -0.10000000149011612 0.05000000074505806 -2.000432014465332
v -0.10000000149011612 0 -2.000432014465332
v 0.10000000149011612 0 -1.9500000476837158
v 0.10000000149011612 0.05000000074505806 -1.9500000476837158
v 0.10000000149011612 0.05000000074505806 -2.000432014465332
v 0.10000000149011612 0 -2.000432014465332
v -0.10000000149011612 0.05000000074505806 -2.000432014465332
v 0.10000000149011612 0.05000000074505806 -2.000432014465332
v 0.10000000149011612 0.05000000074505806 -1.9500000476837158
v -0.10000000149011612 0.05000000074505806 -1.9500000476837158
v -2 2.9000000953674316 -2
v -0.9238799810409546 2.9000000953674316 -2
v -0.9238799810409546 3.0999999046325684 -2
v -2 3.0999999046325684 -2
v 2 3.0999999046325684 -2
v 0.9238799810409546 3.0999999046325684 -2
v 0.9238799810409546 2.9000000953674316 -2
v 2 2.9000000953674316 -2
v -0.8067880272865295 2.9000000953674316 -2
v 0.04142099991440773 2.9000000953674316 -2
v -0.04142099991440773 3.0999999046325684 -2
v -0.7239450216293335 3.0999999046325684 -2
v 0.8067880272865295 3.0999999046325684 -2
v 0.7239450216293335 2.9000000953674316 -2
v -2 2.9000000953674316 -1.9500000476837158
v -0.9238799810409546 2.9000000953674316 -1.9500000476837158
v -0.9238799810409546 2.9000000953674316 -2
v -2 2.9000000953674316 -2
v 2 2.9000000953674316 -1.9500000476837158
v 2 2.9000000953674316 -2
v 0.9238799810409546 2.9000000953674316 -2
v 0.9238799810409546 2.9000000953674316 -1.9500000476837158
v -2 3.0999999046325684 -1.9500000476837158
v -2 3.0999999046325684 -2
v -0.9238799810409546 3.0999999046325684 -2
v -0.9238799810409546 3.0999999046325684 -1.9500000476837158
v 2 3.0999999046325684 -1.9500000476837158
v 0.9238799810409546 3.0999999046325684 -1.9500000476837158
v 0.9238799810409546 3.0999999046325684 -2
v 2 3.0999999046325684 -2
v 0.38268300890922546 3.923880100250244 -2
v 0.9238799810409546 3.3826839923858643 -2
v 0.9238799810409546 3.3826839923858643 -1.9500000476837158
v 0.38268300890922546 3.923880100250244 -1.9500000476837158
v 0.9238799810409546 3.0999999046325684 -1.9500000476837158
v 0.9238799810409546 3.3826839923858643 -1.9500000476837158
v 0.9238799810409546 3.3826839923858643 -2
v 0.9238799810409546 3.0999999046325684 -2
v 0.9238799810409546 2.6173160076141357 -2
v 0.9238799810409546 2.6173160076141357 -1.9500000476837158
v 0.9238799810409546 2.9000000953674316 -1.9500000476837158
v 0.9238799810409546 2.9000000953674316 -2
v 0.9238799810409546 2.6173160076141357 -1.9500000476837158
v 0.9238799810409546 2.6173160076141357 -2
v 0.38268300890922546 2.076119899749756 -2
v 0.38268300890922546 2.076119899749756 -1.9500000476837158
v -0.38268300890922546 2.076119899749756 -1.9500000476837158
v 0.38268300890922546 2.076119899749756 -1.9500000476837158
v 0.38268300890922546 2.076119899749756 -2
v -0.38268300890922546 2.076119899749756 -2
v -0.9238799810409546 2.6173160076141357 -1.9500000476837158
v -0.38268300890922546 2.076119899749756 -1.9500000476837158
v -0.38268300890922546 2.076119899749756 -2
v -0.9238799810409546 2.6173160076141357 -2
v -0.9238799810409546 2.9000000953674316 -1.9500000476837158
v -0.9238799810409546 2.6173160076141357 -1.9500000476837158
v -0.9238799810409546 2.6173160076141357 -2
v -0.9238799810409546 2.9000000953674316 -2
v -0.9238799810409546 3.0999999046325684 -2
v -0.9238799810409546 3.3826839923858643 -2
v -0.9238799810409546 3.3826839923858643 -1.9500000476837158
v -0.9238799810409546 3.0999999046325684 -1.9500000476837158
v -0.9238799810409546 3.3826839923858643 -2
v -0.38268300890922546 3.923880100250244 -2
v -0.38268300890922546 3.923880100250244 -1.9500000476837158
v -0.9238799810409546 3.3826839923858643 -1.9500000476837158
v -0.38268300890922546 3.923880100250244 -2
v 0.38268300890922546 3.923880100250244 -2
v 0.38268300890922546 3.923880100250244 -1.9500000476837158
v -0.38268300890922546 3.923880100250244 -1.9500000476837158
v 0.9238799810409546 3.0999999046325684 -2
v 0.9238799810409546 3.3826839923858643 -2
v 0.38268300890922546 3.923880100250244 -2
v -0.38268300890922546 3.923880100250244 -2
v -0.9238799810409546 3.3826839923858643 -2
v -0.9238799810409546 3.0999999046325684 -2
v -0.7239450216293335 3.0999999046325684 -2
v -0.04142099991440773 3.0999999046325684 -2
v 0.8067880272865295 3.0999999046325684 -2
v -0.9238799810409546 2.9000000953674316 -2
v -0.9238799810409546 2.6173160076141357 -2
v -0.38268300890922546 2.076119899749756 -2
v 0.38268300890922546 2.076119899749756 -2
v 0.9238799810409546 2.6173160076141357 -2
v 0.9238799810409546 2.9000000953674316 -2
v 0.7239450216293335 2.9000000953674316 -2
v 0.04142099991440773 2.9000000953674316 -2
v -0.8067880272865295 2.9000000953674316 -2
vt 0.625 0
vt 0.625 0.25
vt 0.375 0.25
vt 0.375 0
vt 0.49583300948143005 0
vt 0.49583300948143005 0.125
vt 0.5041670203208923 0.125
vt 0.5041670203208923 0
vt 0.375 0.25
vt 0.625 0.25
vt 0.625 0.5
vt 0.375 0.5
vt 0.49583300948143005 0.75
vt 0.375 0.75
vt 0.375 0.5
vt 0.625 0.5
vt 0.625 0.75
vt 0.5041670203208923 0.75
vt 0.5041670203208923 0.625
vt 0.49583300948143005 0.625
vt 0.5041670203208923 0.75
vt 0.625 0.75
vt 0.625 1
vt 0.5041670203208923 1
vt 0.5041670203208923 0.9327419996261597
vt 0.5159450173377991 0.9327419996261597
vt 0.5384950041770935 0.8989180028438568
vt 0.5384950041770935 0.8510819971561432
vt 0.5159450173377991 0.8172580003738403
vt 0.5041670203208923 0.8172580003738403
vt 0.49583300948143005 1
vt 0.375 1
vt 0.375 0.8812500014901161
vt 0.3770830035209656 0.8812500014901161
vt 0.3770830035209656 0.8687500059604645
vt 0.375 0.8687500059604645
vt 0.375 0.75
vt 0.49583300948143005 0.75
vt 0.49583300948143005 0.8172580003738403
vt 0.4840550124645233 0.8172580003738403
vt 0.4615049958229065 0.8510819971561432
vt 0.4615049958229065 0.8989180028438568
vt 0.4840550124645233 0.9327419996261597
vt 0.49583300948143005 0.9327419996261597
vt 0.24375000596046448 0.75
vt 0.125 0.75
vt 0.125 0.5
vt 0.375 0.5
vt 0.375 0.75
vt 0.2562499940395355 0.75
vt 0.2562499940395355 0.6239210069179535
vt 0.24375000596046448 0.6239210069179535
vt 0.625 0.5
vt 0.875 0.5
vt 0.875 0.75
vt 0.625 0.75
vt 0.375 0.5
vt 0.375 0.5
vt 0.625 0.25
vt 0.625 0.25
vt 0.375 0.75
vt 0.625 0.5
vt 0.625 0.5
vt 0.375 0.75
vt 0.375 1
vt 0.625 0.75
vt 0.625 0.75
vt 0.375 1
vt 0.625 0.5
vt 0.625 0.75
vt 0.6362180113792419 0.75
vt 0.6362180113792419 0.5
vt 0.375 0.25
vt 0.375 0.31725800037384033
vt 0.625 0.31725800037384033
vt 0.625 0.25
vt 0.625 0.5
vt 0.625 0.43274199962615967
vt 0.375 0.43274199962615967
vt 0.375 0.5
vt 0.375 0.3245760202407837
vt 0.375 0.37758898735046387
vt 0.625 0.37241101264953613
vt 0.625 0.32975298166275024
vt 0.625 0.4254239797592163
vt 0.375 0.42024701833724976
vt 0.125 0.75
vt 0.19225800037384033 0.75
vt 0.19225800037384033 0.5
vt 0.125 0.5
vt 0.375 0.75
vt 0.375 0.5
vt 0.30774199962615967 0.5
vt 0.30774199962615967 0.75
vt 0.875 0.75
vt 0.875 0.5
vt 0.8077419996261597 0.5
vt 0.8077419996261597 0.75
vt 0.625 0.75
vt 0.6922580003738403 0.75
vt 0.6922580003738403 0.5
vt 0.625 0.5
vt 1 0.5
vt 0.875 0.5
vt 0.875 1
vt 1 1
vt 0.8288319706916809 1
vt 0.875 1
vt 0.875 0.5
vt 0.8288319706916809 0.5
vt 0.75 0.5
vt 0.75 1
vt 0.7961680293083191 1
vt 0.7961680293083191 0.5
vt 0.75 1
vt 0.75 0.5
vt 0.625 0.5
vt 0.625 1
vt 0.5 1
vt 0.625 1
vt 0.625 0.5
vt 0.5 0.5
vt 0.375 1
vt 0.5 1
vt 0.5 0.5
vt 0.375 0.5
vt 0.3288320004940033 1
vt 0.375 1
vt 0.375 0.5
vt 0.3288320004940033 0.5
vt 0.2961679995059967 0.5
vt 0.25 0.5
vt 0.25 1
vt 0.2961679995059967 1
vt 0.25 0.5
vt 0.125 0.5
vt 0.125 1
vt 0.25 1
vt 0.125 0.5
vt 0 0.5
vt 0.125 0.5380600094795227
vt 0.125 1
vt 0.9197059869766235 0.41970598697662354
vt 0.9197059869766235 0.41970598697662354
vt 0.75 0.49000000953674316
vt 0.5802940130233765 0.41970598697662354
vt 0.5802940130233765 0.08029401302337646
vt 0.5802940130233765 0.08029401302337646
vt 0.6429889798164368 0.054325997829437256
vt 0.6559630036354065 0.45104801654815674
vt 0.8829889893531799 0.4349139928817749
vt 0.5802940130233765 0.08029401302337646
vt 0.5802940130233765 0.08029401302337646
vt 0.5802940130233765 0.41970598697662354
vt 0.75 0.49000000953674316
vt 0.9197059869766235 0.41970598697662354
vt 0.9197059869766235 0.41970598697662354
vt 0.8570110201835632 0.44567400217056274
vt 0.6743320226669312 0.45865702629089355
vt 0.6170110106468201 0.0650860071182251
vn -1 0 0
vn -1 0 0
vn -1 0 0
vn -1 0 0
vn -1 0 0
vn -1 0 0
vn -1 0 0
vn -1 0 0
vn 0 0 -1
vn 0 0 -1
vn 0 0 -1
vn 0 0 -1
vn 1 0 0
vn 1 0 0
vn 1 0 0
vn 1 0 0
vn 1 0 0
vn 1 0 0
vn 1 0 0
vn 1 0 0
vn 0 0 1
vn 0 0 1
vn 0 0 1
vn 0 0 1
vn 0 0 1
vn 0 0 1
vn 0 0 1
vn 0 0 1
vn 0 0 1
vn 0 0 1
vn 0 0 1
vn 0 0 1
vn 0 0 1
vn 0 0 1
vn 0 0 1
vn 0 0 1
vn 0 0 1
vn 0 0 1
vn 0 0 1
vn 0 0 1
vn 0 0 1
vn 0 0 1
vn 0 0 1
vn 0 0 1
vn 0 -1 0
vn 0 -1 0
vn 0 -1 0
vn 0 -1 0
vn 0 -1 0
vn 0 -1 0
vn 0 -1 0
vn 0 -1 0
vn 0 1 0
vn 0 1 0
vn 0 1 0
vn 0 1 0
vn 1 0 0
vn 1 0 0
vn 1 0 0
vn 1 0 0
vn 0 0 1
vn 0 0 1
vn 0 0 1
vn 0 0 1
vn -1 0 0
vn -1 0 0
vn -1 0 0
vn -1 0 0
vn 0 -1 0
vn 0 -1 0
vn 0 -1 0
vn 0 -1 0
vn 0 0 1
vn 0 0 1
vn 0 0 1
vn 0 0 1
vn 0 0 1
vn 0 0 1
vn 0 0 1
vn 0 0 1
vn 0 0 1
vn 0 0 1
vn 0 0 1
vn 0 0 1
vn 0 0 1
vn 0 0 1
vn 0 1 0
vn 0 1 0
vn 0 1 0
vn 0 1 0
vn 0 1 0
vn 0 1 0
vn 0 1 0
vn 0 1 0
vn 0 -1 0
vn 0 -1 0
vn 0 -1 0
vn 0 -1 0
vn 0 -1 0
vn 0 -1 0
vn 0 -1 0
vn 0 -1 0
vn -0.7071067811865476 -0.7071067811865476 0
vn -0.7071067811865476 -0.7071067811865476 0
vn -0.7071067811865476 -0.7071067811865476 0
vn -0.7071067811865476 -0.7071067811865476 0
vn -1 0 0
vn -1 0 0
vn -1 0 0
vn -1 0 0
vn -1 0 0
vn -1 0 0
vn -1 0 0
vn -1 0 0
vn -0.7071067811865476 0.7071067811865476 0
vn -0.7071067811865476 0.7071067811865476 0
vn -0.7071067811865476 0.7071067811865476 0
vn -0.7071067811865476 0.7071067811865476 0
vn 0 1 0
vn 0 1 0
vn 0 1 0
vn 0 1 0
vn 0.7071067811865476 0.7071067811865476 0
vn 0.7071067811865476 0.7071067811865476 0
vn 0.7071067811865476 0.7071067811865476 0
vn 0.7071067811865476 0.7071067811865476 0
vn 1 0 0
vn 1 0 0
vn 1 0 0
vn 1 0 0
vn 1 0 0
vn 1 0 0
vn 1 0 0
vn 1 0 0
vn 0.7071067811865476 -0.7071067811865476 0
vn 0.7071067811865476 -0.7071067811865476 0
vn 0.7071067811865476 -0.7071067811865476 0
vn 0.7071067811865476 -0.7071067811865476 0
vn 0 -1 0
vn 0 -1 0
vn 0 -1 0
vn 0 -1 0
vn 0 0 1
vn 0 0 1
vn 0 0 1
vn 0 0 1
vn 0 0 1
vn 0 0 1
vn 0 0 1
vn 0 0 1
vn 0 0 1
vn 0 0 1
vn 0 0 1
vn 0 0 1
vn 0 0 1
vn 0 0 1
vn 0 0 1
vn 0 0 1
vn 0 0 1
vn 0 0 1
f 2/2/2 8/8/8 1/1/1
f 6/6/6 4/4/4 5/5/5
f 2/2/2 7/7/7 8/8/8
f 6/6/6 3/3/3 4/4/4
f 3/3/3 7/7/7 2/2/2
f 7/7/7 3/3/3 6/6/6
f 10/10/10 12/12/12 9/9/9
f 12/12/12 10/10/10 11/11/11
f 20/20/20 13/13/13 14/14/14
f 16/16/16 17/17/17 18/18/18
f 20/20/20 14/14/14 15/15/15
f 16/16/16 18/18/18 19/19/19
f 19/19/19 20/20/20 15/15/15
f 15/15/15 16/16/16 19/19/19
f 29/29/29 30/30/30 21/21/21
f 21/21/21 22/22/22 23/23/23
f 23/23/23 24/24/24 25/25/25
f 28/28/28 29/29/29 21/21/21
f 23/23/23 25/25/25 26/26/26
f 28/28/28 21/21/21 23/23/23
f 23/23/23 26/26/26 27/27/27
f 27/27/27 28/28/28 23/23/23
f 43/43/43 44/44/44 31/31/31
f 31/31/31 32/32/32 33/33/33
f 35/35/35 36/36/36 37/37/37
f 37/37/37 38/38/38 39/39/39
f 42/42/42 43/43/43 31/31/31
f 31/31/31 33/33/33 34/34/34
f 37/37/37 39/39/39 40/40/40
f 42/42/42 31/31/31 34/34/34
f 35/35/35 37/37/37 40/40/40
f 41/41/41 42/42/42 34/34/34
f 34/34/34 35/35/35 40/40/40
f 40/40/40 41/41/41 34/34/34
f 52/52/52 45/45/45 46/46/46
f 48/48/48 49/49/49 50/50/50
f 52/52/52 46/46/46 47/47/47
f 48/48/48 50/50/50 51/51/51
f 51/51/51 52/52/52 47/47/47
f 47/47/47 48/48/48 51/51/51
f 54/54/54 56/56/56 53/53/53
f 56/56/56 54/54/54 55/55/55
f 59/59/59 60/60/60 57/57/57
f 57/57/57 58/58/58 59/59/59
f 63/63/63 64/64/64 61/61/61
f 61/61/61 62/62/62 63/63/63
f 66/66/66 68/68/68 65/65/65
f 68/68/68 66/66/66 67/67/67
f 71/71/71 72/72/72 69/69/69
f 69/69/69 70/70/70 71/71/71
f 75/75/75 76/76/76 73/73/73
f 73/73/73 74/74/74 75/75/75
f 79/79/79 80/80/80 77/77/77
f 77/77/77 78/78/78 79/79/79
f 83/83/83 84/84/84 81/81/81
f 81/81/81 82/82/82 83/83/83
f 86/86/86 79/79/79 78/78/78
f 78/78/78 85/85/85 86/86/86
f 82/82/82 86/86/86 85/85/85
f 85/85/85 83/83/83 82/82/82
f 84/84/84 75/75/75 74/74/74
f 74/74/74 81/81/81 84/84/84
f 88/88/88 90/90/90 87/87/87
f 90/90/90 88/88/88 89/89/89
f 92/92/92 94/94/94 91/91/91
f 94/94/94 92/92/92 93/93/93
f 97/97/97 98/98/98 95/95/95
f 95/95/95 96/96/96 97/97/97
f 101/101/101 102/102/102 99/99/99
f 99/99/99 100/100/100 101/101/101
f 105/105/105 106/106/106 103/103/103
f 103/103/103 104/104/104 105/105/105
f 108/108/108 110/110/110 107/107/107
f 110/110/110 108/108/108 109/109/109
f 112/112/112 114/114/114 111/111/111
f 114/114/114 112/112/112 113/113/113
f 116/116/116 118/118/118 115/115/115
f 118/118/118 116/116/116 117/117/117
f 120/120/120 122/122/122 119/119/119
f 122/122/122 120/120/120 121/121/121
f 124/124/124 126/126/126 123/123/123
f 126/126/126 124/124/124 125/125/125
f 129/129/129 130/130/130 127/127/127
f 127/127/127 128/128/128 129/129/129
f 133/133/133 134/134/134 131/131/131
f 131/131/131 132/132/132 133/133/133
f 137/137/137 138/138/138 135/135/135
f 135/135/135 136/136/136 137/137/137
f 141/141/141 142/142/142 139/139/139
f 139/139/139 140/140/140 141/141/141
f 150/150/150 151/151/151 143/143/143
f 143/143/143 144/144/144 145/145/145
f 145/145/145 146/146/146 147/147/147
f 147/147/147 148/148/148 149/149/149
f 150/150/150 143/143/143 145/145/145
f 145/145/145 147/147/147 149/149/149
f 149/149/149 150/150/150 145/145/145
f 159/159/159 160/160/160 152/152/152
f 152/152/152 153/153/153 154/154/154
f 154/154/154 155/155/155 156/156/156
f 156/156/156 157/157/157 158/158/158
f 159/159/159 152/152/152 154/154/154
f 154/154/154 156/156/156 158/158/158
f 158/158/158 159/159/159 154/154/154
o Triangle_Connecter
usemtl Ground
v 2 0.5112929940223694 -1.9887069463729858
v -2 0.5112929940223694 -1.9887069463729858
v -2 0.5112929940223694 -1.7951710224151611
v 2 0.5112929940223694 -1.7951710224151611
v -2 0.011292999610304832 -1.9887069463729858
v -2 0.5112929940223694 -1.9887069463729858
v 2 0.5112929940223694 -1.9887069463729858
v 2 0.011292999610304832 -1.9887069463729858
v -2 0.011292999610304832 -1.4887069463729858
v -2 0.20482900738716125 -1.4887069463729858
v -2 0.5112929940223694 -1.7951710224151611
v -2 0.5112929940223694 -1.9887069463729858
v -2 0.011292999610304832 -1.9887069463729858
v -2 0.011292999610304832 -1.9887069463729858
v 2 0.011292999610304832 -1.9887069463729858
v 2 0.011292999610304832 -1.4887069463729858
v -2 0.011292999610304832 -1.4887069463729858
v 2 0.011292999610304832 -1.9887069463729858
v 2 0.5112929940223694 -1.9887069463729858
v 2 0.5112929940223694 -1.7951710224151611
v 2 0.20482900738716125 -1.4887069463729858
v 2 0.011292999610304832 -1.4887069463729858
v 2 0.5112929940223694 -1.7951710224151611
v -2 0.5112929940223694 -1.7951710224151611
v -2 0.20482900738716125 -1.4887069463729858
v 2 0.20482900738716125 -1.4887069463729858
v 2 0.011292999610304832 -1.4887069463729858
v 2 0.20482900738716125 -1.4887069463729858
v -2 0.20482900738716125 -1.4887069463729858
v -2 0.011292999610304832 -1.4887069463729858
vt 0.625 0.5
vt 0.875 0.5
vt 0.875 0.5967679917812347
vt 0.625 0.5967679917812347
vt 0.375 0.25
vt 0.625 0.25
vt 0.625 0.5
vt 0.375 0.5
vt 0.375 0
vt 0.47176799178123474 0
vt 0.625 0.15323197841644287
vt 0.625 0.25
vt 0.375 0.25
vt 0.125 0.5
vt 0.375 0.5
vt 0.375 0.75
vt 0.125 0.75
vt 0.375 0.5
vt 0.625 0.5
vt 0.625 0.5967679917812347
vt 0.47176799178123474 0.75
vt 0.375 0.75
vt 0.625 0.75
vt 0.625 1
vt 0.47176799178123474 1
vt 0.47176799178123474 0.75
vt 0.375 0.75
vt 0.47176799178123474 0.75
vt 0.47176799178123474 1
vt 0.375 1
vn 0 1 0
vn 0 1 0
vn 0 1 0
vn 0 1 0
vn 0 0 -1
vn 0 0 -1
vn 0 0 -1
vn 0 0 -1
vn -1 0 0
vn -1 0 0
vn -1 0 0
vn -1 0 0
vn -1 0 0
vn 0 -1 0
vn 0 -1 0
vn 0 -1 0
vn 0 -1 0
vn 1 0 0
vn 1 0 0
vn 1 0 0
vn 1 0 0
vn 1 0 0
vn 0 0.7071067811865476 0.7071067811865476
vn 0 0.7071067811865476 0.7071067811865476
vn 0 0.7071067811865476 0.7071067811865476
vn 0 0.7071067811865476 0.7071067811865476
vn 0 0 1
vn 0 0 1
vn 0 0 1
vn 0 0 1
f 162/162/162 164/164/164 161/161/161
f 164/164/164 162/162/162 163/163/163
f 166/166/166 168/168/168 165/165/165
f 168/168/168 166/166/166 167/167/167
f 170/170/170 173/173/173 169/169/169
f 173/173/173 171/171/171 172/172/172
f 171/171/171 173/173/173 170/170/170
f 176/176/176 177/177/177 174/174/174
f 174/174/174 175/175/175 176/176/176
f 181/181/181 182/182/182 178/178/178
f 178/178/178 179/179/179 180/180/180
f 180/180/180 181/181/181 178/178/178
f 184/184/184 186/186/186 183/183/183
f 186/186/186 184/184/184 185/185/185
f 189/189/189 190/190/190 187/187/187
f 187/187/187 188/188/188 189/189/189
o Wall_Panel
usemtl Ground2
v -2 5 -1.899999976158142
v -2 6 -1.899999976158142
v -2 6 -1.9500000476837158
v -2 5 -1.9500000476837158
v -2 5 -1.9500000476837158
v -2 6 -1.9500000476837158
v 2 6 -1.9500000476837158
v 2 5 -1.9500000476837158
v 2 5 -1.9500000476837158
v 2 6 -1.9500000476837158
v 2 6 -1.899999976158142
v 2 5 -1.899999976158142
v 2 5 -1.899999976158142
v 2 6 -1.899999976158142
v -2 6 -1.899999976158142
v -2 5 -1.899999976158142
v -2 5 -1.9500000476837158
v 2 5 -1.9500000476837158
v 2 5 -1.899999976158142
v -2 5 -1.899999976158142
v 2 6 -1.9500000476837158
v -2 6 -1.9500000476837158
v -2 6 -1.899999976158142
v 2 6 -1.899999976158142
vt 0.375 0
vt 0.625 0
vt 0.625 0.25
vt 0.375 0.25
vt 0.375 0.25
vt 0.625 0.25
vt 0.625 0.5
vt 0.375 0.5
vt 0.375 0.5
vt 0.625 0.5
vt 0.625 0.75
vt 0.375 0.75
vt 0.375 0.75
vt 0.625 0.75
vt 0.625 1
vt 0.375 1
vt 0.125 0.5
vt 0.375 0.5
vt 0.375 0.75
vt 0.125 0.75
vt 0.625 0.5
vt 0.875 0.5
vt 0.875 0.75
vt 0.625 0.75
vn -1 0 0
vn -1 0 0
vn -1 0 0
vn -1 0 0
vn 0 0 -1
vn 0 0 -1
vn 0 0 -1
vn 0 0 -1
vn 1 0 0
vn 1 0 0
vn 1 0 0
vn 1 0 0
vn 0 0 1
vn 0 0 1
vn 0 0 1
vn 0 0 1
vn 0 -1 0
vn 0 -1 0
vn 0 -1 0
vn 0 -1 0
vn 0 1 0
vn 0 1 0
vn 0 1 0
vn 0 1 0
f 192/192/192 194/194/194 191/191/191
f 194/194/194 192/192/192 193/193/193
f 196/196/196 198/198/198 195/195/195
f 198/198/198 196/196/196 197/197/197
f 201/201/201 202/202/202 199/199/199
f 199/199/199 200/200/200 201/201/201
f 205/205/205 206/206/206 203/203/203
f 203/203/203 204/204/204 205/205/205
f 209/209/209 210/210/210 207/207/207
f 207/207/207 208/208/208 209/209/209
f 212/212/212 214/214/214 211/211/211
f 214/214/214 212/212/212 213/213/213
