mtllib HealthCrate.mtl
o Cube
usemtl Crate_Grey
v 0.5177109837532043 -0.5177109837532043 0.8999999761581421
v 0.5177109837532043 0.5177109837532043 0.8999999761581421
v -0.5177109837532043 0.5177109837532043 0.8999999761581421
v -0.5177109837532043 -0.5177109837532043 0.8999999761581421
v 0.6000000238418579 -0.5177109837532043 -0.7765660285949707
v 0.6000000238418579 0.5177109837532043 -0.7765660285949707
v 0.6000000238418579 0.5177109837532043 0.7765660285949707
v 0.6000000238418579 -0.5177109837532043 0.7765660285949707
v 0.5177109837532043 0.6000000238418579 -0.7765660285949707
v -0.5177109837532043 0.6000000238418579 -0.7765660285949707
v -0.5177109837532043 0.6000000238418579 0.7765660285949707
v 0.5177109837532043 0.6000000238418579 0.7765660285949707
v -0.6000000238418579 -0.5177109837532043 0.7765660285949707
v -0.6000000238418579 0.5177109837532043 0.7765660285949707
v -0.6000000238418579 0.5177109837532043 -0.7765660285949707
v -0.6000000238418579 -0.5177109837532043 -0.7765660285949707
v -0.5177109837532043 -0.5177109837532043 -0.8999999761581421
v -0.5177109837532043 0.5177109837532043 -0.8999999761581421
v 0.5177109837532043 0.5177109837532043 -0.8999999761581421
v 0.5177109837532043 -0.5177109837532043 -0.8999999761581421
v -0.5177109837532043 -0.6000000238418579 0.7765660285949707
v -0.5177109837532043 -0.5177109837532043 0.8999999761581421
v -0.6000000238418579 -0.5177109837532043 0.7765660285949707
v -0.5177109837532043 0.5177109837532043 0.8999999761581421
v -0.5177109837532043 0.6000000238418579 0.7765660285949707
v -0.6000000238418579 0.5177109837532043 0.7765660285949707
v -0.5177109837532043 -0.6000000238418579 -0.7765660285949707
v -0.6000000238418579 -0.5177109837532043 -0.7765660285949707
v -0.5177109837532043 -0.5177109837532043 -0.8999999761581421
v -0.5177109837532043 0.6000000238418579 -0.7765660285949707
v -0.5177109837532043 0.5177109837532043 -0.8999999761581421
v -0.6000000238418579 0.5177109837532043 -0.7765660285949707
v 0.5177109837532043 -0.6000000238418579 0.7765660285949707
v 0.6000000238418579 -0.5177109837532043 0.7765660285949707
v 0.5177109837532043 -0.5177109837532043 0.8999999761581421
v 0.5177109837532043 0.6000000238418579 0.7765660285949707
v 0.5177109837532043 0.5177109837532043 0.8999999761581421
v 0.6000000238418579 0.5177109837532043 0.7765660285949707
v 0.5177109837532043 -0.6000000238418579 -0.7765660285949707
v 0.5177109837532043 -0.5177109837532043 -0.8999999761581421
v 0.6000000238418579 -0.5177109837532043 -0.7765660285949707
v 0.5177109837532043 0.6000000238418579 -0.7765660285949707
v 0.6000000238418579 0.5177109837532043 -0.7765660285949707
v 0.5177109837532043 0.5177109837532043 -0.8999999761581421
v -0.5177109837532043 -0.6000000238418579 -0.7765660285949707
v -0.5177109837532043 -0.6000000238418579 0.7765660285949707
v -0.6000000238418579 -0.5177109837532043 0.7765660285949707
v -0.6000000238418579 -0.5177109837532043 -0.7765660285949707
v -0.5177109837532043 -0.5177109837532043 0.8999999761581421
v -0.5177109837532043 0.5177109837532043 0.8999999761581421
v -0.6000000238418579 0.5177109837532043 0.7765660285949707
v -0.6000000238418579 -0.5177109837532043 0.7765660285949707
v -0.5177109837532043 0.6000000238418579 0.7765660285949707
v -0.5177109837532043 0.6000000238418579 -0.7765660285949707
v -0.6000000238418579 0.5177109837532043 -0.7765660285949707
v -0.6000000238418579 0.5177109837532043 0.7765660285949707
v -0.5177109837532043 0.5177109837532043 -0.8999999761581421
v -0.5177109837532043 -0.5177109837532043 -0.8999999761581421
v -0.6000000238418579 -0.5177109837532043 -0.7765660285949707
v -0.6000000238418579 0.5177109837532043 -0.7765660285949707
v 0.5177109837532043 -0.6000000238418579 -0.7765660285949707
v -0.5177109837532043 -0.6000000238418579 -0.7765660285949707
v -0.5177109837532043 -0.5177109837532043 -0.8999999761581421
v 0.5177109837532043 -0.5177109837532043 -0.8999999761581421
v -0.5177109837532043 0.6000000238418579 -0.7765660285949707
v 0.5177109837532043 0.6000000238418579 -0.7765660285949707
v 0.5177109837532043 0.5177109837532043 -0.8999999761581421
v -0.5177109837532043 0.5177109837532043 -0.8999999761581421
v 0.6000000238418579 0.5177109837532043 -0.7765660285949707
v 0.6000000238418579 -0.5177109837532043 -0.7765660285949707
v 0.5177109837532043 -0.5177109837532043 -0.8999999761581421
v 0.5177109837532043 0.5177109837532043 -0.8999999761581421
v 0.5177109837532043 -0.6000000238418579 0.7765660285949707
v 0.5177109837532043 -0.6000000238418579 -0.7765660285949707
v 0.6000000238418579 -0.5177109837532043 -0.7765660285949707
v 0.6000000238418579 -0.5177109837532043 0.7765660285949707
v 0.5177109837532043 0.6000000238418579 -0.7765660285949707
v 0.5177109837532043 0.6000000238418579 0.7765660285949707
v 0.6000000238418579 0.5177109837532043 0.7765660285949707
v 0.6000000238418579 0.5177109837532043 -0.7765660285949707
v 0.5177109837532043 0.5177109837532043 0.8999999761581421
v 0.5177109837532043 -0.5177109837532043 0.8999999761581421
v 0.6000000238418579 -0.5177109837532043 0.7765660285949707
v 0.6000000238418579 0.5177109837532043 0.7765660285949707
v -0.5177109837532043 -0.6000000238418579 0.7765660285949707
v 0.5177109837532043 -0.6000000238418579 0.7765660285949707
v 0.5177109837532043 -0.5177109837532043 0.8999999761581421
v -0.5177109837532043 -0.5177109837532043 0.8999999761581421
v 0.5177109837532043 0.6000000238418579 0.7765660285949707
v -0.5177109837532043 0.6000000238418579 0.7765660285949707
v -0.5177109837532043 0.5177109837532043 0.8999999761581421
v 0.5177109837532043 0.5177109837532043 0.8999999761581421
v -0.5177109837532043 -0.6000000238418579 -0.7765660285949707
v 0.5177109837532043 -0.6000000238418579 -0.7765660285949707
v 0.5177109837532043 -0.6000000238418579 0.7765660285949707
v -0.5177109837532043 -0.6000000238418579 0.7765660285949707
vt 0.39214399456977844 0.7671439945697784
vt 0.6078559756278992 0.7671439945697784
vt 0.6078559756278992 0.9828559998422861
vt 0.39214399456977844 0.9828570000827312
vt 0.39214399456977844 0.5171439945697784
vt 0.6078559756278992 0.5171439945697784
vt 0.6078559756278992 0.7328560054302216
vt 0.39214399456977844 0.7328569889068604
vt 0.6421440243721008 0.5171439945697784
vt 0.8578559756278992 0.5171439945697784
vt 0.8578559756278992 0.7328560054302216
vt 0.6421440243721008 0.7328569889068604
vt 0.39214399456977844 0.01714402437210083
vt 0.6078559756278992 0.01714402437210083
vt 0.6078559756278992 0.23285597562789917
vt 0.39214399456977844 0.23285597562789917
vt 0.39214399456977844 0.26714402437210083
vt 0.6078559756278992 0.26714402437210083
vt 0.6078559756278992 0.48285597562789917
vt 0.39214399456977844 0.48285597562789917
vt 0.14214399456977844 0.7328569889068604
vt 0.14214399456977844 0.75
vt 0.125 0.7328560054302216
vt 0.6078559756278992 0
vt 0.625 0.01714402437210083
vt 0.6078559756278992 0.01714402437210083
vt 0.14214399456977844 0.5171439945697784
vt 0.125 0.5171439945697784
vt 0.14214399456977844 0.5
vt 0.625 0.23285597562789917
vt 0.6078559756278992 0.25
vt 0.6078559756278992 0.23285597562789917
vt 0.35785600543022156 0.7328560054302216
vt 0.375 0.7328560054302216
vt 0.35785600543022156 0.75
vt 0.625 0.7671439945697784
vt 0.6078559756278992 0.7671439945697784
vt 0.6078559756278992 0.75
vt 0.35785600543022156 0.5171439945697784
vt 0.35785600543022156 0.5
vt 0.375 0.5171439945697784
vt 0.625 0.48285597562789917
vt 0.6078559756278992 0.5
vt 0.6078559756278992 0.48285597562789917
vt 0.14214399456977844 0.5171439945697784
vt 0.14214399456977844 0.7328569889068604
vt 0.125 0.7328560054302216
vt 0.125 0.5171439945697784
vt 0.39214399456977844 0
vt 0.6078559756278992 0
vt 0.6078559756278992 0.01714402437210083
vt 0.39214399456977844 0.01714402437210083
vt 0.625 0.01714402437210083
vt 0.625 0.23285597562789917
vt 0.6078559756278992 0.23285597562789917
vt 0.6078559756278992 0.01714402437210083
vt 0.6078559756278992 0.26714402437210083
vt 0.39214399456977844 0.26714402437210083
vt 0.39214399456977844 0.23285597562789917
vt 0.6078559756278992 0.23285597562789917
vt 0.35785600543022156 0.5171439945697784
vt 0.14214399456977844 0.5171439945697784
vt 0.14214399456977844 0.5
vt 0.35785600543022156 0.5
vt 0.625 0.26714402437210083
vt 0.625 0.48285597562789917
vt 0.6078559756278992 0.48285597562789917
vt 0.6078559756278992 0.26714402437210083
vt 0.6078559756278992 0.5171439945697784
vt 0.39214399456977844 0.5171439945697784
vt 0.39214399456977844 0.48285597562789917
vt 0.6078559756278992 0.48285597562789917
vt 0.35785600543022156 0.7328560054302216
vt 0.35785600543022156 0.5171439945697784
vt 0.39214399456977844 0.5171439945697784
vt 0.39214399456977844 0.7328569889068604
vt 0.6421440243721008 0.5171439945697784
vt 0.6421440243721008 0.7328569889068604
vt 0.6078559756278992 0.7328560054302216
vt 0.6078559756278992 0.5171439945697784
vt 0.6078559756278992 0.7671439945697784
vt 0.39214399456977844 0.7671439945697784
vt 0.39214399456977844 0.7328569889068604
vt 0.6078559756278992 0.7328560054302216
vt 0.14214399456977844 0.7328569889068604
vt 0.35785600543022156 0.7328560054302216
vt 0.35785600543022156 0.75
vt 0.14214399456977844 0.75
vt 0.625 0.7671439945697784
vt 0.625 0.9828559998422861
vt 0.6078559756278992 0.9828559998422861
vt 0.6078559756278992 0.7671439945697784
vt 0.14214399456977844 0.5171439945697784
vt 0.35785600543022156 0.5171439945697784
vt 0.35785600543022156 0.7328560054302216
vt 0.14214399456977844 0.7328569889068604
vn 0 0 1
vn 0 0 1
vn 0 0 1
vn 0 0 1
vn 1 0 0
vn 1 0 0
vn 1 0 0
vn 1 0 0
vn 0 1 0
vn 0 1 0
vn 0 1 0
vn 0 1 0
vn -1 0 0
vn -1 0 0
vn -1 0 0
vn -1 0 0
vn 0 0 -1
vn 0 0 -1
vn 0 0 -1
vn 0 0 -1
vn -0.639602143648227 -0.639602143648227 0.4264014489670335
vn -0.639602143648227 -0.639602143648227 0.4264014489670335
vn -0.639602143648227 -0.639602143648227 0.4264014489670335
vn -0.639602143648227 0.639602143648227 0.4264014489670335
vn -0.639602143648227 0.639602143648227 0.4264014489670335
vn -0.639602143648227 0.639602143648227 0.4264014489670335
vn -0.639602143648227 -0.639602143648227 -0.4264014489670335
vn -0.639602143648227 -0.639602143648227 -0.4264014489670335
vn -0.639602143648227 -0.639602143648227 -0.4264014489670335
vn -0.639602143648227 0.639602143648227 -0.4264014489670335
vn -0.639602143648227 0.639602143648227 -0.4264014489670335
vn -0.639602143648227 0.639602143648227 -0.4264014489670335
vn 0.639602143648227 -0.639602143648227 0.4264014489670335
vn 0.639602143648227 -0.639602143648227 0.4264014489670335
vn 0.639602143648227 -0.639602143648227 0.4264014489670335
vn 0.639602143648227 0.639602143648227 0.4264014489670335
vn 0.639602143648227 0.639602143648227 0.4264014489670335
vn 0.639602143648227 0.639602143648227 0.4264014489670335
vn 0.639602143648227 -0.639602143648227 -0.4264014489670335
vn 0.639602143648227 -0.639602143648227 -0.4264014489670335
vn 0.639602143648227 -0.639602143648227 -0.4264014489670335
vn 0.639602143648227 0.639602143648227 -0.4264014489670335
vn 0.639602143648227 0.639602143648227 -0.4264014489670335
vn 0.639602143648227 0.639602143648227 -0.4264014489670335
vn -0.7071067811865476 -0.7071067811865476 0
vn -0.7071067811865476 -0.7071067811865476 0
vn -0.7071067811865476 -0.7071067811865476 0
vn -0.7071067811865476 -0.7071067811865476 0
vn -0.8320656811856401 0 0.554677115259929
vn -0.8320656811856401 0 0.554677115259929
vn -0.8320656811856401 0 0.554677115259929
vn -0.8320656811856401 0 0.554677115259929
vn -0.7071067811865476 0.7071067811865476 0
vn -0.7071067811865476 0.7071067811865476 0
vn -0.7071067811865476 0.7071067811865476 0
vn -0.7071067811865476 0.7071067811865476 0
vn -0.8320656811856401 0 -0.554677115259929
vn -0.8320656811856401 0 -0.554677115259929
vn -0.8320656811856401 0 -0.554677115259929
vn -0.8320656811856401 0 -0.554677115259929
vn 0 -0.8320656811856401 -0.554677115259929
vn 0 -0.8320656811856401 -0.554677115259929
vn 0 -0.8320656811856401 -0.554677115259929
vn 0 -0.8320656811856401 -0.554677115259929
vn 0 0.8320656811856401 -0.554677115259929
vn 0 0.8320656811856401 -0.554677115259929
vn 0 0.8320656811856401 -0.554677115259929
vn 0 0.8320656811856401 -0.554677115259929
vn 0.8320656811856401 0 -0.554677115259929
vn 0.8320656811856401 0 -0.554677115259929
vn 0.8320656811856401 0 -0.554677115259929
vn 0.8320656811856401 0 -0.554677115259929
vn 0.7071067811865476 -0.7071067811865476 0
vn 0.7071067811865476 -0.7071067811865476 0
vn 0.7071067811865476 -0.7071067811865476 0
vn 0.7071067811865476 -0.7071067811865476 0
vn 0.7071067811865476 0.7071067811865476 0
vn 0.7071067811865476 0.7071067811865476 0
vn 0.7071067811865476 0.7071067811865476 0
vn 0.7071067811865476 0.7071067811865476 0
vn 0.8320656811856401 0 0.554677115259929
vn 0.8320656811856401 0 0.554677115259929
vn 0.8320656811856401 0 0.554677115259929
vn 0.8320656811856401 0 0.554677115259929
vn 0 -0.8320656811856401 0.554677115259929
vn 0 -0.8320656811856401 0.554677115259929
vn 0 -0.8320656811856401 0.554677115259929
vn 0 -0.8320656811856401 0.554677115259929
vn 0 0.8320656811856401 0.554677115259929
vn 0 0.8320656811856401 0.554677115259929
vn 0 0.8320656811856401 0.554677115259929
vn 0 0.8320656811856401 0.554677115259929
vn 0 -1 0
vn 0 -1 0
vn 0 -1 0
vn 0 -1 0
f 3/3/3 4/4/4 1/1/1
f 1/1/1 2/2/2 3/3/3
f 7/7/7 8/8/8 5/5/5
f 5/5/5 6/6/6 7/7/7
f 10/10/10 12/12/12 9/9/9
f 12/12/12 10/10/10 11/11/11
f 14/14/14 16/16/16 13/13/13
f 16/16/16 14/14/14 15/15/15
f 18/18/18 20/20/20 17/17/17
f 20/20/20 18/18/18 19/19/19
f 21/21/21 22/22/22 23/23/23
f 24/24/24 25/25/25 26/26/26
f 27/27/27 28/28/28 29/29/29
f 30/30/30 31/31/31 32/32/32
f 33/33/33 34/34/34 35/35/35
f 36/36/36 37/37/37 38/38/38
f 39/39/39 40/40/40 41/41/41
f 42/42/42 43/43/43 44/44/44
f 47/47/47 48/48/48 45/45/45
f 45/45/45 46/46/46 47/47/47
f 50/50/50 52/52/52 49/49/49
f 52/52/52 50/50/50 51/51/51
f 54/54/54 56/56/56 53/53/53
f 56/56/56 54/54/54 55/55/55
f 58/58/58 60/60/60 57/57/57
f 60/60/60 58/58/58 59/59/59
f 63/63/63 64/64/64 61/61/61
f 61/61/61 62/62/62 63/63/63
f 66/66/66 68/68/68 65/65/65
f 68/68/68 66/66/66 67/67/67
f 71/71/71 72/72/72 69/69/69
f 69/69/69 70/70/70 71/71/71
f 75/75/75 76/76/76 73/73/73
f 73/73/73 74/74/74 75/75/75
f 78/78/78 80/80/80 77/77/77
f 80/80/80 78/78/78 79/79/79
f 83/83/83 84/84/84 81/81/81
f 81/81/81 82/82/82 83/83/83
f 87/87/87 88/88/88 85/85/85
f 85/85/85 86/86/86 87/87/87
f 90/90/90 92/92/92 89/89/89
f 92/92/92 90/90/90 91/91/91
f 95/95/95 96/96/96 93/93/93
f 93/93/93 94/94/94 95/95/95
o Health
usemtl Health_Green
v 0.5199999809265137 -0.10000000149011612 0.30000001192092896
v 0.5199999809265137 0.10000000149011612 0.30000001192092896
v 0.5199999809265137 0.10000000149011612 -0.30000001192092896
v 0.5199999809265137 -0.10000000149011612 -0.30000001192092896
v 0.5199999809265137 -0.10000000149011612 -0.30000001192092896
v 0.5199999809265137 0.10000000149011612 -0.30000001192092896
v 0.6200000047683716 0.10000000149011612 -0.30000001192092896
v 0.6200000047683716 -0.10000000149011612 -0.30000001192092896
v 0.6200000047683716 -0.10000000149011612 -0.30000001192092896
v 0.6200000047683716 0.10000000149011612 -0.30000001192092896
v 0.6200000047683716 0.10000000149011612 0.30000001192092896
v 0.6200000047683716 -0.10000000149011612 0.30000001192092896
v 0.6200000047683716 -0.10000000149011612 0.30000001192092896
v 0.6200000047683716 0.10000000149011612 0.30000001192092896
v 0.5199999809265137 0.10000000149011612 0.30000001192092896
v 0.5199999809265137 -0.10000000149011612 0.30000001192092896
v 0.5199999809265137 -0.10000000149011612 -0.30000001192092896
v 0.6200000047683716 -0.10000000149011612 -0.30000001192092896
v 0.6200000047683716 -0.10000000149011612 0.30000001192092896
v 0.5199999809265137 -0.10000000149011612 0.30000001192092896
v 0.6200000047683716 0.10000000149011612 -0.30000001192092896
v 0.5199999809265137 0.10000000149011612 -0.30000001192092896
v 0.5199999809265137 0.10000000149011612 0.30000001192092896
v 0.6200000047683716 0.10000000149011612 0.30000001192092896
v 0.5199999809265137 -0.30000001192092896 -0.10000000149011612
v 0.5199999809265137 -0.30000001192092896 0.10000000149011612
v 0.5199999809265137 0.30000001192092896 0.10000000149011612
v 0.5199999809265137 0.30000001192092896 -0.10000000149011612
v 0.5199999809265137 0.30000001192092896 -0.10000000149011612
v 0.5199999809265137 0.30000001192092896 0.10000000149011612
v 0.6200000047683716 0.30000001192092896 0.10000000149011612
v 0.6200000047683716 0.30000001192092896 -0.10000000149011612
v 0.6200000047683716 0.30000001192092896 -0.10000000149011612
v 0.6200000047683716 0.30000001192092896 0.10000000149011612
v 0.6200000047683716 -0.30000001192092896 0.10000000149011612
v 0.6200000047683716 -0.30000001192092896 -0.10000000149011612
v 0.6200000047683716 -0.30000001192092896 -0.10000000149011612
v 0.6200000047683716 -0.30000001192092896 0.10000000149011612
v 0.5199999809265137 -0.30000001192092896 0.10000000149011612
v 0.5199999809265137 -0.30000001192092896 -0.10000000149011612
v 0.5199999809265137 0.30000001192092896 -0.10000000149011612
v 0.6200000047683716 0.30000001192092896 -0.10000000149011612
v 0.6200000047683716 -0.30000001192092896 -0.10000000149011612
v 0.5199999809265137 -0.30000001192092896 -0.10000000149011612
v 0.6200000047683716 0.30000001192092896 0.10000000149011612
v 0.5199999809265137 0.30000001192092896 0.10000000149011612
v 0.5199999809265137 -0.30000001192092896 0.10000000149011612
v 0.6200000047683716 -0.30000001192092896 0.10000000149011612
vt 0.375 0
vt 0.625 0
vt 0.625 0.25
vt 0.375 0.25
vt 0.375 0.25
vt 0.625 0.25
vt 0.625 0.5
vt 0.375 0.5
vt 0.375 0.5
vt 0.625 0.5
vt 0.625 0.75
vt 0.375 0.75
vt 0.375 0.75
vt 0.625 0.75
vt 0.625 1
vt 0.375 1
vt 0.125 0.5
vt 0.375 0.5
vt 0.375 0.75
vt 0.125 0.75
vt 0.625 0.5
vt 0.875 0.5
vt 0.875 0.75
vt 0.625 0.75
vt 0.375 0
vt 0.625 0
vt 0.625 0.25
vt 0.375 0.25
vt 0.375 0.25
vt 0.625 0.25
vt 0.625 0.5
vt 0.375 0.5
vt 0.375 0.5
vt 0.625 0.5
vt 0.625 0.75
vt 0.375 0.75
vt 0.375 0.75
vt 0.625 0.75
vt 0.625 1
vt 0.375 1
vt 0.125 0.5
vt 0.375 0.5
vt 0.375 0.75
vt 0.125 0.75
vt 0.625 0.5
vt 0.875 0.5
vt 0.875 0.75
vt 0.625 0.75
vn -1 0 0
vn -1 0 0
vn -1 0 0
vn -1 0 0
vn 0 0 -1
vn 0 0 -1
vn 0 0 -1
vn 0 0 -1
vn 1 0 0
vn 1 0 0
vn 1 0 0
vn 1 0 0
vn 0 0 1
vn 0 0 1
vn 0 0 1
vn 0 0 1
vn 0 -1 0
vn 0 -1 0
vn 0 -1 0
vn 0 -1 0
vn 0 1 0
vn 0 1 0
vn 0 1 0
vn 0 1 0
vn -1 0 0
vn -1 0 0
vn -1 0 0
vn -1 0 0
vn 0 1 0
vn 0 1 0
vn 0 1 0
vn 0 1 0
vn 1 0 0
vn 1 0 0
vn 1 0 0
vn 1 0 0
vn 0 -1 0
vn 0 -1 0
vn 0 -1 0
vn 0 -1 0
vn 0 0 -1
vn 0 0 -1
vn 0 0 -1
vn 0 0 -1
vn 0 0 1
vn 0 0 1
vn 0 0 1
vn 0 0 1
f 98/98/98 100/100/100 97/97/97
f 100/100/100 98/98/98 99/99/99
f 102/102/102 104/104/104 101/101/101
f 104/104/104 102/102/102 103/103/103
f 107/107/107 108/108/108 105/105/105
f 105/105/105 106/106/106 107/107/107
f 111/111/111 112/112/112 109/109/109
f 109/109/109 110/110/110 111/111/111
f 115/115/115 116/116/116 113/113/113
f 113/113/113 114/114/114 115/115/115
f 118/118/118 120/120/120 117/117/117
f 120/120/120 118/118/118 119/119/119
f 122/122/122 124/124/124 121/121/121
f 124/124/124 122/122/122 123/123/123
f 126/126/126 128/128/128 125/125/125
f 128/128/128 126/126/126 127/127/127
f 131/131/131 132/132/132 129/129/129
f 129/129/129 130/130/130 131/131/131
f 135/135/135 136/136/136 133/133/133
f 133/133/133 134/134/134 135/135/135
f 138/138/138 140/140/140 137/137/137
f 140/140/140 138/138/138 139/139/139
f 143/143/143 144/144/144 141/141/141
f 141/141/141 142/142/142 143/143/143
o Health001
usemtl Health_Green
v -0.6200000047683716 -0.10000000149011612 0.30000001192092896
v -0.6200000047683716 0.10000000149011612 0.30000001192092896
v -0.6200000047683716 0.10000000149011612 -0.30000001192092896
v -0.6200000047683716 -0.10000000149011612 -0.30000001192092896
v -0.6200000047683716 -0.10000000149011612 -0.30000001192092896
v -0.6200000047683716 0.10000000149011612 -0.30000001192092896
v -0.5199999809265137 0.10000000149011612 -0.30000001192092896
v -0.5199999809265137 -0.10000000149011612 -0.30000001192092896
v -0.5199999809265137 -0.10000000149011612 -0.30000001192092896
v -0.5199999809265137 0.10000000149011612 -0.30000001192092896
v -0.5199999809265137 0.10000000149011612 0.30000001192092896
v -0.5199999809265137 -0.10000000149011612 0.30000001192092896
v -0.5199999809265137 -0.10000000149011612 0.30000001192092896
v -0.5199999809265137 0.10000000149011612 0.30000001192092896
v -0.6200000047683716 0.10000000149011612 0.30000001192092896
v -0.6200000047683716 -0.10000000149011612 0.30000001192092896
v -0.6200000047683716 -0.10000000149011612 -0.30000001192092896
v -0.5199999809265137 -0.10000000149011612 -0.30000001192092896
v -0.5199999809265137 -0.10000000149011612 0.30000001192092896
v -0.6200000047683716 -0.10000000149011612 0.30000001192092896
v -0.5199999809265137 0.10000000149011612 -0.30000001192092896
v -0.6200000047683716 0.10000000149011612 -0.30000001192092896
v -0.6200000047683716 0.10000000149011612 0.30000001192092896
v -0.5199999809265137 0.10000000149011612 0.30000001192092896
v -0.6200000047683716 -0.30000001192092896 -0.10000000149011612
v -0.6200000047683716 -0.30000001192092896 0.10000000149011612
v -0.6200000047683716 0.30000001192092896 0.10000000149011612
v -0.6200000047683716 0.30000001192092896 -0.10000000149011612
v -0.6200000047683716 0.30000001192092896 -0.10000000149011612
v -0.6200000047683716 0.30000001192092896 0.10000000149011612
v -0.5199999809265137 0.30000001192092896 0.10000000149011612
v -0.5199999809265137 0.30000001192092896 -0.10000000149011612
v -0.5199999809265137 0.30000001192092896 -0.10000000149011612
v -0.5199999809265137 0.30000001192092896 0.10000000149011612
v -0.5199999809265137 -0.30000001192092896 0.10000000149011612
v -0.5199999809265137 -0.30000001192092896 -0.10000000149011612
v -0.5199999809265137 -0.30000001192092896 -0.10000000149011612
v -0.5199999809265137 -0.30000001192092896 0.10000000149011612
v -0.6200000047683716 -0.30000001192092896 0.10000000149011612
v -0.6200000047683716 -0.30000001192092896 -0.10000000149011612
v -0.6200000047683716 0.30000001192092896 -0.10000000149011612
v -0.5199999809265137 0.30000001192092896 -0.10000000149011612
v -0.5199999809265137 -0.30000001192092896 -0.10000000149011612
v -0.6200000047683716 -0.30000001192092896 -0.10000000149011612
v -0.5199999809265137 0.30000001192092896 0.10000000149011612
v -0.6200000047683716 0.30000001192092896 0.10000000149011612
v -0.6200000047683716 -0.30000001192092896 0.10000000149011612
v -0.5199999809265137 -0.30000001192092896 0.10000000149011612
vt 0.375 0
vt 0.625 0
vt 0.625 0.25
vt 0.375 0.25
vt 0.375 0.25
vt 0.625 0.25
vt 0.625 0.5
vt 0.375 0.5
vt 0.375 0.5
vt 0.625 0.5
vt 0.625 0.75
vt 0.375 0.75
vt 0.375 0.75
vt 0.625 0.75
vt 0.625 1
vt 0.375 1
vt 0.125 0.5
vt 0.375 0.5
vt 0.375 0.75
vt 0.125 0.75
vt 0.625 0.5
vt 0.875 0.5
vt 0.875 0.75
vt 0.625 0.75
vt 0.375 0
vt 0.625 0
vt 0.625 0.25
vt 0.375 0.25
vt 0.375 0.25
vt 0.625 0.25
vt 0.625 0.5
vt 0.375 0.5
vt 0.375 0.5
vt 0.625 0.5
vt 0.625 0.75
vt 0.375 0.75
vt 0.375 0.75
vt 0.625 0.75
vt 0.625 1
vt 0.375 1
vt 0.125 0.5
vt 0.375 0.5
vt 0.375 0.75
vt 0.125 0.75
vt 0.625 0.5
vt 0.875 0.5
vt 0.875 0.75
vt 0.625 0.75
vn -1 0 0
vn -1 0 0
vn -1 0 0
vn -1 0 0
vn 0 0 -1
vn 0 0 -1
vn 0 0 -1
vn 0 0 -1
vn 1 0 0
vn 1 0 0
vn 1 0 0
vn 1 0 0
vn 0 0 1
vn 0 0 1
vn 0 0 1
vn 0 0 1
vn 0 -1 0
vn 0 -1 0
vn 0 -1 0
vn 0 -1 0
vn 0 1 0
vn 0 1 0
vn 0 1 0
vn 0 1 0
vn -1 0 0
vn -1 0 0
vn -1 0 0
vn -1 0 0
vn 0 1 0
vn 0 1 0
vn 0 1 0
vn 0 1 0
vn 1 0 0
vn 1 0 0
vn 1 0 0
vn 1 0 0
vn 0 -1 0
vn 0 -1 0
vn 0 -1 0
vn 0 -1 0
vn 0 0 -1
vn 0 0 -1
vn 0 0 -1
vn 0 0 -1
vn 0 0 1
vn 0 0 1
vn 0 0 1
vn 0 0 1
f 146/146/146 148/148/148 145/145/145
f 148/148/148 146/146/146 147/147/147
f 150/150/150 152/152/152 149/149/149
f 152/152/152 150/150/150 151/151/151
f 155/155/155 156/156/156 153/153/153
f 153/153/153 154/154/154 155/155/155
f 159/159/159 160/160/160 157/157/157
f 157/157/157 158/158/158 159/159/159
f 163/163/163 164/164/164 161/161/161
f 161/161/161 162/162/162 163/163/163
f 166/166/166 168/168/168 165/165/165
f 168/168/168 166/166/166 167/167/167
f 170/170/170 172/172/172 169/169/169
f 172/172/172 170/170/170 171/171/171
f 174/174/174 176/176/176 173/173/173
f 176/176/176 174/174/174 175/175/175
f 179/179/179 180/180/180 177/177/177
f 177/177/177 178/178/178 179/179/179
f 183/183/183 184/184/184 181/181/181
f 181/181/181 182/182/182 183/183/183
f 186/186/186 188/188/188 185/185/185
f 188/188/188 186/186/186 187/187/187
f 191/191/191 192/192/192 189/189/189
f 189/189/189 190/190/190 191/191/191
o Health002
usemtl Health_Green
v 0.30000001192092896 -0.10000000149011612 0.9200000166893005
v 0.30000001192092896 0.10000000149011612 0.9200000166893005
v -0.30000001192092896 0.10000000149011612 0.9200000166893005
v -0.30000001192092896 -0.10000000149011612 0.9200000166893005
v -0.30000001192092896 -0.10000000149011612 0.9200000166893005
v -0.30000001192092896 0.10000000149011612 0.9200000166893005
v -0.30000001192092896 0.10000000149011612 0.8199999928474426
v -0.30000001192092896 -0.10000000149011612 0.8199999928474426
v -0.30000001192092896 -0.10000000149011612 0.8199999928474426
v -0.30000001192092896 0.10000000149011612 0.8199999928474426
v 0.30000001192092896 0.10000000149011612 0.8199999928474426
v 0.30000001192092896 -0.10000000149011612 0.8199999928474426
v 0.30000001192092896 -0.10000000149011612 0.8199999928474426
v 0.30000001192092896 0.10000000149011612 0.8199999928474426
v 0.30000001192092896 0.10000000149011612 0.9200000166893005
v 0.30000001192092896 -0.10000000149011612 0.9200000166893005
v -0.30000001192092896 -0.10000000149011612 0.9200000166893005
v -0.30000001192092896 -0.10000000149011612 0.8199999928474426
v 0.30000001192092896 -0.10000000149011612 0.8199999928474426
v 0.30000001192092896 -0.10000000149011612 0.9200000166893005
v -0.30000001192092896 0.10000000149011612 0.8199999928474426
v -0.30000001192092896 0.10000000149011612 0.9200000166893005
v 0.30000001192092896 0.10000000149011612 0.9200000166893005
v 0.30000001192092896 0.10000000149011612 0.8199999928474426
v -0.10000000149011612 -0.30000001192092896 0.9200000166893005
v 0.10000000149011612 -0.30000001192092896 0.9200000166893005
v 0.10000000149011612 0.30000001192092896 0.9200000166893005
v -0.10000000149011612 0.30000001192092896 0.9200000166893005
v -0.10000000149011612 0.30000001192092896 0.9200000166893005
v 0.10000000149011612 0.30000001192092896 0.9200000166893005
v 0.10000000149011612 0.30000001192092896 0.8199999928474426
v -0.10000000149011612 0.30000001192092896 0.8199999928474426
v -0.10000000149011612 0.30000001192092896 0.8199999928474426
v 0.10000000149011612 0.30000001192092896 0.8199999928474426
v 0.10000000149011612 -0.30000001192092896 0.8199999928474426
v -0.10000000149011612 -0.30000001192092896 0.8199999928474426
v -0.10000000149011612 -0.30000001192092896 0.8199999928474426
v 0.10000000149011612 -0.30000001192092896 0.8199999928474426
v 0.10000000149011612 -0.30000001192092896 0.9200000166893005
v -0.10000000149011612 -0.30000001192092896 0.9200000166893005
v -0.10000000149011612 0.30000001192092896 0.9200000166893005
v -0.10000000149011612 0.30000001192092896 0.8199999928474426
v -0.10000000149011612 -0.30000001192092896 0.8199999928474426
v -0.10000000149011612 -0.30000001192092896 0.9200000166893005
v 0.10000000149011612 0.30000001192092896 0.8199999928474426
v 0.10000000149011612 0.30000001192092896 0.9200000166893005
v 0.10000000149011612 -0.30000001192092896 0.9200000166893005
v 0.10000000149011612 -0.30000001192092896 0.8199999928474426
vt 0.375 0
vt 0.625 0
vt 0.625 0.25
vt 0.375 0.25
vt 0.375 0.25
vt 0.625 0.25
vt 0.625 0.5
vt 0.375 0.5
vt 0.375 0.5
vt 0.625 0.5
vt 0.625 0.75
vt 0.375 0.75
vt 0.375 0.75
vt 0.625 0.75
vt 0.625 1
vt 0.375 1
vt 0.125 0.5
vt 0.375 0.5
vt 0.375 0.75
vt 0.125 0.75
vt 0.625 0.5
vt 0.875 0.5
vt 0.875 0.75
vt 0.625 0.75
vt 0.375 0
vt 0.625 0
vt 0.625 0.25
vt 0.375 0.25
vt 0.375 0.25
vt 0.625 0.25
vt 0.625 0.5
vt 0.375 0.5
vt 0.375 0.5
vt 0.625 0.5
vt 0.625 0.75
vt 0.375 0.75
vt 0.375 0.75
vt 0.625 0.75
vt 0.625 1
vt 0.375 1
vt 0.125 0.5
vt 0.375 0.5
vt 0.375 0.75
vt 0.125 0.75
vt 0.625 0.5
vt 0.875 0.5
vt 0.875 0.75
vt 0.625 0.75
vn 0 0 1
vn 0 0 1
vn 0 0 1
vn 0 0 1
vn -1 0 0
vn -1 0 0
vn -1 0 0
vn -1 0 0
vn 0 0 -1
vn 0 0 -1
vn 0 0 -1
vn 0 0 -1
vn 1 0 0
vn 1 0 0
vn 1 0 0
vn 1 0 0
vn 0 -1 0
vn 0 -1 0
vn 0 -1 0
vn 0 -1 0
vn 0 1 0
vn 0 1 0
vn 0 1 0
vn 0 1 0
vn 0 0 1
vn 0 0 1
vn 0 0 1
vn 0 0 1
vn 0 1 0
vn 0 1 0
vn 0 1 0
vn 0 1 0
vn 0 0 -1
vn 0 0 -1
vn 0 0 -1
vn 0 0 -1
vn 0 -1 0
vn 0 -1 0
vn 0 -1 0
vn 0 -1 0
vn -1 0 0
vn -1 0 0
vn -1 0 0
vn -1 0 0
vn 1 0 0
vn 1 0 0
vn 1 0 0
vn 1 0 0
f 195/195/195 196/196/196 193/193/193
f 193/193/193 194/194/194 195/195/195
f 198/198/198 200/200/200 197/197/197
f 200/200/200 198/198/198 199/199/199
f 202/202/202 204/204/204 201/201/201
f 204/204/204 202/202/202 203/203/203
f 207/207/207 208/208/208 205/205/205
f 205/205/205 206/206/206 207/207/207
f 211/211/211 212/212/212 209/209/209
f 209/209/209 210/210/210 211/211/211
f 214/214/214 216/216/216 213/213/213
f 216/216/216 214/214/214 215/215/215
f 219/219/219 220/220/220 217/217/217
f 217/217/217 218/218/218 219/219/219
f 222/222/222 224/224/224 221/221/221
f 224/224/224 222/222/222 223/223/223
f 226/226/226 228/228/228 225/225/225
f 228/228/228 226/226/226 227/227/227
f 231/231/231 232/232/232 229/229/229
f 229/229/229 230/230/230 231/231/231
f 234/234/234 236/236/236 233/233/233
f 236/236/236 234/234/234 235/235/235
f 239/239/239 240/240/240 237/237/237
f 237/237/237 238/238/238 239/239/239
o Health003
usemtl Health_Green
v 0.30000001192092896 -0.10000000149011612 -0.8199999928474426
v 0.30000001192092896 0.10000000149011612 -0.8199999928474426
v -0.30000001192092896 0.10000000149011612 -0.8199999928474426
v -0.30000001192092896 -0.10000000149011612 -0.8199999928474426
v -0.30000001192092896 -0.10000000149011612 -0.8199999928474426
v -0.30000001192092896 0.10000000149011612 -0.8199999928474426
v -0.30000001192092896 0.10000000149011612 -0.9200000166893005
v -0.30000001192092896 -0.10000000149011612 -0.9200000166893005
v -0.30000001192092896 -0.10000000149011612 -0.9200000166893005
v -0.30000001192092896 0.10000000149011612 -0.9200000166893005
v 0.30000001192092896 0.10000000149011612 -0.9200000166893005
v 0.30000001192092896 -0.10000000149011612 -0.9200000166893005
v 0.30000001192092896 -0.10000000149011612 -0.9200000166893005
v 0.30000001192092896 0.10000000149011612 -0.9200000166893005
v 0.30000001192092896 0.10000000149011612 -0.8199999928474426
v 0.30000001192092896 -0.10000000149011612 -0.8199999928474426
v -0.30000001192092896 -0.10000000149011612 -0.8199999928474426
v -0.30000001192092896 -0.10000000149011612 -0.9200000166893005
v 0.30000001192092896 -0.10000000149011612 -0.9200000166893005
v 0.30000001192092896 -0.10000000149011612 -0.8199999928474426
v -0.30000001192092896 0.10000000149011612 -0.9200000166893005
v -0.30000001192092896 0.10000000149011612 -0.8199999928474426
v 0.30000001192092896 0.10000000149011612 -0.8199999928474426
v 0.30000001192092896 0.10000000149011612 -0.9200000166893005
v -0.10000000149011612 -0.30000001192092896 -0.8199999928474426
v 0.10000000149011612 -0.30000001192092896 -0.8199999928474426
v 0.10000000149011612 0.30000001192092896 -0.8199999928474426
v -0.10000000149011612 0.30000001192092896 -0.8199999928474426
v -0.10000000149011612 0.30000001192092896 -0.8199999928474426
v 0.10000000149011612 0.30000001192092896 -0.8199999928474426
v 0.10000000149011612 0.30000001192092896 -0.9200000166893005
v -0.10000000149011612 0.30000001192092896 -0.9200000166893005
v -0.10000000149011612 0.30000001192092896 -0.9200000166893005
v 0.10000000149011612 0.30000001192092896 -0.9200000166893005
v 0.10000000149011612 -0.30000001192092896 -0.9200000166893005
v -0.10000000149011612 -0.30000001192092896 -0.9200000166893005
v -0.10000000149011612 -0.30000001192092896 -0.9200000166893005
v 0.10000000149011612 -0.30000001192092896 -0.9200000166893005
v 0.10000000149011612 -0.30000001192092896 -0.8199999928474426
v -0.10000000149011612 -0.30000001192092896 -0.8199999928474426
v -0.10000000149011612 0.30000001192092896 -0.8199999928474426
v -0.10000000149011612 0.30000001192092896 -0.9200000166893005
v -0.10000000149011612 -0.30000001192092896 -0.9200000166893005
v -0.10000000149011612 -0.30000001192092896 -0.8199999928474426
v 0.10000000149011612 0.30000001192092896 -0.9200000166893005
v 0.10000000149011612 0.30000001192092896 -0.8199999928474426
v 0.10000000149011612 -0.30000001192092896 -0.8199999928474426
v 0.10000000149011612 -0.30000001192092896 -0.9200000166893005
vt 0.375 0
vt 0.625 0
vt 0.625 0.25
vt 0.375 0.25
vt 0.375 0.25
vt 0.625 0.25
vt 0.625 0.5
vt 0.375 0.5
vt 0.375 0.5
vt 0.625 0.5
vt 0.625 0.75
vt 0.375 0.75
vt 0.375 0.75
vt 0.625 0.75
vt 0.625 1
vt 0.375 1
vt 0.125 0.5
vt 0.375 0.5
vt 0.375 0.75
vt 0.125 0.75
vt 0.625 0.5
vt 0.875 0.5
vt 0.875 0.75
vt 0.625 0.75
vt 0.375 0
vt 0.625 0
vt 0.625 0.25
vt 0.375 0.25
vt 0.375 0.25
vt 0.625 0.25
vt 0.625 0.5
vt 0.375 0.5
vt 0.375 0.5
vt 0.625 0.5
vt 0.625 0.75
vt 0.375 0.75
vt 0.375 0.75
vt 0.625 0.75
vt 0.625 1
vt 0.375 1
vt 0.125 0.5
vt 0.375 0.5
vt 0.375 0.75
vt 0.125 0.75
vt 0.625 0.5
vt 0.875 0.5
vt 0.875 0.75
vt 0.625 0.75
vn 0 0 1
vn 0 0 1
vn 0 0 1
vn 0 0 1
vn -1 0 0
vn -1 0 0
vn -1 0 0
vn -1 0 0
vn 0 0 -1
vn 0 0 -1
vn 0 0 -1
vn 0 0 -1
vn 1 0 0
vn 1 0 0
vn 1 0 0
vn 1 0 0
vn 0 -1 0
vn 0 -1 0
vn 0 -1 0
vn 0 -1 0
vn 0 1 0
vn 0 1 0
vn 0 1 0
vn 0 1 0
vn 0 0 1
vn 0 0 1
vn 0 0 1
vn 0 0 1
vn 0 1 0
vn 0 1 0
vn 0 1 0
vn 0 1 0
vn 0 0 -1
vn 0 0 -1
vn 0 0 -1
vn 0 0 -1
vn 0 -1 0
vn 0 -1 0
vn 0 -1 0
vn 0 -1 0
vn -1 0 0
vn -1 0 0
vn -1 0 0
vn -1 0 0
vn 1 0 0
vn 1 0 0
vn 1 0 0
vn 1 0 0
f 243/243/243 244/244/244 241/241/241
f 241/241/241 242/242/242 243/243/243
f 246/246/246 248/248/248 245/245/245
f 248/248/248 246/246/246 247/247/247
f 250/250/250 252/252/252 249/249/249
f 252/252/252 250/250/250 251/251/251
f 255/255/255 256/256/256 253/253/253
f 253/253/253 254/254/254 255/255/255
f 259/259/259 260/260/260 257/257/257
f 257/257/257 258/258/258 259/259/259
f 262/262/262 264/264/264 261/261/261
f 264/264/264 262/262/262 263/263/263
f 267/267/267 268/268/268 265/265/265
f 265/265/265 266/266/266 267/267/267
f 270/270/270 272/272/272 269/269/269
f 272/272/272 270/270/270 271/271/271
f 274/274/274 276/276/276 273/273/273
f 276/276/276 274/274/274 275/275/275
f 279/279/279 280/280/280 277/277/277
f 277/277/277 278/278/278 279/279/279
f 282/282/282 284/284/284 281/281/281
f 284/284/284 282/282/282 283/283/283
f 287/287/287 288/288/288 285/285/285
f 285/285/285 286/286/286 287/287/287
o Button1
usemtl Button_Red
v -0.03826799988746643 0.574999988079071 -0.5923879742622375
v -0.03826799988746643 0.625 -0.5923879742622375
v 0.03826799988746643 0.625 -0.5923879742622375
v 0.03826799988746643 0.574999988079071 -0.5923879742622375
v 0.03826799988746643 0.574999988079071 -0.5923879742622375
v 0.03826799988746643 0.625 -0.5923879742622375
v 0.09238799661397934 0.625 -0.5382680296897888
v 0.09238799661397934 0.574999988079071 -0.5382680296897888
v 0.09238799661397934 0.574999988079071 -0.5382680296897888
v 0.09238799661397934 0.625 -0.5382680296897888
v 0.09238799661397934 0.625 -0.46173200011253357
v 0.09238799661397934 0.574999988079071 -0.46173200011253357
v 0.09238799661397934 0.574999988079071 -0.46173200011253357
v 0.09238799661397934 0.625 -0.46173200011253357
v 0.03826799988746643 0.625 -0.40761199593544006
v 0.03826799988746643 0.574999988079071 -0.40761199593544006
v 0.03826799988746643 0.574999988079071 -0.40761199593544006
v 0.03826799988746643 0.625 -0.40761199593544006
v -0.03826799988746643 0.625 -0.40761199593544006
v -0.03826799988746643 0.574999988079071 -0.40761199593544006
v -0.03826799988746643 0.574999988079071 -0.40761199593544006
v -0.03826799988746643 0.625 -0.40761199593544006
v -0.09238799661397934 0.625 -0.46173200011253357
v -0.09238799661397934 0.574999988079071 -0.46173200011253357
v 0.03826799988746643 0.625 -0.5923879742622375
v -0.03826799988746643 0.625 -0.5923879742622375
v -0.09238799661397934 0.625 -0.5382680296897888
v -0.09238799661397934 0.625 -0.46173200011253357
v -0.03826799988746643 0.625 -0.40761199593544006
v 0.03826799988746643 0.625 -0.40761199593544006
v 0.09238799661397934 0.625 -0.46173200011253357
v 0.09238799661397934 0.625 -0.5382680296897888
v -0.09238799661397934 0.574999988079071 -0.46173200011253357
v -0.09238799661397934 0.625 -0.46173200011253357
v -0.09238799661397934 0.625 -0.5382680296897888
v -0.09238799661397934 0.574999988079071 -0.5382680296897888
v -0.09238799661397934 0.574999988079071 -0.5382680296897888
v -0.09238799661397934 0.625 -0.5382680296897888
v -0.03826799988746643 0.625 -0.5923879742622375
v -0.03826799988746643 0.574999988079071 -0.5923879742622375
v -0.03826799988746643 0.574999988079071 -0.5923879742622375
v 0.03826799988746643 0.574999988079071 -0.5923879742622375
v 0.09238799661397934 0.574999988079071 -0.5382680296897888
v 0.09238799661397934 0.574999988079071 -0.46173200011253357
v 0.03826799988746643 0.574999988079071 -0.40761199593544006
v -0.03826799988746643 0.574999988079071 -0.40761199593544006
v -0.09238799661397934 0.574999988079071 -0.46173200011253357
v -0.09238799661397934 0.574999988079071 -0.5382680296897888
vt 1 0.5
vt 1 1
vt 0.875 1
vt 0.875 0.5
vt 0.875 0.5
vt 0.875 1
vt 0.75 1
vt 0.75 0.5
vt 0.75 0.5
vt 0.75 1
vt 0.625 1
vt 0.625 0.5
vt 0.625 0.5
vt 0.625 1
vt 0.5 1
vt 0.5 0.5
vt 0.5 0.5
vt 0.5 1
vt 0.375 1
vt 0.375 0.5
vt 0.375 0.5
vt 0.375 1
vt 0.25 1
vt 0.25 0.5
vt 0.41970598697662354 0.41970598697662354
vt 0.25 0.49000000953674316
vt 0.08029399812221527 0.41970598697662354
vt 0.009999999776482582 0.25
vt 0.08029399812221527 0.08029401302337646
vt 0.25 0.009999990463256836
vt 0.41970598697662354 0.08029401302337646
vt 0.49000000953674316 0.25
vt 0.25 0.5
vt 0.25 1
vt 0.125 1
vt 0.125 0.5
vt 0.125 0.5
vt 0.125 1
vt 0 1
vt 0 0.5
vt 0.75 0.49000000953674316
vt 0.9197059869766235 0.41970598697662354
vt 0.9900000095367432 0.25
vt 0.9197059869766235 0.08029401302337646
vt 0.75 0.009999990463256836
vt 0.5802940130233765 0.08029401302337646
vt 0.5099999904632568 0.25
vt 0.5802940130233765 0.41970598697662354
vn 0 0 -1
vn 0 0 -1
vn 0 0 -1
vn 0 0 -1
vn 0.7071067811865476 0 -0.7071067811865476
vn 0.7071067811865476 0 -0.7071067811865476
vn 0.7071067811865476 0 -0.7071067811865476
vn 0.7071067811865476 0 -0.7071067811865476
vn 1 0 0
vn 1 0 0
vn 1 0 0
vn 1 0 0
vn 0.7071067811865476 0 0.7071067811865476
vn 0.7071067811865476 0 0.7071067811865476
vn 0.7071067811865476 0 0.7071067811865476
vn 0.7071067811865476 0 0.7071067811865476
vn 0 0 1
vn 0 0 1
vn 0 0 1
vn 0 0 1
vn -0.7071067811865476 0 0.7071067811865476
vn -0.7071067811865476 0 0.7071067811865476
vn -0.7071067811865476 0 0.7071067811865476
vn -0.7071067811865476 0 0.7071067811865476
vn 0 1 0
vn 0 1 0
vn 0 1 0
vn 0 1 0
vn 0 1 0
vn 0 1 0
vn 0 1 0
vn 0 1 0
vn -1 0 0
vn -1 0 0
vn -1 0 0
vn -1 0 0
vn -0.7071067811865476 0 -0.7071067811865476
vn -0.7071067811865476 0 -0.7071067811865476
vn -0.7071067811865476 0 -0.7071067811865476
vn -0.7071067811865476 0 -0.7071067811865476
vn 0 -1 0
vn 0 -1 0
vn 0 -1 0
vn 0 -1 0
vn 0 -1 0
vn 0 -1 0
vn 0 -1 0
vn 0 -1 0
f 290/290/290 292/292/292 289/289/289
f 292/292/292 290/290/290 291/291/291
f 294/294/294 296/296/296 293/293/293
f 296/296/296 294/294/294 295/295/295
f 299/299/299 300/300/300 297/297/297
f 297/297/297 298/298/298 299/299/299
f 303/303/303 304/304/304 301/301/301
f 301/301/301 302/302/302 303/303/303
f 307/307/307 308/308/308 305/305/305
f 305/305/305 306/306/306 307/307/307
f 310/310/310 312/312/312 309/309/309
f 312/312/312 310/310/310 311/311/311
f 314/314/314 320/320/320 313/313/313
f 320/320/320 318/318/318 319/319/319
f 318/318/318 316/316/316 317/317/317
f 316/316/316 314/314/314 315/315/315
f 314/314/314 318/318/318 320/320/320
f 318/318/318 314/314/314 316/316/316
f 322/322/322 324/324/324 321/321/321
f 324/324/324 322/322/322 323/323/323
f 326/326/326 328/328/328 325/325/325
f 328/328/328 326/326/326 327/327/327
f 335/335/335 336/336/336 329/329/329
f 329/329/329 330/330/330 331/331/331
f 331/331/331 332/332/332 333/333/333
f 333/333/333 334/334/334 335/335/335
f 335/335/335 329/329/329 331/331/331
f 331/331/331 333/333/333 335/335/335
o Button2
usemtl Button_Blue
v -0.03826799988746643 0.574999988079071 -0.19238799810409546
v -0.03826799988746643 0.625 -0.19238799810409546
v 0.03826799988746643 0.625 -0.19238799810409546
v 0.03826799988746643 0.574999988079071 -0.19238799810409546
v 0.03826799988746643 0.574999988079071 -0.19238799810409546
v 0.03826799988746643 0.625 -0.19238799810409546
v 0.09238799661397934 0.625 -0.13826799392700195
v 0.09238799661397934 0.574999988079071 -0.13826799392700195
v 0.09238799661397934 0.574999988079071 -0.13826799392700195
v 0.09238799661397934 0.625 -0.13826799392700195
v 0.09238799661397934 0.625 -0.06173200160264969
v 0.09238799661397934 0.574999988079071 -0.06173200160264969
v 0.09238799661397934 0.574999988079071 -0.06173200160264969
v 0.09238799661397934 0.625 -0.06173200160264969
v 0.03826799988746643 0.625 -0.007612000219523907
v 0.03826799988746643 0.574999988079071 -0.007612000219523907
v 0.03826799988746643 0.574999988079071 -0.007612000219523907
v 0.03826799988746643 0.625 -0.007612000219523907
v -0.03826799988746643 0.625 -0.007612000219523907
v -0.03826799988746643 0.574999988079071 -0.007612000219523907
v -0.03826799988746643 0.574999988079071 -0.007612000219523907
v -0.03826799988746643 0.625 -0.007612000219523907
v -0.09238799661397934 0.625 -0.06173200160264969
v -0.09238799661397934 0.574999988079071 -0.06173200160264969
v 0.03826799988746643 0.625 -0.19238799810409546
v -0.03826799988746643 0.625 -0.19238799810409546
v -0.09238799661397934 0.625 -0.13826799392700195
v -0.09238799661397934 0.625 -0.06173200160264969
v -0.03826799988746643 0.625 -0.007612000219523907
v 0.03826799988746643 0.625 -0.007612000219523907
v 0.09238799661397934 0.625 -0.06173200160264969
v 0.09238799661397934 0.625 -0.13826799392700195
v -0.09238799661397934 0.574999988079071 -0.06173200160264969
v -0.09238799661397934 0.625 -0.06173200160264969
v -0.09238799661397934 0.625 -0.13826799392700195
v -0.09238799661397934 0.574999988079071 -0.13826799392700195
v -0.09238799661397934 0.574999988079071 -0.13826799392700195
v -0.09238799661397934 0.625 -0.13826799392700195
v -0.03826799988746643 0.625 -0.19238799810409546
v -0.03826799988746643 0.574999988079071 -0.19238799810409546
v -0.03826799988746643 0.574999988079071 -0.19238799810409546
v 0.03826799988746643 0.574999988079071 -0.19238799810409546
v 0.09238799661397934 0.574999988079071 -0.13826799392700195
v 0.09238799661397934 0.574999988079071 -0.06173200160264969
v 0.03826799988746643 0.574999988079071 -0.007612000219523907
v -0.03826799988746643 0.574999988079071 -0.007612000219523907
v -0.09238799661397934 0.574999988079071 -0.06173200160264969
v -0.09238799661397934 0.574999988079071 -0.13826799392700195
vt 1 0.5
vt 1 1
vt 0.875 1
vt 0.875 0.5
vt 0.875 0.5
vt 0.875 1
vt 0.75 1
vt 0.75 0.5
vt 0.75 0.5
vt 0.75 1
vt 0.625 1
vt 0.625 0.5
vt 0.625 0.5
vt 0.625 1
vt 0.5 1
vt 0.5 0.5
vt 0.5 0.5
vt 0.5 1
vt 0.375 1
vt 0.375 0.5
vt 0.375 0.5
vt 0.375 1
vt 0.25 1
vt 0.25 0.5
vt 0.41970598697662354 0.41970598697662354
vt 0.25 0.49000000953674316
vt 0.08029399812221527 0.41970598697662354
vt 0.009999999776482582 0.25
vt 0.08029399812221527 0.08029401302337646
vt 0.25 0.009999990463256836
vt 0.41970598697662354 0.08029401302337646
vt 0.49000000953674316 0.25
vt 0.25 0.5
vt 0.25 1
vt 0.125 1
vt 0.125 0.5
vt 0.125 0.5
vt 0.125 1
vt 0 1
vt 0 0.5
vt 0.75 0.49000000953674316
vt 0.9197059869766235 0.41970598697662354
vt 0.9900000095367432 0.25
vt 0.9197059869766235 0.08029401302337646
vt 0.75 0.009999990463256836
vt 0.5802940130233765 0.08029401302337646
vt 0.5099999904632568 0.25
vt 0.5802940130233765 0.41970598697662354
vn 0 0 -1
vn 0 0 -1
vn 0 0 -1
vn 0 0 -1
vn 0.7071067811865476 0 -0.7071067811865476
vn 0.7071067811865476 0 -0.7071067811865476
vn 0.7071067811865476 0 -0.7071067811865476
vn 0.7071067811865476 0 -0.7071067811865476
vn 1 0 0
vn 1 0 0
vn 1 0 0
vn 1 0 0
vn 0.7071067811865476 0 0.7071067811865476
vn 0.7071067811865476 0 0.7071067811865476
vn 0.7071067811865476 0 0.7071067811865476
vn 0.7071067811865476 0 0.7071067811865476
vn 0 0 1
vn 0 0 1
vn 0 0 1
vn 0 0 1
vn -0.7071067811865476 0 0.7071067811865476
vn -0.7071067811865476 0 0.7071067811865476
vn -0.7071067811865476 0 0.7071067811865476
vn -0.7071067811865476 0 0.7071067811865476
vn 0 1 0
vn 0 1 0
vn 0 1 0
vn 0 1 0
vn 0 1 0
vn 0 1 0
vn 0 1 0
vn 0 1 0
vn -1 0 0
vn -1 0 0
vn -1 0 0
vn -1 0 0
vn -0.7071067811865476 0 -0.7071067811865476
vn -0.7071067811865476 0 -0.7071067811865476
vn -0.7071067811865476 0 -0.7071067811865476
vn -0.7071067811865476 0 -0.7071067811865476
vn 0 -1 0
vn 0 -1 0
vn 0 -1 0
vn 0 -1 0
vn 0 -1 0
vn 0 -1 0
vn 0 -1 0
vn 0 -1 0
f 338/338/338 340/340/340 337/337/337
f 340/340/340 338/338/338 339/339/339
f 343/343/343 344/344/344 341/341/341
f 341/341/341 342/342/342 343/343/343
f 347/347/347 348/348/348 345/345/345
f 345/345/345 346/346/346 347/347/347
f 351/351/351 352/352/352 349/349/349
f 349/349/349 350/350/350 351/351/351
f 355/355/355 356/356/356 353/353/353
f 353/353/353 354/354/354 355/355/355
f 358/358/358 360/360/360 357/357/357
f 360/360/360 358/358/358 359/359/359
f 362/362/362 368/368/368 361/361/361
f 368/368/368 366/366/366 367/367/367
f 366/366/366 364/364/364 365/365/365
f 364/364/364 362/362/362 363/363/363
f 362/362/362 366/366/366 368/368/368
f 366/366/366 362/362/362 364/364/364
f 370/370/370 372/372/372 369/369/369
f 372/372/372 370/370/370 371/371/371
f 374/374/374 376/376/376 373/373/373
f 376/376/376 374/374/374 375/375/375
f 383/383/383 384/384/384 377/377/377
f 377/377/377 378/378/378 379/379/379
f 379/379/379 380/380/380 381/381/381
f 381/381/381 382/382/382 383/383/383
f 383/383/383 377/377/377 379/379/379
f 379/379/379 381/381/381 383/383/383
