mtllib FloorTile.mtl
o Cube
usemtl Ground
v -0.9238799810409546 0.05000000074505806 -0.10000000149011612
v -0.9238799810409546 0.05000000074505806 -0.38268300890922546
v -0.38268300890922546 0.05000000074505806 -0.9238799810409546
v -0.10000000149011612 0.05000000074505806 -0.9238799810409546
v -0.10000000149011612 0.05000000074505806 -2
v -2 0.05000000074505806 -2
v -2 0.05000000074505806 -0.10000000149011612
v 0.10000000149011612 0.05000000074505806 -2
v 0.10000000149011612 0.05000000074505806 -0.9238799810409546
v 0.38268300890922546 0.05000000074505806 -0.9238799810409546
v 0.9238799810409546 0.05000000074505806 -0.38268300890922546
v 0.9238799810409546 0.05000000074505806 -0.10000000149011612
v 2 0.05000000074505806 -0.10000000149011612
v 2 0.05000000074505806 -2
v -0.10000000149011612 0.05000000074505806 2
v -0.10000000149011612 0.05000000074505806 0.9238799810409546
v -0.38268300890922546 0.05000000074505806 0.9238799810409546
v -0.9238799810409546 0.05000000074505806 0.38268300890922546
v -0.9238799810409546 0.05000000074505806 0.10000000149011612
v -2 0.05000000074505806 0.10000000149011612
v -2 0.05000000074505806 2
v 0.9238799810409546 0.05000000074505806 0.10000000149011612
v 0.9238799810409546 0.05000000074505806 0.38268300890922546
v 0.38268300890922546 0.05000000074505806 0.9238799810409546
v 0.10000000149011612 0.05000000074505806 0.9238799810409546
v 0.10000000149011612 0.05000000074505806 2
v 2 0.05000000074505806 2
v 2 0.05000000074505806 0.10000000149011612
v -2 0.05000000074505806 2
v -2 -0.05000000074505806 2
v 2 -0.05000000074505806 2
v 2 0.05000000074505806 2
v 0.10000000149011612 0.05000000074505806 2
v 0.10000000149011612 0 2
v -0.10000000149011612 0 2
v -0.10000000149011612 0.05000000074505806 2
v -2 0.05000000074505806 -0.10000000149011612
v -2 0.05000000074505806 -2
v -2 -0.05000000074505806 -2
v -2 -0.05000000074505806 2
v -2 0.05000000074505806 2
v -2 0.05000000074505806 0.10000000149011612
v -2 0 0.10000000149011612
v -2 0 -0.10000000149011612
v -2 -0.05000000074505806 -2
v 2 -0.05000000074505806 -2
v 2 -0.05000000074505806 2
v -2 -0.05000000074505806 2
v 2 0.05000000074505806 2
v 2 -0.05000000074505806 2
v 2 -0.05000000074505806 -2
v 2 0.05000000074505806 -2
v 2 0.05000000074505806 -0.10000000149011612
v 2 0 -0.10000000149011612
v 2 0 0.10000000149011612
v 2 0.05000000074505806 0.10000000149011612
v 0.10000000149011612 0.05000000074505806 -2
v 2 0.05000000074505806 -2
v 2 -0.05000000074505806 -2
v -2 -0.05000000074505806 -2
v -2 0.05000000074505806 -2
v -0.10000000149011612 0.05000000074505806 -2
v -0.10000000149011612 0 -2
v 0.10000000149011612 0 -2
v -0.38268300890922546 0.05000000074505806 -0.9238799810409546
v -0.38268300890922546 0 -0.9238799810409546
v -0.10000000149011612 0 -0.9238799810409546
v -0.10000000149011612 0.05000000074505806 -0.9238799810409546
v 0.38268300890922546 0 -0.9238799810409546
v 0.38268300890922546 0.05000000074505806 -0.9238799810409546
v 0.10000000149011612 0.05000000074505806 -0.9238799810409546
v 0.10000000149011612 0 -0.9238799810409546
v 0.38268300890922546 0.05000000074505806 -0.9238799810409546
v 0.38268300890922546 0 -0.9238799810409546
v 0.9238799810409546 0 -0.38268300890922546
v 0.9238799810409546 0.05000000074505806 -0.38268300890922546
v 0.9238799810409546 0.05000000074505806 -0.38268300890922546
v 0.9238799810409546 0 -0.38268300890922546
v 0.9238799810409546 0 -0.10000000149011612
v 0.9238799810409546 0.05000000074505806 -0.10000000149011612
v 0.9238799810409546 0 0.38268300890922546
v 0.9238799810409546 0.05000000074505806 0.38268300890922546
v 0.9238799810409546 0.05000000074505806 0.10000000149011612
v 0.9238799810409546 0 0.10000000149011612
v 0.38268300890922546 0.05000000074505806 0.9238799810409546
v 0.9238799810409546 0.05000000074505806 0.38268300890922546
v 0.9238799810409546 0 0.38268300890922546
v 0.38268300890922546 0 0.9238799810409546
v 0.38268300890922546 0.05000000074505806 0.9238799810409546
v 0.38268300890922546 0 0.9238799810409546
v 0.10000000149011612 0 0.9238799810409546
v 0.10000000149011612 0.05000000074505806 0.9238799810409546
v -0.38268300890922546 0 0.9238799810409546
v -0.38268300890922546 0.05000000074505806 0.9238799810409546
v -0.10000000149011612 0.05000000074505806 0.9238799810409546
v -0.10000000149011612 0 0.9238799810409546
v -0.38268300890922546 0 0.9238799810409546
v -0.9238799810409546 0 0.38268300890922546
v -0.9238799810409546 0.05000000074505806 0.38268300890922546
v -0.38268300890922546 0.05000000074505806 0.9238799810409546
v -0.9238799810409546 0.05000000074505806 0.38268300890922546
v -0.9238799810409546 0 0.38268300890922546
v -0.9238799810409546 0 0.10000000149011612
v -0.9238799810409546 0.05000000074505806 0.10000000149011612
v -0.9238799810409546 0 -0.38268300890922546
v -0.9238799810409546 0.05000000074505806 -0.38268300890922546
v -0.9238799810409546 0.05000000074505806 -0.10000000149011612
v -0.9238799810409546 0 -0.10000000149011612
v -0.9238799810409546 0 -0.38268300890922546
v -0.38268300890922546 0 -0.9238799810409546
v -0.38268300890922546 0.05000000074505806 -0.9238799810409546
v -0.9238799810409546 0.05000000074505806 -0.38268300890922546
v -0.9238799810409546 0 0.10000000149011612
v -0.9238799810409546 0 0.38268300890922546
v -0.38268300890922546 0 0.9238799810409546
v -0.10000000149011612 0 0.9238799810409546
v -0.10000000149011612 0 0.8765689730644226
v 0.10000000149011612 0 0.8765689730644226
v 0.10000000149011612 0 0.9238799810409546
v 0.38268300890922546 0 0.9238799810409546
v 0.9238799810409546 0 0.38268300890922546
v 0.9238799810409546 0 0.10000000149011612
v 0.8765689730644226 0 0.10000000149011612
v 0.8765689730644226 0 -0.10000000149011612
v 0.9238799810409546 0 -0.10000000149011612
v 0.9238799810409546 0 -0.38268300890922546
v 0.38268300890922546 0 -0.9238799810409546
v 0.10000000149011612 0 -0.9238799810409546
v 0.10000000149011612 0 -0.8765689730644226
v -0.10000000149011612 0 -0.8765689730644226
v -0.10000000149011612 0 -0.9238799810409546
v -0.38268300890922546 0 -0.9238799810409546
v -0.9238799810409546 0 -0.38268300890922546
v -0.9238799810409546 0 -0.10000000149011612
v -0.8765689730644226 0 -0.10000000149011612
v -0.8765689730644226 0 0.10000000149011612
v 0.9238799810409546 0 -0.10000000149011612
v 2 0 -0.10000000149011612
v 2 0.05000000074505806 -0.10000000149011612
v 0.9238799810409546 0.05000000074505806 -0.10000000149011612
v 0.9238799810409546 0.05000000074505806 0.10000000149011612
v 2 0.05000000074505806 0.10000000149011612
v 2 0 0.10000000149011612
v 0.9238799810409546 0 0.10000000149011612
v 2 0 0.10000000149011612
v 2 0 -0.10000000149011612
v 0.9238799810409546 0 -0.10000000149011612
v 0.9238799810409546 0 0.10000000149011612
v -2 0.05000000074505806 -0.10000000149011612
v -2 0 -0.10000000149011612
v -0.9238799810409546 0 -0.10000000149011612
v -0.9238799810409546 0.05000000074505806 -0.10000000149011612
v -0.9238799810409546 0 0.10000000149011612
v -2 0 0.10000000149011612
v -2 0.05000000074505806 0.10000000149011612
v -0.9238799810409546 0.05000000074505806 0.10000000149011612
v -2 0 -0.10000000149011612
v -2 0 0.10000000149011612
v -0.9238799810409546 0 0.10000000149011612
v -0.9238799810409546 0 -0.10000000149011612
v -0.10000000149011612 0 -0.9238799810409546
v -0.10000000149011612 0 -2
v -0.10000000149011612 0.05000000074505806 -2
v -0.10000000149011612 0.05000000074505806 -0.9238799810409546
v 0.10000000149011612 0.05000000074505806 -0.9238799810409546
v 0.10000000149011612 0.05000000074505806 -2
v 0.10000000149011612 0 -2
v 0.10000000149011612 0 -0.9238799810409546
v 0.10000000149011612 0 -0.9238799810409546
v 0.10000000149011612 0 -2
v -0.10000000149011612 0 -2
v -0.10000000149011612 0 -0.9238799810409546
v -0.10000000149011612 0.05000000074505806 2
v -0.10000000149011612 0 2
v -0.10000000149011612 0 0.9238799810409546
v -0.10000000149011612 0.05000000074505806 0.9238799810409546
v 0.10000000149011612 0 0.9238799810409546
v 0.10000000149011612 0 2
v 0.10000000149011612 0.05000000074505806 2
v 0.10000000149011612 0.05000000074505806 0.9238799810409546
v -0.10000000149011612 0 0.9238799810409546
v -0.10000000149011612 0 2
v 0.10000000149011612 0 2
v 0.10000000149011612 0 0.9238799810409546
vt 0.8077419996261597 0.6187500059604645
vt 0.8077430129051208 0.6010819971561432
vt 0.7739179730415344 0.5672580003738403
vt 0.7562500238418579 0.5672580003738403
vt 0.7562500238418579 0.5
vt 0.875 0.5
vt 0.875 0.6187500059604645
vt 0.7437499761581421 0.5
vt 0.7437499761581421 0.5672580003738403
vt 0.7260820269584656 0.5672580003738403
vt 0.6922580003738403 0.6010819971561432
vt 0.6922580003738403 0.6187500059604645
vt 0.625 0.6187500059604645
vt 0.625 0.5
vt 0.7562500238418579 0.75
vt 0.7562500238418579 0.6827419996261597
vt 0.7739179730415344 0.6827419996261597
vt 0.8077419996261597 0.6489180028438568
vt 0.8077419996261597 0.6312499940395355
vt 0.875 0.6312499940395355
vt 0.875 0.75
vt 0.6922580003738403 0.6312499940395355
vt 0.6922580003738403 0.6489180028438568
vt 0.7260820269584656 0.6827419996261597
vt 0.7437499761581421 0.6827419996261597
vt 0.7437499761581421 0.75
vt 0.625 0.75
vt 0.625 0.6312499940395355
vt 0.625 1
vt 0.375 1
vt 0.375 0.75
vt 0.625 0.75
vt 0.625 0.8687500059604645
vt 0.5 0.8687500059604645
vt 0.5 0.8812500014901161
vt 0.625 0.8812500014901161
vt 0.625 0.1312500238418579
vt 0.625 0.25
vt 0.375 0.25
vt 0.375 0
vt 0.625 0
vt 0.625 0.11874997615814209
vt 0.5 0.11874997615814209
vt 0.5 0.1312500238418579
vt 0.125 0.5
vt 0.375 0.5
vt 0.375 0.75
vt 0.125 0.75
vt 0.625 0.75
vt 0.375 0.75
vt 0.375 0.5
vt 0.625 0.5
vt 0.625 0.6187500059604645
vt 0.5 0.6187500059604645
vt 0.5 0.6312499940395355
vt 0.625 0.6312499940395355
vt 0.625 0.3812500238418579
vt 0.625 0.5
vt 0.375 0.5
vt 0.375 0.25
vt 0.625 0.25
vt 0.625 0.3687499761581421
vt 0.5 0.3687499761581421
vt 0.5 0.3812500238418579
vt 1 1
vt 1 0.5
vt 0.9538319706916809 0.5
vt 0.9538319706916809 1
vt 0.875 0.5
vt 0.875 1
vt 0.9211680293083191 1
vt 0.9211680293083191 0.5
vt 0.875 1
vt 0.875 0.5
vt 0.75 0.5
vt 0.75 1
vt 0.75 1
vt 0.75 0.5
vt 0.7038319706916809 0.5
vt 0.7038319706916809 1
vt 0.625 0.5
vt 0.625 1
vt 0.6711680293083191 1
vt 0.6711680293083191 0.5
vt 0.5 1
vt 0.625 1
vt 0.625 0.5
vt 0.5 0.5
vt 0.5 1
vt 0.5 0.5
vt 0.4538320004940033 0.5
vt 0.4538320004940033 1
vt 0.375 0.5
vt 0.375 1
vt 0.4211679995059967 1
vt 0.4211679995059967 0.5
vt 0.375 0.5
vt 0.25 0.5
vt 0.25 1
vt 0.375 1
vt 0.25 1
vt 0.25 0.5
vt 0.2038320004940033 0.5
vt 0.2038320004940033 1
vt 0.125 0.5
vt 0.125 1
vt 0.1711679995059967 1
vt 0.1711679995059967 0.5
vt 0.125 0.5
vt 0 0.5
vt 0 1
vt 0.125 1
vt 0.5359629988670349 0.3126800060272217
vt 0.5099999904632568 0.25
vt 0.5802940130233765 0.08029401302337646
vt 0.6429740190505981 0.05433201789855957
vt 0.6473190188407898 0.06482201814651489
vt 0.69166499376297 0.046452999114990234
vt 0.6873199939727783 0.03596299886703491
vt 0.75 0.009999990463256836
vt 0.9197059869766235 0.08029401302337646
vt 0.9456679821014404 0.14297401905059814
vt 0.9351779818534851 0.1473190188407898
vt 0.9535470008850098 0.19166600704193115
vt 0.9640370011329651 0.18731999397277832
vt 0.9900000095367432 0.25
vt 0.9197059869766235 0.41970598697662354
vt 0.8570259809494019 0.44566798210144043
vt 0.8526809811592102 0.4351779818534851
vt 0.8083339929580688 0.45354700088500977
vt 0.8126800060272217 0.4640370011329651
vt 0.75 0.49000000953674316
vt 0.5802940130233765 0.41970598697662354
vt 0.5543320178985596 0.35702598094940186
vt 0.5648220181465149 0.3526809811592102
vt 0.5464529991149902 0.30833399295806885
vt 0.375 0.2605239748954773
vt 0.375 0.49990397691726685
vt 0.625 0.49990397691726685
vt 0.625 0.2605239748954773
vt 0.625 0.9894759999588132
vt 0.625 0.7500959932804108
vt 0.375 0.7500959932804108
vt 0.375 0.9894759999588132
vt 0.37490400671958923 0.75
vt 0.37490400671958923 0.5
vt 0.13552400469779968 0.5
vt 0.13552400469779968 0.75
vt 0.625 0.25009602308273315
vt 0.375 0.25009602308273315
vt 0.375 0.4894760251045227
vt 0.625 0.4894760251045227
vt 0.375 0.7605240046977997
vt 0.375 0.9999039999966044
vt 0.625 0.9999039999966044
vt 0.625 0.7605240046977997
vt 0.12509599328041077 0.5
vt 0.12509599328041077 0.75
vt 0.3644759953022003 0.75
vt 0.3644759953022003 0.5
vt 0.375 0.5
vt 0.375 0.5
vt 0.625 0.25
vt 0.625 0.25
vt 0.625 0.75
vt 0.625 0.75
vt 0.375 1
vt 0.375 1
vt 0.13552400469779968 0.75
vt 0.37490400671958923 0.75
vt 0.37490400671958923 0.5
vt 0.13552400469779968 0.5
vt 0.625 0.25
vt 0.375 0.5
vt 0.375 0.5
vt 0.625 0.25
vt 0.375 1
vt 0.375 1
vt 0.625 0.75
vt 0.625 0.75
vt 0.3644759953022003 0.5
vt 0.12509599328041077 0.5
vt 0.12509599328041077 0.75
vt 0.3644759953022003 0.75
vn 0 1 0
vn 0 1 0
vn 0 1 0
vn 0 1 0
vn 0 1 0
vn 0 1 0
vn 0 1 0
vn 0 1 0
vn 0 1 0
vn 0 1 0
vn 0 1 0
vn 0 1 0
vn 0 1 0
vn 0 1 0
vn 0 1 0
vn 0 1 0
vn 0 1 0
vn 0 1 0
vn 0 1 0
vn 0 1 0
vn 0 1 0
vn 0 1 0
vn 0 1 0
vn 0 1 0
vn 0 1 0
vn 0 1 0
vn 0 1 0
vn 0 1 0
vn 0 0 1
vn 0 0 1
vn 0 0 1
vn 0 0 1
vn 0 0 1
vn 0 0 1
vn 0 0 1
vn 0 0 1
vn -1 0 0
vn -1 0 0
vn -1 0 0
vn -1 0 0
vn -1 0 0
vn -1 0 0
vn -1 0 0
vn -1 0 0
vn 0 -1 0
vn 0 -1 0
vn 0 -1 0
vn 0 -1 0
vn 1 0 0
vn 1 0 0
vn 1 0 0
vn 1 0 0
vn 1 0 0
vn 1 0 0
vn 1 0 0
vn 1 0 0
vn 0 0 -1
vn 0 0 -1
vn 0 0 -1
vn 0 0 -1
vn 0 0 -1
vn 0 0 -1
vn 0 0 -1
vn 0 0 -1
vn 0 0 1
vn 0 0 1
vn 0 0 1
vn 0 0 1
vn 0 0 1
vn 0 0 1
vn 0 0 1
vn 0 0 1
vn -0.7071067811865476 0 0.7071067811865476
vn -0.7071067811865476 0 0.7071067811865476
vn -0.7071067811865476 0 0.7071067811865476
vn -0.7071067811865476 0 0.7071067811865476
vn -1 0 0
vn -1 0 0
vn -1 0 0
vn -1 0 0
vn -1 0 0
vn -1 0 0
vn -1 0 0
vn -1 0 0
vn -0.7071067811865476 0 -0.7071067811865476
vn -0.7071067811865476 0 -0.7071067811865476
vn -0.7071067811865476 0 -0.7071067811865476
vn -0.7071067811865476 0 -0.7071067811865476
vn 0 0 -1
vn 0 0 -1
vn 0 0 -1
vn 0 0 -1
vn 0 0 -1
vn 0 0 -1
vn 0 0 -1
vn 0 0 -1
vn 0.7071067811865476 0 -0.7071067811865476
vn 0.7071067811865476 0 -0.7071067811865476
vn 0.7071067811865476 0 -0.7071067811865476
vn 0.7071067811865476 0 -0.7071067811865476
vn 1 0 0
vn 1 0 0
vn 1 0 0
vn 1 0 0
vn 1 0 0
vn 1 0 0
vn 1 0 0
vn 1 0 0
vn 0.7071067811865476 0 0.7071067811865476
vn 0.7071067811865476 0 0.7071067811865476
vn 0.7071067811865476 0 0.7071067811865476
vn 0.7071067811865476 0 0.7071067811865476
vn 0 1 0
vn 0 1 0
vn 0 1 0
vn 0 1 0
vn 0 1 0
vn 0 1 0
vn 0 1 0
vn 0 1 0
vn 0 1 0
vn 0 1 0
vn 0 1 0
vn 0 1 0
vn 0 1 0
vn 0 1 0
vn 0 1 0
vn 0 1 0
vn 0 1 0
vn 0 1 0
vn 0 1 0
vn 0 1 0
vn 0 1 0
vn 0 1 0
vn 0 1 0
vn 0 1 0
vn 0 0 1
vn 0 0 1
vn 0 0 1
vn 0 0 1
vn 0 0 -1
vn 0 0 -1
vn 0 0 -1
vn 0 0 -1
vn 0 1 0
vn 0 1 0
vn 0 1 0
vn 0 1 0
vn 0 0 1
vn 0 0 1
vn 0 0 1
vn 0 0 1
vn 0 0 -1
vn 0 0 -1
vn 0 0 -1
vn 0 0 -1
vn 0 1 0
vn 0 1 0
vn 0 1 0
vn 0 1 0
vn 1 0 0
vn 1 0 0
vn 1 0 0
vn 1 0 0
vn -1 0 0
vn -1 0 0
vn -1 0 0
vn -1 0 0
vn 0 1 0
vn 0 1 0
vn 0 1 0
vn 0 1 0
vn 1 0 0
vn 1 0 0
vn 1 0 0
vn 1 0 0
vn -1 0 0
vn -1 0 0
vn -1 0 0
vn -1 0 0
vn 0 1 0
vn 0 1 0
vn 0 1 0
vn 0 1 0
f 2/2/2 7/7/7 1/1/1
f 7/7/7 5/5/5 6/6/6
f 5/5/5 3/3/3 4/4/4
f 3/3/3 7/7/7 2/2/2
f 7/7/7 3/3/3 5/5/5
f 9/9/9 14/14/14 8/8/8
f 14/14/14 12/12/12 13/13/13
f 10/10/10 14/14/14 9/9/9
f 14/14/14 11/11/11 12/12/12
f 11/11/11 14/14/14 10/10/10
f 16/16/16 21/21/21 15/15/15
f 21/21/21 19/19/19 20/20/20
f 17/17/17 21/21/21 16/16/16
f 21/21/21 18/18/18 19/19/19
f 18/18/18 21/21/21 17/17/17
f 23/23/23 28/28/28 22/22/22
f 28/28/28 26/26/26 27/27/27
f 26/26/26 24/24/24 25/25/25
f 24/24/24 28/28/28 23/23/23
f 28/28/28 24/24/24 26/26/26
f 35/35/35 36/36/36 29/29/29
f 31/31/31 32/32/32 33/33/33
f 35/35/35 29/29/29 30/30/30
f 31/31/31 33/33/33 34/34/34
f 34/34/34 35/35/35 30/30/30
f 30/30/30 31/31/31 34/34/34
f 38/38/38 44/44/44 37/37/37
f 43/43/43 41/41/41 42/42/42
f 39/39/39 44/44/44 38/38/38
f 43/43/43 40/40/40 41/41/41
f 40/40/40 44/44/44 39/39/39
f 44/44/44 40/40/40 43/43/43
f 47/47/47 48/48/48 45/45/45
f 45/45/45 46/46/46 47/47/47
f 55/55/55 56/56/56 49/49/49
f 51/51/51 52/52/52 53/53/53
f 55/55/55 49/49/49 50/50/50
f 51/51/51 53/53/53 54/54/54
f 54/54/54 55/55/55 50/50/50
f 50/50/50 51/51/51 54/54/54
f 58/58/58 64/64/64 57/57/57
f 63/63/63 61/61/61 62/62/62
f 59/59/59 64/64/64 58/58/58
f 63/63/63 60/60/60 61/61/61
f 60/60/60 64/64/64 59/59/59
f 64/64/64 60/60/60 63/63/63
f 67/67/67 68/68/68 65/65/65
f 65/65/65 66/66/66 67/67/67
f 71/71/71 72/72/72 69/69/69
f 69/69/69 70/70/70 71/71/71
f 74/74/74 76/76/76 73/73/73
f 76/76/76 74/74/74 75/75/75
f 78/78/78 80/80/80 77/77/77
f 80/80/80 78/78/78 79/79/79
f 82/82/82 84/84/84 81/81/81
f 84/84/84 82/82/82 83/83/83
f 86/86/86 88/88/88 85/85/85
f 88/88/88 86/86/86 87/87/87
f 90/90/90 92/92/92 89/89/89
f 92/92/92 90/90/90 91/91/91
f 94/94/94 96/96/96 93/93/93
f 96/96/96 94/94/94 95/95/95
f 99/99/99 100/100/100 97/97/97
f 97/97/97 98/98/98 99/99/99
f 103/103/103 104/104/104 101/101/101
f 101/101/101 102/102/102 103/103/103
f 107/107/107 108/108/108 105/105/105
f 105/105/105 106/106/106 107/107/107
f 111/111/111 112/112/112 109/109/109
f 109/109/109 110/110/110 111/111/111
f 114/114/114 136/136/136 113/113/113
f 135/135/135 133/133/133 134/134/134
f 133/133/133 131/131/131 132/132/132
f 129/129/129 127/127/127 128/128/128
f 127/127/127 125/125/125 126/126/126
f 123/123/123 121/121/121 122/122/122
f 121/121/121 119/119/119 120/120/120
f 117/117/117 115/115/115 116/116/116
f 115/115/115 136/136/136 114/114/114
f 135/135/135 131/131/131 133/133/133
f 129/129/129 125/125/125 127/127/127
f 123/123/123 119/119/119 121/121/121
f 117/117/117 136/136/136 115/115/115
f 136/136/136 131/131/131 135/135/135
f 130/130/130 125/125/125 129/129/129
f 124/124/124 119/119/119 123/123/123
f 118/118/118 136/136/136 117/117/117
f 136/136/136 130/130/130 131/131/131
f 130/130/130 124/124/124 125/125/125
f 124/124/124 118/118/118 119/119/119
f 118/118/118 130/130/130 136/136/136
f 130/130/130 118/118/118 124/124/124
f 130/130/130 128/128/128 131/131/131
f 128/128/128 130/130/130 129/129/129
f 124/124/124 122/122/122 125/125/125
f 122/122/122 124/124/124 123/123/123
f 118/118/118 116/116/116 119/119/119
f 116/116/116 118/118/118 117/117/117
f 136/136/136 134/134/134 113/113/113
f 134/134/134 136/136/136 135/135/135
f 139/139/139 140/140/140 137/137/137
f 137/137/137 138/138/138 139/139/139
f 142/142/142 144/144/144 141/141/141
f 144/144/144 142/142/142 143/143/143
f 146/146/146 148/148/148 145/145/145
f 148/148/148 146/146/146 147/147/147
f 151/151/151 152/152/152 149/149/149
f 149/149/149 150/150/150 151/151/151
f 154/154/154 156/156/156 153/153/153
f 156/156/156 154/154/154 155/155/155
f 158/158/158 160/160/160 157/157/157
f 160/160/160 158/158/158 159/159/159
f 163/163/163 164/164/164 161/161/161
f 161/161/161 162/162/162 163/163/163
f 166/166/166 168/168/168 165/165/165
f 168/168/168 166/166/166 167/167/167
f 170/170/170 172/172/172 169/169/169
f 172/172/172 170/170/170 171/171/171
f 175/175/175 176/176/176 173/173/173
f 173/173/173 174/174/174 175/175/175
f 178/178/178 180/180/180 177/177/177
f 180/180/180 178/178/178 179/179/179
f 182/182/182 184/184/184 181/181/181
f 184/184/184 182/182/182 183/183/183
o Floor_Oct
usemtl Ground2
v -0.36354899406433105 0 -0.8776860237121582
v -0.36354899406433105 0.05000000074505806 -0.8776860237121582
v 0.36354899406433105 0.05000000074505806 -0.8776860237121582
v 0.36354899406433105 0 -0.8776860237121582
v 0.36354899406433105 0 -0.8776860237121582
v 0.36354899406433105 0.05000000074505806 -0.8776860237121582
v 0.8776860237121582 0.05000000074505806 -0.36354899406433105
v 0.8776860237121582 0 -0.36354899406433105
v 0.8776860237121582 0 -0.36354899406433105
v 0.8776860237121582 0.05000000074505806 -0.36354899406433105
v 0.8776860237121582 0.05000000074505806 0.36354899406433105
v 0.8776860237121582 0 0.36354899406433105
v 0.8776860237121582 0 0.36354899406433105
v 0.8776860237121582 0.05000000074505806 0.36354899406433105
v 0.36354899406433105 0.05000000074505806 0.8776860237121582
v 0.36354899406433105 0 0.8776860237121582
v 0.36354899406433105 0 0.8776860237121582
v 0.36354899406433105 0.05000000074505806 0.8776860237121582
v -0.36354899406433105 0.05000000074505806 0.8776860237121582
v -0.36354899406433105 0 0.8776860237121582
v -0.36354899406433105 0 0.8776860237121582
v -0.36354899406433105 0.05000000074505806 0.8776860237121582
v -0.8776860237121582 0.05000000074505806 0.36354899406433105
v -0.8776860237121582 0 0.36354899406433105
v 0.36354899406433105 0.05000000074505806 -0.8776860237121582
v -0.36354899406433105 0.05000000074505806 -0.8776860237121582
v -0.8776860237121582 0.05000000074505806 -0.36354899406433105
v -0.8776860237121582 0.05000000074505806 0.36354899406433105
v -0.36354899406433105 0.05000000074505806 0.8776860237121582
v 0.36354899406433105 0.05000000074505806 0.8776860237121582
v 0.8776860237121582 0.05000000074505806 0.36354899406433105
v 0.8776860237121582 0.05000000074505806 -0.36354899406433105
v -0.8776860237121582 0 0.36354899406433105
v -0.8776860237121582 0.05000000074505806 0.36354899406433105
v -0.8776860237121582 0.05000000074505806 -0.36354899406433105
v -0.8776860237121582 0 -0.36354899406433105
v -0.8776860237121582 0 -0.36354899406433105
v -0.8776860237121582 0.05000000074505806 -0.36354899406433105
v -0.36354899406433105 0.05000000074505806 -0.8776860237121582
v -0.36354899406433105 0 -0.8776860237121582
v -0.36354899406433105 0 -0.8776860237121582
v 0.36354899406433105 0 -0.8776860237121582
v 0.8776860237121582 0 -0.36354899406433105
v 0.8776860237121582 0 0.36354899406433105
v 0.36354899406433105 0 0.8776860237121582
v -0.36354899406433105 0 0.8776860237121582
v -0.8776860237121582 0 0.36354899406433105
v -0.8776860237121582 0 -0.36354899406433105
vt 1 0.5
vt 1 1
vt 0.875 1
vt 0.875 0.5
vt 0.875 0.5
vt 0.875 1
vt 0.75 1
vt 0.75 0.5
vt 0.75 0.5
vt 0.75 1
vt 0.625 1
vt 0.625 0.5
vt 0.625 0.5
vt 0.625 1
vt 0.5 1
vt 0.5 0.5
vt 0.5 0.5
vt 0.5 1
vt 0.375 1
vt 0.375 0.5
vt 0.375 0.5
vt 0.375 1
vt 0.25 1
vt 0.25 0.5
vt 0.41970598697662354 0.41970598697662354
vt 0.25 0.49000000953674316
vt 0.08029399812221527 0.41970598697662354
vt 0.009999999776482582 0.25
vt 0.08029399812221527 0.08029401302337646
vt 0.25 0.009999990463256836
vt 0.41970598697662354 0.08029401302337646
vt 0.49000000953674316 0.25
vt 0.25 0.5
vt 0.25 1
vt 0.125 1
vt 0.125 0.5
vt 0.125 0.5
vt 0.125 1
vt 0 1
vt 0 0.5
vt 0.75 0.49000000953674316
vt 0.9197059869766235 0.41970598697662354
vt 0.9900000095367432 0.25
vt 0.9197059869766235 0.08029401302337646
vt 0.75 0.009999990463256836
vt 0.5802940130233765 0.08029401302337646
vt 0.5099999904632568 0.25
vt 0.5802940130233765 0.41970598697662354
vn 0 0 -1
vn 0 0 -1
vn 0 0 -1
vn 0 0 -1
vn 0.7071067811865476 0 -0.7071067811865476
vn 0.7071067811865476 0 -0.7071067811865476
vn 0.7071067811865476 0 -0.7071067811865476
vn 0.7071067811865476 0 -0.7071067811865476
vn 1 0 0
vn 1 0 0
vn 1 0 0
vn 1 0 0
vn 0.7071067811865476 0 0.7071067811865476
vn 0.7071067811865476 0 0.7071067811865476
vn 0.7071067811865476 0 0.7071067811865476
vn 0.7071067811865476 0 0.7071067811865476
vn 0 0 1
vn 0 0 1
vn 0 0 1
vn 0 0 1
vn -0.7071067811865476 0 0.7071067811865476
vn -0.7071067811865476 0 0.7071067811865476
vn -0.7071067811865476 0 0.7071067811865476
vn -0.7071067811865476 0 0.7071067811865476
vn 0 1 0
vn 0 1 0
vn 0 1 0
vn 0 1 0
vn 0 1 0
vn 0 1 0
vn 0 1 0
vn 0 1 0
vn -1 0 0
vn -1 0 0
vn -1 0 0
vn -1 0 0
vn -0.7071067811865476 0 -0.7071067811865476
vn -0.7071067811865476 0 -0.7071067811865476
vn -0.7071067811865476 0 -0.7071067811865476
vn -0.7071067811865476 0 -0.7071067811865476
vn 0 -1 0
vn 0 -1 0
vn 0 -1 0
vn 0 -1 0
vn 0 -1 0
vn 0 -1 0
vn 0 -1 0
vn 0 -1 0
f 186/186/186 188/188/188 185/185/185
f 188/188/188 186/186/186 187/187/187
f 191/191/191 192/192/192 189/189/189
f 189/189/189 190/190/190 191/191/191
f 195/195/195 196/196/196 193/193/193
f 193/193/193 194/194/194 195/195/195
f 199/199/199 200/200/200 197/197/197
f 197/197/197 198/198/198 199/199/199
f 203/203/203 204/204/204 201/201/201
f 201/201/201 202/202/202 203/203/203
f 206/206/206 208/208/208 205/205/205
f 208/208/208 206/206/206 207/207/207
f 210/210/210 216/216/216 209/209/209
f 216/216/216 214/214/214 215/215/215
f 214/214/214 212/212/212 213/213/213
f 212/212/212 210/210/210 211/211/211
f 210/210/210 214/214/214 216/216/216
f 214/214/214 210/210/210 212/212/212
f 218/218/218 220/220/220 217/217/217
f 220/220/220 218/218/218 219/219/219
f 222/222/222 224/224/224 221/221/221
f 224/224/224 222/222/222 223/223/223
f 231/231/231 232/232/232 225/225/225
f 225/225/225 226/226/226 227/227/227
f 227/227/227 228/228/228 229/229/229
f 229/229/229 230/230/230 231/231/231
f 231/231/231 225/225/225 227/227/227
f 227/227/227 229/229/229 231/231/231
o Arm_1
usemtl Ground2
v 0.05000000074505806 0 -0.8765689730644226
v 0.05000000074505806 0.05000000074505806 -0.8765689730644226
v -0.05000000074505806 0.05000000074505806 -0.8765689730644226
v -0.05000000074505806 0 -0.8765689730644226
v -0.05000000074505806 0 -0.8765689730644226
v -0.05000000074505806 0.05000000074505806 -0.8765689730644226
v -0.05000000074505806 0.05000000074505806 -2.000432014465332
v -0.05000000074505806 0 -2.000432014465332
v -0.05000000074505806 0 -2.000432014465332
v -0.05000000074505806 0.05000000074505806 -2.000432014465332
v 0.05000000074505806 0.05000000074505806 -2.000432014465332
v 0.05000000074505806 0 -2.000432014465332
v 0.05000000074505806 0 -2.000432014465332
v 0.05000000074505806 0.05000000074505806 -2.000432014465332
v 0.05000000074505806 0.05000000074505806 -0.8765689730644226
v 0.05000000074505806 0 -0.8765689730644226
v -0.05000000074505806 0 -0.8765689730644226
v -0.05000000074505806 0 -2.000432014465332
v 0.05000000074505806 0 -2.000432014465332
v 0.05000000074505806 0 -0.8765689730644226
v -0.05000000074505806 0.05000000074505806 -2.000432014465332
v -0.05000000074505806 0.05000000074505806 -0.8765689730644226
v 0.05000000074505806 0.05000000074505806 -0.8765689730644226
v 0.05000000074505806 0.05000000074505806 -2.000432014465332
vt 0.375 0
vt 0.625 0
vt 0.625 0.25
vt 0.375 0.25
vt 0.375 0.25
vt 0.625 0.25
vt 0.625 0.5
vt 0.375 0.5
vt 0.375 0.5
vt 0.625 0.5
vt 0.625 0.75
vt 0.375 0.75
vt 0.375 0.75
vt 0.625 0.75
vt 0.625 1
vt 0.375 1
vt 0.125 0.5
vt 0.375 0.5
vt 0.375 0.75
vt 0.125 0.75
vt 0.625 0.5
vt 0.875 0.5
vt 0.875 0.75
vt 0.625 0.75
vn 0 0 1
vn 0 0 1
vn 0 0 1
vn 0 0 1
vn -1 0 0
vn -1 0 0
vn -1 0 0
vn -1 0 0
vn 0 0 -1
vn 0 0 -1
vn 0 0 -1
vn 0 0 -1
vn 1 0 0
vn 1 0 0
vn 1 0 0
vn 1 0 0
vn 0 -1 0
vn 0 -1 0
vn 0 -1 0
vn 0 -1 0
vn 0 1 0
vn 0 1 0
vn 0 1 0
vn 0 1 0
f 235/235/235 236/236/236 233/233/233
f 233/233/233 234/234/234 235/235/235
f 238/238/238 240/240/240 237/237/237
f 240/240/240 238/238/238 239/239/239
f 242/242/242 244/244/244 241/241/241
f 244/244/244 242/242/242 243/243/243
f 247/247/247 248/248/248 245/245/245
f 245/245/245 246/246/246 247/247/247
f 251/251/251 252/252/252 249/249/249
f 249/249/249 250/250/250 251/251/251
f 254/254/254 256/256/256 253/253/253
f 256/256/256 254/254/254 255/255/255
o Arm_2
usemtl Ground2
v -2.000432014465332 0 0.05000000074505806
v -2.000432014465332 0.05000000074505806 0.05000000074505806
v -2.000432014465332 0.05000000074505806 -0.05000000074505806
v -2.000432014465332 0 -0.05000000074505806
v -2.000432014465332 0 -0.05000000074505806
v -2.000432014465332 0.05000000074505806 -0.05000000074505806
v -0.8765689730644226 0.05000000074505806 -0.05000000074505806
v -0.8765689730644226 0 -0.05000000074505806
v -0.8765689730644226 0 -0.05000000074505806
v -0.8765689730644226 0.05000000074505806 -0.05000000074505806
v -0.8765689730644226 0.05000000074505806 0.05000000074505806
v -0.8765689730644226 0 0.05000000074505806
v -0.8765689730644226 0 0.05000000074505806
v -0.8765689730644226 0.05000000074505806 0.05000000074505806
v -2.000432014465332 0.05000000074505806 0.05000000074505806
v -2.000432014465332 0 0.05000000074505806
v -2.000432014465332 0 -0.05000000074505806
v -0.8765689730644226 0 -0.05000000074505806
v -0.8765689730644226 0 0.05000000074505806
v -2.000432014465332 0 0.05000000074505806
v -0.8765689730644226 0.05000000074505806 -0.05000000074505806
v -2.000432014465332 0.05000000074505806 -0.05000000074505806
v -2.000432014465332 0.05000000074505806 0.05000000074505806
v -0.8765689730644226 0.05000000074505806 0.05000000074505806
vt 0.375 0
vt 0.625 0
vt 0.625 0.25
vt 0.375 0.25
vt 0.375 0.25
vt 0.625 0.25
vt 0.625 0.5
vt 0.375 0.5
vt 0.375 0.5
vt 0.625 0.5
vt 0.625 0.75
vt 0.375 0.75
vt 0.375 0.75
vt 0.625 0.75
vt 0.625 1
vt 0.375 1
vt 0.125 0.5
vt 0.375 0.5
vt 0.375 0.75
vt 0.125 0.75
vt 0.625 0.5
vt 0.875 0.5
vt 0.875 0.75
vt 0.625 0.75
vn -1 0 0
vn -1 0 0
vn -1 0 0
vn -1 0 0
vn 0 0 -1
vn 0 0 -1
vn 0 0 -1
vn 0 0 -1
vn 1 0 0
vn 1 0 0
vn 1 0 0
vn 1 0 0
vn 0 0 1
vn 0 0 1
vn 0 0 1
vn 0 0 1
vn 0 -1 0
vn 0 -1 0
vn 0 -1 0
vn 0 -1 0
vn 0 1 0
vn 0 1 0
vn 0 1 0
vn 0 1 0
f 258/258/258 260/260/260 257/257/257
f 260/260/260 258/258/258 259/259/259
f 262/262/262 264/264/264 261/261/261
f 264/264/264 262/262/262 263/263/263
f 267/267/267 268/268/268 265/265/265
f 265/265/265 266/266/266 267/267/267
f 271/271/271 272/272/272 269/269/269
f 269/269/269 270/270/270 271/271/271
f 275/275/275 276/276/276 273/273/273
f 273/273/273 274/274/274 275/275/275
f 278/278/278 280/280/280 277/277/277
f 280/280/280 278/278/278 279/279/279
o Arm_3
usemtl Ground2
v 0.8765689730644226 0 0.05000000074505806
v 0.8765689730644226 0.05000000074505806 0.05000000074505806
v 0.8765689730644226 0.05000000074505806 -0.05000000074505806
v 0.8765689730644226 0 -0.05000000074505806
v 0.8765689730644226 0 -0.05000000074505806
v 0.8765689730644226 0.05000000074505806 -0.05000000074505806
v 2.000432014465332 0.05000000074505806 -0.05000000074505806
v 2.000432014465332 0 -0.05000000074505806
v 2.000432014465332 0 -0.05000000074505806
v 2.000432014465332 0.05000000074505806 -0.05000000074505806
v 2.000432014465332 0.05000000074505806 0.05000000074505806
v 2.000432014465332 0 0.05000000074505806
v 2.000432014465332 0 0.05000000074505806
v 2.000432014465332 0.05000000074505806 0.05000000074505806
v 0.8765689730644226 0.05000000074505806 0.05000000074505806
v 0.8765689730644226 0 0.05000000074505806
v 0.8765689730644226 0 -0.05000000074505806
v 2.000432014465332 0 -0.05000000074505806
v 2.000432014465332 0 0.05000000074505806
v 0.8765689730644226 0 0.05000000074505806
v 2.000432014465332 0.05000000074505806 -0.05000000074505806
v 0.8765689730644226 0.05000000074505806 -0.05000000074505806
v 0.8765689730644226 0.05000000074505806 0.05000000074505806
v 2.000432014465332 0.05000000074505806 0.05000000074505806
vt 0.375 0
vt 0.625 0
vt 0.625 0.25
vt 0.375 0.25
vt 0.375 0.25
vt 0.625 0.25
vt 0.625 0.5
vt 0.375 0.5
vt 0.375 0.5
vt 0.625 0.5
vt 0.625 0.75
vt 0.375 0.75
vt 0.375 0.75
vt 0.625 0.75
vt 0.625 1
vt 0.375 1
vt 0.125 0.5
vt 0.375 0.5
vt 0.375 0.75
vt 0.125 0.75
vt 0.625 0.5
vt 0.875 0.5
vt 0.875 0.75
vt 0.625 0.75
vn -1 0 0
vn -1 0 0
vn -1 0 0
vn -1 0 0
vn 0 0 -1
vn 0 0 -1
vn 0 0 -1
vn 0 0 -1
vn 1 0 0
vn 1 0 0
vn 1 0 0
vn 1 0 0
vn 0 0 1
vn 0 0 1
vn 0 0 1
vn 0 0 1
vn 0 -1 0
vn 0 -1 0
vn 0 -1 0
vn 0 -1 0
vn 0 1 0
vn 0 1 0
vn 0 1 0
vn 0 1 0
f 282/282/282 284/284/284 281/281/281
f 284/284/284 282/282/282 283/283/283
f 286/286/286 288/288/288 285/285/285
f 288/288/288 286/286/286 287/287/287
f 291/291/291 292/292/292 289/289/289
f 289/289/289 290/290/290 291/291/291
f 295/295/295 296/296/296 293/293/293
f 293/293/293 294/294/294 295/295/295
f 299/299/299 300/300/300 297/297/297
f 297/297/297 298/298/298 299/299/299
f 302/302/302 304/304/304 301/301/301
f 304/304/304 302/302/302 303/303/303
o Arm_4
usemtl Ground2
v 0.05000000074505806 0 2.000432014465332
v 0.05000000074505806 0.05000000074505806 2.000432014465332
v -0.05000000074505806 0.05000000074505806 2.000432014465332
v -0.05000000074505806 0 2.000432014465332
v -0.05000000074505806 0 2.000432014465332
v -0.05000000074505806 0.05000000074505806 2.000432014465332
v -0.05000000074505806 0.05000000074505806 0.8765689730644226
v -0.05000000074505806 0 0.8765689730644226
v -0.05000000074505806 0 0.8765689730644226
v -0.05000000074505806 0.05000000074505806 0.8765689730644226
v 0.05000000074505806 0.05000000074505806 0.8765689730644226
v 0.05000000074505806 0 0.8765689730644226
v 0.05000000074505806 0 0.8765689730644226
v 0.05000000074505806 0.05000000074505806 0.8765689730644226
v 0.05000000074505806 0.05000000074505806 2.000432014465332
v 0.05000000074505806 0 2.000432014465332
v -0.05000000074505806 0 2.000432014465332
v -0.05000000074505806 0 0.8765689730644226
v 0.05000000074505806 0 0.8765689730644226
v 0.05000000074505806 0 2.000432014465332
v -0.05000000074505806 0.05000000074505806 0.8765689730644226
v -0.05000000074505806 0.05000000074505806 2.000432014465332
v 0.05000000074505806 0.05000000074505806 2.000432014465332
v 0.05000000074505806 0.05000000074505806 0.8765689730644226
vt 0.375 0
vt 0.625 0
vt 0.625 0.25
vt 0.375 0.25
vt 0.375 0.25
vt 0.625 0.25
vt 0.625 0.5
vt 0.375 0.5
vt 0.375 0.5
vt 0.625 0.5
vt 0.625 0.75
vt 0.375 0.75
vt 0.375 0.75
vt 0.625 0.75
vt 0.625 1
vt 0.375 1
vt 0.125 0.5
vt 0.375 0.5
vt 0.375 0.75
vt 0.125 0.75
vt 0.625 0.5
vt 0.875 0.5
vt 0.875 0.75
vt 0.625 0.75
vn 0 0 1
vn 0 0 1
vn 0 0 1
vn 0 0 1
vn -1 0 0
vn -1 0 0
vn -1 0 0
vn -1 0 0
vn 0 0 -1
vn 0 0 -1
vn 0 0 -1
vn 0 0 -1
vn 1 0 0
vn 1 0 0
vn 1 0 0
vn 1 0 0
vn 0 -1 0
vn 0 -1 0
vn 0 -1 0
vn 0 -1 0
vn 0 1 0
vn 0 1 0
vn 0 1 0
vn 0 1 0
f 307/307/307 308/308/308 305/305/305
f 305/305/305 306/306/306 307/307/307
f 310/310/310 312/312/312 309/309/309
f 312/312/312 310/310/310 311/311/311
f 314/314/314 316/316/316 313/313/313
f 316/316/316 314/314/314 315/315/315
f 319/319/319 320/320/320 317/317/317
f 317/317/317 318/318/318 319/319/319
f 323/323/323 324/324/324 321/321/321
f 321/321/321 322/322/322 323/323/323
f 326/326/326 328/328/328 325/325/325
f 328/328/328 326/326/326 327/327/327
