# Blender 5.1.1
# www.blender.org
mtllib sneakerfih.mtl
o sneakers
v 0.314760 0.139096 0.312303
v 0.339421 0.053163 0.348196
v 0.394847 0.043361 0.242755
v 0.210846 0.041633 0.346692
v 0.378523 0.132323 0.250372
v 0.220525 0.123583 0.328913
v 0.295997 -0.003831 0.040022
v 0.137189 0.143163 0.158953
v 0.130593 0.000983 0.126847
v 0.273908 0.135471 0.064716
v 0.001696 0.004300 -0.096819
v 0.178022 0.004987 -0.238788
v 0.376921 0.014175 0.193740
v 0.063694 0.007498 -0.287067
v -0.028217 0.006359 -0.172847
v 0.148589 0.007131 -0.270240
v 0.048024 0.157175 -0.270040
v 0.377845 0.049410 0.294450
v 0.279693 0.046711 0.369432
v 0.264630 0.133360 0.327269
v 0.357680 0.139952 0.281733
v 0.186237 0.125278 0.273903
v 0.096743 0.002186 0.009142
v 0.346228 0.126019 0.181174
v 0.242258 -0.002168 -0.055171
v 0.084104 0.196141 0.043402
v 0.277816 0.138993 0.222521
v 0.156518 0.018368 0.280785
v 0.206860 0.188838 -0.042882
v 0.232826 0.140826 0.243412
v 0.000465 0.155191 -0.217765
v 0.097022 0.157217 -0.290853
v 0.311026 0.142561 0.196684
v 0.115689 0.007686 -0.291744
v -0.003502 0.007562 -0.242473
v 0.168670 0.372691 -0.084163
v 0.108298 0.223253 -0.091913
v 0.011182 0.350471 -0.101876
v 0.038274 0.345985 -0.010491
v 0.128164 0.365276 -0.179565
v 0.074748 0.393103 -0.158194
v 0.153967 0.349206 -0.146073
v 0.007741 0.339106 -0.056195
v 0.105776 0.375417 -0.175470
v 0.037760 0.379428 -0.129558
v 0.144606 0.350917 -0.168227
v 0.018080 0.356082 -0.042379
v 0.165155 0.383718 -0.124997
v 0.003200 0.343974 -0.077727
v -0.373363 0.139096 0.303564
v -0.400096 0.053163 0.340465
v -0.458077 0.043361 0.238274
v -0.267404 0.041633 0.337145
v -0.439244 0.132377 0.243484
v -0.276797 0.123583 0.319218
v -0.354295 -0.001307 0.030769
v -0.194773 0.149383 0.156565
v -0.183144 0.000649 0.118385
v -0.327217 0.142271 0.061202
v -0.037519 0.004331 -0.135765
v -0.177713 -0.003445 -0.246437
v -0.430533 0.010031 0.178963
v -0.091543 0.004989 -0.285982
v -0.032859 0.006373 -0.183872
v -0.153491 0.004142 -0.297971
v -0.083108 0.148488 -0.280461
v -0.440819 0.049410 0.289167
v -0.337893 0.046711 0.359960
v -0.321675 0.133360 0.317616
v -0.417666 0.139952 0.274112
v -0.241858 0.125379 0.264778
v -0.146860 0.001327 0.000903
v -0.409318 0.128053 0.174627
v -0.307382 -0.001794 -0.059220
v -0.130545 0.203516 0.045950
v -0.338569 0.140755 0.215006
v -0.211931 0.018368 0.272097
v -0.241669 0.197799 -0.036977
v -0.340766 0.160643 0.142621
v -0.261827 0.153813 0.191918
v -0.291039 0.142050 0.234977
v -0.044520 0.150784 -0.229822
v -0.126406 0.146941 -0.302994
v -0.373807 0.144938 0.189832
v -0.203646 0.224242 -0.016743
v -0.152228 0.221107 0.035185
v -0.125519 0.002624 -0.298677
v -0.054073 0.007000 -0.246356
v -0.154190 0.205473 -0.104566
v -0.207143 0.372382 -0.087840
v -0.058049 0.361684 -0.126315
v -0.081403 0.343521 -0.009771
v -0.148990 0.388008 -0.203023
v -0.098217 0.404241 -0.180440
v -0.166396 0.362156 -0.160513
v -0.062972 0.346598 -0.086160
v -0.126175 0.402623 -0.191344
v -0.078437 0.386862 -0.153861
v -0.150932 0.368982 -0.183065
v -0.097869 0.334747 0.007762
v -0.180547 0.353060 -0.067684
v -0.064719 0.358167 -0.053921
v -0.191294 0.385847 -0.132847
v -0.058197 0.355951 -0.106673
v 0.279084 0.151136 0.148462
v 0.202030 0.144913 0.194556
v 0.172623 0.214576 -0.005764
v 0.122912 0.206765 0.037848
v 0.072073 0.344801 -0.000725
v 0.153356 0.360524 -0.066314
v 0.118910 0.393314 -0.028062
v 0.147250 0.204861 0.017274
v -0.304569 0.145035 0.162032
v -0.178028 0.214842 0.017614
v -0.341417 0.142765 0.142622
v -0.261552 0.135712 0.191902
v -0.204352 0.211985 -0.015874
v -0.152014 0.208005 0.032090
v -0.111202 0.375645 0.000918
v -0.156635 0.393313 -0.024590
v -0.187894 0.389841 -0.061976
v 0.245749 0.137794 0.169245
v 0.279623 0.134581 0.148354
v 0.202345 0.128349 0.195153
v 0.172564 0.200915 -0.006944
v 0.123508 0.194043 0.036729
v 0.081940 0.386097 -0.003892
v 0.154015 0.394673 -0.063012
v 0.058765 0.059165 -0.279770
v -0.026130 0.070488 -0.189995
v 0.135928 0.073768 -0.292741
v 0.003313 0.060145 -0.234312
v 0.103045 0.062697 -0.296409
v 0.331539 0.094073 0.344205
v 0.391068 0.090846 0.254230
v 0.214668 0.081095 0.344139
v 0.305262 0.062298 0.046007
v 0.110616 0.075722 0.161821
v 0.186013 0.077688 -0.221083
v -0.017554 0.060376 -0.109504
v -0.017854 0.068199 -0.158789
v 0.375803 0.094450 0.302712
v 0.273345 0.087326 0.355144
v 0.165843 0.071640 0.305154
v 0.374795 0.075904 0.184452
v 0.254680 0.068847 -0.048385
v 0.073987 0.094407 0.045353
v 0.161374 0.081218 -0.265938
v -0.085721 0.054743 -0.288394
v -0.021960 0.070216 -0.196184
v -0.140065 0.063268 -0.304456
v -0.047275 0.059152 -0.241190
v -0.115933 0.054888 -0.306811
v -0.391536 0.094073 0.336015
v -0.453569 0.090846 0.248923
v -0.271198 0.081095 0.334542
v -0.364158 0.066163 0.041081
v -0.167961 0.077068 0.157002
v -0.187046 0.065835 -0.233283
v -0.031457 0.060382 -0.115309
v -0.030512 0.068082 -0.164800
v -0.437790 0.094450 0.296379
v -0.331247 0.087326 0.345721
v -0.221660 0.071640 0.296308
v -0.437820 0.076723 0.178979
v -0.312535 0.071872 -0.049077
v -0.130049 0.092261 0.042049
v -0.160587 0.069090 -0.278302
v 0.160528 0.286524 -0.049821
v 0.061333 0.275265 0.013312
v 0.141559 0.288023 -0.028939
v 0.090469 0.280862 0.015567
v 0.116471 0.299815 -0.003781
v 0.139357 0.298408 -0.027671
v 0.093131 0.292569 0.013755
v -0.173570 0.284399 -0.043648
v -0.120496 0.279311 0.018979
v -0.194760 0.280035 -0.065586
v -0.103627 0.275603 0.016549
v -0.169550 0.294880 -0.040730
v -0.143804 0.298308 -0.004218
v -0.118821 0.289715 0.016437
v 0.027954 0.330299 -0.139375
v 0.079793 0.326404 -0.178534
v 0.055047 0.335582 -0.164892
v 0.009454 0.297540 -0.118470
v 0.005897 0.292290 -0.099360
v 0.096936 0.302007 -0.181846
v 0.110096 0.295456 -0.170684
v 0.003008 0.273619 -0.063204
v 0.140050 0.304585 -0.146282
v -0.072353 0.346607 -0.160919
v -0.119982 0.355526 -0.204478
v -0.093300 0.357859 -0.191918
v -0.057293 0.300050 -0.108926
v -0.055134 0.306050 -0.131057
v -0.142526 0.324237 -0.213135
v -0.149403 0.310108 -0.190493
v -0.058518 0.288207 -0.083705
v -0.165137 0.306216 -0.146142
v -0.284505 0.484623 0.046866
v 0.348239 0.312391 -0.069957
v -0.263596 0.431878 0.013094
v -0.219187 0.391543 -0.022652
v -0.134549 0.363036 -0.051514
v -0.052321 0.338453 -0.061794
v 0.112429 0.365837 -0.074616
v 0.156261 0.392059 -0.077404
v 0.250097 0.382227 -0.075192
v 0.308249 0.287326 -0.064975
v 0.342079 0.292709 -0.067966
v 0.362301 0.481506 -0.087812
v 0.364111 0.505074 -0.089641
v 0.334779 0.519665 -0.090325
v 0.264763 0.466032 -0.084927
v 0.181950 0.494819 -0.088362
v 0.120134 0.531386 -0.092313
v 0.013064 0.556811 -0.087689
v -0.113325 0.562945 -0.065422
v -0.194447 0.548139 -0.027315
v -0.267934 0.526125 0.021625
v 0.323913 0.433043 -0.081815
v 0.314135 0.384616 -0.076139
v -0.115204 0.475437 -0.012237
v 0.113126 0.457337 -0.041856
v 0.165771 0.447611 -0.052761
v 0.312608 0.297144 -0.056775
v 0.337657 0.505802 -0.081104
v 0.178559 0.484134 -0.079223
v -0.167907 0.477543 -0.000778
v -0.011474 0.470811 -0.025253
v 0.262931 0.426745 -0.065464
v -0.250570 0.484038 0.036809
v 0.124817 0.595367 -0.098191
v -0.050197 0.346413 -0.056653
v -0.067994 0.281875 -0.058963
v -0.047381 0.263519 -0.065460
v 0.008627 0.299485 -0.074656
v -0.006856 0.346855 -0.066468
v 0.109326 0.367306 -0.073804
v 0.125070 0.337229 -0.072454
v 0.150447 0.359157 -0.075385
v 0.151710 0.399644 -0.078388
v 0.115971 0.527739 -0.093063
v 0.136534 0.574137 -0.097396
v -0.045106 0.282003 -0.055993
v -0.002578 0.303638 -0.063535
v 0.134139 0.360234 -0.070648
v 0.123208 0.576857 -0.088879
v 0.015521 0.543918 -0.088527
v -0.120785 0.468840 -0.093966
v 0.108673 0.451627 -0.124284
v 0.162522 0.443536 -0.113010
v 0.313412 0.299739 -0.074794
v 0.336812 0.504675 -0.096890
v 0.177751 0.483346 -0.095162
v -0.224207 0.479820 -0.038894
v -0.017471 0.463416 -0.124981
v 0.261683 0.425281 -0.095450
v -0.274231 0.484752 -0.007342
v -0.048605 0.283518 -0.071375
v -0.006077 0.305153 -0.078916
v 0.133725 0.359665 -0.078492
v 0.122321 0.575776 -0.104664
v -0.274725 0.457758 0.005328
v -0.395100 0.433840 0.188808
v -0.257856 0.465394 0.016701
v -0.390796 0.438521 0.205563
v -0.269563 0.472901 0.009610
v -0.263018 0.450252 0.012419
v -0.395102 0.442004 0.199413
v -0.383080 0.426676 0.185458
v -0.365220 0.446250 0.169712
v -0.382090 0.438614 0.158339
v -0.369275 0.431170 0.165820
v -0.378035 0.453695 0.162230
vn 0.5054 0.0882 -0.8583
vn 0.6552 -0.0789 -0.7513
vn 0.1267 -0.0818 -0.9886
vn -0.0359 -0.0141 -0.9993
vn -0.9439 -0.0676 0.3233
vn -0.8972 -0.0684 0.4362
vn -0.6281 0.3348 0.7024
vn 0.8639 0.4803 -0.1515
vn 0.7562 0.6065 0.2455
vn 0.4727 0.8682 -0.1511
vn 0.7482 0.6018 -0.2795
vn -0.1242 0.9886 0.0856
vn -0.5466 0.7577 0.3564
vn -0.3797 0.7077 0.5957
vn -0.0589 0.8283 0.5571
vn -0.0540 0.9985 -0.0067
vn 0.1840 0.8682 0.4608
vn 0.1383 -0.9727 0.1866
vn 0.5458 -0.7924 0.2722
vn 0.3720 -0.8772 0.3035
vn 0.1396 -0.9589 0.2470
vn 0.2168 0.3537 0.9099
vn -0.5084 0.1280 0.8515
vn 0.2597 0.5986 0.7578
vn -0.3947 0.0542 -0.9172
vn -0.4758 0.0562 -0.8778
vn -0.9971 0.0708 -0.0285
vn -0.9640 0.1688 -0.2053
vn -0.9751 0.0978 -0.1989
vn -0.9873 0.0546 0.1494
vn -0.1703 0.3242 -0.9305
vn 0.5736 0.2358 -0.7845
vn 0.1805 0.3707 -0.9110
vn -0.7650 0.0714 -0.6400
vn -0.7642 0.0860 -0.6393
vn -0.9991 -0.0014 -0.0427
vn -0.0156 0.3661 0.9305
vn 0.4310 0.3790 0.8189
vn -0.7899 0.2866 -0.5421
vn -0.5495 0.3486 -0.7593
vn -0.5296 0.2547 -0.8091
vn -0.8220 0.2322 -0.5201
vn -0.8786 -0.0247 0.4770
vn -0.8618 -0.2232 0.4555
vn -0.8370 -0.3250 0.4403
vn 0.9284 0.2737 0.2515
vn 0.7955 0.2735 0.5406
vn 0.9761 0.2155 0.0280
vn 0.8032 0.2721 0.5299
vn 0.8872 0.0200 0.4610
vn 0.9953 0.0371 -0.0898
vn -0.0101 0.2289 0.9734
vn 0.5298 0.1566 0.8336
vn 0.4703 0.8382 0.2762
vn 0.8987 0.1910 -0.3948
vn 0.6394 0.7010 -0.3157
vn 0.7320 0.6779 -0.0680
vn 0.9039 0.1541 -0.3989
vn 0.8768 0.1628 -0.4525
vn -0.8190 0.1488 0.5542
vn -0.4767 0.2749 0.8350
vn 0.9230 -0.0088 -0.3847
vn 0.0016 -0.9981 0.0610
vn -0.0025 -0.9986 0.0530
vn 0.0451 -0.9822 0.1824
vn 0.0785 -0.9646 0.2519
vn -0.0545 -0.9266 0.3720
vn 0.7402 0.2010 -0.6416
vn 0.8698 0.1574 -0.4676
vn 0.8733 -0.0480 -0.4848
vn -0.9413 0.0176 0.3372
vn -0.6199 0.6440 0.4483
vn -0.5320 0.0467 0.8454
vn -0.9234 -0.2885 0.2533
vn 0.9071 -0.0821 -0.4128
vn 0.8794 -0.0790 -0.4695
vn -0.8976 -0.1675 0.4078
vn -0.1772 0.9479 0.2647
vn -0.6831 0.2725 -0.6776
vn -0.8283 0.1567 -0.5379
vn -0.6625 0.2704 -0.6986
vn 0.1652 0.9816 -0.0958
vn 0.5508 0.6563 -0.5156
vn 0.2364 0.6272 -0.7421
vn 0.1804 0.8972 0.4031
vn 0.7603 -0.0155 0.6494
vn 0.7870 -0.0214 0.6166
vn 0.7967 -0.0236 0.6039
vn 0.6766 0.1364 -0.7236
vn 0.9031 -0.0089 -0.4294
vn -0.8153 0.3532 -0.4588
vn -0.9254 0.3762 -0.0452
vn -0.0203 -0.9995 -0.0241
vn -0.0196 -0.9995 -0.0251
vn -0.0268 -0.9996 -0.0100
vn -0.0266 -0.9996 -0.0105
vn -0.8259 -0.0121 -0.5636
vn -0.8287 0.0197 -0.5594
vn -0.8282 0.0129 -0.5603
vn 0.6279 -0.0297 -0.7777
vn 0.8435 -0.0480 -0.5350
vn 0.8356 -0.1162 -0.5368
vn 0.5946 -0.1220 -0.7947
vn -0.7845 -0.0424 0.6187
vn -0.8198 -0.0682 0.5685
vn 0.9550 -0.2230 -0.1956
vn -0.0129 -0.9996 -0.0257
vn -0.0120 -0.9996 -0.0246
vn 0.8991 0.0358 -0.4362
vn 0.8778 0.0192 -0.4786
vn 0.8717 0.0147 -0.4899
vn 0.2051 0.4931 0.8455
vn 0.5069 0.4214 0.7520
vn 0.5357 0.3967 0.7454
vn 0.4488 0.3958 0.8012
vn 0.5822 0.4950 0.6450
vn -0.9052 0.3953 0.1560
vn -0.3828 0.5518 0.7409
vn 0.5643 0.6476 -0.5119
vn 0.5769 0.5989 -0.5554
vn -0.9318 0.3500 0.0962
vn 0.7502 0.6292 0.2035
vn -0.6675 0.0638 0.7419
vn -0.4776 0.0627 -0.8764
vn 0.2188 -0.0499 -0.9745
vn 0.1576 -0.1381 -0.9778
vn -0.5943 -0.0330 -0.8036
vn 0.9949 0.1001 0.0130
vn 0.9392 -0.1173 0.3228
vn 0.9902 -0.0036 0.1396
vn 0.9901 0.0624 0.1258
vn 0.2166 0.9056 0.3647
vn 0.1188 0.9826 0.1425
vn 0.5524 0.7355 0.3923
vn 0.6489 0.5685 0.5058
vn 0.0660 0.8259 0.5600
vn 0.3754 0.7066 0.5999
vn 0.0320 0.9985 0.0444
vn -0.1647 0.8677 0.4689
vn -0.1152 -0.9772 0.1785
vn -0.3212 -0.9009 0.2919
vn -0.4665 -0.8459 0.2587
vn -0.1322 -0.9580 0.2545
vn -0.9436 0.2858 0.1670
vn -0.7943 0.5531 -0.2514
vn -0.6334 0.6069 0.4801
vn -0.6730 0.3730 0.6387
vn 0.9853 -0.1289 -0.1118
vn 0.9913 -0.0186 -0.1306
vn -0.7928 0.1768 -0.5833
vn -0.8677 0.1228 -0.4816
vn -0.9131 0.0942 -0.3967
vn 0.8807 0.1777 -0.4390
vn 0.6265 0.2016 -0.7529
vn 0.2244 0.3019 -0.9266
vn -0.1317 0.2877 -0.9486
vn -0.9067 0.0310 -0.4207
vn -0.8932 -0.2229 -0.3905
vn 0.8728 0.2036 -0.4435
vn 0.6346 0.2961 -0.7138
vn 0.6563 0.2963 0.6939
vn 0.8826 -0.1244 0.4533
vn 0.9789 0.0660 0.1932
vn 0.9957 0.0805 0.0468
vn -0.8323 -0.0343 0.5532
vn -0.4481 0.1072 0.8875
vn -0.0844 0.5760 0.8130
vn -0.8331 -0.0336 0.5522
vn -0.8299 0.2431 -0.5022
vn -0.8673 0.1378 -0.4782
vn 0.9913 0.1172 -0.0595
vn 0.8116 0.1494 0.5648
vn 0.4686 0.2751 0.8395
vn 0.5222 0.0464 0.8515
vn 0.8972 -0.1460 0.4167
vn -0.3995 0.3914 0.8290
vn -0.4975 0.1680 0.8510
vn 0.0219 0.2296 0.9730
vn 0.0273 0.3681 0.9294
vn -0.9126 -0.0455 -0.4063
vn -0.9953 0.0106 -0.0968
vn -0.9739 0.2242 0.0360
vn -0.8988 0.1800 -0.3996
vn -0.7293 0.6822 -0.0513
vn -0.6558 0.6838 -0.3199
vn -0.4525 0.8435 0.2895
vn -0.7825 0.2981 0.5467
vn -0.8738 0.0420 0.4846
vn -0.0032 -0.9986 0.0536
vn -0.0380 -0.9831 0.1792
vn -0.0012 -0.9989 0.0476
vn -0.0727 -0.9630 0.2595
vn 0.0558 -0.9241 0.3781
vn 0.9346 0.0119 0.3555
vn 0.9269 -0.2583 0.2724
vn -0.8589 0.2024 -0.4704
vn -0.7090 0.6236 -0.3294
vn -0.8490 -0.0058 -0.5284
vn -0.8809 -0.0467 -0.4711
vn -0.2118 0.9745 -0.0739
vn -0.5248 0.8287 -0.1945
vn -0.8358 -0.0308 0.5482
vn -0.8598 0.0068 -0.5106
vn 0.1990 0.2346 0.9515
vn 0.2604 0.1370 0.9557
vn -0.4202 0.1628 0.8927
vn -0.2318 0.2365 0.9436
vn 0.8271 -0.3372 0.4497
vn 0.8289 0.0155 0.5592
vn 0.0544 -0.9984 -0.0169
vn 0.0208 -0.9997 0.0106
vn 0.0194 -0.9998 0.0095
vn 0.0650 -0.9974 -0.0297
vn 0.1533 0.5547 0.8178
vn 0.9361 -0.2106 0.2816
vn 0.0700 -0.9968 -0.0374
vn 0.0843 -0.9950 -0.0537
vn 0.0270 -0.9996 0.0117
vn 0.5994 0.0701 0.7974
vn -0.6054 0.3911 0.6932
vn -0.7748 0.5637 0.2863
vn -0.4635 0.4113 0.7849
vn -0.4452 0.4260 0.7876
vn -0.5471 0.4245 0.7214
vn -0.6730 0.4912 0.5530
vn 0.7847 0.2618 0.5619
vn 0.8536 0.2404 0.4621
vn 0.9572 0.1096 0.2680
vn 0.9885 0.0489 0.1428
vn -0.7774 0.5789 -0.2461
vn -0.7047 0.6148 -0.3542
vn 0.2819 0.7210 0.6331
vn 0.1952 0.2603 0.9456
vn 0.7025 0.2881 -0.6508
vn -0.8301 0.5492 -0.0967
vn -0.8210 0.5413 -0.1815
vn 0.8897 0.2436 0.3862
vn 0.8592 0.2470 0.4481
vn -0.8370 0.5355 0.1121
vn -0.0049 -0.9999 -0.0154
vn 0.8236 -0.0300 0.5664
vn -0.8527 0.2057 -0.4803
vn -0.8423 0.1068 -0.5284
vn 0.8463 0.1102 0.5212
vn 0.7866 0.1132 0.6069
vn 0.7924 0.1579 0.5892
vn 0.4291 0.6894 0.5836
vn -0.0663 0.9836 0.1674
vn 0.0289 0.9912 0.1292
vn 0.1143 0.9905 0.0770
vn -0.0636 0.9830 0.1725
vn 0.0179 0.9769 0.2131
vn -0.6291 0.2471 0.7370
vn -0.4060 0.7477 0.5255
vn -0.2697 0.6980 0.6634
vn -0.8814 0.1260 0.4553
vn -0.5445 0.7176 0.4342
vn -0.1085 0.9879 0.1105
vn 0.6570 0.2703 -0.7037
vn 0.6855 0.2702 -0.6761
vn 0.6365 0.3091 -0.7066
vn 0.7240 0.2782 -0.6312
vn 0.5995 0.2660 0.7549
vn 0.6330 0.1784 0.7533
vn -0.6190 0.3096 -0.7218
vn -0.6800 0.2945 -0.6715
vn -0.9513 -0.2231 0.2128
vn 0.8458 -0.0031 -0.5334
vn 0.2780 0.0871 -0.9566
vn 0.7952 0.1614 -0.5845
vn 0.3979 -0.2588 -0.8801
vn 0.4019 0.2100 0.8913
vn -0.2080 0.1692 0.9634
vn -0.2409 0.1835 0.9530
vn 0.6998 0.2193 0.6798
vn -0.8725 0.0152 0.4883
vn -0.8484 -0.0191 0.5290
vn -0.6976 0.0609 0.7139
vn -0.8529 0.2982 -0.4286
vn -0.6283 0.1442 0.7645
vn -0.9085 0.1606 -0.3858
vn -0.7306 0.2700 -0.6271
vn 0.1820 -0.0598 -0.9815
vn 0.6261 -0.2949 -0.7218
vn -0.5160 0.2692 -0.8132
vn -0.2421 0.1733 -0.9547
vn 0.9155 -0.3286 -0.2323
vn -0.9951 0.0407 -0.0903
vn 0.9545 -0.2670 -0.1332
vn 0.9945 0.0367 0.0984
vn 0.9644 0.0984 -0.2455
vn 0.6079 0.2615 -0.7497
vn 0.2992 0.2566 -0.9190
vn -0.9507 -0.0380 -0.3078
vn -0.8566 -0.1069 -0.5048
vn 0.8619 0.1873 -0.4712
vn 0.2019 0.2230 -0.9537
vn -0.9737 -0.0312 -0.2258
vn -0.8702 -0.2115 -0.4450
vn 0.3320 -0.1454 0.9320
vn 0.2962 0.1262 0.9467
vn -0.0840 -0.2815 0.9559
vn 0.0631 0.1000 0.9930
vn 0.3124 0.1582 0.9367
vn 0.2539 -0.0158 0.9671
vn 0.2489 -0.0149 0.9684
vn 0.3061 0.1942 0.9320
vn 0.0656 0.3371 0.9392
vn 0.2015 0.5056 0.8389
vn 0.3313 0.4602 0.8237
vn 0.3133 0.0401 0.9488
vn 0.1883 0.0944 0.9776
vn 0.1606 0.5399 0.8263
vn 0.1400 0.1335 0.9811
vn 0.3582 0.4432 0.8218
vn 0.3523 0.0071 0.9359
vn 0.1426 -0.3347 0.9315
vn 0.1984 0.1189 0.9729
vn 0.0874 -0.3117 0.9462
vn 0.2840 -0.0100 0.9588
vn 0.1142 -0.3523 0.9289
vn 0.1819 0.0918 0.9790
vn 0.3108 -0.4346 0.8453
vn -0.2342 -0.2032 0.9507
vn -0.2541 -0.5510 0.7949
vn -0.0415 0.5473 0.8359
vn 0.2247 0.5406 0.8107
vn -0.0722 0.4781 0.8754
vn 0.2373 0.5868 0.7742
vn 0.2047 0.5398 0.8166
vn 0.2564 -0.3896 0.8846
vn 0.1229 -0.3288 0.9363
vn 0.0920 0.1523 0.9841
vn -0.0953 0.1072 0.9897
vn 0.0870 0.0128 0.9961
vn 0.1145 -0.1011 0.9883
vn 0.2437 0.1898 0.9511
vn -0.0135 0.0547 0.9984
vn 0.1276 -0.2800 0.9515
vn -0.1257 -0.1747 0.9766
vn 0.1790 -0.4985 0.8482
vn 0.1274 0.0400 0.9910
vn 0.2795 0.0616 0.9582
vn 0.4743 -0.1470 0.8680
vn 0.0140 -0.0837 0.9964
vn 0.2778 -0.0187 0.9605
vn 0.5464 0.0614 0.8353
vn 0.1502 0.4339 0.8884
vn 0.6090 -0.2160 0.7632
vn 0.1577 -0.2776 -0.9477
vn -0.1171 -0.3546 -0.9277
vn 0.1630 -0.0723 -0.9840
vn 0.0599 -0.1155 -0.9915
vn 0.2206 -0.2100 -0.9525
vn 0.2814 -0.0593 -0.9578
vn 0.1799 -0.1809 -0.9669
vn 0.0210 0.1661 -0.9859
vn 0.2559 0.0394 -0.9659
vn -0.3131 0.3375 -0.8877
vn -0.3418 0.0113 -0.9397
vn -0.5472 0.0707 -0.8340
vn -0.4706 0.3572 -0.8068
vn -0.0666 0.3636 -0.9292
vn -0.1116 -0.0282 -0.9933
vn -0.8195 0.0727 -0.5684
vn -0.7540 0.3936 -0.5258
vn 0.0602 -0.4933 -0.8678
vn -0.1566 -0.4079 -0.8995
vn 0.1129 -0.0720 -0.9910
vn -0.9825 0.0069 -0.1862
vn 0.1039 -0.5189 -0.8485
vn 0.1754 -0.1101 -0.9783
vn -0.7676 -0.2710 -0.5809
vn -0.2282 -0.4058 -0.8850
vn -0.2416 -0.5383 -0.8074
vn -0.0645 0.3930 -0.9173
vn 0.2267 0.3591 -0.9053
vn 0.2453 0.4263 -0.8707
vn -0.0790 0.2904 -0.9536
vn 0.1284 0.3548 -0.9261
vn -0.5132 -0.2500 -0.8211
vn -0.3449 -0.3042 -0.8880
vn -0.0128 0.0084 -0.9999
vn -0.0180 -0.1314 -0.9912
vn -0.1993 -0.0356 -0.9793
vn 0.0044 -0.2353 -0.9719
vn -0.1251 -0.0814 -0.9888
vn 0.1347 0.0569 -0.9892
vn -0.3044 -0.0929 -0.9480
vn -0.2230 -0.3244 -0.9193
vn -0.5394 0.0044 -0.8420
vn -0.3081 0.2286 -0.9235
vn -0.1558 0.2502 -0.9556
vn 0.0498 0.0369 -0.9981
vn -0.0899 -0.2263 -0.9699
vn 0.1757 -0.1588 -0.9715
vn 0.4494 -0.0568 -0.8915
vn 0.0469 0.3080 -0.9502
vn 0.2134 -0.0447 -0.9759
vn -0.8077 -0.3029 -0.5058
vn 0.3313 -0.9368 0.1124
vn 0.1726 -0.9648 0.1984
vn -0.9023 -0.4207 -0.0937
vn 0.7269 0.3684 0.5796
vn 0.1153 -0.1427 0.9830
vn -0.3134 0.9441 -0.1028
vn -0.4127 0.9095 -0.0493
vn 0.7446 0.3541 0.5658
vn -0.7534 -0.3267 -0.5706
vn 0.3516 -0.9271 0.1295
vn -0.6942 0.4096 0.5918
vt 0.903101 0.877798
vt 0.942315 0.859253
vt 0.946736 0.888167
vt 0.910349 0.903117
vt 0.437401 0.473433
vt 0.587409 0.443398
vt 0.635225 0.503202
vt 0.815025 0.616813
vt 0.796308 0.606151
vt 0.835877 0.490031
vt 0.846206 0.550200
vt 0.787635 0.395383
vt 0.760795 0.376284
vt 0.796172 0.349542
vt 0.819661 0.355993
vt 0.820529 0.419577
vt 0.846885 0.373987
vt 0.900462 0.191246
vt 0.938967 0.193504
vt 0.963324 0.208237
vt 0.972095 0.232035
vt 0.635782 0.556563
vt 0.606319 0.552318
vt 0.654373 0.515094
vt 0.954151 0.929940
vt 0.915259 0.940525
vt 0.441799 0.567182
vt 0.416786 0.573310
vt 0.389310 0.494455
vt 0.411200 0.486950
vt 0.810961 0.906162
vt 0.819423 0.870019
vt 0.852471 0.903116
vt 0.363882 0.495903
vt 0.367983 0.454030
vt 0.399361 0.447518
vt 0.834926 0.331510
vt 0.866012 0.349673
vt 0.386579 0.611348
vt 0.342229 0.628379
vt 0.330424 0.566368
vt 0.372438 0.559353
vt 0.467739 0.559736
vt 0.444255 0.428542
vt 0.546165 0.397507
vt 0.773352 0.666634
vt 0.757125 0.648396
vt 0.895470 0.413379
vt 0.886438 0.376230
vt 0.915076 0.354935
vt 0.924574 0.400013
vt 0.845975 0.308805
vt 0.882258 0.332012
vt 0.866766 0.398247
vt 0.899188 0.475819
vt 0.869019 0.465883
vt 0.876254 0.419430
vt 0.889055 0.646079
vt 0.896508 0.575864
vt 0.740066 0.347906
vt 0.794817 0.328176
vt 0.937378 0.477699
vt 0.839376 0.282076
vt 0.840215 0.197536
vt 0.889914 0.284707
vt 0.958905 0.261082
vt 0.928255 0.281540
vt 0.896941 0.849284
vt 0.884538 0.807830
vt 0.944322 0.821954
vt 0.653965 0.406013
vt 0.693704 0.447527
vt 0.797069 0.301815
vt 0.618294 0.367678
vt 0.944320 0.669512
vt 0.946145 0.595084
vt 0.708205 0.329478
vt 0.750735 0.428548
vt 0.521067 0.543659
vt 0.548000 0.585264
vt 0.538472 0.596774
vt 0.847825 0.446588
vt 0.558474 0.572420
vt 0.318880 0.786634
vt 0.224346 0.853115
vt 0.224427 0.852522
vt 0.310179 0.783813
vt 0.822868 0.839882
vt 0.782075 0.785245
vt 0.495304 0.583325
vt 0.487288 0.579896
vt 0.739873 0.267441
vt 0.729766 0.191516
vt 0.803415 0.198932
vt 0.788325 0.270989
vt 0.134194 0.845862
vt 0.155288 0.796070
vt 0.155816 0.795837
vt 0.063361 0.352953
vt 0.069812 0.387554
vt 0.033249 0.401207
vt 0.031043 0.359015
vt 0.525688 0.619357
vt 0.476419 0.584431
vt 0.790326 0.952842
vt 0.851601 0.943373
vt 0.731679 0.716454
vt 0.322643 0.503596
vt 0.718173 0.262248
vt 0.714747 0.191432
vt 0.750827 0.428487
vt 0.661975 0.519396
vt 0.488751 0.516327
vt 0.498955 0.510907
vt 0.515766 0.506792
vt 0.535014 0.508118
vt 0.550847 0.514125
vt 0.481858 0.536613
vt 0.482679 0.525271
vt 0.559486 0.531234
vt 0.560158 0.551552
vt 0.481858 0.561543
vt 0.557394 0.521101
vt 0.577412 0.601434
vt 0.603218 0.791795
vt 0.626877 0.791029
vt 0.624642 0.829666
vt 0.600317 0.834644
vt 0.154272 0.478871
vt 0.073293 0.480997
vt 0.075405 0.445974
vt 0.149838 0.447646
vt 0.106483 0.826900
vt 0.135071 0.737967
vt 0.107047 0.891720
vt 0.093163 0.871411
vt 0.163635 0.870083
vt 0.131391 0.914213
vt 0.774273 0.075557
vt 0.706052 0.097316
vt 0.731689 0.076297
vt 0.701434 0.120172
vt 0.363389 0.754821
vt 0.340044 0.803006
vt 0.328603 0.741299
vt 0.653573 0.788561
vt 0.651358 0.823458
vt 0.031493 0.439584
vt 0.069938 0.418194
vt 0.568106 0.706638
vt 0.577009 0.794386
vt 0.545826 0.724463
vt 0.120422 0.385554
vt 0.103298 0.348476
vt 0.596252 0.672342
vt 0.612247 0.732527
vt 0.476236 0.722551
vt 0.386733 0.706636
vt 0.168626 0.384535
vt 0.186173 0.344305
vt 0.163922 0.667917
vt 0.094436 0.642070
vt 0.240620 0.524885
vt 0.175552 0.478312
vt 0.788814 0.601415
vt 0.835975 0.490060
vt 0.389023 0.858044
vt 0.536612 0.795715
vt 0.146203 0.423355
vt 0.067750 0.818563
vt 0.067896 0.878874
vt 0.037244 0.891709
vt 0.033854 0.797079
vt 0.106340 0.951069
vt 0.086709 0.975425
vt 0.054910 0.942680
vt 0.080047 0.919689
vt 0.248973 0.982536
vt 0.173761 0.995462
vt 0.178293 0.974959
vt 0.233759 0.943066
vt 0.177675 0.936060
vt 0.214413 0.909913
vt 0.157267 0.929984
vt 0.136746 0.970679
vt 0.129313 0.989367
vt 0.836666 0.164909
vt 0.786154 0.167548
vt 0.835739 0.080309
vt 0.715915 0.143946
vt 0.739047 0.160137
vt 0.086634 0.712973
vt 0.042350 0.695169
vt 0.325713 0.890017
vt 0.286548 0.853072
vt 0.422845 0.901608
vt 0.359703 0.928680
vt 0.191931 0.891030
vt 0.567058 0.849081
vt 0.226624 0.661267
vt 0.264364 0.635562
vt 0.273426 0.643074
vt 0.233711 0.668908
vt 0.039466 0.621654
vt 0.239624 0.587717
vt 0.933408 0.150473
vt 0.872439 0.156681
vt 0.870980 0.081791
vt 0.934164 0.074092
vt 0.188883 0.686972
vt 0.031776 0.475272
vt 0.622037 0.643679
vt 0.641258 0.722465
vt 0.956394 0.074398
vt 0.955124 0.144170
vt 0.966038 0.089057
vt 0.965804 0.106968
vt 0.962796 0.126625
vt 0.201773 0.627817
vt 0.102013 0.529125
vt 0.130107 0.491907
vt 0.118126 0.531215
vt 0.133978 0.532413
vt 0.148225 0.525318
vt 0.162834 0.516019
vt 0.089718 0.507231
vt 0.097169 0.518779
vt 0.159829 0.450170
vt 0.148298 0.441737
vt 0.644436 0.560606
vt 0.093204 0.455284
vt 0.083549 0.461096
vt 0.165968 0.498274
vt 0.170233 0.469360
vt 0.084965 0.482314
vt 0.166205 0.509161
vt 0.709057 0.223152
vt 0.709726 0.204024
vt 0.712416 0.248936
vt 0.193995 0.694741
vt 0.717943 0.690642
vt 0.713230 0.681559
vt 0.751022 0.641487
vt 0.726869 0.558306
vt 0.798202 0.461886
vt 0.196387 0.822813
vt 0.275131 0.706303
vt 0.251175 0.741822
vt 0.320119 0.736569
vt 0.135929 0.433158
vt 0.113728 0.433158
vt 0.098249 0.441855
vt 0.701546 0.593157
vt 0.676222 0.628007
vt 0.521335 0.598404
vt 0.503659 0.595235
vt 0.317753 0.464352
vt 0.626897 0.601816
vt 0.617190 0.598031
vt 0.338326 0.695965
vt 0.330059 0.689325
vt 0.299087 0.670785
vt 0.424648 0.595874
vt 0.390626 0.626226
vt 0.795479 0.867793
vt 0.801672 0.837192
vt 0.772792 0.955551
vt 0.799083 0.907034
vt 0.790564 0.805005
vt 0.450555 0.590140
vt 0.345607 0.646122
vt 0.727190 0.773147
vt 0.169398 0.448085
vt 0.166244 0.424711
vt 0.616986 0.622975
vt 0.592048 0.656527
vt 0.537631 0.706089
vt 0.502532 0.716389
vt 0.181293 0.384267
vt 0.207951 0.343209
vt 0.558879 0.684260
vt 0.447255 0.687430
vt 0.002667 0.237979
vt -0.001555 0.219892
vt 0.030641 0.231434
vt 0.098811 0.124915
vt 0.041364 0.156492
vt 0.038976 0.112016
vt 0.009064 0.063358
vt 0.010801 0.039742
vt 0.035310 0.043976
vt 0.467119 0.047787
vt 0.555564 0.058021
vt 0.532817 0.119561
vt 0.470314 0.119006
vt 0.357123 0.037945
vt 0.370095 0.117442
vt 0.636714 0.082946
vt 0.623471 0.120684
vt 0.235547 0.206993
vt 0.249846 0.121280
vt 0.393306 0.240861
vt 0.660373 0.121812
vt 0.194818 0.178211
vt 0.197225 0.123835
vt 0.622098 0.168999
vt 0.102541 0.168426
vt 0.034397 0.242543
vt 0.038166 0.032372
vt 0.188950 0.088665
vt 0.101235 0.090628
vt 0.186338 0.078470
vt 0.254073 0.052997
vt 0.563801 0.202362
vt 0.478698 0.228993
vt 0.195739 0.177102
vt 0.235547 0.206993
vt 0.210504 0.213886
vt 0.257168 0.060158
vt 0.252126 0.016896
vt 0.355689 0.045933
vt 0.421719 0.284756
vt 0.442248 0.283646
vt 0.423964 0.301206
vt 0.418216 0.228424
vt 0.376286 0.233206
vt 0.377980 0.270595
vt 0.219337 0.233045
vt 0.195601 0.212782
vt 0.238753 0.018457
vt 0.250599 0.000000
vt 0.365807 0.276465
vt 0.574220 0.119928
vt 0.275263 0.296034
vt 0.274832 0.314891
vt 0.334958 0.314797
vt 0.321859 0.295698
vt 0.275263 0.296034
vt 0.335423 0.295698
vt 0.008850 0.279743
vt 0.275694 0.277178
vt 0.008569 0.297525
vt 0.008288 0.315306
vt 0.335888 0.276599
s 1
usemtl kentspacket
f 131/1/1 16/2/2 34/3/3 133/4/4
f 140/5/5 147/6/6 26/7/7
f 29/8/8 107/9/9 105/10/10 10/11/11
f 30/12/12 22/13/13 6/14/14 20/15/15
f 27/16/16 30/12/12 20/15/15 1/17/17
f 13/18/18 3/19/19 18/20/20
f 13/18/18 18/20/20 2/21/21
f 172/22/22 170/23/23 26/7/7 108/24/24
f 133/4/4 34/3/3 14/25/25 129/26/26
f 187/27/27 186/28/28 130/29/29 141/30/30
f 184/31/31 188/32/32 131/1/1 32/33/33
f 132/34/34 35/35/35 15/36/36 130/29/29
f 1/17/17 20/15/15 143/37/37 134/38/38
f 183/39/39 185/40/40 17/41/41 31/42/42
f 130/29/29 31/42/42 132/34/34
f 190/43/43 187/27/27 141/30/30 140/5/5
f 140/5/5 11/44/44 23/45/45 147/6/6
f 169/46/46 171/47/47 107/9/9 29/8/8
f 141/30/30 130/29/29 15/36/36
f 135/48/48 142/49/49 18/50/50 3/51/51
f 134/38/38 143/37/37 19/52/52 2/53/53
f 21/54/54 1/17/17 134/38/38 142/49/49
f 145/55/55 24/56/56 5/57/57 135/48/48
f 142/49/49 134/38/38 2/53/53 18/50/50
f 146/58/58 29/8/8 10/11/11 137/59/59
f 22/13/13 144/60/60 136/61/61 6/14/14
f 13/62/62 145/55/55 135/48/48 3/51/51
f 9/63/63 7/64/64 13/18/18 28/65/65
f 28/65/65 13/18/18 2/21/21 19/66/66
f 28/65/65 19/66/66 4/67/67
f 148/68/68 139/69/69 12/70/70 16/2/2
f 26/7/7 147/6/6 138/71/71 8/72/72
f 143/37/37 136/61/61 4/73/73 19/52/52
f 20/15/15 6/14/14 136/61/61 143/37/37
f 147/6/6 23/45/45 9/74/74 138/71/71
f 25/75/75 146/58/58 137/59/59 7/76/76
f 144/60/60 28/77/77 4/73/73 136/61/61
f 5/57/57 21/54/54 142/49/49 135/48/48
f 108/24/24 26/7/7 8/72/72 106/78/78
f 37/79/79 109/80/80 127/81/81
f 33/82/82 27/16/16 1/17/17 21/54/54
f 24/56/56 33/82/82 21/54/54 5/57/57
f 12/70/70 139/69/69 146/58/58 25/75/75
f 39/83/83 109/80/84 37/79/85
f 85/84/86 79/85/87 115/86/88 117/87/86
f 10/11/11 105/10/10 33/82/82 24/56/56
f 189/88/89 191/89/90 139/69/69 148/68/68
f 137/59/59 10/11/11 24/56/56 145/55/55
f 7/76/76 137/59/59 145/55/55 13/62/62
f 110/90/91 36/91/92 37/79/85
f 140/5/5 141/30/30 15/36/36 11/44/44
f 138/71/71 9/74/74 28/77/77 144/60/60
f 8/72/72 138/71/71 144/60/60 22/13/13
f 11/92/93 12/93/94 25/94/95 23/95/96
f 23/95/96 25/94/95 7/64/64 9/63/63
f 106/78/78 8/72/72 22/13/13 30/12/12
f 81/96/97 80/97/98 116/98/99
f 149/99/100 152/100/101 88/101/102 63/102/103
f 47/103/104 43/104/105 190/43/43 140/5/5
f 146/58/58 139/69/69 29/8/8
f 131/1/1 148/68/68 16/2/2
f 185/105/40 184/31/31 32/33/33 17/106/41
f 191/89/90 36/107/106 169/46/46
f 188/32/32 189/88/89 148/68/68 131/1/1
f 32/33/33 131/1/1 133/4/4
f 17/106/41 32/33/33 133/4/4 129/26/26
f 31/42/42 17/41/41 129/108/26 132/34/34
f 15/109/107 16/110/108 12/93/94 11/92/93
f 186/28/28 183/39/39 31/42/42 130/29/29
f 108/24/109 106/78/110 124/111/111 126/112/109
f 40/113/112 44/114/113 37/79/85
f 44/114/113 41/115/114 37/79/85
f 41/115/114 45/116/115 37/79/85
f 45/116/115 38/117/116 37/79/85
f 42/118/117 46/119/118 37/79/85
f 46/119/118 40/113/112 37/79/85
f 43/120/119 47/121/120 37/79/85
f 47/121/120 39/83/83 37/79/85
f 36/91/92 48/122/121 37/79/85
f 48/122/121 42/118/117 37/79/85
f 38/117/116 49/123/122 37/79/85
f 49/123/122 43/120/119 37/79/85
f 39/124/123 47/103/104 140/5/5
f 39/124/123 140/5/5 26/7/7 170/23/23
f 151/125/124 153/126/125 87/127/126 65/128/127
f 199/129/128 160/130/129 161/131/130 195/132/131
f 80/97/132 81/96/133 71/133/134 57/134/135
f 81/96/133 69/135/136 55/136/137 71/133/134
f 76/137/138 50/138/139 69/135/136 81/96/133
f 62/139/140 67/140/141 52/141/142
f 62/139/140 51/142/143 67/140/141
f 178/143/144 78/144/145 85/84/146 176/145/147
f 153/126/125 149/146/100 63/147/103 87/127/126
f 161/131/130 64/148/148 150/149/149
f 197/150/150 151/125/124 168/151/151 198/152/152
f 82/153/153 152/100/101 149/99/100 66/154/154
f 193/155/155 83/156/156 151/125/124 197/150/150
f 200/157/157 178/143/144 90/158/158
f 192/159/159 82/153/153 66/154/154 194/160/160
f 152/100/101 150/149/149 64/148/148 88/101/102
f 160/130/129 75/161/161 167/162/162
f 102/163/163 160/130/129 199/129/128 96/164/164
f 105/10/165 107/9/166 125/165/167 123/166/168
f 166/167/169 78/144/145 159/168/170
f 196/169/171 150/149/149 82/153/153 192/159/159
f 164/170/172 156/171/173 53/172/174 77/173/175
f 154/174/176 51/175/177 68/176/178 163/177/179
f 62/178/180 52/179/181 155/180/182 165/181/183
f 165/181/183 155/180/182 54/182/184 73/183/185
f 70/184/186 162/185/187 154/174/176 50/138/139
f 163/177/179 68/176/178 53/172/174 156/171/173
f 71/133/134 55/136/137 156/171/173 164/170/172
f 162/185/187 67/186/188 51/175/177 154/174/176
f 58/187/189 77/188/190 62/139/140 56/189/191
f 77/188/190 68/190/192 51/142/143 62/139/140
f 77/188/190 53/191/193 68/190/192
f 158/192/194 164/170/172 77/173/175 58/193/195
f 75/161/161 57/134/135 158/192/194 167/162/162
f 69/135/136 163/177/179 156/171/173 55/136/137
f 166/167/169 157/194/196 59/195/197 78/144/145
f 157/194/196 165/181/183 73/183/185 59/195/197
f 74/196/198 56/197/199 157/194/196 166/167/169
f 54/182/184 155/180/182 162/185/187 70/184/186
f 155/180/182 52/179/181 67/186/188 162/185/187
f 59/195/197 73/183/185 84/198/200 79/85/201
f 33/82/202 105/10/165 123/166/168
f 84/198/200 70/184/186 50/138/139 76/137/138
f 73/183/185 54/182/184 70/184/186 84/198/200
f 61/199/203 74/196/198 166/167/169 159/168/170
f 177/200/204 100/201/205 119/202/206 182/203/207
f 78/144/145 59/195/197 79/85/201 85/84/146
f 56/197/199 62/178/180 165/181/183 157/194/196
f 167/162/162 158/192/194 58/193/195 72/204/208
f 92/205/209 160/130/129 102/163/163
f 57/134/135 71/133/134 164/170/172 158/192/194
f 168/151/151 65/128/127 61/199/203 159/168/170
f 60/206/210 72/207/211 74/208/212 61/209/213
f 72/207/211 58/187/189 56/189/191 74/208/212
f 86/210/214 80/97/132 57/134/135 75/161/161
f 160/130/129 167/162/162 72/204/208 60/211/215
f 198/152/152 168/151/151 159/168/170 200/157/157
f 151/125/124 65/128/127 168/151/151
f 194/212/160 66/213/154 83/156/156 193/155/155
f 50/138/139 154/174/176 163/177/179 69/135/136
f 83/156/156 153/126/125 151/125/124
f 195/132/131 161/131/130 150/149/149 196/169/171
f 66/213/154 149/146/100 153/126/125 83/156/156
f 65/214/216 64/215/217 60/206/210 61/209/213
f 87/216/218 63/217/218 88/218/218 64/215/217 65/214/216
f 150/149/149 152/100/101 82/153/153
f 177/200/204 86/210/214 75/161/161 179/219/219
f 93/220/220 89/221/221 97/222/222
f 97/222/222 89/221/221 94/223/223
f 94/223/223 89/221/221 98/224/224
f 98/224/224 89/221/221 91/225/225
f 95/226/226 89/221/227 99/227/228
f 99/227/228 89/221/227 93/220/229
f 92/228/230 89/221/221 100/229/231
f 172/22/22 108/24/24 126/112/232 175/230/233
f 101/231/234 89/221/234 90/232/234
f 96/233/235 89/221/221 102/234/236
f 102/234/236 89/221/221 92/228/230
f 90/232/237 89/221/227 103/235/238
f 103/235/238 89/221/227 95/226/226
f 91/225/225 89/221/221 104/236/239
f 104/236/239 89/221/221 96/233/235
f 160/130/129 60/211/215 64/148/148 161/131/130
f 92/205/209 179/219/219 75/161/161 160/130/129
f 14/237/240 34/238/240 16/110/108 15/109/107 35/239/240
f 79/85/87 84/198/241 115/86/88
f 80/97/98 86/210/242 118/240/243 116/98/99
f 171/47/47 110/241/244 128/242/245 174/243/246
f 112/244/247 126/112/232 124/111/248 122/245/249
f 122/245/249 124/111/248 30/12/12 27/16/16
f 123/166/250 122/245/249 27/16/16 33/82/82
f 123/166/250 125/165/167 112/244/247 122/245/249
f 113/246/251 76/137/138 81/96/133 116/98/252
f 181/247/253 114/248/254 118/240/255 182/203/207
f 180/249/256 117/87/257 114/248/254 181/247/253
f 115/86/258 84/198/200 76/137/138 113/246/251
f 117/87/257 115/86/258 113/246/251 114/248/254
f 114/248/254 113/246/251 116/98/252 118/240/255
f 119/250/259 89/221/260 120/251/261
f 120/251/261 89/221/260 121/252/262
f 175/230/233 126/112/232 112/244/247 173/253/263
f 174/243/246 128/242/245 111/254/264 173/253/263
f 37/79/79 127/81/81 111/255/265
f 111/255/265 128/256/266 37/79/79
f 89/221/267 101/231/267 121/252/267
f 106/78/110 30/12/268 124/111/111
f 110/90/269 37/79/269 128/256/269
f 176/145/147 85/84/146 117/87/257 180/249/256
f 100/229/270 89/221/260 119/250/259
f 129/108/26 14/257/25 35/35/35 132/34/34
f 156/171/271 155/180/271 54/182/271 55/136/271
f 125/165/167 174/243/246 173/253/263 112/244/247
f 127/258/272 175/230/233 173/253/263 111/254/264
f 107/9/166 171/47/273 174/243/246 125/165/167
f 109/259/274 172/22/22 175/230/233 127/258/272
f 36/107/275 110/241/244 171/47/47 169/46/46
f 109/259/274 39/124/123 170/23/23 172/22/22
f 101/260/276 176/145/147 180/249/256 121/261/277
f 121/261/277 180/249/256 181/247/253 120/262/278
f 120/262/278 181/247/253 182/203/207 119/202/206
f 100/201/205 177/200/204 179/219/219 92/205/209
f 86/210/242 177/200/279 182/203/279 118/240/243
f 90/158/280 178/143/144 176/145/147 101/260/276
f 38/263/281 45/264/282 183/39/39 186/28/28
f 40/265/283 46/266/284 189/88/89 188/32/32
f 41/267/285 44/268/286 184/31/31 185/105/40
f 46/266/284 42/269/287 191/89/90 189/88/89
f 43/104/105 49/270/288 187/27/27 190/43/43
f 45/264/282 41/271/285 185/40/40 183/39/39
f 44/268/286 40/265/283 188/32/32 184/31/31
f 49/270/288 38/263/281 186/28/28 187/27/27
f 48/272/289 36/107/106 191/89/90
f 42/269/287 48/272/289 191/89/90
f 139/69/69 191/89/90 169/46/46 29/8/8
f 104/273/290 195/132/131 196/169/171 91/274/291
f 94/275/292 194/212/160 193/155/155 97/276/293
f 99/277/294 198/152/152 200/157/157 95/278/295
f 91/274/291 196/169/171 192/159/159 98/279/296
f 98/279/296 192/159/159 194/160/160 94/280/292
f 97/276/293 193/155/155 197/150/150 93/281/297
f 93/281/298 197/150/150 198/152/152 99/277/294
f 96/164/164 199/129/128 195/132/131 104/273/290
f 103/282/299 200/157/157 90/158/158
f 95/278/295 200/157/157 103/282/299
f 159/168/170 78/144/145 178/143/144 200/157/157
f 211/283/300 202/284/301 227/285/302
f 232/286/303 223/287/304 222/288/305
f 227/285/302 202/284/301 223/287/304
f 212/289/306 213/290/307 228/291/308
f 219/292/309 220/293/310 230/294/311 224/295/312
f 218/296/313 219/292/309 224/295/312 231/297/314
f 228/291/308 222/288/305 212/289/306
f 220/293/310 221/298/315 233/299/316 230/294/311
f 207/300/317 225/301/318 231/297/314 206/302/319
f 221/298/315 201/303/320 233/299/316
f 208/304/321 226/305/322 225/301/318 207/300/317
f 201/303/320 203/306/323 233/299/316
f 209/307/324 232/286/303 226/305/322 208/304/321
f 227/285/302 209/307/324 210/308/325
f 211/283/300 227/285/302 210/308/325
f 228/291/308 213/290/307 214/309/326
f 229/310/327 215/311/328 216/312/329
f 217/313/330 229/310/327 216/312/329
f 215/311/328 228/291/308 214/309/326
f 232/286/303 209/307/324 227/285/302
f 232/286/303 222/288/305 228/291/308
f 230/294/311 233/299/316 203/306/323 204/314/331
f 225/301/318 226/305/322 229/310/327 217/313/330
f 231/297/314 225/301/318 217/313/330 218/296/313
f 224/295/312 230/294/311 204/314/331 205/315/332
f 231/297/314 224/295/312 205/315/332 206/302/319
f 226/305/322 232/286/303 215/311/328 229/310/327
f 223/287/304 232/286/303 227/285/302
f 215/311/328 232/286/303 228/291/308
f 243/316/333 240/317/334 248/318/335
f 244/319/336 249/320/337 250/321/338
f 246/322/339 236/323/340 237/324/341
f 246/322/339 235/325/342 236/323/340
f 239/326/343 235/325/342 246/322/339 247/327/344
f 248/318/335 240/317/334 241/328/345
f 248/318/335 241/328/345 242/329/346
f 243/316/333 248/318/335 242/329/346
f 249/320/337 244/319/336 245/330/347
f 249/320/337 245/330/347 234/331/348
f 247/327/344 246/322/339 237/324/341 238/332/349
f 250/321/338 249/320/337 234/331/348
f 247/327/344 238/332/349 239/326/343
f 211/283/350 254/285/351 202/284/352
f 259/286/353 222/288/354 223/287/355
f 254/285/351 223/287/355 202/284/352
f 212/289/356 255/291/357 213/290/358
f 219/292/359 251/295/360 257/333/361 220/293/362
f 218/296/363 258/297/364 251/295/360 219/292/359
f 255/291/357 212/289/356 222/288/354
f 220/293/362 257/333/361 260/299/365 221/298/366
f 207/300/367 206/302/368 258/297/364 252/301/369
f 221/298/366 260/299/365 201/303/370
f 208/304/371 207/300/367 252/301/369 253/305/372
f 201/303/370 260/299/365 203/306/373
f 209/307/374 208/304/371 253/305/372 259/286/353
f 254/285/351 210/308/375 209/307/374
f 211/283/350 210/308/375 254/285/351
f 255/291/357 214/309/376 213/290/358
f 256/310/377 216/312/378 215/311/379
f 217/313/380 216/312/378 256/310/377
f 215/311/379 214/309/376 255/291/357
f 259/286/353 254/285/351 209/307/374
f 259/286/353 255/291/357 222/288/354
f 257/333/361 204/314/381 203/306/373 260/299/365
f 252/301/369 217/313/380 256/310/377 253/305/372
f 258/297/364 218/296/363 217/313/380 252/301/369
f 251/295/360 205/315/382 204/314/381 257/333/361
f 258/297/364 206/302/368 205/315/382 251/295/360
f 253/305/372 256/310/377 215/311/379 259/286/353
f 223/287/355 254/285/351 259/286/353
f 215/311/379 255/291/357 259/286/353
f 243/316/383 263/318/384 240/317/385
f 244/319/386 250/321/387 264/320/388
f 261/322/389 237/324/390 236/323/391
f 261/322/389 236/323/391 235/325/392
f 239/326/393 262/327/394 261/322/389 235/325/392
f 263/318/384 241/328/395 240/317/385
f 263/318/384 242/329/396 241/328/395
f 243/316/383 242/329/396 263/318/384
f 264/320/388 245/330/397 244/319/386
f 264/320/388 234/331/398 245/330/397
f 262/327/394 238/332/399 237/324/390 261/322/389
f 250/321/387 234/331/398 264/320/388
f 262/327/394 239/326/393 238/332/399
f 274/334/400 275/335/401 272/336/402 266/337/403
f 273/338/404 268/339/405 272/336/402 275/335/401
f 269/340/406 276/341/407 273/338/404 267/342/408
f 265/342/409 270/343/410 275/335/401 274/334/400
f 276/341/407 271/344/411 268/339/405 273/338/404
f 276/341/407 274/334/400 266/337/403 271/344/411
f 266/337/403 272/336/402 268/339/405 271/344/411
f 267/342/408 273/338/404 275/335/401 270/343/410
f 269/340/406 265/342/409 274/334/400 276/341/407
