mtllib AmmoCrate.mtl
o Cube
usemtl Crate_Grey
v 0.5177109837532043 -0.5177109837532043 0.8999999761581421
v 0.5177109837532043 0.5177109837532043 0.8999999761581421
v -0.5177109837532043 0.5177109837532043 0.8999999761581421
v -0.5177109837532043 -0.5177109837532043 0.8999999761581421
v 0.6000000238418579 -0.5177109837532043 -0.7765660285949707
v 0.6000000238418579 0.5177109837532043 -0.7765660285949707
v 0.6000000238418579 0.5177109837532043 0.7765660285949707
v 0.6000000238418579 -0.5177109837532043 0.7765660285949707
v 0.5177109837532043 0.6000000238418579 -0.7765660285949707
v -0.5177109837532043 0.6000000238418579 -0.7765660285949707
v -0.5177109837532043 0.6000000238418579 0.7765660285949707
v 0.5177109837532043 0.6000000238418579 0.7765660285949707
v -0.6000000238418579 -0.5177109837532043 0.7765660285949707
v -0.6000000238418579 0.5177109837532043 0.7765660285949707
v -0.6000000238418579 0.5177109837532043 -0.7765660285949707
v -0.6000000238418579 -0.5177109837532043 -0.7765660285949707
v -0.5177109837532043 -0.5177109837532043 -0.8999999761581421
v -0.5177109837532043 0.5177109837532043 -0.8999999761581421
v 0.5177109837532043 0.5177109837532043 -0.8999999761581421
v 0.5177109837532043 -0.5177109837532043 -0.8999999761581421
v -0.5177109837532043 -0.6000000238418579 0.7765660285949707
v -0.5177109837532043 -0.5177109837532043 0.8999999761581421
v -0.6000000238418579 -0.5177109837532043 0.7765660285949707
v -0.5177109837532043 0.5177109837532043 0.8999999761581421
v -0.5177109837532043 0.6000000238418579 0.7765660285949707
v -0.6000000238418579 0.5177109837532043 0.7765660285949707
v -0.5177109837532043 -0.6000000238418579 -0.7765660285949707
v -0.6000000238418579 -0.5177109837532043 -0.7765660285949707
v -0.5177109837532043 -0.5177109837532043 -0.8999999761581421
v -0.5177109837532043 0.6000000238418579 -0.7765660285949707
v -0.5177109837532043 0.5177109837532043 -0.8999999761581421
v -0.6000000238418579 0.5177109837532043 -0.7765660285949707
v 0.5177109837532043 -0.6000000238418579 0.7765660285949707
v 0.6000000238418579 -0.5177109837532043 0.7765660285949707
v 0.5177109837532043 -0.5177109837532043 0.8999999761581421
v 0.5177109837532043 0.6000000238418579 0.7765660285949707
v 0.5177109837532043 0.5177109837532043 0.8999999761581421
v 0.6000000238418579 0.5177109837532043 0.7765660285949707
v 0.5177109837532043 -0.6000000238418579 -0.7765660285949707
v 0.5177109837532043 -0.5177109837532043 -0.8999999761581421
v 0.6000000238418579 -0.5177109837532043 -0.7765660285949707
v 0.5177109837532043 0.6000000238418579 -0.7765660285949707
v 0.6000000238418579 0.5177109837532043 -0.7765660285949707
v 0.5177109837532043 0.5177109837532043 -0.8999999761581421
v -0.5177109837532043 -0.6000000238418579 -0.7765660285949707
v -0.5177109837532043 -0.6000000238418579 0.7765660285949707
v -0.6000000238418579 -0.5177109837532043 0.7765660285949707
v -0.6000000238418579 -0.5177109837532043 -0.7765660285949707
v -0.5177109837532043 -0.5177109837532043 0.8999999761581421
v -0.5177109837532043 0.5177109837532043 0.8999999761581421
v -0.6000000238418579 0.5177109837532043 0.7765660285949707
v -0.6000000238418579 -0.5177109837532043 0.7765660285949707
v -0.5177109837532043 0.6000000238418579 0.7765660285949707
v -0.5177109837532043 0.6000000238418579 -0.7765660285949707
v -0.6000000238418579 0.5177109837532043 -0.7765660285949707
v -0.6000000238418579 0.5177109837532043 0.7765660285949707
v -0.5177109837532043 0.5177109837532043 -0.8999999761581421
v -0.5177109837532043 -0.5177109837532043 -0.8999999761581421
v -0.6000000238418579 -0.5177109837532043 -0.7765660285949707
v -0.6000000238418579 0.5177109837532043 -0.7765660285949707
v 0.5177109837532043 -0.6000000238418579 -0.7765660285949707
v -0.5177109837532043 -0.6000000238418579 -0.7765660285949707
v -0.5177109837532043 -0.5177109837532043 -0.8999999761581421
v 0.5177109837532043 -0.5177109837532043 -0.8999999761581421
v -0.5177109837532043 0.6000000238418579 -0.7765660285949707
v 0.5177109837532043 0.6000000238418579 -0.7765660285949707
v 0.5177109837532043 0.5177109837532043 -0.8999999761581421
v -0.5177109837532043 0.5177109837532043 -0.8999999761581421
v 0.6000000238418579 0.5177109837532043 -0.7765660285949707
v 0.6000000238418579 -0.5177109837532043 -0.7765660285949707
v 0.5177109837532043 -0.5177109837532043 -0.8999999761581421
v 0.5177109837532043 0.5177109837532043 -0.8999999761581421
v 0.5177109837532043 -0.6000000238418579 0.7765660285949707
v 0.5177109837532043 -0.6000000238418579 -0.7765660285949707
v 0.6000000238418579 -0.5177109837532043 -0.7765660285949707
v 0.6000000238418579 -0.5177109837532043 0.7765660285949707
v 0.5177109837532043 0.6000000238418579 -0.7765660285949707
v 0.5177109837532043 0.6000000238418579 0.7765660285949707
v 0.6000000238418579 0.5177109837532043 0.7765660285949707
v 0.6000000238418579 0.5177109837532043 -0.7765660285949707
v 0.5177109837532043 0.5177109837532043 0.8999999761581421
v 0.5177109837532043 -0.5177109837532043 0.8999999761581421
v 0.6000000238418579 -0.5177109837532043 0.7765660285949707
v 0.6000000238418579 0.5177109837532043 0.7765660285949707
v -0.5177109837532043 -0.6000000238418579 0.7765660285949707
v 0.5177109837532043 -0.6000000238418579 0.7765660285949707
v 0.5177109837532043 -0.5177109837532043 0.8999999761581421
v -0.5177109837532043 -0.5177109837532043 0.8999999761581421
v 0.5177109837532043 0.6000000238418579 0.7765660285949707
v -0.5177109837532043 0.6000000238418579 0.7765660285949707
v -0.5177109837532043 0.5177109837532043 0.8999999761581421
v 0.5177109837532043 0.5177109837532043 0.8999999761581421
v -0.5177109837532043 -0.6000000238418579 -0.7765660285949707
v 0.5177109837532043 -0.6000000238418579 -0.7765660285949707
v 0.5177109837532043 -0.6000000238418579 0.7765660285949707
v -0.5177109837532043 -0.6000000238418579 0.7765660285949707
vt 0.39214399456977844 0.7671439945697784
vt 0.6078559756278992 0.7671439945697784
vt 0.6078559756278992 0.9828559998422861
vt 0.39214399456977844 0.9828570000827312
vt 0.39214399456977844 0.5171439945697784
vt 0.6078559756278992 0.5171439945697784
vt 0.6078559756278992 0.7328560054302216
vt 0.39214399456977844 0.7328569889068604
vt 0.6421440243721008 0.5171439945697784
vt 0.8578559756278992 0.5171439945697784
vt 0.8578559756278992 0.7328560054302216
vt 0.6421440243721008 0.7328569889068604
vt 0.39214399456977844 0.01714402437210083
vt 0.6078559756278992 0.01714402437210083
vt 0.6078559756278992 0.23285597562789917
vt 0.39214399456977844 0.23285597562789917
vt 0.39214399456977844 0.26714402437210083
vt 0.6078559756278992 0.26714402437210083
vt 0.6078559756278992 0.48285597562789917
vt 0.39214399456977844 0.48285597562789917
vt 0.14214399456977844 0.7328569889068604
vt 0.14214399456977844 0.75
vt 0.125 0.7328560054302216
vt 0.6078559756278992 0
vt 0.625 0.01714402437210083
vt 0.6078559756278992 0.01714402437210083
vt 0.14214399456977844 0.5171439945697784
vt 0.125 0.5171439945697784
vt 0.14214399456977844 0.5
vt 0.625 0.23285597562789917
vt 0.6078559756278992 0.25
vt 0.6078559756278992 0.23285597562789917
vt 0.35785600543022156 0.7328560054302216
vt 0.375 0.7328560054302216
vt 0.35785600543022156 0.75
vt 0.625 0.7671439945697784
vt 0.6078559756278992 0.7671439945697784
vt 0.6078559756278992 0.75
vt 0.35785600543022156 0.5171439945697784
vt 0.35785600543022156 0.5
vt 0.375 0.5171439945697784
vt 0.625 0.48285597562789917
vt 0.6078559756278992 0.5
vt 0.6078559756278992 0.48285597562789917
vt 0.14214399456977844 0.5171439945697784
vt 0.14214399456977844 0.7328569889068604
vt 0.125 0.7328560054302216
vt 0.125 0.5171439945697784
vt 0.39214399456977844 0
vt 0.6078559756278992 0
vt 0.6078559756278992 0.01714402437210083
vt 0.39214399456977844 0.01714402437210083
vt 0.625 0.01714402437210083
vt 0.625 0.23285597562789917
vt 0.6078559756278992 0.23285597562789917
vt 0.6078559756278992 0.01714402437210083
vt 0.6078559756278992 0.26714402437210083
vt 0.39214399456977844 0.26714402437210083
vt 0.39214399456977844 0.23285597562789917
vt 0.6078559756278992 0.23285597562789917
vt 0.35785600543022156 0.5171439945697784
vt 0.14214399456977844 0.5171439945697784
vt 0.14214399456977844 0.5
vt 0.35785600543022156 0.5
vt 0.625 0.26714402437210083
vt 0.625 0.48285597562789917
vt 0.6078559756278992 0.48285597562789917
vt 0.6078559756278992 0.26714402437210083
vt 0.6078559756278992 0.5171439945697784
vt 0.39214399456977844 0.5171439945697784
vt 0.39214399456977844 0.48285597562789917
vt 0.6078559756278992 0.48285597562789917
vt 0.35785600543022156 0.7328560054302216
vt 0.35785600543022156 0.5171439945697784
vt 0.39214399456977844 0.5171439945697784
vt 0.39214399456977844 0.7328569889068604
vt 0.6421440243721008 0.5171439945697784
vt 0.6421440243721008 0.7328569889068604
vt 0.6078559756278992 0.7328560054302216
vt 0.6078559756278992 0.5171439945697784
vt 0.6078559756278992 0.7671439945697784
vt 0.39214399456977844 0.7671439945697784
vt 0.39214399456977844 0.7328569889068604
vt 0.6078559756278992 0.7328560054302216
vt 0.14214399456977844 0.7328569889068604
vt 0.35785600543022156 0.7328560054302216
vt 0.35785600543022156 0.75
vt 0.14214399456977844 0.75
vt 0.625 0.7671439945697784
vt 0.625 0.9828559998422861
vt 0.6078559756278992 0.9828559998422861
vt 0.6078559756278992 0.7671439945697784
vt 0.14214399456977844 0.5171439945697784
vt 0.35785600543022156 0.5171439945697784
vt 0.35785600543022156 0.7328560054302216
vt 0.14214399456977844 0.7328569889068604
vn 0 0 1
vn 0 0 1
vn 0 0 1
vn 0 0 1
vn 1 0 0
vn 1 0 0
vn 1 0 0
vn 1 0 0
vn 0 1 0
vn 0 1 0
vn 0 1 0
vn 0 1 0
vn -1 0 0
vn -1 0 0
vn -1 0 0
vn -1 0 0
vn 0 0 -1
vn 0 0 -1
vn 0 0 -1
vn 0 0 -1
vn -0.639602143648227 -0.639602143648227 0.4264014489670335
vn -0.639602143648227 -0.639602143648227 0.4264014489670335
vn -0.639602143648227 -0.639602143648227 0.4264014489670335
vn -0.639602143648227 0.639602143648227 0.4264014489670335
vn -0.639602143648227 0.639602143648227 0.4264014489670335
vn -0.639602143648227 0.639602143648227 0.4264014489670335
vn -0.639602143648227 -0.639602143648227 -0.4264014489670335
vn -0.639602143648227 -0.639602143648227 -0.4264014489670335
vn -0.639602143648227 -0.639602143648227 -0.4264014489670335
vn -0.639602143648227 0.639602143648227 -0.4264014489670335
vn -0.639602143648227 0.639602143648227 -0.4264014489670335
vn -0.639602143648227 0.639602143648227 -0.4264014489670335
vn 0.639602143648227 -0.639602143648227 0.4264014489670335
vn 0.639602143648227 -0.639602143648227 0.4264014489670335
vn 0.639602143648227 -0.639602143648227 0.4264014489670335
vn 0.639602143648227 0.639602143648227 0.4264014489670335
vn 0.639602143648227 0.639602143648227 0.4264014489670335
vn 0.639602143648227 0.639602143648227 0.4264014489670335
vn 0.639602143648227 -0.639602143648227 -0.4264014489670335
vn 0.639602143648227 -0.639602143648227 -0.4264014489670335
vn 0.639602143648227 -0.639602143648227 -0.4264014489670335
vn 0.639602143648227 0.639602143648227 -0.4264014489670335
vn 0.639602143648227 0.639602143648227 -0.4264014489670335
vn 0.639602143648227 0.639602143648227 -0.4264014489670335
vn -0.7071067811865476 -0.7071067811865476 0
vn -0.7071067811865476 -0.7071067811865476 0
vn -0.7071067811865476 -0.7071067811865476 0
vn -0.7071067811865476 -0.7071067811865476 0
vn -0.8320656811856401 0 0.554677115259929
vn -0.8320656811856401 0 0.554677115259929
vn -0.8320656811856401 0 0.554677115259929
vn -0.8320656811856401 0 0.554677115259929
vn -0.7071067811865476 0.7071067811865476 0
vn -0.7071067811865476 0.7071067811865476 0
vn -0.7071067811865476 0.7071067811865476 0
vn -0.7071067811865476 0.7071067811865476 0
vn -0.8320656811856401 0 -0.554677115259929
vn -0.8320656811856401 0 -0.554677115259929
vn -0.8320656811856401 0 -0.554677115259929
vn -0.8320656811856401 0 -0.554677115259929
vn 0 -0.8320656811856401 -0.554677115259929
vn 0 -0.8320656811856401 -0.554677115259929
vn 0 -0.8320656811856401 -0.554677115259929
vn 0 -0.8320656811856401 -0.554677115259929
vn 0 0.8320656811856401 -0.554677115259929
vn 0 0.8320656811856401 -0.554677115259929
vn 0 0.8320656811856401 -0.554677115259929
vn 0 0.8320656811856401 -0.554677115259929
vn 0.8320656811856401 0 -0.554677115259929
vn 0.8320656811856401 0 -0.554677115259929
vn 0.8320656811856401 0 -0.554677115259929
vn 0.8320656811856401 0 -0.554677115259929
vn 0.7071067811865476 -0.7071067811865476 0
vn 0.7071067811865476 -0.7071067811865476 0
vn 0.7071067811865476 -0.7071067811865476 0
vn 0.7071067811865476 -0.7071067811865476 0
vn 0.7071067811865476 0.7071067811865476 0
vn 0.7071067811865476 0.7071067811865476 0
vn 0.7071067811865476 0.7071067811865476 0
vn 0.7071067811865476 0.7071067811865476 0
vn 0.8320656811856401 0 0.554677115259929
vn 0.8320656811856401 0 0.554677115259929
vn 0.8320656811856401 0 0.554677115259929
vn 0.8320656811856401 0 0.554677115259929
vn 0 -0.8320656811856401 0.554677115259929
vn 0 -0.8320656811856401 0.554677115259929
vn 0 -0.8320656811856401 0.554677115259929
vn 0 -0.8320656811856401 0.554677115259929
vn 0 0.8320656811856401 0.554677115259929
vn 0 0.8320656811856401 0.554677115259929
vn 0 0.8320656811856401 0.554677115259929
vn 0 0.8320656811856401 0.554677115259929
vn 0 -1 0
vn 0 -1 0
vn 0 -1 0
vn 0 -1 0
f 3/3/3 4/4/4 1/1/1
f 1/1/1 2/2/2 3/3/3
f 7/7/7 8/8/8 5/5/5
f 5/5/5 6/6/6 7/7/7
f 10/10/10 12/12/12 9/9/9
f 12/12/12 10/10/10 11/11/11
f 14/14/14 16/16/16 13/13/13
f 16/16/16 14/14/14 15/15/15
f 18/18/18 20/20/20 17/17/17
f 20/20/20 18/18/18 19/19/19
f 21/21/21 22/22/22 23/23/23
f 24/24/24 25/25/25 26/26/26
f 27/27/27 28/28/28 29/29/29
f 30/30/30 31/31/31 32/32/32
f 33/33/33 34/34/34 35/35/35
f 36/36/36 37/37/37 38/38/38
f 39/39/39 40/40/40 41/41/41
f 42/42/42 43/43/43 44/44/44
f 47/47/47 48/48/48 45/45/45
f 45/45/45 46/46/46 47/47/47
f 50/50/50 52/52/52 49/49/49
f 52/52/52 50/50/50 51/51/51
f 54/54/54 56/56/56 53/53/53
f 56/56/56 54/54/54 55/55/55
f 58/58/58 60/60/60 57/57/57
f 60/60/60 58/58/58 59/59/59
f 63/63/63 64/64/64 61/61/61
f 61/61/61 62/62/62 63/63/63
f 66/66/66 68/68/68 65/65/65
f 68/68/68 66/66/66 67/67/67
f 71/71/71 72/72/72 69/69/69
f 69/69/69 70/70/70 71/71/71
f 75/75/75 76/76/76 73/73/73
f 73/73/73 74/74/74 75/75/75
f 78/78/78 80/80/80 77/77/77
f 80/80/80 78/78/78 79/79/79
f 83/83/83 84/84/84 81/81/81
f 81/81/81 82/82/82 83/83/83
f 87/87/87 88/88/88 85/85/85
f 85/85/85 86/86/86 87/87/87
f 90/90/90 92/92/92 89/89/89
f 92/92/92 90/90/90 91/91/91
f 95/95/95 96/96/96 93/93/93
f 93/93/93 94/94/94 95/95/95
o Button1
usemtl Button_Red
v -0.03826799988746643 0.574999988079071 -0.5923879742622375
v -0.03826799988746643 0.625 -0.5923879742622375
v 0.03826799988746643 0.625 -0.5923879742622375
v 0.03826799988746643 0.574999988079071 -0.5923879742622375
v 0.03826799988746643 0.574999988079071 -0.5923879742622375
v 0.03826799988746643 0.625 -0.5923879742622375
v 0.09238799661397934 0.625 -0.5382680296897888
v 0.09238799661397934 0.574999988079071 -0.5382680296897888
v 0.09238799661397934 0.574999988079071 -0.5382680296897888
v 0.09238799661397934 0.625 -0.5382680296897888
v 0.09238799661397934 0.625 -0.46173200011253357
v 0.09238799661397934 0.574999988079071 -0.46173200011253357
v 0.09238799661397934 0.574999988079071 -0.46173200011253357
v 0.09238799661397934 0.625 -0.46173200011253357
v 0.03826799988746643 0.625 -0.40761199593544006
v 0.03826799988746643 0.574999988079071 -0.40761199593544006
v 0.03826799988746643 0.574999988079071 -0.40761199593544006
v 0.03826799988746643 0.625 -0.40761199593544006
v -0.03826799988746643 0.625 -0.40761199593544006
v -0.03826799988746643 0.574999988079071 -0.40761199593544006
v -0.03826799988746643 0.574999988079071 -0.40761199593544006
v -0.03826799988746643 0.625 -0.40761199593544006
v -0.09238799661397934 0.625 -0.46173200011253357
v -0.09238799661397934 0.574999988079071 -0.46173200011253357
v 0.03826799988746643 0.625 -0.5923879742622375
v -0.03826799988746643 0.625 -0.5923879742622375
v -0.09238799661397934 0.625 -0.5382680296897888
v -0.09238799661397934 0.625 -0.46173200011253357
v -0.03826799988746643 0.625 -0.40761199593544006
v 0.03826799988746643 0.625 -0.40761199593544006
v 0.09238799661397934 0.625 -0.46173200011253357
v 0.09238799661397934 0.625 -0.5382680296897888
v -0.09238799661397934 0.574999988079071 -0.46173200011253357
v -0.09238799661397934 0.625 -0.46173200011253357
v -0.09238799661397934 0.625 -0.5382680296897888
v -0.09238799661397934 0.574999988079071 -0.5382680296897888
v -0.09238799661397934 0.574999988079071 -0.5382680296897888
v -0.09238799661397934 0.625 -0.5382680296897888
v -0.03826799988746643 0.625 -0.5923879742622375
v -0.03826799988746643 0.574999988079071 -0.5923879742622375
v -0.03826799988746643 0.574999988079071 -0.5923879742622375
v 0.03826799988746643 0.574999988079071 -0.5923879742622375
v 0.09238799661397934 0.574999988079071 -0.5382680296897888
v 0.09238799661397934 0.574999988079071 -0.46173200011253357
v 0.03826799988746643 0.574999988079071 -0.40761199593544006
v -0.03826799988746643 0.574999988079071 -0.40761199593544006
v -0.09238799661397934 0.574999988079071 -0.46173200011253357
v -0.09238799661397934 0.574999988079071 -0.5382680296897888
vt 1 0.5
vt 1 1
vt 0.875 1
vt 0.875 0.5
vt 0.875 0.5
vt 0.875 1
vt 0.75 1
vt 0.75 0.5
vt 0.75 0.5
vt 0.75 1
vt 0.625 1
vt 0.625 0.5
vt 0.625 0.5
vt 0.625 1
vt 0.5 1
vt 0.5 0.5
vt 0.5 0.5
vt 0.5 1
vt 0.375 1
vt 0.375 0.5
vt 0.375 0.5
vt 0.375 1
vt 0.25 1
vt 0.25 0.5
vt 0.41970598697662354 0.41970598697662354
vt 0.25 0.49000000953674316
vt 0.08029399812221527 0.41970598697662354
vt 0.009999999776482582 0.25
vt 0.08029399812221527 0.08029401302337646
vt 0.25 0.009999990463256836
vt 0.41970598697662354 0.08029401302337646
vt 0.49000000953674316 0.25
vt 0.25 0.5
vt 0.25 1
vt 0.125 1
vt 0.125 0.5
vt 0.125 0.5
vt 0.125 1
vt 0 1
vt 0 0.5
vt 0.75 0.49000000953674316
vt 0.9197059869766235 0.41970598697662354
vt 0.9900000095367432 0.25
vt 0.9197059869766235 0.08029401302337646
vt 0.75 0.009999990463256836
vt 0.5802940130233765 0.08029401302337646
vt 0.5099999904632568 0.25
vt 0.5802940130233765 0.41970598697662354
vn 0 0 -1
vn 0 0 -1
vn 0 0 -1
vn 0 0 -1
vn 0.7071067811865476 0 -0.7071067811865476
vn 0.7071067811865476 0 -0.7071067811865476
vn 0.7071067811865476 0 -0.7071067811865476
vn 0.7071067811865476 0 -0.7071067811865476
vn 1 0 0
vn 1 0 0
vn 1 0 0
vn 1 0 0
vn 0.7071067811865476 0 0.7071067811865476
vn 0.7071067811865476 0 0.7071067811865476
vn 0.7071067811865476 0 0.7071067811865476
vn 0.7071067811865476 0 0.7071067811865476
vn 0 0 1
vn 0 0 1
vn 0 0 1
vn 0 0 1
vn -0.7071067811865476 0 0.7071067811865476
vn -0.7071067811865476 0 0.7071067811865476
vn -0.7071067811865476 0 0.7071067811865476
vn -0.7071067811865476 0 0.7071067811865476
vn 0 1 0
vn 0 1 0
vn 0 1 0
vn 0 1 0
vn 0 1 0
vn 0 1 0
vn 0 1 0
vn 0 1 0
vn -1 0 0
vn -1 0 0
vn -1 0 0
vn -1 0 0
vn -0.7071067811865476 0 -0.7071067811865476
vn -0.7071067811865476 0 -0.7071067811865476
vn -0.7071067811865476 0 -0.7071067811865476
vn -0.7071067811865476 0 -0.7071067811865476
vn 0 -1 0
vn 0 -1 0
vn 0 -1 0
vn 0 -1 0
vn 0 -1 0
vn 0 -1 0
vn 0 -1 0
vn 0 -1 0
f 98/98/98 100/100/100 97/97/97
f 100/100/100 98/98/98 99/99/99
f 102/102/102 104/104/104 101/101/101
f 104/104/104 102/102/102 103/103/103
f 107/107/107 108/108/108 105/105/105
f 105/105/105 106/106/106 107/107/107
f 111/111/111 112/112/112 109/109/109
f 109/109/109 110/110/110 111/111/111
f 115/115/115 116/116/116 113/113/113
f 113/113/113 114/114/114 115/115/115
f 118/118/118 120/120/120 117/117/117
f 120/120/120 118/118/118 119/119/119
f 122/122/122 128/128/128 121/121/121
f 128/128/128 126/126/126 127/127/127
f 126/126/126 124/124/124 125/125/125
f 124/124/124 122/122/122 123/123/123
f 122/122/122 126/126/126 128/128/128
f 126/126/126 122/122/122 124/124/124
f 130/130/130 132/132/132 129/129/129
f 132/132/132 130/130/130 131/131/131
f 134/134/134 136/136/136 133/133/133
f 136/136/136 134/134/134 135/135/135
f 143/143/143 144/144/144 137/137/137
f 137/137/137 138/138/138 139/139/139
f 139/139/139 140/140/140 141/141/141
f 141/141/141 142/142/142 143/143/143
f 143/143/143 137/137/137 139/139/139
f 139/139/139 141/141/141 143/143/143
o Button2
usemtl Button_Blue
v -0.03826799988746643 0.574999988079071 -0.19238799810409546
v -0.03826799988746643 0.625 -0.19238799810409546
v 0.03826799988746643 0.625 -0.19238799810409546
v 0.03826799988746643 0.574999988079071 -0.19238799810409546
v 0.03826799988746643 0.574999988079071 -0.19238799810409546
v 0.03826799988746643 0.625 -0.19238799810409546
v 0.09238799661397934 0.625 -0.13826799392700195
v 0.09238799661397934 0.574999988079071 -0.13826799392700195
v 0.09238799661397934 0.574999988079071 -0.13826799392700195
v 0.09238799661397934 0.625 -0.13826799392700195
v 0.09238799661397934 0.625 -0.06173200160264969
v 0.09238799661397934 0.574999988079071 -0.06173200160264969
v 0.09238799661397934 0.574999988079071 -0.06173200160264969
v 0.09238799661397934 0.625 -0.06173200160264969
v 0.03826799988746643 0.625 -0.007612000219523907
v 0.03826799988746643 0.574999988079071 -0.007612000219523907
v 0.03826799988746643 0.574999988079071 -0.007612000219523907
v 0.03826799988746643 0.625 -0.007612000219523907
v -0.03826799988746643 0.625 -0.007612000219523907
v -0.03826799988746643 0.574999988079071 -0.007612000219523907
v -0.03826799988746643 0.574999988079071 -0.007612000219523907
v -0.03826799988746643 0.625 -0.007612000219523907
v -0.09238799661397934 0.625 -0.06173200160264969
v -0.09238799661397934 0.574999988079071 -0.06173200160264969
v 0.03826799988746643 0.625 -0.19238799810409546
v -0.03826799988746643 0.625 -0.19238799810409546
v -0.09238799661397934 0.625 -0.13826799392700195
v -0.09238799661397934 0.625 -0.06173200160264969
v -0.03826799988746643 0.625 -0.007612000219523907
v 0.03826799988746643 0.625 -0.007612000219523907
v 0.09238799661397934 0.625 -0.06173200160264969
v 0.09238799661397934 0.625 -0.13826799392700195
v -0.09238799661397934 0.574999988079071 -0.06173200160264969
v -0.09238799661397934 0.625 -0.06173200160264969
v -0.09238799661397934 0.625 -0.13826799392700195
v -0.09238799661397934 0.574999988079071 -0.13826799392700195
v -0.09238799661397934 0.574999988079071 -0.13826799392700195
v -0.09238799661397934 0.625 -0.13826799392700195
v -0.03826799988746643 0.625 -0.19238799810409546
v -0.03826799988746643 0.574999988079071 -0.19238799810409546
v -0.03826799988746643 0.574999988079071 -0.19238799810409546
v 0.03826799988746643 0.574999988079071 -0.19238799810409546
v 0.09238799661397934 0.574999988079071 -0.13826799392700195
v 0.09238799661397934 0.574999988079071 -0.06173200160264969
v 0.03826799988746643 0.574999988079071 -0.007612000219523907
v -0.03826799988746643 0.574999988079071 -0.007612000219523907
v -0.09238799661397934 0.574999988079071 -0.06173200160264969
v -0.09238799661397934 0.574999988079071 -0.13826799392700195
vt 1 0.5
vt 1 1
vt 0.875 1
vt 0.875 0.5
vt 0.875 0.5
vt 0.875 1
vt 0.75 1
vt 0.75 0.5
vt 0.75 0.5
vt 0.75 1
vt 0.625 1
vt 0.625 0.5
vt 0.625 0.5
vt 0.625 1
vt 0.5 1
vt 0.5 0.5
vt 0.5 0.5
vt 0.5 1
vt 0.375 1
vt 0.375 0.5
vt 0.375 0.5
vt 0.375 1
vt 0.25 1
vt 0.25 0.5
vt 0.41970598697662354 0.41970598697662354
vt 0.25 0.49000000953674316
vt 0.08029399812221527 0.41970598697662354
vt 0.009999999776482582 0.25
vt 0.08029399812221527 0.08029401302337646
vt 0.25 0.009999990463256836
vt 0.41970598697662354 0.08029401302337646
vt 0.49000000953674316 0.25
vt 0.25 0.5
vt 0.25 1
vt 0.125 1
vt 0.125 0.5
vt 0.125 0.5
vt 0.125 1
vt 0 1
vt 0 0.5
vt 0.75 0.49000000953674316
vt 0.9197059869766235 0.41970598697662354
vt 0.9900000095367432 0.25
vt 0.9197059869766235 0.08029401302337646
vt 0.75 0.009999990463256836
vt 0.5802940130233765 0.08029401302337646
vt 0.5099999904632568 0.25
vt 0.5802940130233765 0.41970598697662354
vn 0 0 -1
vn 0 0 -1
vn 0 0 -1
vn 0 0 -1
vn 0.7071067811865476 0 -0.7071067811865476
vn 0.7071067811865476 0 -0.7071067811865476
vn 0.7071067811865476 0 -0.7071067811865476
vn 0.7071067811865476 0 -0.7071067811865476
vn 1 0 0
vn 1 0 0
vn 1 0 0
vn 1 0 0
vn 0.7071067811865476 0 0.7071067811865476
vn 0.7071067811865476 0 0.7071067811865476
vn 0.7071067811865476 0 0.7071067811865476
vn 0.7071067811865476 0 0.7071067811865476
vn 0 0 1
vn 0 0 1
vn 0 0 1
vn 0 0 1
vn -0.7071067811865476 0 0.7071067811865476
vn -0.7071067811865476 0 0.7071067811865476
vn -0.7071067811865476 0 0.7071067811865476
vn -0.7071067811865476 0 0.7071067811865476
vn 0 1 0
vn 0 1 0
vn 0 1 0
vn 0 1 0
vn 0 1 0
vn 0 1 0
vn 0 1 0
vn 0 1 0
vn -1 0 0
vn -1 0 0
vn -1 0 0
vn -1 0 0
vn -0.7071067811865476 0 -0.7071067811865476
vn -0.7071067811865476 0 -0.7071067811865476
vn -0.7071067811865476 0 -0.7071067811865476
vn -0.7071067811865476 0 -0.7071067811865476
vn 0 -1 0
vn 0 -1 0
vn 0 -1 0
vn 0 -1 0
vn 0 -1 0
vn 0 -1 0
vn 0 -1 0
vn 0 -1 0
f 146/146/146 148/148/148 145/145/145
f 148/148/148 146/146/146 147/147/147
f 151/151/151 152/152/152 149/149/149
f 149/149/149 150/150/150 151/151/151
f 155/155/155 156/156/156 153/153/153
f 153/153/153 154/154/154 155/155/155
f 159/159/159 160/160/160 157/157/157
f 157/157/157 158/158/158 159/159/159
f 163/163/163 164/164/164 161/161/161
f 161/161/161 162/162/162 163/163/163
f 166/166/166 168/168/168 165/165/165
f 168/168/168 166/166/166 167/167/167
f 170/170/170 176/176/176 169/169/169
f 176/176/176 174/174/174 175/175/175
f 174/174/174 172/172/172 173/173/173
f 172/172/172 170/170/170 171/171/171
f 170/170/170 174/174/174 176/176/176
f 174/174/174 170/170/170 172/172/172
f 178/178/178 180/180/180 177/177/177
f 180/180/180 178/178/178 179/179/179
f 182/182/182 184/184/184 181/181/181
f 184/184/184 182/182/182 183/183/183
f 191/191/191 192/192/192 185/185/185
f 185/185/185 186/186/186 187/187/187
f 187/187/187 188/188/188 189/189/189
f 189/189/189 190/190/190 191/191/191
f 191/191/191 185/185/185 187/187/187
f 187/187/187 189/189/189 191/191/191
o AmmoSymbol
usemtl AmmoBlue
v 0.5899999737739563 0.25999999046325684 0.19499999284744263
v 0.5899999737739563 0.2800000011920929 0.19499999284744263
v 0.5899999737739563 0.2800000011920929 -0.03500000014901161
v 0.5899999737739563 0.25999999046325684 -0.03500000014901161
v 0.5899999737739563 0.25999999046325684 -0.03500000014901161
v 0.5899999737739563 0.2800000011920929 -0.03500000014901161
v 0.6100000143051147 0.2800000011920929 -0.03500000014901161
v 0.6100000143051147 0.25999999046325684 -0.03500000014901161
v 0.6100000143051147 0.25999999046325684 -0.03500000014901161
v 0.6100000143051147 0.2800000011920929 -0.03500000014901161
v 0.6100000143051147 0.2800000011920929 0.19499999284744263
v 0.6100000143051147 0.25999999046325684 0.19499999284744263
v 0.6100000143051147 0.25999999046325684 0.19499999284744263
v 0.6100000143051147 0.2800000011920929 0.19499999284744263
v 0.5899999737739563 0.2800000011920929 0.19499999284744263
v 0.5899999737739563 0.25999999046325684 0.19499999284744263
v 0.5899999737739563 0.25999999046325684 -0.03500000014901161
v 0.6100000143051147 0.25999999046325684 -0.03500000014901161
v 0.6100000143051147 0.25999999046325684 0.19499999284744263
v 0.5899999737739563 0.25999999046325684 0.19499999284744263
v 0.6100000143051147 0.2800000011920929 -0.03500000014901161
v 0.5899999737739563 0.2800000011920929 -0.03500000014901161
v 0.5899999737739563 0.2800000011920929 0.19499999284744263
v 0.6100000143051147 0.2800000011920929 0.19499999284744263
v 0.5899999737739563 -0.23999999463558197 0.1858000010251999
v 0.5899999737739563 -0.2199999988079071 0.1858000010251999
v 0.5899999737739563 -0.2199999988079071 -0.18219999969005585
v 0.5899999737739563 -0.23999999463558197 -0.18219999969005585
v 0.5899999737739563 -0.23999999463558197 -0.18219999969005585
v 0.5899999737739563 -0.2199999988079071 -0.18219999969005585
v 0.6100000143051147 -0.2199999988079071 -0.18219999969005585
v 0.6100000143051147 -0.23999999463558197 -0.18219999969005585
v 0.6100000143051147 -0.23999999463558197 -0.18219999969005585
v 0.6100000143051147 -0.2199999988079071 -0.18219999969005585
v 0.6100000143051147 -0.2199999988079071 0.1858000010251999
v 0.6100000143051147 -0.23999999463558197 0.1858000010251999
v 0.6100000143051147 -0.23999999463558197 0.1858000010251999
v 0.6100000143051147 -0.2199999988079071 0.1858000010251999
v 0.5899999737739563 -0.2199999988079071 0.1858000010251999
v 0.5899999737739563 -0.23999999463558197 0.1858000010251999
v 0.5899999737739563 -0.23999999463558197 -0.18219999969005585
v 0.6100000143051147 -0.23999999463558197 -0.18219999969005585
v 0.6100000143051147 -0.23999999463558197 0.1858000010251999
v 0.5899999737739563 -0.23999999463558197 0.1858000010251999
v 0.6100000143051147 -0.2199999988079071 -0.18219999969005585
v 0.5899999737739563 -0.2199999988079071 -0.18219999969005585
v 0.5899999737739563 -0.2199999988079071 0.1858000010251999
v 0.6100000143051147 -0.2199999988079071 0.1858000010251999
v 0.5899999737739563 -0.23999999463558197 0.17659999430179596
v 0.5899999737739563 -0.23999999463558197 0.19499999284744263
v 0.5899999737739563 0.2800000011920929 0.19499999284744263
v 0.5899999737739563 0.2800000011920929 0.17659999430179596
v 0.5899999737739563 0.2800000011920929 0.17659999430179596
v 0.5899999737739563 0.2800000011920929 0.19499999284744263
v 0.6100000143051147 0.2800000011920929 0.19499999284744263
v 0.6100000143051147 0.2800000011920929 0.17659999430179596
v 0.6100000143051147 0.2800000011920929 0.17659999430179596
v 0.6100000143051147 0.2800000011920929 0.19499999284744263
v 0.6100000143051147 -0.23999999463558197 0.19499999284744263
v 0.6100000143051147 -0.23999999463558197 0.17659999430179596
v 0.6100000143051147 -0.23999999463558197 0.17659999430179596
v 0.6100000143051147 -0.23999999463558197 0.19499999284744263
v 0.5899999737739563 -0.23999999463558197 0.19499999284744263
v 0.5899999737739563 -0.23999999463558197 0.17659999430179596
v 0.5899999737739563 0.2800000011920929 0.17659999430179596
v 0.6100000143051147 0.2800000011920929 0.17659999430179596
v 0.6100000143051147 -0.23999999463558197 0.17659999430179596
v 0.5899999737739563 -0.23999999463558197 0.17659999430179596
v 0.6100000143051147 0.2800000011920929 0.19499999284744263
v 0.5899999737739563 0.2800000011920929 0.19499999284744263
v 0.5899999737739563 -0.23999999463558197 0.19499999284744263
v 0.6100000143051147 -0.23999999463558197 0.19499999284744263
v 0.5899999737739563 -0.23999999463558197 -0.19140000641345978
v 0.5899999737739563 -0.23999999463558197 -0.17299999296665192
v 0.5899999737739563 0.17000000178813934 -0.17299999296665192
v 0.5899999737739563 0.17000000178813934 -0.19140000641345978
v 0.5899999737739563 0.17000000178813934 -0.19140000641345978
v 0.5899999737739563 0.17000000178813934 -0.17299999296665192
v 0.6100000143051147 0.17000000178813934 -0.17299999296665192
v 0.6100000143051147 0.17000000178813934 -0.19140000641345978
v 0.6100000143051147 0.17000000178813934 -0.19140000641345978
v 0.6100000143051147 0.17000000178813934 -0.17299999296665192
v 0.6100000143051147 -0.23999999463558197 -0.17299999296665192
v 0.6100000143051147 -0.23999999463558197 -0.19140000641345978
v 0.6100000143051147 -0.23999999463558197 -0.19140000641345978
v 0.6100000143051147 -0.23999999463558197 -0.17299999296665192
v 0.5899999737739563 -0.23999999463558197 -0.17299999296665192
v 0.5899999737739563 -0.23999999463558197 -0.19140000641345978
v 0.5899999737739563 0.17000000178813934 -0.19140000641345978
v 0.6100000143051147 0.17000000178813934 -0.19140000641345978
v 0.6100000143051147 -0.23999999463558197 -0.19140000641345978
v 0.5899999737739563 -0.23999999463558197 -0.19140000641345978
v 0.6100000143051147 0.17000000178813934 -0.17299999296665192
v 0.5899999737739563 0.17000000178813934 -0.17299999296665192
v 0.5899999737739563 -0.23999999463558197 -0.17299999296665192
v 0.6100000143051147 -0.23999999463558197 -0.17299999296665192
v 0.5899999737739563 0.2642990052700043 -0.022571999579668045
v 0.5899999737739563 0.2809619903564453 -0.03274799883365631
v 0.5899999737739563 0.1703529953956604 -0.1860480010509491
v 0.5899999737739563 0.15368999540805817 -0.17587199807167053
v 0.5899999737739563 0.15368999540805817 -0.17587199807167053
v 0.5899999737739563 0.1703529953956604 -0.1860480010509491
v 0.6100000143051147 0.1703529953956604 -0.1860480010509491
v 0.6100000143051147 0.15368999540805817 -0.17587199807167053
v 0.6100000143051147 0.15368999540805817 -0.17587199807167053
v 0.6100000143051147 0.1703529953956604 -0.1860480010509491
v 0.6100000143051147 0.2809619903564453 -0.03274799883365631
v 0.6100000143051147 0.2642990052700043 -0.022571999579668045
v 0.6100000143051147 0.2642990052700043 -0.022571999579668045
v 0.6100000143051147 0.2809619903564453 -0.03274799883365631
v 0.5899999737739563 0.2809619903564453 -0.03274799883365631
v 0.5899999737739563 0.2642990052700043 -0.022571999579668045
v 0.5899999737739563 0.15368999540805817 -0.17587199807167053
v 0.6100000143051147 0.15368999540805817 -0.17587199807167053
v 0.6100000143051147 0.2642990052700043 -0.022571999579668045
v 0.5899999737739563 0.2642990052700043 -0.022571999579668045
v 0.6100000143051147 0.1703529953956604 -0.1860480010509491
v 0.5899999737739563 0.1703529953956604 -0.1860480010509491
v 0.5899999737739563 0.2809619903564453 -0.03274799883365631
v 0.6100000143051147 0.2809619903564453 -0.03274799883365631
v 0.5899999737739563 -0.03333299979567528 0.10000000149011612
v 0.5899999737739563 0.03333299979567528 0.10000000149011612
v 0.5899999737739563 0.03333299979567528 -0.10000000149011612
v 0.5899999737739563 -0.03333299979567528 -0.10000000149011612
v 0.5899999737739563 -0.03333299979567528 -0.10000000149011612
v 0.5899999737739563 0.03333299979567528 -0.10000000149011612
v 0.6100000143051147 0.03333299979567528 -0.10000000149011612
v 0.6100000143051147 -0.03333299979567528 -0.10000000149011612
v 0.6100000143051147 -0.03333299979567528 -0.10000000149011612
v 0.6100000143051147 0.03333299979567528 -0.10000000149011612
v 0.6100000143051147 0.03333299979567528 0.10000000149011612
v 0.6100000143051147 -0.03333299979567528 0.10000000149011612
v 0.6100000143051147 -0.03333299979567528 0.10000000149011612
v 0.6100000143051147 0.03333299979567528 0.10000000149011612
v 0.5899999737739563 0.03333299979567528 0.10000000149011612
v 0.5899999737739563 -0.03333299979567528 0.10000000149011612
v 0.5899999737739563 -0.03333299979567528 -0.10000000149011612
v 0.6100000143051147 -0.03333299979567528 -0.10000000149011612
v 0.6100000143051147 -0.03333299979567528 0.10000000149011612
v 0.5899999737739563 -0.03333299979567528 0.10000000149011612
v 0.6100000143051147 0.03333299979567528 -0.10000000149011612
v 0.5899999737739563 0.03333299979567528 -0.10000000149011612
v 0.5899999737739563 0.03333299979567528 0.10000000149011612
v 0.6100000143051147 0.03333299979567528 0.10000000149011612
v 0.5899999737739563 -0.10000000149011612 -0.03333299979567528
v 0.5899999737739563 -0.10000000149011612 0.03333299979567528
v 0.5899999737739563 0.10000000149011612 0.03333299979567528
v 0.5899999737739563 0.10000000149011612 -0.03333299979567528
v 0.5899999737739563 0.10000000149011612 -0.03333299979567528
v 0.5899999737739563 0.10000000149011612 0.03333299979567528
v 0.6100000143051147 0.10000000149011612 0.03333299979567528
v 0.6100000143051147 0.10000000149011612 -0.03333299979567528
v 0.6100000143051147 0.10000000149011612 -0.03333299979567528
v 0.6100000143051147 0.10000000149011612 0.03333299979567528
v 0.6100000143051147 -0.10000000149011612 0.03333299979567528
v 0.6100000143051147 -0.10000000149011612 -0.03333299979567528
v 0.6100000143051147 -0.10000000149011612 -0.03333299979567528
v 0.6100000143051147 -0.10000000149011612 0.03333299979567528
v 0.5899999737739563 -0.10000000149011612 0.03333299979567528
v 0.5899999737739563 -0.10000000149011612 -0.03333299979567528
v 0.5899999737739563 0.10000000149011612 -0.03333299979567528
v 0.6100000143051147 0.10000000149011612 -0.03333299979567528
v 0.6100000143051147 -0.10000000149011612 -0.03333299979567528
v 0.5899999737739563 -0.10000000149011612 -0.03333299979567528
v 0.6100000143051147 0.10000000149011612 0.03333299979567528
v 0.5899999737739563 0.10000000149011612 0.03333299979567528
v 0.5899999737739563 -0.10000000149011612 0.03333299979567528
v 0.6100000143051147 -0.10000000149011612 0.03333299979567528
vt 0.375 0
vt 0.625 0
vt 0.625 0.25
vt 0.375 0.25
vt 0.375 0.25
vt 0.625 0.25
vt 0.625 0.5
vt 0.375 0.5
vt 0.375 0.5
vt 0.625 0.5
vt 0.625 0.75
vt 0.375 0.75
vt 0.375 0.75
vt 0.625 0.75
vt 0.625 1
vt 0.375 1
vt 0.125 0.5
vt 0.375 0.5
vt 0.375 0.75
vt 0.125 0.75
vt 0.625 0.5
vt 0.875 0.5
vt 0.875 0.75
vt 0.625 0.75
vt 0.375 0
vt 0.625 0
vt 0.625 0.25
vt 0.375 0.25
vt 0.375 0.25
vt 0.625 0.25
vt 0.625 0.5
vt 0.375 0.5
vt 0.375 0.5
vt 0.625 0.5
vt 0.625 0.75
vt 0.375 0.75
vt 0.375 0.75
vt 0.625 0.75
vt 0.625 1
vt 0.375 1
vt 0.125 0.5
vt 0.375 0.5
vt 0.375 0.75
vt 0.125 0.75
vt 0.625 0.5
vt 0.875 0.5
vt 0.875 0.75
vt 0.625 0.75
vt 0.375 0
vt 0.625 0
vt 0.625 0.25
vt 0.375 0.25
vt 0.375 0.25
vt 0.625 0.25
vt 0.625 0.5
vt 0.375 0.5
vt 0.375 0.5
vt 0.625 0.5
vt 0.625 0.75
vt 0.375 0.75
vt 0.375 0.75
vt 0.625 0.75
vt 0.625 1
vt 0.375 1
vt 0.125 0.5
vt 0.375 0.5
vt 0.375 0.75
vt 0.125 0.75
vt 0.625 0.5
vt 0.875 0.5
vt 0.875 0.75
vt 0.625 0.75
vt 0.375 0
vt 0.625 0
vt 0.625 0.25
vt 0.375 0.25
vt 0.375 0.25
vt 0.625 0.25
vt 0.625 0.5
vt 0.375 0.5
vt 0.375 0.5
vt 0.625 0.5
vt 0.625 0.75
vt 0.375 0.75
vt 0.375 0.75
vt 0.625 0.75
vt 0.625 1
vt 0.375 1
vt 0.125 0.5
vt 0.375 0.5
vt 0.375 0.75
vt 0.125 0.75
vt 0.625 0.5
vt 0.875 0.5
vt 0.875 0.75
vt 0.625 0.75
vt 0.375 0
vt 0.625 0
vt 0.625 0.25
vt 0.375 0.25
vt 0.375 0.25
vt 0.625 0.25
vt 0.625 0.5
vt 0.375 0.5
vt 0.375 0.5
vt 0.625 0.5
vt 0.625 0.75
vt 0.375 0.75
vt 0.375 0.75
vt 0.625 0.75
vt 0.625 1
vt 0.375 1
vt 0.125 0.5
vt 0.375 0.5
vt 0.375 0.75
vt 0.125 0.75
vt 0.625 0.5
vt 0.875 0.5
vt 0.875 0.75
vt 0.625 0.75
vt 0.375 0
vt 0.625 0
vt 0.625 0.25
vt 0.375 0.25
vt 0.375 0.25
vt 0.625 0.25
vt 0.625 0.5
vt 0.375 0.5
vt 0.375 0.5
vt 0.625 0.5
vt 0.625 0.75
vt 0.375 0.75
vt 0.375 0.75
vt 0.625 0.75
vt 0.625 1
vt 0.375 1
vt 0.125 0.5
vt 0.375 0.5
vt 0.375 0.75
vt 0.125 0.75
vt 0.625 0.5
vt 0.875 0.5
vt 0.875 0.75
vt 0.625 0.75
vt 0.375 0
vt 0.625 0
vt 0.625 0.25
vt 0.375 0.25
vt 0.375 0.25
vt 0.625 0.25
vt 0.625 0.5
vt 0.375 0.5
vt 0.375 0.5
vt 0.625 0.5
vt 0.625 0.75
vt 0.375 0.75
vt 0.375 0.75
vt 0.625 0.75
vt 0.625 1
vt 0.375 1
vt 0.125 0.5
vt 0.375 0.5
vt 0.375 0.75
vt 0.125 0.75
vt 0.625 0.5
vt 0.875 0.5
vt 0.875 0.75
vt 0.625 0.75
vn -1 0 0
vn -1 0 0
vn -1 0 0
vn -1 0 0
vn 0 0 -1
vn 0 0 -1
vn 0 0 -1
vn 0 0 -1
vn 1 0 0
vn 1 0 0
vn 1 0 0
vn 1 0 0
vn 0 0 1
vn 0 0 1
vn 0 0 1
vn 0 0 1
vn 0 -1 0
vn 0 -1 0
vn 0 -1 0
vn 0 -1 0
vn 0 1 0
vn 0 1 0
vn 0 1 0
vn 0 1 0
vn -1 0 0
vn -1 0 0
vn -1 0 0
vn -1 0 0
vn 0 0 -1
vn 0 0 -1
vn 0 0 -1
vn 0 0 -1
vn 1 0 0
vn 1 0 0
vn 1 0 0
vn 1 0 0
vn 0 0 1
vn 0 0 1
vn 0 0 1
vn 0 0 1
vn 0 -1 0
vn 0 -1 0
vn 0 -1 0
vn 0 -1 0
vn 0 1 0
vn 0 1 0
vn 0 1 0
vn 0 1 0
vn -1 0 0
vn -1 0 0
vn -1 0 0
vn -1 0 0
vn 0 1 0
vn 0 1 0
vn 0 1 0
vn 0 1 0
vn 1 0 0
vn 1 0 0
vn 1 0 0
vn 1 0 0
vn 0 -1 0
vn 0 -1 0
vn 0 -1 0
vn 0 -1 0
vn 0 0 -1
vn 0 0 -1
vn 0 0 -1
vn 0 0 -1
vn 0 0 1
vn 0 0 1
vn 0 0 1
vn 0 0 1
vn -1 0 0
vn -1 0 0
vn -1 0 0
vn -1 0 0
vn 0 1 0
vn 0 1 0
vn 0 1 0
vn 0 1 0
vn 1 0 0
vn 1 0 0
vn 1 0 0
vn 1 0 0
vn 0 -1 0
vn 0 -1 0
vn 0 -1 0
vn 0 -1 0
vn 0 0 -1
vn 0 0 -1
vn 0 0 -1
vn 0 0 -1
vn 0 0 1
vn 0 0 1
vn 0 0 1
vn 0 0 1
vn -1 0 0
vn -1 0 0
vn -1 0 0
vn -1 0 0
vn 0 -0.5212153657742132 -0.8534251827083926
vn 0 -0.5212153657742132 -0.8534251827083926
vn 0 -0.5212153657742132 -0.8534251827083926
vn 0 -0.5212153657742132 -0.8534251827083926
vn 1 0 0
vn 1 0 0
vn 1 0 0
vn 1 0 0
vn 0 0.5212153657742132 0.8534251827083926
vn 0 0.5212153657742132 0.8534251827083926
vn 0 0.5212153657742132 0.8534251827083926
vn 0 0.5212153657742132 0.8534251827083926
vn 0 -0.8109402097501246 0.5851290252674395
vn 0 -0.8109402097501246 0.5851290252674395
vn 0 -0.8109402097501246 0.5851290252674395
vn 0 -0.8109402097501246 0.5851290252674395
vn 0 0.8109402097501246 -0.5851290252674395
vn 0 0.8109402097501246 -0.5851290252674395
vn 0 0.8109402097501246 -0.5851290252674395
vn 0 0.8109402097501246 -0.5851290252674395
vn -1 0 0
vn -1 0 0
vn -1 0 0
vn -1 0 0
vn 0 0 -1
vn 0 0 -1
vn 0 0 -1
vn 0 0 -1
vn 1 0 0
vn 1 0 0
vn 1 0 0
vn 1 0 0
vn 0 0 1
vn 0 0 1
vn 0 0 1
vn 0 0 1
vn 0 -1 0
vn 0 -1 0
vn 0 -1 0
vn 0 -1 0
vn 0 1 0
vn 0 1 0
vn 0 1 0
vn 0 1 0
vn -1 0 0
vn -1 0 0
vn -1 0 0
vn -1 0 0
vn 0 1 0
vn 0 1 0
vn 0 1 0
vn 0 1 0
vn 1 0 0
vn 1 0 0
vn 1 0 0
vn 1 0 0
vn 0 -1 0
vn 0 -1 0
vn 0 -1 0
vn 0 -1 0
vn 0 0 -1
vn 0 0 -1
vn 0 0 -1
vn 0 0 -1
vn 0 0 1
vn 0 0 1
vn 0 0 1
vn 0 0 1
f 194/194/194 196/196/196 193/193/193
f 196/196/196 194/194/194 195/195/195
f 198/198/198 200/200/200 197/197/197
f 200/200/200 198/198/198 199/199/199
f 203/203/203 204/204/204 201/201/201
f 201/201/201 202/202/202 203/203/203
f 207/207/207 208/208/208 205/205/205
f 205/205/205 206/206/206 207/207/207
f 211/211/211 212/212/212 209/209/209
f 209/209/209 210/210/210 211/211/211
f 214/214/214 216/216/216 213/213/213
f 216/216/216 214/214/214 215/215/215
f 218/218/218 220/220/220 217/217/217
f 220/220/220 218/218/218 219/219/219
f 222/222/222 224/224/224 221/221/221
f 224/224/224 222/222/222 223/223/223
f 227/227/227 228/228/228 225/225/225
f 225/225/225 226/226/226 227/227/227
f 231/231/231 232/232/232 229/229/229
f 229/229/229 230/230/230 231/231/231
f 235/235/235 236/236/236 233/233/233
f 233/233/233 234/234/234 235/235/235
f 238/238/238 240/240/240 237/237/237
f 240/240/240 238/238/238 239/239/239
f 242/242/242 244/244/244 241/241/241
f 244/244/244 242/242/242 243/243/243
f 246/246/246 248/248/248 245/245/245
f 248/248/248 246/246/246 247/247/247
f 251/251/251 252/252/252 249/249/249
f 249/249/249 250/250/250 251/251/251
f 255/255/255 256/256/256 253/253/253
f 253/253/253 254/254/254 255/255/255
f 258/258/258 260/260/260 257/257/257
f 260/260/260 258/258/258 259/259/259
f 263/263/263 264/264/264 261/261/261
f 261/261/261 262/262/262 263/263/263
f 266/266/266 268/268/268 265/265/265
f 268/268/268 266/266/266 267/267/267
f 270/270/270 272/272/272 269/269/269
f 272/272/272 270/270/270 271/271/271
f 275/275/275 276/276/276 273/273/273
f 273/273/273 274/274/274 275/275/275
f 279/279/279 280/280/280 277/277/277
f 277/277/277 278/278/278 279/279/279
f 282/282/282 284/284/284 281/281/281
f 284/284/284 282/282/282 283/283/283
f 287/287/287 288/288/288 285/285/285
f 285/285/285 286/286/286 287/287/287
f 290/290/290 292/292/292 289/289/289
f 292/292/292 290/290/290 291/291/291
f 294/294/294 296/296/296 293/293/293
f 296/296/296 294/294/294 295/295/295
f 299/299/299 300/300/300 297/297/297
f 297/297/297 298/298/298 299/299/299
f 303/303/303 304/304/304 301/301/301
f 301/301/301 302/302/302 303/303/303
f 307/307/307 308/308/308 305/305/305
f 305/305/305 306/306/306 307/307/307
f 310/310/310 312/312/312 309/309/309
f 312/312/312 310/310/310 311/311/311
f 314/314/314 316/316/316 313/313/313
f 316/316/316 314/314/314 315/315/315
f 318/318/318 320/320/320 317/317/317
f 320/320/320 318/318/318 319/319/319
f 323/323/323 324/324/324 321/321/321
f 321/321/321 322/322/322 323/323/323
f 327/327/327 328/328/328 325/325/325
f 325/325/325 326/326/326 327/327/327
f 331/331/331 332/332/332 329/329/329
f 329/329/329 330/330/330 331/331/331
f 334/334/334 336/336/336 333/333/333
f 336/336/336 334/334/334 335/335/335
f 338/338/338 340/340/340 337/337/337
f 340/340/340 338/338/338 339/339/339
f 342/342/342 344/344/344 341/341/341
f 344/344/344 342/342/342 343/343/343
f 347/347/347 348/348/348 345/345/345
f 345/345/345 346/346/346 347/347/347
f 351/351/351 352/352/352 349/349/349
f 349/349/349 350/350/350 351/351/351
f 354/354/354 356/356/356 353/353/353
f 356/356/356 354/354/354 355/355/355
f 359/359/359 360/360/360 357/357/357
f 357/357/357 358/358/358 359/359/359
o AmmoSymbol001
usemtl AmmoBlue
v -0.5899999737739563 0.25999999046325684 -0.19499999284744263
v -0.5899999737739563 0.2800000011920929 -0.19499999284744263
v -0.5899999737739563 0.2800000011920929 0.03500000014901161
v -0.5899999737739563 0.25999999046325684 0.03500000014901161
v -0.5899999737739563 0.25999999046325684 0.03500000014901161
v -0.5899999737739563 0.2800000011920929 0.03500000014901161
v -0.6100000143051147 0.2800000011920929 0.03500000014901161
v -0.6100000143051147 0.25999999046325684 0.03500000014901161
v -0.6100000143051147 0.25999999046325684 0.03500000014901161
v -0.6100000143051147 0.2800000011920929 0.03500000014901161
v -0.6100000143051147 0.2800000011920929 -0.19499999284744263
v -0.6100000143051147 0.25999999046325684 -0.19499999284744263
v -0.6100000143051147 0.25999999046325684 -0.19499999284744263
v -0.6100000143051147 0.2800000011920929 -0.19499999284744263
v -0.5899999737739563 0.2800000011920929 -0.19499999284744263
v -0.5899999737739563 0.25999999046325684 -0.19499999284744263
v -0.5899999737739563 0.25999999046325684 0.03500000014901161
v -0.6100000143051147 0.25999999046325684 0.03500000014901161
v -0.6100000143051147 0.25999999046325684 -0.19499999284744263
v -0.5899999737739563 0.25999999046325684 -0.19499999284744263
v -0.6100000143051147 0.2800000011920929 0.03500000014901161
v -0.5899999737739563 0.2800000011920929 0.03500000014901161
v -0.5899999737739563 0.2800000011920929 -0.19499999284744263
v -0.6100000143051147 0.2800000011920929 -0.19499999284744263
v -0.5899999737739563 -0.23999999463558197 -0.1858000010251999
v -0.5899999737739563 -0.2199999988079071 -0.1858000010251999
v -0.5899999737739563 -0.2199999988079071 0.18219999969005585
v -0.5899999737739563 -0.23999999463558197 0.18219999969005585
v -0.5899999737739563 -0.23999999463558197 0.18219999969005585
v -0.5899999737739563 -0.2199999988079071 0.18219999969005585
v -0.6100000143051147 -0.2199999988079071 0.18219999969005585
v -0.6100000143051147 -0.23999999463558197 0.18219999969005585
v -0.6100000143051147 -0.23999999463558197 0.18219999969005585
v -0.6100000143051147 -0.2199999988079071 0.18219999969005585
v -0.6100000143051147 -0.2199999988079071 -0.1858000010251999
v -0.6100000143051147 -0.23999999463558197 -0.1858000010251999
v -0.6100000143051147 -0.23999999463558197 -0.1858000010251999
v -0.6100000143051147 -0.2199999988079071 -0.1858000010251999
v -0.5899999737739563 -0.2199999988079071 -0.1858000010251999
v -0.5899999737739563 -0.23999999463558197 -0.1858000010251999
v -0.5899999737739563 -0.23999999463558197 0.18219999969005585
v -0.6100000143051147 -0.23999999463558197 0.18219999969005585
v -0.6100000143051147 -0.23999999463558197 -0.1858000010251999
v -0.5899999737739563 -0.23999999463558197 -0.1858000010251999
v -0.6100000143051147 -0.2199999988079071 0.18219999969005585
v -0.5899999737739563 -0.2199999988079071 0.18219999969005585
v -0.5899999737739563 -0.2199999988079071 -0.1858000010251999
v -0.6100000143051147 -0.2199999988079071 -0.1858000010251999
v -0.5899999737739563 -0.23999999463558197 -0.17659999430179596
v -0.5899999737739563 -0.23999999463558197 -0.19499999284744263
v -0.5899999737739563 0.2800000011920929 -0.19499999284744263
v -0.5899999737739563 0.2800000011920929 -0.17659999430179596
v -0.5899999737739563 0.2800000011920929 -0.17659999430179596
v -0.5899999737739563 0.2800000011920929 -0.19499999284744263
v -0.6100000143051147 0.2800000011920929 -0.19499999284744263
v -0.6100000143051147 0.2800000011920929 -0.17659999430179596
v -0.6100000143051147 0.2800000011920929 -0.17659999430179596
v -0.6100000143051147 0.2800000011920929 -0.19499999284744263
v -0.6100000143051147 -0.23999999463558197 -0.19499999284744263
v -0.6100000143051147 -0.23999999463558197 -0.17659999430179596
v -0.6100000143051147 -0.23999999463558197 -0.17659999430179596
v -0.6100000143051147 -0.23999999463558197 -0.19499999284744263
v -0.5899999737739563 -0.23999999463558197 -0.19499999284744263
v -0.5899999737739563 -0.23999999463558197 -0.17659999430179596
v -0.5899999737739563 0.2800000011920929 -0.17659999430179596
v -0.6100000143051147 0.2800000011920929 -0.17659999430179596
v -0.6100000143051147 -0.23999999463558197 -0.17659999430179596
v -0.5899999737739563 -0.23999999463558197 -0.17659999430179596
v -0.6100000143051147 0.2800000011920929 -0.19499999284744263
v -0.5899999737739563 0.2800000011920929 -0.19499999284744263
v -0.5899999737739563 -0.23999999463558197 -0.19499999284744263
v -0.6100000143051147 -0.23999999463558197 -0.19499999284744263
v -0.5899999737739563 -0.23999999463558197 0.19140000641345978
v -0.5899999737739563 -0.23999999463558197 0.17299999296665192
v -0.5899999737739563 0.17000000178813934 0.17299999296665192
v -0.5899999737739563 0.17000000178813934 0.19140000641345978
v -0.5899999737739563 0.17000000178813934 0.19140000641345978
v -0.5899999737739563 0.17000000178813934 0.17299999296665192
v -0.6100000143051147 0.17000000178813934 0.17299999296665192
v -0.6100000143051147 0.17000000178813934 0.19140000641345978
v -0.6100000143051147 0.17000000178813934 0.19140000641345978
v -0.6100000143051147 0.17000000178813934 0.17299999296665192
v -0.6100000143051147 -0.23999999463558197 0.17299999296665192
v -0.6100000143051147 -0.23999999463558197 0.19140000641345978
v -0.6100000143051147 -0.23999999463558197 0.19140000641345978
v -0.6100000143051147 -0.23999999463558197 0.17299999296665192
v -0.5899999737739563 -0.23999999463558197 0.17299999296665192
v -0.5899999737739563 -0.23999999463558197 0.19140000641345978
v -0.5899999737739563 0.17000000178813934 0.19140000641345978
v -0.6100000143051147 0.17000000178813934 0.19140000641345978
v -0.6100000143051147 -0.23999999463558197 0.19140000641345978
v -0.5899999737739563 -0.23999999463558197 0.19140000641345978
v -0.6100000143051147 0.17000000178813934 0.17299999296665192
v -0.5899999737739563 0.17000000178813934 0.17299999296665192
v -0.5899999737739563 -0.23999999463558197 0.17299999296665192
v -0.6100000143051147 -0.23999999463558197 0.17299999296665192
v -0.5899999737739563 0.2642990052700043 0.022571999579668045
v -0.5899999737739563 0.2809619903564453 0.03274799883365631
v -0.5899999737739563 0.1703529953956604 0.1860480010509491
v -0.5899999737739563 0.15368999540805817 0.17587199807167053
v -0.5899999737739563 0.15368999540805817 0.17587199807167053
v -0.5899999737739563 0.1703529953956604 0.1860480010509491
v -0.6100000143051147 0.1703529953956604 0.1860480010509491
v -0.6100000143051147 0.15368999540805817 0.17587199807167053
v -0.6100000143051147 0.15368999540805817 0.17587199807167053
v -0.6100000143051147 0.1703529953956604 0.1860480010509491
v -0.6100000143051147 0.2809619903564453 0.03274799883365631
v -0.6100000143051147 0.2642990052700043 0.022571999579668045
v -0.6100000143051147 0.2642990052700043 0.022571999579668045
v -0.6100000143051147 0.2809619903564453 0.03274799883365631
v -0.5899999737739563 0.2809619903564453 0.03274799883365631
v -0.5899999737739563 0.2642990052700043 0.022571999579668045
v -0.5899999737739563 0.15368999540805817 0.17587199807167053
v -0.6100000143051147 0.15368999540805817 0.17587199807167053
v -0.6100000143051147 0.2642990052700043 0.022571999579668045
v -0.5899999737739563 0.2642990052700043 0.022571999579668045
v -0.6100000143051147 0.1703529953956604 0.1860480010509491
v -0.5899999737739563 0.1703529953956604 0.1860480010509491
v -0.5899999737739563 0.2809619903564453 0.03274799883365631
v -0.6100000143051147 0.2809619903564453 0.03274799883365631
v -0.5899999737739563 -0.03333299979567528 -0.10000000149011612
v -0.5899999737739563 0.03333299979567528 -0.10000000149011612
v -0.5899999737739563 0.03333299979567528 0.10000000149011612
v -0.5899999737739563 -0.03333299979567528 0.10000000149011612
v -0.5899999737739563 -0.03333299979567528 0.10000000149011612
v -0.5899999737739563 0.03333299979567528 0.10000000149011612
v -0.6100000143051147 0.03333299979567528 0.10000000149011612
v -0.6100000143051147 -0.03333299979567528 0.10000000149011612
v -0.6100000143051147 -0.03333299979567528 0.10000000149011612
v -0.6100000143051147 0.03333299979567528 0.10000000149011612
v -0.6100000143051147 0.03333299979567528 -0.10000000149011612
v -0.6100000143051147 -0.03333299979567528 -0.10000000149011612
v -0.6100000143051147 -0.03333299979567528 -0.10000000149011612
v -0.6100000143051147 0.03333299979567528 -0.10000000149011612
v -0.5899999737739563 0.03333299979567528 -0.10000000149011612
v -0.5899999737739563 -0.03333299979567528 -0.10000000149011612
v -0.5899999737739563 -0.03333299979567528 0.10000000149011612
v -0.6100000143051147 -0.03333299979567528 0.10000000149011612
v -0.6100000143051147 -0.03333299979567528 -0.10000000149011612
v -0.5899999737739563 -0.03333299979567528 -0.10000000149011612
v -0.6100000143051147 0.03333299979567528 0.10000000149011612
v -0.5899999737739563 0.03333299979567528 0.10000000149011612
v -0.5899999737739563 0.03333299979567528 -0.10000000149011612
v -0.6100000143051147 0.03333299979567528 -0.10000000149011612
v -0.5899999737739563 -0.10000000149011612 0.03333299979567528
v -0.5899999737739563 -0.10000000149011612 -0.03333299979567528
v -0.5899999737739563 0.10000000149011612 -0.03333299979567528
v -0.5899999737739563 0.10000000149011612 0.03333299979567528
v -0.5899999737739563 0.10000000149011612 0.03333299979567528
v -0.5899999737739563 0.10000000149011612 -0.03333299979567528
v -0.6100000143051147 0.10000000149011612 -0.03333299979567528
v -0.6100000143051147 0.10000000149011612 0.03333299979567528
v -0.6100000143051147 0.10000000149011612 0.03333299979567528
v -0.6100000143051147 0.10000000149011612 -0.03333299979567528
v -0.6100000143051147 -0.10000000149011612 -0.03333299979567528
v -0.6100000143051147 -0.10000000149011612 0.03333299979567528
v -0.6100000143051147 -0.10000000149011612 0.03333299979567528
v -0.6100000143051147 -0.10000000149011612 -0.03333299979567528
v -0.5899999737739563 -0.10000000149011612 -0.03333299979567528
v -0.5899999737739563 -0.10000000149011612 0.03333299979567528
v -0.5899999737739563 0.10000000149011612 0.03333299979567528
v -0.6100000143051147 0.10000000149011612 0.03333299979567528
v -0.6100000143051147 -0.10000000149011612 0.03333299979567528
v -0.5899999737739563 -0.10000000149011612 0.03333299979567528
v -0.6100000143051147 0.10000000149011612 -0.03333299979567528
v -0.5899999737739563 0.10000000149011612 -0.03333299979567528
v -0.5899999737739563 -0.10000000149011612 -0.03333299979567528
v -0.6100000143051147 -0.10000000149011612 -0.03333299979567528
vt 0.375 0
vt 0.625 0
vt 0.625 0.25
vt 0.375 0.25
vt 0.375 0.25
vt 0.625 0.25
vt 0.625 0.5
vt 0.375 0.5
vt 0.375 0.5
vt 0.625 0.5
vt 0.625 0.75
vt 0.375 0.75
vt 0.375 0.75
vt 0.625 0.75
vt 0.625 1
vt 0.375 1
vt 0.125 0.5
vt 0.375 0.5
vt 0.375 0.75
vt 0.125 0.75
vt 0.625 0.5
vt 0.875 0.5
vt 0.875 0.75
vt 0.625 0.75
vt 0.375 0
vt 0.625 0
vt 0.625 0.25
vt 0.375 0.25
vt 0.375 0.25
vt 0.625 0.25
vt 0.625 0.5
vt 0.375 0.5
vt 0.375 0.5
vt 0.625 0.5
vt 0.625 0.75
vt 0.375 0.75
vt 0.375 0.75
vt 0.625 0.75
vt 0.625 1
vt 0.375 1
vt 0.125 0.5
vt 0.375 0.5
vt 0.375 0.75
vt 0.125 0.75
vt 0.625 0.5
vt 0.875 0.5
vt 0.875 0.75
vt 0.625 0.75
vt 0.375 0
vt 0.625 0
vt 0.625 0.25
vt 0.375 0.25
vt 0.375 0.25
vt 0.625 0.25
vt 0.625 0.5
vt 0.375 0.5
vt 0.375 0.5
vt 0.625 0.5
vt 0.625 0.75
vt 0.375 0.75
vt 0.375 0.75
vt 0.625 0.75
vt 0.625 1
vt 0.375 1
vt 0.125 0.5
vt 0.375 0.5
vt 0.375 0.75
vt 0.125 0.75
vt 0.625 0.5
vt 0.875 0.5
vt 0.875 0.75
vt 0.625 0.75
vt 0.375 0
vt 0.625 0
vt 0.625 0.25
vt 0.375 0.25
vt 0.375 0.25
vt 0.625 0.25
vt 0.625 0.5
vt 0.375 0.5
vt 0.375 0.5
vt 0.625 0.5
vt 0.625 0.75
vt 0.375 0.75
vt 0.375 0.75
vt 0.625 0.75
vt 0.625 1
vt 0.375 1
vt 0.125 0.5
vt 0.375 0.5
vt 0.375 0.75
vt 0.125 0.75
vt 0.625 0.5
vt 0.875 0.5
vt 0.875 0.75
vt 0.625 0.75
vt 0.375 0
vt 0.625 0
vt 0.625 0.25
vt 0.375 0.25
vt 0.375 0.25
vt 0.625 0.25
vt 0.625 0.5
vt 0.375 0.5
vt 0.375 0.5
vt 0.625 0.5
vt 0.625 0.75
vt 0.375 0.75
vt 0.375 0.75
vt 0.625 0.75
vt 0.625 1
vt 0.375 1
vt 0.125 0.5
vt 0.375 0.5
vt 0.375 0.75
vt 0.125 0.75
vt 0.625 0.5
vt 0.875 0.5
vt 0.875 0.75
vt 0.625 0.75
vt 0.375 0
vt 0.625 0
vt 0.625 0.25
vt 0.375 0.25
vt 0.375 0.25
vt 0.625 0.25
vt 0.625 0.5
vt 0.375 0.5
vt 0.375 0.5
vt 0.625 0.5
vt 0.625 0.75
vt 0.375 0.75
vt 0.375 0.75
vt 0.625 0.75
vt 0.625 1
vt 0.375 1
vt 0.125 0.5
vt 0.375 0.5
vt 0.375 0.75
vt 0.125 0.75
vt 0.625 0.5
vt 0.875 0.5
vt 0.875 0.75
vt 0.625 0.75
vt 0.375 0
vt 0.625 0
vt 0.625 0.25
vt 0.375 0.25
vt 0.375 0.25
vt 0.625 0.25
vt 0.625 0.5
vt 0.375 0.5
vt 0.375 0.5
vt 0.625 0.5
vt 0.625 0.75
vt 0.375 0.75
vt 0.375 0.75
vt 0.625 0.75
vt 0.625 1
vt 0.375 1
vt 0.125 0.5
vt 0.375 0.5
vt 0.375 0.75
vt 0.125 0.75
vt 0.625 0.5
vt 0.875 0.5
vt 0.875 0.75
vt 0.625 0.75
vn 1 0 0
vn 1 0 0
vn 1 0 0
vn 1 0 0
vn 0 0 1
vn 0 0 1
vn 0 0 1
vn 0 0 1
vn -1 0 0
vn -1 0 0
vn -1 0 0
vn -1 0 0
vn 0 0 -1
vn 0 0 -1
vn 0 0 -1
vn 0 0 -1
vn 0 -1 0
vn 0 -1 0
vn 0 -1 0
vn 0 -1 0
vn 0 1 0
vn 0 1 0
vn 0 1 0
vn 0 1 0
vn 1 0 0
vn 1 0 0
vn 1 0 0
vn 1 0 0
vn 0 0 1
vn 0 0 1
vn 0 0 1
vn 0 0 1
vn -1 0 0
vn -1 0 0
vn -1 0 0
vn -1 0 0
vn 0 0 -1
vn 0 0 -1
vn 0 0 -1
vn 0 0 -1
vn 0 -1 0
vn 0 -1 0
vn 0 -1 0
vn 0 -1 0
vn 0 1 0
vn 0 1 0
vn 0 1 0
vn 0 1 0
vn 1 0 0
vn 1 0 0
vn 1 0 0
vn 1 0 0
vn 0 1 0
vn 0 1 0
vn 0 1 0
vn 0 1 0
vn -1 0 0
vn -1 0 0
vn -1 0 0
vn -1 0 0
vn 0 -1 0
vn 0 -1 0
vn 0 -1 0
vn 0 -1 0
vn 0 0 1
vn 0 0 1
vn 0 0 1
vn 0 0 1
vn 0 0 -1
vn 0 0 -1
vn 0 0 -1
vn 0 0 -1
vn 1 0 0
vn 1 0 0
vn 1 0 0
vn 1 0 0
vn 0 1 0
vn 0 1 0
vn 0 1 0
vn 0 1 0
vn -1 0 0
vn -1 0 0
vn -1 0 0
vn -1 0 0
vn 0 -1 0
vn 0 -1 0
vn 0 -1 0
vn 0 -1 0
vn 0 0 1
vn 0 0 1
vn 0 0 1
vn 0 0 1
vn 0 0 -1
vn 0 0 -1
vn 0 0 -1
vn 0 0 -1
vn 1 0 0
vn 1 0 0
vn 1 0 0
vn 1 0 0
vn 0 -0.5212153657742132 0.8534251827083926
vn 0 -0.5212153657742132 0.8534251827083926
vn 0 -0.5212153657742132 0.8534251827083926
vn 0 -0.5212153657742132 0.8534251827083926
vn -1 0 0
vn -1 0 0
vn -1 0 0
vn -1 0 0
vn 0 0.5212153657742132 -0.8534251827083926
vn 0 0.5212153657742132 -0.8534251827083926
vn 0 0.5212153657742132 -0.8534251827083926
vn 0 0.5212153657742132 -0.8534251827083926
vn 0 -0.8109402097501246 -0.5851290252674395
vn 0 -0.8109402097501246 -0.5851290252674395
vn 0 -0.8109402097501246 -0.5851290252674395
vn 0 -0.8109402097501246 -0.5851290252674395
vn 0 0.8109402097501246 0.5851290252674395
vn 0 0.8109402097501246 0.5851290252674395
vn 0 0.8109402097501246 0.5851290252674395
vn 0 0.8109402097501246 0.5851290252674395
vn 1 0 0
vn 1 0 0
vn 1 0 0
vn 1 0 0
vn 0 0 1
vn 0 0 1
vn 0 0 1
vn 0 0 1
vn -1 0 0
vn -1 0 0
vn -1 0 0
vn -1 0 0
vn 0 0 -1
vn 0 0 -1
vn 0 0 -1
vn 0 0 -1
vn 0 -1 0
vn 0 -1 0
vn 0 -1 0
vn 0 -1 0
vn 0 1 0
vn 0 1 0
vn 0 1 0
vn 0 1 0
vn 1 0 0
vn 1 0 0
vn 1 0 0
vn 1 0 0
vn 0 1 0
vn 0 1 0
vn 0 1 0
vn 0 1 0
vn -1 0 0
vn -1 0 0
vn -1 0 0
vn -1 0 0
vn 0 -1 0
vn 0 -1 0
vn 0 -1 0
vn 0 -1 0
vn 0 0 1
vn 0 0 1
vn 0 0 1
vn 0 0 1
vn 0 0 -1
vn 0 0 -1
vn 0 0 -1
vn 0 0 -1
f 363/363/363 364/364/364 361/361/361
f 361/361/361 362/362/362 363/363/363
f 367/367/367 368/368/368 365/365/365
f 365/365/365 366/366/366 367/367/367
f 370/370/370 372/372/372 369/369/369
f 372/372/372 370/370/370 371/371/371
f 374/374/374 376/376/376 373/373/373
f 376/376/376 374/374/374 375/375/375
f 379/379/379 380/380/380 377/377/377
f 377/377/377 378/378/378 379/379/379
f 382/382/382 384/384/384 381/381/381
f 384/384/384 382/382/382 383/383/383
f 387/387/387 388/388/388 385/385/385
f 385/385/385 386/386/386 387/387/387
f 391/391/391 392/392/392 389/389/389
f 389/389/389 390/390/390 391/391/391
f 394/394/394 396/396/396 393/393/393
f 396/396/396 394/394/394 395/395/395
f 398/398/398 400/400/400 397/397/397
f 400/400/400 398/398/398 399/399/399
f 403/403/403 404/404/404 401/401/401
f 401/401/401 402/402/402 403/403/403
f 406/406/406 408/408/408 405/405/405
f 408/408/408 406/406/406 407/407/407
f 411/411/411 412/412/412 409/409/409
f 409/409/409 410/410/410 411/411/411
f 414/414/414 416/416/416 413/413/413
f 416/416/416 414/414/414 415/415/415
f 418/418/418 420/420/420 417/417/417
f 420/420/420 418/418/418 419/419/419
f 423/423/423 424/424/424 421/421/421
f 421/421/421 422/422/422 423/423/423
f 427/427/427 428/428/428 425/425/425
f 425/425/425 426/426/426 427/427/427
f 430/430/430 432/432/432 429/429/429
f 432/432/432 430/430/430 431/431/431
f 435/435/435 436/436/436 433/433/433
f 433/433/433 434/434/434 435/435/435
f 438/438/438 440/440/440 437/437/437
f 440/440/440 438/438/438 439/439/439
f 442/442/442 444/444/444 441/441/441
f 444/444/444 442/442/442 443/443/443
f 447/447/447 448/448/448 445/445/445
f 445/445/445 446/446/446 447/447/447
f 451/451/451 452/452/452 449/449/449
f 449/449/449 450/450/450 451/451/451
f 454/454/454 456/456/456 453/453/453
f 456/456/456 454/454/454 455/455/455
f 459/459/459 460/460/460 457/457/457
f 457/457/457 458/458/458 459/459/459
f 463/463/463 464/464/464 461/461/461
f 461/461/461 462/462/462 463/463/463
f 466/466/466 468/468/468 465/465/465
f 468/468/468 466/466/466 467/467/467
f 470/470/470 472/472/472 469/469/469
f 472/472/472 470/470/470 471/471/471
f 475/475/475 476/476/476 473/473/473
f 473/473/473 474/474/474 475/475/475
f 478/478/478 480/480/480 477/477/477
f 480/480/480 478/478/478 479/479/479
f 483/483/483 484/484/484 481/481/481
f 481/481/481 482/482/482 483/483/483
f 487/487/487 488/488/488 485/485/485
f 485/485/485 486/486/486 487/487/487
f 490/490/490 492/492/492 489/489/489
f 492/492/492 490/490/490 491/491/491
f 494/494/494 496/496/496 493/493/493
f 496/496/496 494/494/494 495/495/495
f 499/499/499 500/500/500 497/497/497
f 497/497/497 498/498/498 499/499/499
f 502/502/502 504/504/504 501/501/501
f 504/504/504 502/502/502 503/503/503
f 507/507/507 508/508/508 505/505/505
f 505/505/505 506/506/506 507/507/507
f 510/510/510 512/512/512 509/509/509
f 512/512/512 510/510/510 511/511/511
f 514/514/514 516/516/516 513/513/513
f 516/516/516 514/514/514 515/515/515
f 519/519/519 520/520/520 517/517/517
f 517/517/517 518/518/518 519/519/519
f 523/523/523 524/524/524 521/521/521
f 521/521/521 522/522/522 523/523/523
f 526/526/526 528/528/528 525/525/525
f 528/528/528 526/526/526 527/527/527
o AmmoSymbol002
usemtl AmmoBlue
v 0.19499999284744263 0.25999999046325684 -0.8899999856948853
v 0.19499999284744263 0.2800000011920929 -0.8899999856948853
v -0.03500000014901161 0.2800000011920929 -0.8899999856948853
v -0.03500000014901161 0.25999999046325684 -0.8899999856948853
v -0.03500000014901161 0.25999999046325684 -0.8899999856948853
v -0.03500000014901161 0.2800000011920929 -0.8899999856948853
v -0.03500000014901161 0.2800000011920929 -0.9100000262260437
v -0.03500000014901161 0.25999999046325684 -0.9100000262260437
v -0.03500000014901161 0.25999999046325684 -0.9100000262260437
v -0.03500000014901161 0.2800000011920929 -0.9100000262260437
v 0.19499999284744263 0.2800000011920929 -0.9100000262260437
v 0.19499999284744263 0.25999999046325684 -0.9100000262260437
v 0.19499999284744263 0.25999999046325684 -0.9100000262260437
v 0.19499999284744263 0.2800000011920929 -0.9100000262260437
v 0.19499999284744263 0.2800000011920929 -0.8899999856948853
v 0.19499999284744263 0.25999999046325684 -0.8899999856948853
v -0.03500000014901161 0.25999999046325684 -0.8899999856948853
v -0.03500000014901161 0.25999999046325684 -0.9100000262260437
v 0.19499999284744263 0.25999999046325684 -0.9100000262260437
v 0.19499999284744263 0.25999999046325684 -0.8899999856948853
v -0.03500000014901161 0.2800000011920929 -0.9100000262260437
v -0.03500000014901161 0.2800000011920929 -0.8899999856948853
v 0.19499999284744263 0.2800000011920929 -0.8899999856948853
v 0.19499999284744263 0.2800000011920929 -0.9100000262260437
v 0.1858000010251999 -0.23999999463558197 -0.8899999856948853
v 0.1858000010251999 -0.2199999988079071 -0.8899999856948853
v -0.18219999969005585 -0.2199999988079071 -0.8899999856948853
v -0.18219999969005585 -0.23999999463558197 -0.8899999856948853
v -0.18219999969005585 -0.23999999463558197 -0.8899999856948853
v -0.18219999969005585 -0.2199999988079071 -0.8899999856948853
v -0.18219999969005585 -0.2199999988079071 -0.9100000262260437
v -0.18219999969005585 -0.23999999463558197 -0.9100000262260437
v -0.18219999969005585 -0.23999999463558197 -0.9100000262260437
v -0.18219999969005585 -0.2199999988079071 -0.9100000262260437
v 0.1858000010251999 -0.2199999988079071 -0.9100000262260437
v 0.1858000010251999 -0.23999999463558197 -0.9100000262260437
v 0.1858000010251999 -0.23999999463558197 -0.9100000262260437
v 0.1858000010251999 -0.2199999988079071 -0.9100000262260437
v 0.1858000010251999 -0.2199999988079071 -0.8899999856948853
v 0.1858000010251999 -0.23999999463558197 -0.8899999856948853
v -0.18219999969005585 -0.23999999463558197 -0.8899999856948853
v -0.18219999969005585 -0.23999999463558197 -0.9100000262260437
v 0.1858000010251999 -0.23999999463558197 -0.9100000262260437
v 0.1858000010251999 -0.23999999463558197 -0.8899999856948853
v -0.18219999969005585 -0.2199999988079071 -0.9100000262260437
v -0.18219999969005585 -0.2199999988079071 -0.8899999856948853
v 0.1858000010251999 -0.2199999988079071 -0.8899999856948853
v 0.1858000010251999 -0.2199999988079071 -0.9100000262260437
v 0.17659999430179596 -0.23999999463558197 -0.8899999856948853
v 0.19499999284744263 -0.23999999463558197 -0.8899999856948853
v 0.19499999284744263 0.2800000011920929 -0.8899999856948853
v 0.17659999430179596 0.2800000011920929 -0.8899999856948853
v 0.17659999430179596 0.2800000011920929 -0.8899999856948853
v 0.19499999284744263 0.2800000011920929 -0.8899999856948853
v 0.19499999284744263 0.2800000011920929 -0.9100000262260437
v 0.17659999430179596 0.2800000011920929 -0.9100000262260437
v 0.17659999430179596 0.2800000011920929 -0.9100000262260437
v 0.19499999284744263 0.2800000011920929 -0.9100000262260437
v 0.19499999284744263 -0.23999999463558197 -0.9100000262260437
v 0.17659999430179596 -0.23999999463558197 -0.9100000262260437
v 0.17659999430179596 -0.23999999463558197 -0.9100000262260437
v 0.19499999284744263 -0.23999999463558197 -0.9100000262260437
v 0.19499999284744263 -0.23999999463558197 -0.8899999856948853
v 0.17659999430179596 -0.23999999463558197 -0.8899999856948853
v 0.17659999430179596 0.2800000011920929 -0.8899999856948853
v 0.17659999430179596 0.2800000011920929 -0.9100000262260437
v 0.17659999430179596 -0.23999999463558197 -0.9100000262260437
v 0.17659999430179596 -0.23999999463558197 -0.8899999856948853
v 0.19499999284744263 0.2800000011920929 -0.9100000262260437
v 0.19499999284744263 0.2800000011920929 -0.8899999856948853
v 0.19499999284744263 -0.23999999463558197 -0.8899999856948853
v 0.19499999284744263 -0.23999999463558197 -0.9100000262260437
v -0.19140000641345978 -0.23999999463558197 -0.8899999856948853
v -0.17299999296665192 -0.23999999463558197 -0.8899999856948853
v -0.17299999296665192 0.17000000178813934 -0.8899999856948853
v -0.19140000641345978 0.17000000178813934 -0.8899999856948853
v -0.19140000641345978 0.17000000178813934 -0.8899999856948853
v -0.17299999296665192 0.17000000178813934 -0.8899999856948853
v -0.17299999296665192 0.17000000178813934 -0.9100000262260437
v -0.19140000641345978 0.17000000178813934 -0.9100000262260437
v -0.19140000641345978 0.17000000178813934 -0.9100000262260437
v -0.17299999296665192 0.17000000178813934 -0.9100000262260437
v -0.17299999296665192 -0.23999999463558197 -0.9100000262260437
v -0.19140000641345978 -0.23999999463558197 -0.9100000262260437
v -0.19140000641345978 -0.23999999463558197 -0.9100000262260437
v -0.17299999296665192 -0.23999999463558197 -0.9100000262260437
v -0.17299999296665192 -0.23999999463558197 -0.8899999856948853
v -0.19140000641345978 -0.23999999463558197 -0.8899999856948853
v -0.19140000641345978 0.17000000178813934 -0.8899999856948853
v -0.19140000641345978 0.17000000178813934 -0.9100000262260437
v -0.19140000641345978 -0.23999999463558197 -0.9100000262260437
v -0.19140000641345978 -0.23999999463558197 -0.8899999856948853
v -0.17299999296665192 0.17000000178813934 -0.9100000262260437
v -0.17299999296665192 0.17000000178813934 -0.8899999856948853
v -0.17299999296665192 -0.23999999463558197 -0.8899999856948853
v -0.17299999296665192 -0.23999999463558197 -0.9100000262260437
v -0.022571999579668045 0.2642990052700043 -0.8899999856948853
v -0.03274799883365631 0.2809619903564453 -0.8899999856948853
v -0.1860480010509491 0.1703529953956604 -0.8899999856948853
v -0.17587199807167053 0.15368999540805817 -0.8899999856948853
v -0.17587199807167053 0.15368999540805817 -0.8899999856948853
v -0.1860480010509491 0.1703529953956604 -0.8899999856948853
v -0.1860480010509491 0.1703529953956604 -0.9100000262260437
v -0.17587199807167053 0.15368999540805817 -0.9100000262260437
v -0.17587199807167053 0.15368999540805817 -0.9100000262260437
v -0.1860480010509491 0.1703529953956604 -0.9100000262260437
v -0.03274799883365631 0.2809619903564453 -0.9100000262260437
v -0.022571999579668045 0.2642990052700043 -0.9100000262260437
v -0.022571999579668045 0.2642990052700043 -0.9100000262260437
v -0.03274799883365631 0.2809619903564453 -0.9100000262260437
v -0.03274799883365631 0.2809619903564453 -0.8899999856948853
v -0.022571999579668045 0.2642990052700043 -0.8899999856948853
v -0.17587199807167053 0.15368999540805817 -0.8899999856948853
v -0.17587199807167053 0.15368999540805817 -0.9100000262260437
v -0.022571999579668045 0.2642990052700043 -0.9100000262260437
v -0.022571999579668045 0.2642990052700043 -0.8899999856948853
v -0.1860480010509491 0.1703529953956604 -0.9100000262260437
v -0.1860480010509491 0.1703529953956604 -0.8899999856948853
v -0.03274799883365631 0.2809619903564453 -0.8899999856948853
v -0.03274799883365631 0.2809619903564453 -0.9100000262260437
v 0.10000000149011612 -0.03333299979567528 -0.8899999856948853
v 0.10000000149011612 0.03333299979567528 -0.8899999856948853
v -0.10000000149011612 0.03333299979567528 -0.8899999856948853
v -0.10000000149011612 -0.03333299979567528 -0.8899999856948853
v -0.10000000149011612 -0.03333299979567528 -0.8899999856948853
v -0.10000000149011612 0.03333299979567528 -0.8899999856948853
v -0.10000000149011612 0.03333299979567528 -0.9100000262260437
v -0.10000000149011612 -0.03333299979567528 -0.9100000262260437
v -0.10000000149011612 -0.03333299979567528 -0.9100000262260437
v -0.10000000149011612 0.03333299979567528 -0.9100000262260437
v 0.10000000149011612 0.03333299979567528 -0.9100000262260437
v 0.10000000149011612 -0.03333299979567528 -0.9100000262260437
v 0.10000000149011612 -0.03333299979567528 -0.9100000262260437
v 0.10000000149011612 0.03333299979567528 -0.9100000262260437
v 0.10000000149011612 0.03333299979567528 -0.8899999856948853
v 0.10000000149011612 -0.03333299979567528 -0.8899999856948853
v -0.10000000149011612 -0.03333299979567528 -0.8899999856948853
v -0.10000000149011612 -0.03333299979567528 -0.9100000262260437
v 0.10000000149011612 -0.03333299979567528 -0.9100000262260437
v 0.10000000149011612 -0.03333299979567528 -0.8899999856948853
v -0.10000000149011612 0.03333299979567528 -0.9100000262260437
v -0.10000000149011612 0.03333299979567528 -0.8899999856948853
v 0.10000000149011612 0.03333299979567528 -0.8899999856948853
v 0.10000000149011612 0.03333299979567528 -0.9100000262260437
v -0.03333299979567528 -0.10000000149011612 -0.8899999856948853
v 0.03333299979567528 -0.10000000149011612 -0.8899999856948853
v 0.03333299979567528 0.10000000149011612 -0.8899999856948853
v -0.03333299979567528 0.10000000149011612 -0.8899999856948853
v -0.03333299979567528 0.10000000149011612 -0.8899999856948853
v 0.03333299979567528 0.10000000149011612 -0.8899999856948853
v 0.03333299979567528 0.10000000149011612 -0.9100000262260437
v -0.03333299979567528 0.10000000149011612 -0.9100000262260437
v -0.03333299979567528 0.10000000149011612 -0.9100000262260437
v 0.03333299979567528 0.10000000149011612 -0.9100000262260437
v 0.03333299979567528 -0.10000000149011612 -0.9100000262260437
v -0.03333299979567528 -0.10000000149011612 -0.9100000262260437
v -0.03333299979567528 -0.10000000149011612 -0.9100000262260437
v 0.03333299979567528 -0.10000000149011612 -0.9100000262260437
v 0.03333299979567528 -0.10000000149011612 -0.8899999856948853
v -0.03333299979567528 -0.10000000149011612 -0.8899999856948853
v -0.03333299979567528 0.10000000149011612 -0.8899999856948853
v -0.03333299979567528 0.10000000149011612 -0.9100000262260437
v -0.03333299979567528 -0.10000000149011612 -0.9100000262260437
v -0.03333299979567528 -0.10000000149011612 -0.8899999856948853
v 0.03333299979567528 0.10000000149011612 -0.9100000262260437
v 0.03333299979567528 0.10000000149011612 -0.8899999856948853
v 0.03333299979567528 -0.10000000149011612 -0.8899999856948853
v 0.03333299979567528 -0.10000000149011612 -0.9100000262260437
vt 0.375 0
vt 0.625 0
vt 0.625 0.25
vt 0.375 0.25
vt 0.375 0.25
vt 0.625 0.25
vt 0.625 0.5
vt 0.375 0.5
vt 0.375 0.5
vt 0.625 0.5
vt 0.625 0.75
vt 0.375 0.75
vt 0.375 0.75
vt 0.625 0.75
vt 0.625 1
vt 0.375 1
vt 0.125 0.5
vt 0.375 0.5
vt 0.375 0.75
vt 0.125 0.75
vt 0.625 0.5
vt 0.875 0.5
vt 0.875 0.75
vt 0.625 0.75
vt 0.375 0
vt 0.625 0
vt 0.625 0.25
vt 0.375 0.25
vt 0.375 0.25
vt 0.625 0.25
vt 0.625 0.5
vt 0.375 0.5
vt 0.375 0.5
vt 0.625 0.5
vt 0.625 0.75
vt 0.375 0.75
vt 0.375 0.75
vt 0.625 0.75
vt 0.625 1
vt 0.375 1
vt 0.125 0.5
vt 0.375 0.5
vt 0.375 0.75
vt 0.125 0.75
vt 0.625 0.5
vt 0.875 0.5
vt 0.875 0.75
vt 0.625 0.75
vt 0.375 0
vt 0.625 0
vt 0.625 0.25
vt 0.375 0.25
vt 0.375 0.25
vt 0.625 0.25
vt 0.625 0.5
vt 0.375 0.5
vt 0.375 0.5
vt 0.625 0.5
vt 0.625 0.75
vt 0.375 0.75
vt 0.375 0.75
vt 0.625 0.75
vt 0.625 1
vt 0.375 1
vt 0.125 0.5
vt 0.375 0.5
vt 0.375 0.75
vt 0.125 0.75
vt 0.625 0.5
vt 0.875 0.5
vt 0.875 0.75
vt 0.625 0.75
vt 0.375 0
vt 0.625 0
vt 0.625 0.25
vt 0.375 0.25
vt 0.375 0.25
vt 0.625 0.25
vt 0.625 0.5
vt 0.375 0.5
vt 0.375 0.5
vt 0.625 0.5
vt 0.625 0.75
vt 0.375 0.75
vt 0.375 0.75
vt 0.625 0.75
vt 0.625 1
vt 0.375 1
vt 0.125 0.5
vt 0.375 0.5
vt 0.375 0.75
vt 0.125 0.75
vt 0.625 0.5
vt 0.875 0.5
vt 0.875 0.75
vt 0.625 0.75
vt 0.375 0
vt 0.625 0
vt 0.625 0.25
vt 0.375 0.25
vt 0.375 0.25
vt 0.625 0.25
vt 0.625 0.5
vt 0.375 0.5
vt 0.375 0.5
vt 0.625 0.5
vt 0.625 0.75
vt 0.375 0.75
vt 0.375 0.75
vt 0.625 0.75
vt 0.625 1
vt 0.375 1
vt 0.125 0.5
vt 0.375 0.5
vt 0.375 0.75
vt 0.125 0.75
vt 0.625 0.5
vt 0.875 0.5
vt 0.875 0.75
vt 0.625 0.75
vt 0.375 0
vt 0.625 0
vt 0.625 0.25
vt 0.375 0.25
vt 0.375 0.25
vt 0.625 0.25
vt 0.625 0.5
vt 0.375 0.5
vt 0.375 0.5
vt 0.625 0.5
vt 0.625 0.75
vt 0.375 0.75
vt 0.375 0.75
vt 0.625 0.75
vt 0.625 1
vt 0.375 1
vt 0.125 0.5
vt 0.375 0.5
vt 0.375 0.75
vt 0.125 0.75
vt 0.625 0.5
vt 0.875 0.5
vt 0.875 0.75
vt 0.625 0.75
vt 0.375 0
vt 0.625 0
vt 0.625 0.25
vt 0.375 0.25
vt 0.375 0.25
vt 0.625 0.25
vt 0.625 0.5
vt 0.375 0.5
vt 0.375 0.5
vt 0.625 0.5
vt 0.625 0.75
vt 0.375 0.75
vt 0.375 0.75
vt 0.625 0.75
vt 0.625 1
vt 0.375 1
vt 0.125 0.5
vt 0.375 0.5
vt 0.375 0.75
vt 0.125 0.75
vt 0.625 0.5
vt 0.875 0.5
vt 0.875 0.75
vt 0.625 0.75
vn 0 0 1
vn 0 0 1
vn 0 0 1
vn 0 0 1
vn -1 0 0
vn -1 0 0
vn -1 0 0
vn -1 0 0
vn 0 0 -1
vn 0 0 -1
vn 0 0 -1
vn 0 0 -1
vn 1 0 0
vn 1 0 0
vn 1 0 0
vn 1 0 0
vn 0 -1 0
vn 0 -1 0
vn 0 -1 0
vn 0 -1 0
vn 0 1 0
vn 0 1 0
vn 0 1 0
vn 0 1 0
vn 0 0 1
vn 0 0 1
vn 0 0 1
vn 0 0 1
vn -1 0 0
vn -1 0 0
vn -1 0 0
vn -1 0 0
vn 0 0 -1
vn 0 0 -1
vn 0 0 -1
vn 0 0 -1
vn 1 0 0
vn 1 0 0
vn 1 0 0
vn 1 0 0
vn 0 -1 0
vn 0 -1 0
vn 0 -1 0
vn 0 -1 0
vn 0 1 0
vn 0 1 0
vn 0 1 0
vn 0 1 0
vn 0 0 1
vn 0 0 1
vn 0 0 1
vn 0 0 1
vn 0 1 0
vn 0 1 0
vn 0 1 0
vn 0 1 0
vn 0 0 -1
vn 0 0 -1
vn 0 0 -1
vn 0 0 -1
vn 0 -1 0
vn 0 -1 0
vn 0 -1 0
vn 0 -1 0
vn -1 0 0
vn -1 0 0
vn -1 0 0
vn -1 0 0
vn 1 0 0
vn 1 0 0
vn 1 0 0
vn 1 0 0
vn 0 0 1
vn 0 0 1
vn 0 0 1
vn 0 0 1
vn 0 1 0
vn 0 1 0
vn 0 1 0
vn 0 1 0
vn 0 0 -1
vn 0 0 -1
vn 0 0 -1
vn 0 0 -1
vn 0 -1 0
vn 0 -1 0
vn 0 -1 0
vn 0 -1 0
vn -1 0 0
vn -1 0 0
vn -1 0 0
vn -1 0 0
vn 1 0 0
vn 1 0 0
vn 1 0 0
vn 1 0 0
vn 0 0 1
vn 0 0 1
vn 0 0 1
vn 0 0 1
vn -0.8534251827083926 -0.5212153657742132 0
vn -0.8534251827083926 -0.5212153657742132 0
vn -0.8534251827083926 -0.5212153657742132 0
vn -0.8534251827083926 -0.5212153657742132 0
vn 0 0 -1
vn 0 0 -1
vn 0 0 -1
vn 0 0 -1
vn 0.8534251827083926 0.5212153657742132 0
vn 0.8534251827083926 0.5212153657742132 0
vn 0.8534251827083926 0.5212153657742132 0
vn 0.8534251827083926 0.5212153657742132 0
vn 0.5851290252674395 -0.8109402097501246 0
vn 0.5851290252674395 -0.8109402097501246 0
vn 0.5851290252674395 -0.8109402097501246 0
vn 0.5851290252674395 -0.8109402097501246 0
vn -0.5851290252674395 0.8109402097501246 0
vn -0.5851290252674395 0.8109402097501246 0
vn -0.5851290252674395 0.8109402097501246 0
vn -0.5851290252674395 0.8109402097501246 0
vn 0 0 1
vn 0 0 1
vn 0 0 1
vn 0 0 1
vn -1 0 0
vn -1 0 0
vn -1 0 0
vn -1 0 0
vn 0 0 -1
vn 0 0 -1
vn 0 0 -1
vn 0 0 -1
vn 1 0 0
vn 1 0 0
vn 1 0 0
vn 1 0 0
vn 0 -1 0
vn 0 -1 0
vn 0 -1 0
vn 0 -1 0
vn 0 1 0
vn 0 1 0
vn 0 1 0
vn 0 1 0
vn 0 0 1
vn 0 0 1
vn 0 0 1
vn 0 0 1
vn 0 1 0
vn 0 1 0
vn 0 1 0
vn 0 1 0
vn 0 0 -1
vn 0 0 -1
vn 0 0 -1
vn 0 0 -1
vn 0 -1 0
vn 0 -1 0
vn 0 -1 0
vn 0 -1 0
vn -1 0 0
vn -1 0 0
vn -1 0 0
vn -1 0 0
vn 1 0 0
vn 1 0 0
vn 1 0 0
vn 1 0 0
f 531/531/531 532/532/532 529/529/529
f 529/529/529 530/530/530 531/531/531
f 534/534/534 536/536/536 533/533/533
f 536/536/536 534/534/534 535/535/535
f 538/538/538 540/540/540 537/537/537
f 540/540/540 538/538/538 539/539/539
f 543/543/543 544/544/544 541/541/541
f 541/541/541 542/542/542 543/543/543
f 547/547/547 548/548/548 545/545/545
f 545/545/545 546/546/546 547/547/547
f 550/550/550 552/552/552 549/549/549
f 552/552/552 550/550/550 551/551/551
f 555/555/555 556/556/556 553/553/553
f 553/553/553 554/554/554 555/555/555
f 558/558/558 560/560/560 557/557/557
f 560/560/560 558/558/558 559/559/559
f 562/562/562 564/564/564 561/561/561
f 564/564/564 562/562/562 563/563/563
f 567/567/567 568/568/568 565/565/565
f 565/565/565 566/566/566 567/567/567
f 571/571/571 572/572/572 569/569/569
f 569/569/569 570/570/570 571/571/571
f 574/574/574 576/576/576 573/573/573
f 576/576/576 574/574/574 575/575/575
f 579/579/579 580/580/580 577/577/577
f 577/577/577 578/578/578 579/579/579
f 582/582/582 584/584/584 581/581/581
f 584/584/584 582/582/582 583/583/583
f 586/586/586 588/588/588 585/585/585
f 588/588/588 586/586/586 587/587/587
f 591/591/591 592/592/592 589/589/589
f 589/589/589 590/590/590 591/591/591
f 594/594/594 596/596/596 593/593/593
f 596/596/596 594/594/594 595/595/595
f 599/599/599 600/600/600 597/597/597
f 597/597/597 598/598/598 599/599/599
f 603/603/603 604/604/604 601/601/601
f 601/601/601 602/602/602 603/603/603
f 606/606/606 608/608/608 605/605/605
f 608/608/608 606/606/606 607/607/607
f 610/610/610 612/612/612 609/609/609
f 612/612/612 610/610/610 611/611/611
f 615/615/615 616/616/616 613/613/613
f 613/613/613 614/614/614 615/615/615
f 618/618/618 620/620/620 617/617/617
f 620/620/620 618/618/618 619/619/619
f 623/623/623 624/624/624 621/621/621
f 621/621/621 622/622/622 623/623/623
f 627/627/627 628/628/628 625/625/625
f 625/625/625 626/626/626 627/627/627
f 630/630/630 632/632/632 629/629/629
f 632/632/632 630/630/630 631/631/631
f 634/634/634 636/636/636 633/633/633
f 636/636/636 634/634/634 635/635/635
f 639/639/639 640/640/640 637/637/637
f 637/637/637 638/638/638 639/639/639
f 643/643/643 644/644/644 641/641/641
f 641/641/641 642/642/642 643/643/643
f 646/646/646 648/648/648 645/645/645
f 648/648/648 646/646/646 647/647/647
f 651/651/651 652/652/652 649/649/649
f 649/649/649 650/650/650 651/651/651
f 654/654/654 656/656/656 653/653/653
f 656/656/656 654/654/654 655/655/655
f 658/658/658 660/660/660 657/657/657
f 660/660/660 658/658/658 659/659/659
f 663/663/663 664/664/664 661/661/661
f 661/661/661 662/662/662 663/663/663
f 667/667/667 668/668/668 665/665/665
f 665/665/665 666/666/666 667/667/667
f 670/670/670 672/672/672 669/669/669
f 672/672/672 670/670/670 671/671/671
f 675/675/675 676/676/676 673/673/673
f 673/673/673 674/674/674 675/675/675
f 678/678/678 680/680/680 677/677/677
f 680/680/680 678/678/678 679/679/679
f 682/682/682 684/684/684 681/681/681
f 684/684/684 682/682/682 683/683/683
f 687/687/687 688/688/688 685/685/685
f 685/685/685 686/686/686 687/687/687
f 690/690/690 692/692/692 689/689/689
f 692/692/692 690/690/690 691/691/691
f 695/695/695 696/696/696 693/693/693
f 693/693/693 694/694/694 695/695/695
o AmmoSymbol003
usemtl AmmoBlue
v -0.19499999284744263 0.25999999046325684 0.8899999856948853
v -0.19499999284744263 0.2800000011920929 0.8899999856948853
v 0.03500000014901161 0.2800000011920929 0.8899999856948853
v 0.03500000014901161 0.25999999046325684 0.8899999856948853
v 0.03500000014901161 0.25999999046325684 0.8899999856948853
v 0.03500000014901161 0.2800000011920929 0.8899999856948853
v 0.03500000014901161 0.2800000011920929 0.9100000262260437
v 0.03500000014901161 0.25999999046325684 0.9100000262260437
v 0.03500000014901161 0.25999999046325684 0.9100000262260437
v 0.03500000014901161 0.2800000011920929 0.9100000262260437
v -0.19499999284744263 0.2800000011920929 0.9100000262260437
v -0.19499999284744263 0.25999999046325684 0.9100000262260437
v -0.19499999284744263 0.25999999046325684 0.9100000262260437
v -0.19499999284744263 0.2800000011920929 0.9100000262260437
v -0.19499999284744263 0.2800000011920929 0.8899999856948853
v -0.19499999284744263 0.25999999046325684 0.8899999856948853
v 0.03500000014901161 0.25999999046325684 0.8899999856948853
v 0.03500000014901161 0.25999999046325684 0.9100000262260437
v -0.19499999284744263 0.25999999046325684 0.9100000262260437
v -0.19499999284744263 0.25999999046325684 0.8899999856948853
v 0.03500000014901161 0.2800000011920929 0.9100000262260437
v 0.03500000014901161 0.2800000011920929 0.8899999856948853
v -0.19499999284744263 0.2800000011920929 0.8899999856948853
v -0.19499999284744263 0.2800000011920929 0.9100000262260437
v -0.1858000010251999 -0.23999999463558197 0.8899999856948853
v -0.1858000010251999 -0.2199999988079071 0.8899999856948853
v 0.18219999969005585 -0.2199999988079071 0.8899999856948853
v 0.18219999969005585 -0.23999999463558197 0.8899999856948853
v 0.18219999969005585 -0.23999999463558197 0.8899999856948853
v 0.18219999969005585 -0.2199999988079071 0.8899999856948853
v 0.18219999969005585 -0.2199999988079071 0.9100000262260437
v 0.18219999969005585 -0.23999999463558197 0.9100000262260437
v 0.18219999969005585 -0.23999999463558197 0.9100000262260437
v 0.18219999969005585 -0.2199999988079071 0.9100000262260437
v -0.1858000010251999 -0.2199999988079071 0.9100000262260437
v -0.1858000010251999 -0.23999999463558197 0.9100000262260437
v -0.1858000010251999 -0.23999999463558197 0.9100000262260437
v -0.1858000010251999 -0.2199999988079071 0.9100000262260437
v -0.1858000010251999 -0.2199999988079071 0.8899999856948853
v -0.1858000010251999 -0.23999999463558197 0.8899999856948853
v 0.18219999969005585 -0.23999999463558197 0.8899999856948853
v 0.18219999969005585 -0.23999999463558197 0.9100000262260437
v -0.1858000010251999 -0.23999999463558197 0.9100000262260437
v -0.1858000010251999 -0.23999999463558197 0.8899999856948853
v 0.18219999969005585 -0.2199999988079071 0.9100000262260437
v 0.18219999969005585 -0.2199999988079071 0.8899999856948853
v -0.1858000010251999 -0.2199999988079071 0.8899999856948853
v -0.1858000010251999 -0.2199999988079071 0.9100000262260437
v -0.17659999430179596 -0.23999999463558197 0.8899999856948853
v -0.19499999284744263 -0.23999999463558197 0.8899999856948853
v -0.19499999284744263 0.2800000011920929 0.8899999856948853
v -0.17659999430179596 0.2800000011920929 0.8899999856948853
v -0.17659999430179596 0.2800000011920929 0.8899999856948853
v -0.19499999284744263 0.2800000011920929 0.8899999856948853
v -0.19499999284744263 0.2800000011920929 0.9100000262260437
v -0.17659999430179596 0.2800000011920929 0.9100000262260437
v -0.17659999430179596 0.2800000011920929 0.9100000262260437
v -0.19499999284744263 0.2800000011920929 0.9100000262260437
v -0.19499999284744263 -0.23999999463558197 0.9100000262260437
v -0.17659999430179596 -0.23999999463558197 0.9100000262260437
v -0.17659999430179596 -0.23999999463558197 0.9100000262260437
v -0.19499999284744263 -0.23999999463558197 0.9100000262260437
v -0.19499999284744263 -0.23999999463558197 0.8899999856948853
v -0.17659999430179596 -0.23999999463558197 0.8899999856948853
v -0.17659999430179596 0.2800000011920929 0.8899999856948853
v -0.17659999430179596 0.2800000011920929 0.9100000262260437
v -0.17659999430179596 -0.23999999463558197 0.9100000262260437
v -0.17659999430179596 -0.23999999463558197 0.8899999856948853
v -0.19499999284744263 0.2800000011920929 0.9100000262260437
v -0.19499999284744263 0.2800000011920929 0.8899999856948853
v -0.19499999284744263 -0.23999999463558197 0.8899999856948853
v -0.19499999284744263 -0.23999999463558197 0.9100000262260437
v 0.19140000641345978 -0.23999999463558197 0.8899999856948853
v 0.17299999296665192 -0.23999999463558197 0.8899999856948853
v 0.17299999296665192 0.17000000178813934 0.8899999856948853
v 0.19140000641345978 0.17000000178813934 0.8899999856948853
v 0.19140000641345978 0.17000000178813934 0.8899999856948853
v 0.17299999296665192 0.17000000178813934 0.8899999856948853
v 0.17299999296665192 0.17000000178813934 0.9100000262260437
v 0.19140000641345978 0.17000000178813934 0.9100000262260437
v 0.19140000641345978 0.17000000178813934 0.9100000262260437
v 0.17299999296665192 0.17000000178813934 0.9100000262260437
v 0.17299999296665192 -0.23999999463558197 0.9100000262260437
v 0.19140000641345978 -0.23999999463558197 0.9100000262260437
v 0.19140000641345978 -0.23999999463558197 0.9100000262260437
v 0.17299999296665192 -0.23999999463558197 0.9100000262260437
v 0.17299999296665192 -0.23999999463558197 0.8899999856948853
v 0.19140000641345978 -0.23999999463558197 0.8899999856948853
v 0.19140000641345978 0.17000000178813934 0.8899999856948853
v 0.19140000641345978 0.17000000178813934 0.9100000262260437
v 0.19140000641345978 -0.23999999463558197 0.9100000262260437
v 0.19140000641345978 -0.23999999463558197 0.8899999856948853
v 0.17299999296665192 0.17000000178813934 0.9100000262260437
v 0.17299999296665192 0.17000000178813934 0.8899999856948853
v 0.17299999296665192 -0.23999999463558197 0.8899999856948853
v 0.17299999296665192 -0.23999999463558197 0.9100000262260437
v 0.022571999579668045 0.2642990052700043 0.8899999856948853
v 0.03274799883365631 0.2809619903564453 0.8899999856948853
v 0.1860480010509491 0.1703529953956604 0.8899999856948853
v 0.17587199807167053 0.15368999540805817 0.8899999856948853
v 0.17587199807167053 0.15368999540805817 0.8899999856948853
v 0.1860480010509491 0.1703529953956604 0.8899999856948853
v 0.1860480010509491 0.1703529953956604 0.9100000262260437
v 0.17587199807167053 0.15368999540805817 0.9100000262260437
v 0.17587199807167053 0.15368999540805817 0.9100000262260437
v 0.1860480010509491 0.1703529953956604 0.9100000262260437
v 0.03274799883365631 0.2809619903564453 0.9100000262260437
v 0.022571999579668045 0.2642990052700043 0.9100000262260437
v 0.022571999579668045 0.2642990052700043 0.9100000262260437
v 0.03274799883365631 0.2809619903564453 0.9100000262260437
v 0.03274799883365631 0.2809619903564453 0.8899999856948853
v 0.022571999579668045 0.2642990052700043 0.8899999856948853
v 0.17587199807167053 0.15368999540805817 0.8899999856948853
v 0.17587199807167053 0.15368999540805817 0.9100000262260437
v 0.022571999579668045 0.2642990052700043 0.9100000262260437
v 0.022571999579668045 0.2642990052700043 0.8899999856948853
v 0.1860480010509491 0.1703529953956604 0.9100000262260437
v 0.1860480010509491 0.1703529953956604 0.8899999856948853
v 0.03274799883365631 0.2809619903564453 0.8899999856948853
v 0.03274799883365631 0.2809619903564453 0.9100000262260437
v -0.10000000149011612 -0.03333299979567528 0.8899999856948853
v -0.10000000149011612 0.03333299979567528 0.8899999856948853
v 0.10000000149011612 0.03333299979567528 0.8899999856948853
v 0.10000000149011612 -0.03333299979567528 0.8899999856948853
v 0.10000000149011612 -0.03333299979567528 0.8899999856948853
v 0.10000000149011612 0.03333299979567528 0.8899999856948853
v 0.10000000149011612 0.03333299979567528 0.9100000262260437
v 0.10000000149011612 -0.03333299979567528 0.9100000262260437
v 0.10000000149011612 -0.03333299979567528 0.9100000262260437
v 0.10000000149011612 0.03333299979567528 0.9100000262260437
v -0.10000000149011612 0.03333299979567528 0.9100000262260437
v -0.10000000149011612 -0.03333299979567528 0.9100000262260437
v -0.10000000149011612 -0.03333299979567528 0.9100000262260437
v -0.10000000149011612 0.03333299979567528 0.9100000262260437
v -0.10000000149011612 0.03333299979567528 0.8899999856948853
v -0.10000000149011612 -0.03333299979567528 0.8899999856948853
v 0.10000000149011612 -0.03333299979567528 0.8899999856948853
v 0.10000000149011612 -0.03333299979567528 0.9100000262260437
v -0.10000000149011612 -0.03333299979567528 0.9100000262260437
v -0.10000000149011612 -0.03333299979567528 0.8899999856948853
v 0.10000000149011612 0.03333299979567528 0.9100000262260437
v 0.10000000149011612 0.03333299979567528 0.8899999856948853
v -0.10000000149011612 0.03333299979567528 0.8899999856948853
v -0.10000000149011612 0.03333299979567528 0.9100000262260437
v 0.03333299979567528 -0.10000000149011612 0.8899999856948853
v -0.03333299979567528 -0.10000000149011612 0.8899999856948853
v -0.03333299979567528 0.10000000149011612 0.8899999856948853
v 0.03333299979567528 0.10000000149011612 0.8899999856948853
v 0.03333299979567528 0.10000000149011612 0.8899999856948853
v -0.03333299979567528 0.10000000149011612 0.8899999856948853
v -0.03333299979567528 0.10000000149011612 0.9100000262260437
v 0.03333299979567528 0.10000000149011612 0.9100000262260437
v 0.03333299979567528 0.10000000149011612 0.9100000262260437
v -0.03333299979567528 0.10000000149011612 0.9100000262260437
v -0.03333299979567528 -0.10000000149011612 0.9100000262260437
v 0.03333299979567528 -0.10000000149011612 0.9100000262260437
v 0.03333299979567528 -0.10000000149011612 0.9100000262260437
v -0.03333299979567528 -0.10000000149011612 0.9100000262260437
v -0.03333299979567528 -0.10000000149011612 0.8899999856948853
v 0.03333299979567528 -0.10000000149011612 0.8899999856948853
v 0.03333299979567528 0.10000000149011612 0.8899999856948853
v 0.03333299979567528 0.10000000149011612 0.9100000262260437
v 0.03333299979567528 -0.10000000149011612 0.9100000262260437
v 0.03333299979567528 -0.10000000149011612 0.8899999856948853
v -0.03333299979567528 0.10000000149011612 0.9100000262260437
v -0.03333299979567528 0.10000000149011612 0.8899999856948853
v -0.03333299979567528 -0.10000000149011612 0.8899999856948853
v -0.03333299979567528 -0.10000000149011612 0.9100000262260437
vt 0.375 0
vt 0.625 0
vt 0.625 0.25
vt 0.375 0.25
vt 0.375 0.25
vt 0.625 0.25
vt 0.625 0.5
vt 0.375 0.5
vt 0.375 0.5
vt 0.625 0.5
vt 0.625 0.75
vt 0.375 0.75
vt 0.375 0.75
vt 0.625 0.75
vt 0.625 1
vt 0.375 1
vt 0.125 0.5
vt 0.375 0.5
vt 0.375 0.75
vt 0.125 0.75
vt 0.625 0.5
vt 0.875 0.5
vt 0.875 0.75
vt 0.625 0.75
vt 0.375 0
vt 0.625 0
vt 0.625 0.25
vt 0.375 0.25
vt 0.375 0.25
vt 0.625 0.25
vt 0.625 0.5
vt 0.375 0.5
vt 0.375 0.5
vt 0.625 0.5
vt 0.625 0.75
vt 0.375 0.75
vt 0.375 0.75
vt 0.625 0.75
vt 0.625 1
vt 0.375 1
vt 0.125 0.5
vt 0.375 0.5
vt 0.375 0.75
vt 0.125 0.75
vt 0.625 0.5
vt 0.875 0.5
vt 0.875 0.75
vt 0.625 0.75
vt 0.375 0
vt 0.625 0
vt 0.625 0.25
vt 0.375 0.25
vt 0.375 0.25
vt 0.625 0.25
vt 0.625 0.5
vt 0.375 0.5
vt 0.375 0.5
vt 0.625 0.5
vt 0.625 0.75
vt 0.375 0.75
vt 0.375 0.75
vt 0.625 0.75
vt 0.625 1
vt 0.375 1
vt 0.125 0.5
vt 0.375 0.5
vt 0.375 0.75
vt 0.125 0.75
vt 0.625 0.5
vt 0.875 0.5
vt 0.875 0.75
vt 0.625 0.75
vt 0.375 0
vt 0.625 0
vt 0.625 0.25
vt 0.375 0.25
vt 0.375 0.25
vt 0.625 0.25
vt 0.625 0.5
vt 0.375 0.5
vt 0.375 0.5
vt 0.625 0.5
vt 0.625 0.75
vt 0.375 0.75
vt 0.375 0.75
vt 0.625 0.75
vt 0.625 1
vt 0.375 1
vt 0.125 0.5
vt 0.375 0.5
vt 0.375 0.75
vt 0.125 0.75
vt 0.625 0.5
vt 0.875 0.5
vt 0.875 0.75
vt 0.625 0.75
vt 0.375 0
vt 0.625 0
vt 0.625 0.25
vt 0.375 0.25
vt 0.375 0.25
vt 0.625 0.25
vt 0.625 0.5
vt 0.375 0.5
vt 0.375 0.5
vt 0.625 0.5
vt 0.625 0.75
vt 0.375 0.75
vt 0.375 0.75
vt 0.625 0.75
vt 0.625 1
vt 0.375 1
vt 0.125 0.5
vt 0.375 0.5
vt 0.375 0.75
vt 0.125 0.75
vt 0.625 0.5
vt 0.875 0.5
vt 0.875 0.75
vt 0.625 0.75
vt 0.375 0
vt 0.625 0
vt 0.625 0.25
vt 0.375 0.25
vt 0.375 0.25
vt 0.625 0.25
vt 0.625 0.5
vt 0.375 0.5
vt 0.375 0.5
vt 0.625 0.5
vt 0.625 0.75
vt 0.375 0.75
vt 0.375 0.75
vt 0.625 0.75
vt 0.625 1
vt 0.375 1
vt 0.125 0.5
vt 0.375 0.5
vt 0.375 0.75
vt 0.125 0.75
vt 0.625 0.5
vt 0.875 0.5
vt 0.875 0.75
vt 0.625 0.75
vt 0.375 0
vt 0.625 0
vt 0.625 0.25
vt 0.375 0.25
vt 0.375 0.25
vt 0.625 0.25
vt 0.625 0.5
vt 0.375 0.5
vt 0.375 0.5
vt 0.625 0.5
vt 0.625 0.75
vt 0.375 0.75
vt 0.375 0.75
vt 0.625 0.75
vt 0.625 1
vt 0.375 1
vt 0.125 0.5
vt 0.375 0.5
vt 0.375 0.75
vt 0.125 0.75
vt 0.625 0.5
vt 0.875 0.5
vt 0.875 0.75
vt 0.625 0.75
vn 0 0 -1
vn 0 0 -1
vn 0 0 -1
vn 0 0 -1
vn 1 0 0
vn 1 0 0
vn 1 0 0
vn 1 0 0
vn 0 0 1
vn 0 0 1
vn 0 0 1
vn 0 0 1
vn -1 0 0
vn -1 0 0
vn -1 0 0
vn -1 0 0
vn 0 -1 0
vn 0 -1 0
vn 0 -1 0
vn 0 -1 0
vn 0 1 0
vn 0 1 0
vn 0 1 0
vn 0 1 0
vn 0 0 -1
vn 0 0 -1
vn 0 0 -1
vn 0 0 -1
vn 1 0 0
vn 1 0 0
vn 1 0 0
vn 1 0 0
vn 0 0 1
vn 0 0 1
vn 0 0 1
vn 0 0 1
vn -1 0 0
vn -1 0 0
vn -1 0 0
vn -1 0 0
vn 0 -1 0
vn 0 -1 0
vn 0 -1 0
vn 0 -1 0
vn 0 1 0
vn 0 1 0
vn 0 1 0
vn 0 1 0
vn 0 0 -1
vn 0 0 -1
vn 0 0 -1
vn 0 0 -1
vn 0 1 0
vn 0 1 0
vn 0 1 0
vn 0 1 0
vn 0 0 1
vn 0 0 1
vn 0 0 1
vn 0 0 1
vn 0 -1 0
vn 0 -1 0
vn 0 -1 0
vn 0 -1 0
vn 1 0 0
vn 1 0 0
vn 1 0 0
vn 1 0 0
vn -1 0 0
vn -1 0 0
vn -1 0 0
vn -1 0 0
vn 0 0 -1
vn 0 0 -1
vn 0 0 -1
vn 0 0 -1
vn 0 1 0
vn 0 1 0
vn 0 1 0
vn 0 1 0
vn 0 0 1
vn 0 0 1
vn 0 0 1
vn 0 0 1
vn 0 -1 0
vn 0 -1 0
vn 0 -1 0
vn 0 -1 0
vn 1 0 0
vn 1 0 0
vn 1 0 0
vn 1 0 0
vn -1 0 0
vn -1 0 0
vn -1 0 0
vn -1 0 0
vn 0 0 -1
vn 0 0 -1
vn 0 0 -1
vn 0 0 -1
vn 0.8534251827083926 -0.5212153657742132 0
vn 0.8534251827083926 -0.5212153657742132 0
vn 0.8534251827083926 -0.5212153657742132 0
vn 0.8534251827083926 -0.5212153657742132 0
vn 0 0 1
vn 0 0 1
vn 0 0 1
vn 0 0 1
vn -0.8534251827083926 0.5212153657742132 0
vn -0.8534251827083926 0.5212153657742132 0
vn -0.8534251827083926 0.5212153657742132 0
vn -0.8534251827083926 0.5212153657742132 0
vn -0.5851290252674395 -0.8109402097501246 0
vn -0.5851290252674395 -0.8109402097501246 0
vn -0.5851290252674395 -0.8109402097501246 0
vn -0.5851290252674395 -0.8109402097501246 0
vn 0.5851290252674395 0.8109402097501246 0
vn 0.5851290252674395 0.8109402097501246 0
vn 0.5851290252674395 0.8109402097501246 0
vn 0.5851290252674395 0.8109402097501246 0
vn 0 0 -1
vn 0 0 -1
vn 0 0 -1
vn 0 0 -1
vn 1 0 0
vn 1 0 0
vn 1 0 0
vn 1 0 0
vn 0 0 1
vn 0 0 1
vn 0 0 1
vn 0 0 1
vn -1 0 0
vn -1 0 0
vn -1 0 0
vn -1 0 0
vn 0 -1 0
vn 0 -1 0
vn 0 -1 0
vn 0 -1 0
vn 0 1 0
vn 0 1 0
vn 0 1 0
vn 0 1 0
vn 0 0 -1
vn 0 0 -1
vn 0 0 -1
vn 0 0 -1
vn 0 1 0
vn 0 1 0
vn 0 1 0
vn 0 1 0
vn 0 0 1
vn 0 0 1
vn 0 0 1
vn 0 0 1
vn 0 -1 0
vn 0 -1 0
vn 0 -1 0
vn 0 -1 0
vn 1 0 0
vn 1 0 0
vn 1 0 0
vn 1 0 0
vn -1 0 0
vn -1 0 0
vn -1 0 0
vn -1 0 0
f 698/698/698 700/700/700 697/697/697
f 700/700/700 698/698/698 699/699/699
f 703/703/703 704/704/704 701/701/701
f 701/701/701 702/702/702 703/703/703
f 707/707/707 708/708/708 705/705/705
f 705/705/705 706/706/706 707/707/707
f 710/710/710 712/712/712 709/709/709
f 712/712/712 710/710/710 711/711/711
f 715/715/715 716/716/716 713/713/713
f 713/713/713 714/714/714 715/715/715
f 718/718/718 720/720/720 717/717/717
f 720/720/720 718/718/718 719/719/719
f 722/722/722 724/724/724 721/721/721
f 724/724/724 722/722/722 723/723/723
f 727/727/727 728/728/728 725/725/725
f 725/725/725 726/726/726 727/727/727
f 731/731/731 732/732/732 729/729/729
f 729/729/729 730/730/730 731/731/731
f 734/734/734 736/736/736 733/733/733
f 736/736/736 734/734/734 735/735/735
f 739/739/739 740/740/740 737/737/737
f 737/737/737 738/738/738 739/739/739
f 742/742/742 744/744/744 741/741/741
f 744/744/744 742/742/742 743/743/743
f 746/746/746 748/748/748 745/745/745
f 748/748/748 746/746/746 747/747/747
f 750/750/750 752/752/752 749/749/749
f 752/752/752 750/750/750 751/751/751
f 755/755/755 756/756/756 753/753/753
f 753/753/753 754/754/754 755/755/755
f 759/759/759 760/760/760 757/757/757
f 757/757/757 758/758/758 759/759/759
f 763/763/763 764/764/764 761/761/761
f 761/761/761 762/762/762 763/763/763
f 766/766/766 768/768/768 765/765/765
f 768/768/768 766/766/766 767/767/767
f 770/770/770 772/772/772 769/769/769
f 772/772/772 770/770/770 771/771/771
f 774/774/774 776/776/776 773/773/773
f 776/776/776 774/774/774 775/775/775
f 779/779/779 780/780/780 777/777/777
f 777/777/777 778/778/778 779/779/779
f 783/783/783 784/784/784 781/781/781
f 781/781/781 782/782/782 783/783/783
f 787/787/787 788/788/788 785/785/785
f 785/785/785 786/786/786 787/787/787
f 790/790/790 792/792/792 789/789/789
f 792/792/792 790/790/790 791/791/791
f 794/794/794 796/796/796 793/793/793
f 796/796/796 794/794/794 795/795/795
f 799/799/799 800/800/800 797/797/797
f 797/797/797 798/798/798 799/799/799
f 803/803/803 804/804/804 801/801/801
f 801/801/801 802/802/802 803/803/803
f 806/806/806 808/808/808 805/805/805
f 808/808/808 806/806/806 807/807/807
f 811/811/811 812/812/812 809/809/809
f 809/809/809 810/810/810 811/811/811
f 814/814/814 816/816/816 813/813/813
f 816/816/816 814/814/814 815/815/815
f 818/818/818 820/820/820 817/817/817
f 820/820/820 818/818/818 819/819/819
f 823/823/823 824/824/824 821/821/821
f 821/821/821 822/822/822 823/823/823
f 827/827/827 828/828/828 825/825/825
f 825/825/825 826/826/826 827/827/827
f 830/830/830 832/832/832 829/829/829
f 832/832/832 830/830/830 831/831/831
f 835/835/835 836/836/836 833/833/833
f 833/833/833 834/834/834 835/835/835
f 838/838/838 840/840/840 837/837/837
f 840/840/840 838/838/838 839/839/839
f 842/842/842 844/844/844 841/841/841
f 844/844/844 842/842/842 843/843/843
f 846/846/846 848/848/848 845/845/845
f 848/848/848 846/846/846 847/847/847
f 851/851/851 852/852/852 849/849/849
f 849/849/849 850/850/850 851/851/851
f 855/855/855 856/856/856 853/853/853
f 853/853/853 854/854/854 855/855/855
f 859/859/859 860/860/860 857/857/857
f 857/857/857 858/858/858 859/859/859
f 862/862/862 864/864/864 861/861/861
f 864/864/864 862/862/862 863/863/863
