mtllib Wall2.mtl
o Wall
usemtl Ground
v 1.9500000476837158 0 2
v 2.049999952316284 0 2
v 2.049999952316284 6 2
v 1.9500000476837158 6 2
v 1.9500000476837158 3.0999999046325684 2
v 2 3.0999999046325684 2
v 2 2.9000000953674316 2
v 1.9500000476837158 2.9000000953674316 2
v 1.9500000476837158 2.9000000953674316 2
v 1.9500000476837158 2.9000000953674316 0.9238799810409546
v 1.9500000476837158 2.6173160076141357 0.9238799810409546
v 1.9500000476837158 2.076119899749756 0.38268300890922546
v 1.9500000476837158 2.076119899749756 -0.38268300890922546
v 1.9500000476837158 2.6173160076141357 -0.9238799810409546
v 1.9500000476837158 2.9000000953674316 -0.9238799810409546
v 1.9500000476837158 2.9000000953674316 -1.9500000476837158
v 1.9500000476837158 2.9000000953674316 -2
v 1.9500000476837158 0 -2
v 1.9500000476837158 0 -0.10000000149011612
v 1.9500000476837158 0.05000000074505806 -0.10000000149011612
v 1.9500000476837158 0.05000000074505806 0.10000000149011612
v 1.9500000476837158 0 0.10000000149011612
v 1.9500000476837158 0 2
v 1.9500000476837158 3.0999999046325684 -1.9500000476837158
v 1.9500000476837158 3.0999999046325684 -0.9238799810409546
v 1.9500000476837158 3.3826839923858643 -0.9238799810409546
v 1.9500000476837158 3.923880100250244 -0.38268300890922546
v 1.9500000476837158 3.923880100250244 0.38268300890922546
v 1.9500000476837158 3.3826839923858643 0.9238799810409546
v 1.9500000476837158 3.0999999046325684 0.9238799810409546
v 1.9500000476837158 3.0999999046325684 2
v 1.9500000476837158 6 2
v 1.9500000476837158 6 -2
v 1.9500000476837158 3.0999999046325684 -2
v 1.9500000476837158 3.0999999046325684 -1.9993749856948853
v 1.9500000476837158 3.0999999046325684 -2
v 1.9500000476837158 6 -2
v 2.049999952316284 6 -2
v 2.049999952316284 0 -2
v 1.9500000476837158 0 -2
v 1.9500000476837158 2.9000000953674316 -2
v 2 2.9000000953674316 -2
v 2 3.0999999046325684 -2
v 2.049999952316284 0 -2
v 2.049999952316284 6 -2
v 2.049999952316284 6 2
v 2.049999952316284 0 2
v 1.9500000476837158 0 -0.10000000149011612
v 1.9500000476837158 0 -2
v 2.049999952316284 0 -2
v 2.049999952316284 0 2
v 1.9500000476837158 0 2
v 1.9500000476837158 0 0.10000000149011612
v 2.000432014465332 0 0.10000000149011612
v 2.000432014465332 0 -0.10000000149011612
v 1.9500000476837158 6 -2
v 1.9500000476837158 6 2
v 2.049999952316284 6 2
v 2.049999952316284 6 -2
v 2.000432014465332 0 -0.10000000149011612
v 2.000432014465332 0.05000000074505806 -0.10000000149011612
v 1.9500000476837158 0.05000000074505806 -0.10000000149011612
v 1.9500000476837158 0 -0.10000000149011612
v 2.000432014465332 0.05000000074505806 0.10000000149011612
v 2.000432014465332 0.05000000074505806 -0.10000000149011612
v 2.000432014465332 0 -0.10000000149011612
v 2.000432014465332 0 0.10000000149011612
v 1.9500000476837158 0 0.10000000149011612
v 1.9500000476837158 0.05000000074505806 0.10000000149011612
v 2.000432014465332 0.05000000074505806 0.10000000149011612
v 2.000432014465332 0 0.10000000149011612
v 2.000432014465332 0.05000000074505806 -0.10000000149011612
v 2.000432014465332 0.05000000074505806 0.10000000149011612
v 1.9500000476837158 0.05000000074505806 0.10000000149011612
v 1.9500000476837158 0.05000000074505806 -0.10000000149011612
v 2 3.0999999046325684 -1.9500000476837158
v 2 3.0999999046325684 -2
v 2 2.9000000953674316 -2
v 2 2.9000000953674316 -1.9500000476837158
v 2 2.9000000953674316 -1.9500000476837158
v 2 2.9000000953674316 -2
v 1.9500000476837158 2.9000000953674316 -2
v 1.9500000476837158 2.9000000953674316 -1.9500000476837158
v 1.9993749856948853 2.9000000953674316 -1.9500000476837158
v 1.9993749856948853 2.9000000953674316 -1.9500080347061157
v 2 3.0999999046325684 -2
v 2 3.0999999046325684 -1.9500000476837158
v 1.9500000476837158 3.0999999046325684 -1.9500000476837158
v 1.9500000476837158 3.0999999046325684 -1.9993749856948853
v 1.9500080347061157 3.0999999046325684 -1.9993749856948853
v 1.9500000476837158 3.0999999046325684 -2
v 2 3.3826839923858643 -0.9238799810409546
v 2 3.923880100250244 -0.38268300890922546
v 1.9500000476837158 3.923880100250244 -0.38268300890922546
v 1.9500000476837158 3.3826839923858643 -0.9238799810409546
v 2 3.0999999046325684 -0.9238799810409546
v 2 3.3826839923858643 -0.9238799810409546
v 1.9500000476837158 3.3826839923858643 -0.9238799810409546
v 1.9500000476837158 3.0999999046325684 -0.9238799810409546
v 1.9500000476837158 2.6173160076141357 -0.9238799810409546
v 2 2.6173160076141357 -0.9238799810409546
v 2 2.9000000953674316 -0.9238799810409546
v 1.9500000476837158 2.9000000953674316 -0.9238799810409546
v 2 2.076119899749756 -0.38268300890922546
v 2 2.6173160076141357 -0.9238799810409546
v 1.9500000476837158 2.6173160076141357 -0.9238799810409546
v 1.9500000476837158 2.076119899749756 -0.38268300890922546
v 2 2.076119899749756 0.38268300890922546
v 2 2.076119899749756 -0.38268300890922546
v 1.9500000476837158 2.076119899749756 -0.38268300890922546
v 1.9500000476837158 2.076119899749756 0.38268300890922546
v 1.9500000476837158 2.6173160076141357 0.9238799810409546
v 2 2.6173160076141357 0.9238799810409546
v 2 2.076119899749756 0.38268300890922546
v 1.9500000476837158 2.076119899749756 0.38268300890922546
v 2 2.9000000953674316 0.9238799810409546
v 2 2.6173160076141357 0.9238799810409546
v 1.9500000476837158 2.6173160076141357 0.9238799810409546
v 1.9500000476837158 2.9000000953674316 0.9238799810409546
v 1.9500000476837158 3.0999999046325684 0.9238799810409546
v 1.9500000476837158 3.3826839923858643 0.9238799810409546
v 2 3.3826839923858643 0.9238799810409546
v 2 3.0999999046325684 0.9238799810409546
v 2 2.6173160076141357 -0.9238799810409546
v 2 2.076119899749756 -0.38268300890922546
v 2 2.076119899749756 0.38268300890922546
v 2 2.6173160076141357 0.9238799810409546
v 2 2.9000000953674316 0.9238799810409546
v 2 2.9000000953674316 0.7239450216293335
v 2 2.9000000953674316 -0.24142099916934967
v 2 2.9000000953674316 -0.8067880272865295
v 2 2.9000000953674316 -0.9238799810409546
v 2 3.3826839923858643 0.9238799810409546
v 2 3.923880100250244 0.38268300890922546
v 2 3.923880100250244 -0.38268300890922546
v 2 3.3826839923858643 -0.9238799810409546
v 2 3.0999999046325684 -0.9238799810409546
v 2 3.0999999046325684 -0.7239450216293335
v 2 3.0999999046325684 0.24142099916934967
v 2 3.0999999046325684 0.8067880272865295
v 2 3.0999999046325684 0.9238799810409546
v 1.9500000476837158 3.3826839923858643 0.9238799810409546
v 1.9500000476837158 3.923880100250244 0.38268300890922546
v 2 3.923880100250244 0.38268300890922546
v 2 3.3826839923858643 0.9238799810409546
v 1.9500000476837158 3.923880100250244 0.38268300890922546
v 1.9500000476837158 3.923880100250244 -0.38268300890922546
v 2 3.923880100250244 -0.38268300890922546
v 2 3.923880100250244 0.38268300890922546
v 2 3.0999999046325684 2
v 2 3.0999999046325684 0.9238799810409546
v 2 2.9000000953674316 0.9238799810409546
v 2 2.9000000953674316 2
v 2 2.9000000953674316 -1.9500000476837158
v 2 2.9000000953674316 -0.9238799810409546
v 2 3.0999999046325684 -0.9238799810409546
v 2 3.0999999046325684 -1.9500000476837158
v 1.9500000476837158 2.9000000953674316 2
v 2 2.9000000953674316 2
v 2 2.9000000953674316 0.9238799810409546
v 1.9500000476837158 2.9000000953674316 0.9238799810409546
v 1.9500000476837158 2.9000000953674316 -0.9238799810409546
v 2 2.9000000953674316 -0.9238799810409546
v 2 2.9000000953674316 -1.9500000476837158
v 1.9993749856948853 2.9000000953674316 -1.9500000476837158
v 1.9500000476837158 2.9000000953674316 -1.9500000476837158
v 1.9500000476837158 3.0999999046325684 2
v 1.9500000476837158 3.0999999046325684 0.9238799810409546
v 2 3.0999999046325684 0.9238799810409546
v 2 3.0999999046325684 2
v 2 3.0999999046325684 -1.9500000476837158
v 2 3.0999999046325684 -0.9238799810409546
v 1.9500000476837158 3.0999999046325684 -0.9238799810409546
v 1.9500000476837158 3.0999999046325684 -1.9500000476837158
vt 0.375 0.25
vt 0.375 0
vt 0.625 0
vt 0.625 0.25
vt 0.5041670203208923 0.25
vt 0.5041670203208923 0.125
vt 0.49583300948143005 0.125
vt 0.49583300948143005 0.25
vt 0.49583300948143005 0.25
vt 0.49583300948143005 0.31725800037384033
vt 0.4840550124645233 0.31725800037384033
vt 0.4615049958229065 0.3510820269584656
vt 0.4615049958229065 0.3989179730415344
vt 0.4840550124645233 0.43274199962615967
vt 0.49583300948143005 0.43274199962615967
vt 0.49583300948143005 0.49687498807907104
vt 0.49583300948143005 0.5
vt 0.375 0.5
vt 0.375 0.3812500238418579
vt 0.3770830035209656 0.3812500238418579
vt 0.3770830035209656 0.3687499761581421
vt 0.375 0.3687499761581421
vt 0.375 0.25
vt 0.5041670203208923 0.49687498807907104
vt 0.5041670203208923 0.43274199962615967
vt 0.5159450173377991 0.43274199962615967
vt 0.5384950041770935 0.3989179730415344
vt 0.5384950041770935 0.3510820269584656
vt 0.5159450173377991 0.31725800037384033
vt 0.5041670203208923 0.31725800037384033
vt 0.5041670203208923 0.25
vt 0.625 0.25
vt 0.625 0.5
vt 0.5041670203208923 0.5
vt 0.5041670203208923 0.4999610185623169
vt 0.5041670203208923 0.5
vt 0.625 0.5
vt 0.625 0.75
vt 0.375 0.75
vt 0.375 0.5
vt 0.49583300948143005 0.5
vt 0.49583300948143005 0.625
vt 0.5041670203208923 0.625
vt 0.375 0.75
vt 0.625 0.75
vt 0.625 1
vt 0.375 1
vt 0.2562499940395355 0.5
vt 0.375 0.5
vt 0.375 0.75
vt 0.125 0.75
vt 0.125 0.5
vt 0.24375000596046448 0.5
vt 0.24375000596046448 0.6260789930820465
vt 0.2562499940395355 0.6260789930820465
vt 0.625 0.5
vt 0.875 0.5
vt 0.875 0.75
vt 0.625 0.75
vt 0.375 0.5
vt 0.625 0.25
vt 0.625 0.25
vt 0.375 0.5
vt 0.625 0.5
vt 0.625 0.5
vt 0.375 0.75
vt 0.375 0.75
vt 0.375 1
vt 0.625 0.75
vt 0.625 0.75
vt 0.375 1
vt 0.625 0.5
vt 0.625 0.75
vt 0.6362180113792419 0.75
vt 0.6362180113792419 0.5
vt 0.625 0.5
vt 0.625 0.5
vt 0.375 0.75
vt 0.375 0.75
vt 0.375 0.75
vt 0.375 0.5
vt 0.37187498807907104 0.5
vt 0.37187498807907104 0.75
vt 0.3749609887599945 0.75
vt 0.3749609887599945 0.75
vt 0.625 0.5
vt 0.625 0.75
vt 0.628125011920929 0.75
vt 0.628125011920929 0.503125011920929
vt 0.6281239986419678 0.5031239986419678
vt 0.628125011920929 0.5
vt 0.875 1
vt 1 1
vt 1 0.5
vt 0.875 0.5
vt 0.8288319706916809 1
vt 0.875 1
vt 0.875 0.5
vt 0.8288319706916809 0.5
vt 0.75 0.5
vt 0.75 1
vt 0.7961680293083191 1
vt 0.7961680293083191 0.5
vt 0.625 1
vt 0.75 1
vt 0.75 0.5
vt 0.625 0.5
vt 0.5 1
vt 0.625 1
vt 0.625 0.5
vt 0.5 0.5
vt 0.375 0.5
vt 0.375 1
vt 0.5 1
vt 0.5 0.5
vt 0.3288320004940033 1
vt 0.375 1
vt 0.375 0.5
vt 0.3288320004940033 0.5
vt 0.2961679995059967 0.5
vt 0.25 0.5
vt 0.25 1
vt 0.2961679995059967 1
vt 0.49000000953674316 0.25
vt 0.25 0.49000000953674316
vt 0.08029399812221527 0.41970598697662354
vt 0.009999999776482582 0.25
vt 0.009999999776482582 0.25
vt 0.035969000309705734 0.3126940131187439
vt 0.21867799758911133 0.47702598571777344
vt 0.38298898935317993 0.4349139928817749
vt 0.49000000953674316 0.25
vt 0.009999999776482582 0.25
vt 0.08029399812221527 0.41970598697662354
vt 0.25 0.49000000953674316
vt 0.49000000953674316 0.25
vt 0.49000000953674316 0.25
vt 0.35701099038124084 0.44567400217056274
vt 0.11161699891090393 0.43268001079559326
vt 0.02520900033414364 0.2867169976234436
vt 0.009999999776482582 0.25
vt 0.25 0.5
vt 0.125 0.5
vt 0.125 1
vt 0.25 1
vt 0.125 0.5
vt 0 0.5
vt 0.125 0.5380600094795227
vt 0.125 1
vt 0.625 1
vt 0.625 0.9327419996261597
vt 0.375 0.9327419996261597
vt 0.375 1
vt 0.375 0.7531249970197678
vt 0.375 0.8172580003738403
vt 0.625 0.8172580003738403
vt 0.625 0.7531249970197678
vt 0.125 0.5
vt 0.125 0.75
vt 0.19225800037384033 0.75
vt 0.19225800037384033 0.5
vt 0.30774199962615967 0.5
vt 0.30774199962615967 0.75
vt 0.37187498807907104 0.75
vt 0.37187498807907104 0.746874988079071
vt 0.37187498807907104 0.5
vt 0.875 0.5
vt 0.8077419996261597 0.5
vt 0.8077419996261597 0.75
vt 0.875 0.75
vt 0.628125011920929 0.75
vt 0.6922580003738403 0.75
vt 0.6922580003738403 0.5
vt 0.628125011920929 0.5
vn 0 0 1
vn 0 0 1
vn 0 0 1
vn 0 0 1
vn 0 0 1
vn 0 0 1
vn 0 0 1
vn 0 0 1
vn -1 0 0
vn -1 0 0
vn -1 0 0
vn -1 0 0
vn -1 0 0
vn -1 0 0
vn -1 0 0
vn -1 0 0
vn -1 0 0
vn -1 0 0
vn -1 0 0
vn -1 0 0
vn -1 0 0
vn -1 0 0
vn -1 0 0
vn -1 0 0
vn -1 0 0
vn -1 0 0
vn -1 0 0
vn -1 0 0
vn -1 0 0
vn -1 0 0
vn -1 0 0
vn -1 0 0
vn -1 0 0
vn -1 0 0
vn -1 0 0
vn 0 0 -1
vn 0 0 -1
vn 0 0 -1
vn 0 0 -1
vn 0 0 -1
vn 0 0 -1
vn 0 0 -1
vn 0 0 -1
vn 1 0 0
vn 1 0 0
vn 1 0 0
vn 1 0 0
vn 0 -1 0
vn 0 -1 0
vn 0 -1 0
vn 0 -1 0
vn 0 -1 0
vn 0 -1 0
vn 0 -1 0
vn 0 -1 0
vn 0 1 0
vn 0 1 0
vn 0 1 0
vn 0 1 0
vn 0 0 1
vn 0 0 1
vn 0 0 1
vn 0 0 1
vn -1 0 0
vn -1 0 0
vn -1 0 0
vn -1 0 0
vn 0 0 -1
vn 0 0 -1
vn 0 0 -1
vn 0 0 -1
vn 0 -1 0
vn 0 -1 0
vn 0 -1 0
vn 0 -1 0
vn -1 0 0
vn -1 0 0
vn -1 0 0
vn -1 0 0
vn 0 1 0
vn 0 1 0
vn 0 1 0
vn 0 1 0
vn 0 1 0
vn 0 1 0
vn 0 -1 0
vn 0 -1 0
vn 0 -1 0
vn 0 -1 0
vn 0 -1 0
vn 0 -1 0
vn 0 -0.7071067811865476 0.7071067811865476
vn 0 -0.7071067811865476 0.7071067811865476
vn 0 -0.7071067811865476 0.7071067811865476
vn 0 -0.7071067811865476 0.7071067811865476
vn 0 0 1
vn 0 0 1
vn 0 0 1
vn 0 0 1
vn 0 0 1
vn 0 0 1
vn 0 0 1
vn 0 0 1
vn 0 0.7071067811865476 0.7071067811865476
vn 0 0.7071067811865476 0.7071067811865476
vn 0 0.7071067811865476 0.7071067811865476
vn 0 0.7071067811865476 0.7071067811865476
vn 0 1 0
vn 0 1 0
vn 0 1 0
vn 0 1 0
vn 0 0.7071067811865476 -0.7071067811865476
vn 0 0.7071067811865476 -0.7071067811865476
vn 0 0.7071067811865476 -0.7071067811865476
vn 0 0.7071067811865476 -0.7071067811865476
vn 0 0 -1
vn 0 0 -1
vn 0 0 -1
vn 0 0 -1
vn 0 0 -1
vn 0 0 -1
vn 0 0 -1
vn 0 0 -1
vn -1 0 0
vn -1 0 0
vn -1 0 0
vn -1 0 0
vn -1 0 0
vn -1 0 0
vn -1 0 0
vn -1 0 0
vn -1 0 0
vn -1 0 0
vn -1 0 0
vn -1 0 0
vn -1 0 0
vn -1 0 0
vn -1 0 0
vn -1 0 0
vn -1 0 0
vn -1 0 0
vn 0 -0.7071067811865476 -0.7071067811865476
vn 0 -0.7071067811865476 -0.7071067811865476
vn 0 -0.7071067811865476 -0.7071067811865476
vn 0 -0.7071067811865476 -0.7071067811865476
vn 0 -1 0
vn 0 -1 0
vn 0 -1 0
vn 0 -1 0
vn -1 0 0
vn -1 0 0
vn -1 0 0
vn -1 0 0
vn -1 0 0
vn -1 0 0
vn -1 0 0
vn -1 0 0
vn 0 1 0
vn 0 1 0
vn 0 1 0
vn 0 1 0
vn 0 1 0
vn 0 1 0
vn 0 1 0
vn 0 1 0
vn 0 1 0
vn 0 -1 0
vn 0 -1 0
vn 0 -1 0
vn 0 -1 0
vn 0 -1 0
vn 0 -1 0
vn 0 -1 0
vn 0 -1 0
f 7/7/7 8/8/8 1/1/1
f 3/3/3 4/4/4 5/5/5
f 7/7/7 1/1/1 2/2/2
f 3/3/3 5/5/5 6/6/6
f 6/6/6 7/7/7 2/2/2
f 2/2/2 3/3/3 6/6/6
f 10/10/10 23/23/23 9/9/9
f 23/23/23 21/21/21 22/22/22
f 20/20/20 18/18/18 19/19/19
f 18/18/18 16/16/16 17/17/17
f 16/16/16 14/14/14 15/15/15
f 11/11/11 23/23/23 10/10/10
f 20/20/20 16/16/16 18/18/18
f 16/16/16 13/13/13 14/14/14
f 12/12/12 23/23/23 11/11/11
f 21/21/21 16/16/16 20/20/20
f 13/13/13 23/23/23 12/12/12
f 23/23/23 16/16/16 21/21/21
f 16/16/16 23/23/23 13/13/13
f 35/35/35 33/33/33 34/34/34
f 33/33/33 31/31/31 32/32/32
f 31/31/31 29/29/29 30/30/30
f 26/26/26 24/24/24 25/25/25
f 24/24/24 33/33/33 35/35/35
f 31/31/31 28/28/28 29/29/29
f 27/27/27 24/24/24 26/26/26
f 33/33/33 28/28/28 31/31/31
f 27/27/27 33/33/33 24/24/24
f 33/33/33 27/27/27 28/28/28
f 37/37/37 43/43/43 36/36/36
f 42/42/42 40/40/40 41/41/41
f 38/38/38 43/43/43 37/37/37
f 42/42/42 39/39/39 40/40/40
f 39/39/39 43/43/43 38/38/38
f 43/43/43 39/39/39 42/42/42
f 46/46/46 47/47/47 44/44/44
f 44/44/44 45/45/45 46/46/46
f 55/55/55 48/48/48 49/49/49
f 51/51/51 52/52/52 53/53/53
f 55/55/55 49/49/49 50/50/50
f 51/51/51 53/53/53 54/54/54
f 54/54/54 55/55/55 50/50/50
f 50/50/50 51/51/51 54/54/54
f 57/57/57 59/59/59 56/56/56
f 59/59/59 57/57/57 58/58/58
f 62/62/62 63/63/63 60/60/60
f 60/60/60 61/61/61 62/62/62
f 65/65/65 67/67/67 64/64/64
f 67/67/67 65/65/65 66/66/66
f 69/69/69 71/71/71 68/68/68
f 71/71/71 69/69/69 70/70/70
f 74/74/74 75/75/75 72/72/72
f 72/72/72 73/73/73 74/74/74
f 77/77/77 79/79/79 76/76/76
f 79/79/79 77/77/77 78/78/78
f 81/81/81 85/85/85 80/80/80
f 85/85/85 83/83/83 84/84/84
f 83/83/83 81/81/81 82/82/82
f 81/81/81 83/83/83 85/85/85
f 84/84/84 80/80/80 85/85/85
f 90/90/90 91/91/91 86/86/86
f 86/86/86 87/87/87 88/88/88
f 88/88/88 89/89/89 90/90/90
f 90/90/90 86/86/86 88/88/88
f 91/91/91 90/90/90 89/89/89
f 94/94/94 95/95/95 92/92/92
f 92/92/92 93/93/93 94/94/94
f 98/98/98 99/99/99 96/96/96
f 96/96/96 97/97/97 98/98/98
f 102/102/102 103/103/103 100/100/100
f 100/100/100 101/101/101 102/102/102
f 105/105/105 107/107/107 104/104/104
f 107/107/107 105/105/105 106/106/106
f 109/109/109 111/111/111 108/108/108
f 111/111/111 109/109/109 110/110/110
f 113/113/113 115/115/115 112/112/112
f 115/115/115 113/113/113 114/114/114
f 117/117/117 119/119/119 116/116/116
f 119/119/119 117/117/117 118/118/118
f 121/121/121 123/123/123 120/120/120
f 123/123/123 121/121/121 122/122/122
f 125/125/125 132/132/132 124/124/124
f 131/131/131 129/129/129 130/130/130
f 129/129/129 127/127/127 128/128/128
f 127/127/127 125/125/125 126/126/126
f 125/125/125 131/131/131 132/132/132
f 131/131/131 127/127/127 129/129/129
f 127/127/127 131/131/131 125/125/125
f 134/134/134 141/141/141 133/133/133
f 140/140/140 138/138/138 139/139/139
f 138/138/138 136/136/136 137/137/137
f 136/136/136 134/134/134 135/135/135
f 134/134/134 140/140/140 141/141/141
f 140/140/140 136/136/136 138/138/138
f 136/136/136 140/140/140 134/134/134
f 131/131/131 137/137/137 132/132/132
f 137/137/137 131/131/131 138/138/138
f 140/140/140 128/128/128 141/141/141
f 128/128/128 140/140/140 129/129/129
f 139/139/139 131/131/131 130/130/130
f 131/131/131 139/139/139 138/138/138
f 130/130/130 140/140/140 139/139/139
f 140/140/140 130/130/130 129/129/129
f 144/144/144 145/145/145 142/142/142
f 142/142/142 143/143/143 144/144/144
f 148/148/148 149/149/149 146/146/146
f 146/146/146 147/147/147 148/148/148
f 151/151/151 153/153/153 150/150/150
f 153/153/153 151/151/151 152/152/152
f 155/155/155 157/157/157 154/154/154
f 157/157/157 155/155/155 156/156/156
f 159/159/159 161/161/161 158/158/158
f 161/161/161 159/159/159 160/160/160
f 163/163/163 166/166/166 162/162/162
f 166/166/166 164/164/164 165/165/165
f 164/164/164 166/166/166 163/163/163
f 169/169/169 170/170/170 167/167/167
f 167/167/167 168/168/168 169/169/169
f 173/173/173 174/174/174 171/171/171
f 171/171/171 172/172/172 173/173/173
o Triangle_Connecter
usemtl Ground
v 2 0.5 -2
v -2 0.5 -2
v -2 0.5 -1.8064639568328857
v 2 0.5 -1.8064639568328857
v -2 0 -2
v -2 0.5 -2
v 2 0.5 -2
v 2 0 -2
v -2 0 -1.5
v -2 0.19353599846363068 -1.5
v -2 0.5 -1.8064639568328857
v -2 0.5 -2
v -2 0 -2
v -2 0 -2
v 2 0 -2
v 2 0 -1.5
v -2 0 -1.5
v 2 0 -2
v 2 0.5 -2
v 2 0.5 -1.8064639568328857
v 2 0.19353599846363068 -1.5
v 2 0 -1.5
v 2 0.5 -1.8064639568328857
v -2 0.5 -1.8064639568328857
v -2 0.19353599846363068 -1.5
v 2 0.19353599846363068 -1.5
v 2 0 -1.5
v 2 0.19353599846363068 -1.5
v -2 0.19353599846363068 -1.5
v -2 0 -1.5
vt 0.625 0.5
vt 0.875 0.5
vt 0.875 0.5967679917812347
vt 0.625 0.5967679917812347
vt 0.375 0.25
vt 0.625 0.25
vt 0.625 0.5
vt 0.375 0.5
vt 0.375 0
vt 0.47176799178123474 0
vt 0.625 0.15323197841644287
vt 0.625 0.25
vt 0.375 0.25
vt 0.125 0.5
vt 0.375 0.5
vt 0.375 0.75
vt 0.125 0.75
vt 0.375 0.5
vt 0.625 0.5
vt 0.625 0.5967679917812347
vt 0.47176799178123474 0.75
vt 0.375 0.75
vt 0.625 0.75
vt 0.625 1
vt 0.47176799178123474 1
vt 0.47176799178123474 0.75
vt 0.375 0.75
vt 0.47176799178123474 0.75
vt 0.47176799178123474 1
vt 0.375 1
vn 0 1 0
vn 0 1 0
vn 0 1 0
vn 0 1 0
vn 0 0 -1
vn 0 0 -1
vn 0 0 -1
vn 0 0 -1
vn -1 0 0
vn -1 0 0
vn -1 0 0
vn -1 0 0
vn -1 0 0
vn 0 -1 0
vn 0 -1 0
vn 0 -1 0
vn 0 -1 0
vn 1 0 0
vn 1 0 0
vn 1 0 0
vn 1 0 0
vn 1 0 0
vn 0 0.7071067811865476 0.7071067811865476
vn 0 0.7071067811865476 0.7071067811865476
vn 0 0.7071067811865476 0.7071067811865476
vn 0 0.7071067811865476 0.7071067811865476
vn 0 0 1
vn 0 0 1
vn 0 0 1
vn 0 0 1
f 176/176/176 178/178/178 175/175/175
f 178/178/178 176/176/176 177/177/177
f 180/180/180 182/182/182 179/179/179
f 182/182/182 180/180/180 181/181/181
f 184/184/184 187/187/187 183/183/183
f 187/187/187 185/185/185 186/186/186
f 185/185/185 187/187/187 184/184/184
f 190/190/190 191/191/191 188/188/188
f 188/188/188 189/189/189 190/190/190
f 195/195/195 196/196/196 192/192/192
f 192/192/192 193/193/193 194/194/194
f 194/194/194 195/195/195 192/192/192
f 199/199/199 200/200/200 197/197/197
f 197/197/197 198/198/198 199/199/199
f 203/203/203 204/204/204 201/201/201
f 201/201/201 202/202/202 203/203/203
o Wall_Panel
usemtl Ground2
v -2 5 -1.899999976158142
v -2 6 -1.899999976158142
v -2 6 -1.9500000476837158
v -2 5 -1.9500000476837158
v -2 5 -1.9500000476837158
v -2 6 -1.9500000476837158
v 2 6 -1.9500000476837158
v 2 5 -1.9500000476837158
v 2 5 -1.9500000476837158
v 2 6 -1.9500000476837158
v 2 6 -1.899999976158142
v 2 5 -1.899999976158142
v 2 5 -1.899999976158142
v 2 6 -1.899999976158142
v -2 6 -1.899999976158142
v -2 5 -1.899999976158142
v -2 5 -1.9500000476837158
v 2 5 -1.9500000476837158
v 2 5 -1.899999976158142
v -2 5 -1.899999976158142
v 2 6 -1.9500000476837158
v -2 6 -1.9500000476837158
v -2 6 -1.899999976158142
v 2 6 -1.899999976158142
vt 0.375 0
vt 0.625 0
vt 0.625 0.25
vt 0.375 0.25
vt 0.375 0.25
vt 0.625 0.25
vt 0.625 0.5
vt 0.375 0.5
vt 0.375 0.5
vt 0.625 0.5
vt 0.625 0.75
vt 0.375 0.75
vt 0.375 0.75
vt 0.625 0.75
vt 0.625 1
vt 0.375 1
vt 0.125 0.5
vt 0.375 0.5
vt 0.375 0.75
vt 0.125 0.75
vt 0.625 0.5
vt 0.875 0.5
vt 0.875 0.75
vt 0.625 0.75
vn -1 0 0
vn -1 0 0
vn -1 0 0
vn -1 0 0
vn 0 0 -1
vn 0 0 -1
vn 0 0 -1
vn 0 0 -1
vn 1 0 0
vn 1 0 0
vn 1 0 0
vn 1 0 0
vn 0 0 1
vn 0 0 1
vn 0 0 1
vn 0 0 1
vn 0 -1 0
vn 0 -1 0
vn 0 -1 0
vn 0 -1 0
vn 0 1 0
vn 0 1 0
vn 0 1 0
vn 0 1 0
f 206/206/206 208/208/208 205/205/205
f 208/208/208 206/206/206 207/207/207
f 210/210/210 212/212/212 209/209/209
f 212/212/212 210/210/210 211/211/211
f 215/215/215 216/216/216 213/213/213
f 213/213/213 214/214/214 215/215/215
f 219/219/219 220/220/220 217/217/217
f 217/217/217 218/218/218 219/219/219
f 223/223/223 224/224/224 221/221/221
f 221/221/221 222/222/222 223/223/223
f 226/226/226 228/228/228 225/225/225
f 228/228/228 226/226/226 227/227/227
o Wall001
usemtl Ground
v -2 6 -1.9500000476837158
v -2 6 -2.049999952316284
v -2 0 -2.049999952316284
v -2 0 -1.9500000476837158
v -2 2.9000000953674316 -1.9500000476837158
v -2 2.9000000953674316 -2
v -2 3.0999999046325684 -2
v -2 3.0999999046325684 -1.9500000476837158
v -2 0 -2.049999952316284
v -2 6 -2.049999952316284
v 2 6 -2.049999952316284
v 2 0 -2.049999952316284
v 2 2.9000000953674316 -1.9500000476837158
v 2 0 -1.9500000476837158
v 2 0 -2.049999952316284
v 2 6 -2.049999952316284
v 2 6 -1.9500000476837158
v 2 3.0999999046325684 -1.9500000476837158
v 2 3.0999999046325684 -2
v 2 2.9000000953674316 -2
v 2 3.0999999046325684 -1.9500000476837158
v 2 6 -1.9500000476837158
v -2 6 -1.9500000476837158
v -2 3.0999999046325684 -1.9500000476837158
v -0.9238799810409546 3.0999999046325684 -1.9500000476837158
v -0.9238799810409546 3.3826839923858643 -1.9500000476837158
v -0.38268300890922546 3.923880100250244 -1.9500000476837158
v 0.38268300890922546 3.923880100250244 -1.9500000476837158
v 0.9238799810409546 3.3826839923858643 -1.9500000476837158
v 0.9238799810409546 3.0999999046325684 -1.9500000476837158
v 1.9500000476837158 3.0999999046325684 -1.9500000476837158
v 0.9238799810409546 2.9000000953674316 -1.9500000476837158
v 0.9238799810409546 2.6173160076141357 -1.9500000476837158
v 0.38268300890922546 2.076119899749756 -1.9500000476837158
v -0.38268300890922546 2.076119899749756 -1.9500000476837158
v -0.9238799810409546 2.6173160076141357 -1.9500000476837158
v -0.9238799810409546 2.9000000953674316 -1.9500000476837158
v -2 2.9000000953674316 -1.9500000476837158
v -2 0 -1.9500000476837158
v -0.10000000149011612 0 -1.9500000476837158
v -0.10000000149011612 0.05000000074505806 -1.9500000476837158
v 0.10000000149011612 0.05000000074505806 -1.9500000476837158
v 0.10000000149011612 0 -1.9500000476837158
v 2 0 -1.9500000476837158
v 2 2.9000000953674316 -1.9500000476837158
v 1.9993749856948853 2.9000000953674316 -1.9500000476837158
v 1.9500000476837158 2.9000000953674316 -1.9500000476837158
v -0.10000000149011612 0 -1.9500000476837158
v -2 0 -1.9500000476837158
v -2 0 -2.049999952316284
v 2 0 -2.049999952316284
v 2 0 -1.9500000476837158
v 0.10000000149011612 0 -1.9500000476837158
v 0.10000000149011612 0 -2.000432014465332
v -0.10000000149011612 0 -2.000432014465332
v 2 6 -2.049999952316284
v -2 6 -2.049999952316284
v -2 6 -1.9500000476837158
v 2 6 -1.9500000476837158
v -0.10000000149011612 0 -1.9500000476837158
v -0.10000000149011612 0 -2.000432014465332
v -0.10000000149011612 0.05000000074505806 -2.000432014465332
v -0.10000000149011612 0.05000000074505806 -1.9500000476837158
v 0.10000000149011612 0 -2.000432014465332
v 0.10000000149011612 0.05000000074505806 -2.000432014465332
v -0.10000000149011612 0.05000000074505806 -2.000432014465332
v -0.10000000149011612 0 -2.000432014465332
v 0.10000000149011612 0 -1.9500000476837158
v 0.10000000149011612 0.05000000074505806 -1.9500000476837158
v 0.10000000149011612 0.05000000074505806 -2.000432014465332
v 0.10000000149011612 0 -2.000432014465332
v -0.10000000149011612 0.05000000074505806 -2.000432014465332
v 0.10000000149011612 0.05000000074505806 -2.000432014465332
v 0.10000000149011612 0.05000000074505806 -1.9500000476837158
v -0.10000000149011612 0.05000000074505806 -1.9500000476837158
v -2 2.9000000953674316 -2
v -0.9238799810409546 2.9000000953674316 -2
v -0.9238799810409546 3.0999999046325684 -2
v -2 3.0999999046325684 -2
v 1.9500000476837158 3.0999999046325684 -2
v 0.9238799810409546 3.0999999046325684 -2
v 0.9238799810409546 2.9000000953674316 -2
v 1.9500000476837158 2.9000000953674316 -2
v -0.7239450216293335 3.0999999046325684 -2
v -0.8067880272865295 2.9000000953674316 -2
v 0.8067880272865295 3.0999999046325684 -2
v -0.04142099991440773 3.0999999046325684 -2
v 0.04142099991440773 2.9000000953674316 -2
v 0.7239450216293335 2.9000000953674316 -2
v 2 3.0999999046325684 -2
v 2 2.9000000953674316 -2
v 1.9500000476837158 2.9000000953674316 -2
v 0.9238799810409546 2.9000000953674316 -2
v 0.9238799810409546 2.9000000953674316 -1.9500000476837158
v 1.9500000476837158 2.9000000953674316 -1.9500000476837158
v -2 2.9000000953674316 -1.9500000476837158
v -0.9238799810409546 2.9000000953674316 -1.9500000476837158
v -0.9238799810409546 2.9000000953674316 -2
v -2 2.9000000953674316 -2
v 2 2.9000000953674316 -1.9500000476837158
v 2 2.9000000953674316 -2
v 1.9993749856948853 2.9000000953674316 -1.9500000476837158
v 1.9993749856948853 2.9000000953674316 -1.9500080347061157
v -0.9238799810409546 3.0999999046325684 -1.9500000476837158
v -2 3.0999999046325684 -1.9500000476837158
v -2 3.0999999046325684 -2
v -0.9238799810409546 3.0999999046325684 -2
v 0.9238799810409546 3.0999999046325684 -2
v 1.9500000476837158 3.0999999046325684 -2
v 1.9500000476837158 3.0999999046325684 -1.9993749856948853
v 1.9500000476837158 3.0999999046325684 -1.9500000476837158
v 0.9238799810409546 3.0999999046325684 -1.9500000476837158
v 1.9500080347061157 3.0999999046325684 -1.9993749856948853
v 2 3.0999999046325684 -2
v 2 3.0999999046325684 -1.9500000476837158
v 1.9500000476837158 3.0999999046325684 -2
v 1.9500080347061157 3.0999999046325684 -1.9993749856948853
v 1.9500000476837158 3.0999999046325684 -1.9993749856948853
v 0.38268300890922546 3.923880100250244 -2
v 0.9238799810409546 3.3826839923858643 -2
v 0.9238799810409546 3.3826839923858643 -1.9500000476837158
v 0.38268300890922546 3.923880100250244 -1.9500000476837158
v 0.9238799810409546 3.0999999046325684 -1.9500000476837158
v 0.9238799810409546 3.3826839923858643 -1.9500000476837158
v 0.9238799810409546 3.3826839923858643 -2
v 0.9238799810409546 3.0999999046325684 -2
v 0.9238799810409546 2.6173160076141357 -2
v 0.9238799810409546 2.6173160076141357 -1.9500000476837158
v 0.9238799810409546 2.9000000953674316 -1.9500000476837158
v 0.9238799810409546 2.9000000953674316 -2
v 0.9238799810409546 2.6173160076141357 -1.9500000476837158
v 0.9238799810409546 2.6173160076141357 -2
v 0.38268300890922546 2.076119899749756 -2
v 0.38268300890922546 2.076119899749756 -1.9500000476837158
v -0.38268300890922546 2.076119899749756 -1.9500000476837158
v 0.38268300890922546 2.076119899749756 -1.9500000476837158
v 0.38268300890922546 2.076119899749756 -2
v -0.38268300890922546 2.076119899749756 -2
v -0.9238799810409546 2.6173160076141357 -1.9500000476837158
v -0.38268300890922546 2.076119899749756 -1.9500000476837158
v -0.38268300890922546 2.076119899749756 -2
v -0.9238799810409546 2.6173160076141357 -2
v -0.9238799810409546 2.9000000953674316 -1.9500000476837158
v -0.9238799810409546 2.6173160076141357 -1.9500000476837158
v -0.9238799810409546 2.6173160076141357 -2
v -0.9238799810409546 2.9000000953674316 -2
v -0.9238799810409546 3.0999999046325684 -2
v -0.9238799810409546 3.3826839923858643 -2
v -0.9238799810409546 3.3826839923858643 -1.9500000476837158
v -0.9238799810409546 3.0999999046325684 -1.9500000476837158
v -0.9238799810409546 3.3826839923858643 -2
v -0.38268300890922546 3.923880100250244 -2
v -0.38268300890922546 3.923880100250244 -1.9500000476837158
v -0.9238799810409546 3.3826839923858643 -1.9500000476837158
v -0.38268300890922546 3.923880100250244 -2
v 0.38268300890922546 3.923880100250244 -2
v 0.38268300890922546 3.923880100250244 -1.9500000476837158
v -0.38268300890922546 3.923880100250244 -1.9500000476837158
v 0.8067880272865295 3.0999999046325684 -2
v 0.9238799810409546 3.0999999046325684 -2
v 0.9238799810409546 3.3826839923858643 -2
v 0.38268300890922546 3.923880100250244 -2
v -0.38268300890922546 3.923880100250244 -2
v -0.9238799810409546 3.3826839923858643 -2
v -0.9238799810409546 3.0999999046325684 -2
v -0.7239450216293335 3.0999999046325684 -2
v -0.04142099991440773 3.0999999046325684 -2
v -0.9238799810409546 2.9000000953674316 -2
v -0.9238799810409546 2.6173160076141357 -2
v -0.38268300890922546 2.076119899749756 -2
v 0.38268300890922546 2.076119899749756 -2
v 0.9238799810409546 2.6173160076141357 -2
v 0.9238799810409546 2.9000000953674316 -2
v 0.7239450216293335 2.9000000953674316 -2
v 0.04142099991440773 2.9000000953674316 -2
v -0.8067880272865295 2.9000000953674316 -2
vt 0.625 0
vt 0.625 0.25
vt 0.375 0.25
vt 0.375 0
vt 0.49583300948143005 0
vt 0.49583300948143005 0.125
vt 0.5041670203208923 0.125
vt 0.5041670203208923 0
vt 0.375 0.25
vt 0.625 0.25
vt 0.625 0.5
vt 0.375 0.5
vt 0.49583300948143005 0.75
vt 0.375 0.75
vt 0.375 0.5
vt 0.625 0.5
vt 0.625 0.75
vt 0.5041670203208923 0.75
vt 0.5041670203208923 0.625
vt 0.49583300948143005 0.625
vt 0.5041670203208923 0.75
vt 0.625 0.75
vt 0.625 1
vt 0.5041670203208923 1
vt 0.5041670203208923 0.9327419996261597
vt 0.5159450173377991 0.9327419996261597
vt 0.5384950041770935 0.8989180028438568
vt 0.5384950041770935 0.8510819971561432
vt 0.5159450173377991 0.8172580003738403
vt 0.5041670203208923 0.8172580003738403
vt 0.5041670203208923 0.7531249970197678
vt 0.49583300948143005 0.8172580003738403
vt 0.4840550124645233 0.8172580003738403
vt 0.4615049958229065 0.8510819971561432
vt 0.4615049958229065 0.8989180028438568
vt 0.4840550124645233 0.9327419996261597
vt 0.49583300948143005 0.9327419996261597
vt 0.49583300948143005 1
vt 0.375 1
vt 0.375 0.8812500014901161
vt 0.3770830035209656 0.8812500014901161
vt 0.3770830035209656 0.8687500059604645
vt 0.375 0.8687500059604645
vt 0.375 0.75
vt 0.49583300948143005 0.75
vt 0.49583300948143005 0.7500389963388443
vt 0.49583300948143005 0.7531249970197678
vt 0.24375000596046448 0.75
vt 0.125 0.75
vt 0.125 0.5
vt 0.375 0.5
vt 0.375 0.75
vt 0.2562499940395355 0.75
vt 0.2562499940395355 0.6239210069179535
vt 0.24375000596046448 0.6239210069179535
vt 0.625 0.5
vt 0.875 0.5
vt 0.875 0.75
vt 0.625 0.75
vt 0.375 0.5
vt 0.375 0.5
vt 0.625 0.25
vt 0.625 0.25
vt 0.375 0.75
vt 0.625 0.5
vt 0.625 0.5
vt 0.375 0.75
vt 0.375 1
vt 0.625 0.75
vt 0.625 0.75
vt 0.375 1
vt 0.625 0.5
vt 0.625 0.75
vt 0.6362180113792419 0.75
vt 0.6362180113792419 0.5
vt 0.375 0.25
vt 0.375 0.31725800037384033
vt 0.625 0.31725800037384033
vt 0.625 0.25
vt 0.625 0.49687498807907104
vt 0.625 0.43274199962615967
vt 0.375 0.43274199962615967
vt 0.375 0.49687498807907104
vt 0.625 0.32975298166275024
vt 0.375 0.3245760202407837
vt 0.625 0.4254239797592163
vt 0.625 0.37241101264953613
vt 0.375 0.37758898735046387
vt 0.375 0.42024701833724976
vt 0.625 0.5
vt 0.375 0.5
vt 0.37187498807907104 0.5
vt 0.30774199962615967 0.5
vt 0.30774199962615967 0.75
vt 0.37187498807907104 0.75
vt 0.125 0.75
vt 0.19225800037384033 0.75
vt 0.19225800037384033 0.5
vt 0.125 0.5
vt 0.375 0.75
vt 0.375 0.5
vt 0.3749609887599945 0.75
vt 0.3749609887599945 0.7499609887599945
vt 0.8077419996261597 0.75
vt 0.875 0.75
vt 0.875 0.5
vt 0.8077419996261597 0.5
vt 0.6922580003738403 0.5
vt 0.628125011920929 0.5
vt 0.628125011920929 0.503125011920929
vt 0.628125011920929 0.75
vt 0.6922580003738403 0.75
vt 0.6281239986419678 0.5031239986419678
vt 0.625 0.5
vt 0.625 0.75
vt 0.628125011920929 0.5
vt 0.6281239986419678 0.5031239986419678
vt 0.628125011920929 0.503125011920929
vt 1 0.5
vt 0.875 0.5
vt 0.875 1
vt 1 1
vt 0.8288319706916809 1
vt 0.875 1
vt 0.875 0.5
vt 0.8288319706916809 0.5
vt 0.75 0.5
vt 0.75 1
vt 0.7961680293083191 1
vt 0.7961680293083191 0.5
vt 0.75 1
vt 0.75 0.5
vt 0.625 0.5
vt 0.625 1
vt 0.5 1
vt 0.625 1
vt 0.625 0.5
vt 0.5 0.5
vt 0.375 1
vt 0.5 1
vt 0.5 0.5
vt 0.375 0.5
vt 0.3288320004940033 1
vt 0.375 1
vt 0.375 0.5
vt 0.3288320004940033 0.5
vt 0.2961679995059967 0.5
vt 0.25 0.5
vt 0.25 1
vt 0.2961679995059967 1
vt 0.25 0.5
vt 0.125 0.5
vt 0.125 1
vt 0.25 1
vt 0.125 0.5
vt 0 0.5
vt 0.125 0.5380600094795227
vt 0.125 1
vt 0.8829889893531799 0.4349139928817749
vt 0.9197059869766235 0.41970598697662354
vt 0.9197059869766235 0.41970598697662354
vt 0.75 0.49000000953674316
vt 0.5802940130233765 0.41970598697662354
vt 0.5802940130233765 0.08029401302337646
vt 0.5802940130233765 0.08029401302337646
vt 0.6429889798164368 0.054325997829437256
vt 0.6559630036354065 0.45104801654815674
vt 0.5802940130233765 0.08029401302337646
vt 0.5802940130233765 0.08029401302337646
vt 0.5802940130233765 0.41970598697662354
vt 0.75 0.49000000953674316
vt 0.9197059869766235 0.41970598697662354
vt 0.9197059869766235 0.41970598697662354
vt 0.8570110201835632 0.44567400217056274
vt 0.6743320226669312 0.45865702629089355
vt 0.6170110106468201 0.0650860071182251
vn -1 0 0
vn -1 0 0
vn -1 0 0
vn -1 0 0
vn -1 0 0
vn -1 0 0
vn -1 0 0
vn -1 0 0
vn 0 0 -1
vn 0 0 -1
vn 0 0 -1
vn 0 0 -1
vn 1 0 0
vn 1 0 0
vn 1 0 0
vn 1 0 0
vn 1 0 0
vn 1 0 0
vn 1 0 0
vn 1 0 0
vn 0 0 1
vn 0 0 1
vn 0 0 1
vn 0 0 1
vn 0 0 1
vn 0 0 1
vn 0 0 1
vn 0 0 1
vn 0 0 1
vn 0 0 1
vn 0 0 1
vn 0 0 1
vn 0 0 1
vn 0 0 1
vn 0 0 1
vn 0 0 1
vn 0 0 1
vn 0 0 1
vn 0 0 1
vn 0 0 1
vn 0 0 1
vn 0 0 1
vn 0 0 1
vn 0 0 1
vn 0 0 1
vn 0 0 1
vn 0 0 1
vn 0 -1 0
vn 0 -1 0
vn 0 -1 0
vn 0 -1 0
vn 0 -1 0
vn 0 -1 0
vn 0 -1 0
vn 0 -1 0
vn 0 1 0
vn 0 1 0
vn 0 1 0
vn 0 1 0
vn 1 0 0
vn 1 0 0
vn 1 0 0
vn 1 0 0
vn 0 0 1
vn 0 0 1
vn 0 0 1
vn 0 0 1
vn -1 0 0
vn -1 0 0
vn -1 0 0
vn -1 0 0
vn 0 -1 0
vn 0 -1 0
vn 0 -1 0
vn 0 -1 0
vn 0 0 1
vn 0 0 1
vn 0 0 1
vn 0 0 1
vn 0 0 1
vn 0 0 1
vn 0 0 1
vn 0 0 1
vn 0 0 1
vn 0 0 1
vn 0 0 1
vn 0 0 1
vn 0 0 1
vn 0 0 1
vn 0 0 1
vn 0 0 1
vn 0 1 0
vn 0 1 0
vn 0 1 0
vn 0 1 0
vn 0 1 0
vn 0 1 0
vn 0 1 0
vn 0 1 0
vn 0 1 0
vn 0 1 0
vn 0 1 0
vn 0 1 0
vn 0 -1 0
vn 0 -1 0
vn 0 -1 0
vn 0 -1 0
vn 0 -1 0
vn 0 -1 0
vn 0 -1 0
vn 0 -1 0
vn 0 -1 0
vn 0 -1 0
vn 0 -1 0
vn 0 -1 0
vn -0.0003999999526331841 -0.9999999200000157 0
vn -0.0003999999526331841 -0.9999999200000157 0
vn -0.0003999999526331841 -0.9999999200000157 0
vn -0.7071067811865476 -0.7071067811865476 0
vn -0.7071067811865476 -0.7071067811865476 0
vn -0.7071067811865476 -0.7071067811865476 0
vn -0.7071067811865476 -0.7071067811865476 0
vn -1 0 0
vn -1 0 0
vn -1 0 0
vn -1 0 0
vn -1 0 0
vn -1 0 0
vn -1 0 0
vn -1 0 0
vn -0.7071067811865476 0.7071067811865476 0
vn -0.7071067811865476 0.7071067811865476 0
vn -0.7071067811865476 0.7071067811865476 0
vn -0.7071067811865476 0.7071067811865476 0
vn 0 1 0
vn 0 1 0
vn 0 1 0
vn 0 1 0
vn 0.7071067811865476 0.7071067811865476 0
vn 0.7071067811865476 0.7071067811865476 0
vn 0.7071067811865476 0.7071067811865476 0
vn 0.7071067811865476 0.7071067811865476 0
vn 1 0 0
vn 1 0 0
vn 1 0 0
vn 1 0 0
vn 1 0 0
vn 1 0 0
vn 1 0 0
vn 1 0 0
vn 0.7071067811865476 -0.7071067811865476 0
vn 0.7071067811865476 -0.7071067811865476 0
vn 0.7071067811865476 -0.7071067811865476 0
vn 0.7071067811865476 -0.7071067811865476 0
vn 0 -1 0
vn 0 -1 0
vn 0 -1 0
vn 0 -1 0
vn 0 0 1
vn 0 0 1
vn 0 0 1
vn 0 0 1
vn 0 0 1
vn 0 0 1
vn 0 0 1
vn 0 0 1
vn 0 0 1
vn 0 0 1
vn 0 0 1
vn 0 0 1
vn 0 0 1
vn 0 0 1
vn 0 0 1
vn 0 0 1
vn 0 0 1
vn 0 0 1
f 230/230/230 236/236/236 229/229/229
f 234/234/234 232/232/232 233/233/233
f 230/230/230 235/235/235 236/236/236
f 234/234/234 231/231/231 232/232/232
f 231/231/231 235/235/235 230/230/230
f 235/235/235 231/231/231 234/234/234
f 238/238/238 240/240/240 237/237/237
f 240/240/240 238/238/238 239/239/239
f 248/248/248 241/241/241 242/242/242
f 244/244/244 245/245/245 246/246/246
f 248/248/248 242/242/242 243/243/243
f 244/244/244 246/246/246 247/247/247
f 247/247/247 248/248/248 243/243/243
f 243/243/243 244/244/244 247/247/247
f 259/259/259 249/249/249 250/250/250
f 250/250/250 251/251/251 252/252/252
f 252/252/252 253/253/253 254/254/254
f 257/257/257 258/258/258 259/259/259
f 252/252/252 254/254/254 255/255/255
f 256/256/256 257/257/257 259/259/259
f 250/250/250 252/252/252 255/255/255
f 256/256/256 259/259/259 250/250/250
f 250/250/250 255/255/255 256/256/256
f 274/274/274 275/275/275 260/260/260
f 264/264/264 265/265/265 266/266/266
f 266/266/266 267/267/267 268/268/268
f 270/270/270 271/271/271 272/272/272
f 272/272/272 273/273/273 274/274/274
f 274/274/274 260/260/260 261/261/261
f 263/263/263 264/264/264 266/266/266
f 266/266/266 268/268/268 269/269/269
f 270/270/270 272/272/272 274/274/274
f 274/274/274 261/261/261 262/262/262
f 263/263/263 266/266/266 269/269/269
f 269/269/269 270/270/270 274/274/274
f 262/262/262 263/263/263 269/269/269
f 269/269/269 274/274/274 262/262/262
f 283/283/283 276/276/276 277/277/277
f 279/279/279 280/280/280 281/281/281
f 283/283/283 277/277/277 278/278/278
f 279/279/279 281/281/281 282/282/282
f 282/282/282 283/283/283 278/278/278
f 278/278/278 279/279/279 282/282/282
f 285/285/285 287/287/287 284/284/284
f 287/287/287 285/285/285 286/286/286
f 290/290/290 291/291/291 288/288/288
f 288/288/288 289/289/289 290/290/290
f 294/294/294 295/295/295 292/292/292
f 292/292/292 293/293/293 294/294/294
f 297/297/297 299/299/299 296/296/296
f 299/299/299 297/297/297 298/298/298
f 302/302/302 303/303/303 300/300/300
f 300/300/300 301/301/301 302/302/302
f 306/306/306 307/307/307 304/304/304
f 304/304/304 305/305/305 306/306/306
f 310/310/310 311/311/311 308/308/308
f 308/308/308 309/309/309 310/310/310
f 305/305/305 313/313/313 312/312/312
f 312/312/312 306/306/306 305/305/305
f 316/316/316 317/317/317 314/314/314
f 314/314/314 315/315/315 316/316/316
f 311/311/311 319/319/319 318/318/318
f 318/318/318 308/308/308 311/311/311
f 314/314/314 317/317/317 310/310/310
f 310/310/310 309/309/309 314/314/314
f 315/315/315 312/312/312 313/313/313
f 313/313/313 316/316/316 315/315/315
f 321/321/321 323/323/323 320/320/320
f 323/323/323 321/321/321 322/322/322
f 325/325/325 327/327/327 324/324/324
f 327/327/327 325/325/325 326/326/326
f 329/329/329 331/331/331 328/328/328
f 331/331/331 323/323/323 330/330/330
f 323/323/323 329/329/329 320/320/320
f 329/329/329 323/323/323 331/331/331
f 330/330/330 328/328/328 331/331/331
f 334/334/334 335/335/335 332/332/332
f 332/332/332 333/333/333 334/334/334
f 339/339/339 340/340/340 336/336/336
f 336/336/336 337/337/337 338/338/338
f 338/338/338 339/339/339 336/336/336
f 339/339/339 338/338/338 341/341/341
f 341/341/341 337/337/337 342/342/342
f 342/342/342 343/343/343 339/339/339
f 339/339/339 341/341/341 342/342/342
f 344/344/344 345/345/345 346/346/346
f 349/349/349 350/350/350 347/347/347
f 347/347/347 348/348/348 349/349/349
f 352/352/352 354/354/354 351/351/351
f 354/354/354 352/352/352 353/353/353
f 356/356/356 358/358/358 355/355/355
f 358/358/358 356/356/356 357/357/357
f 360/360/360 362/362/362 359/359/359
f 362/362/362 360/360/360 361/361/361
f 364/364/364 366/366/366 363/363/363
f 366/366/366 364/364/364 365/365/365
f 368/368/368 370/370/370 367/367/367
f 370/370/370 368/368/368 369/369/369
f 373/373/373 374/374/374 371/371/371
f 371/371/371 372/372/372 373/373/373
f 377/377/377 378/378/378 375/375/375
f 375/375/375 376/376/376 377/377/377
f 381/381/381 382/382/382 379/379/379
f 379/379/379 380/380/380 381/381/381
f 385/385/385 386/386/386 383/383/383
f 383/383/383 384/384/384 385/385/385
f 387/387/387 388/388/388 389/389/389
f 389/389/389 390/390/390 391/391/391
f 391/391/391 392/392/392 393/393/393
f 395/395/395 387/387/387 389/389/389
f 389/389/389 391/391/391 393/393/393
f 394/394/394 395/395/395 389/389/389
f 389/389/389 393/393/393 394/394/394
f 403/403/403 404/404/404 396/396/396
f 396/396/396 397/397/397 398/398/398
f 398/398/398 399/399/399 400/400/400
f 400/400/400 401/401/401 402/402/402
f 403/403/403 396/396/396 398/398/398
f 398/398/398 400/400/400 402/402/402
f 402/402/402 403/403/403 398/398/398
o Wall_Panel001
usemtl Ground2
v 1.9500000476837158 5 2
v 1.9500000476837158 6 2
v 1.899999976158142 6 2
v 1.899999976158142 5 2
v 1.899999976158142 5 2
v 1.899999976158142 6 2
v 1.899999976158142 6 -2
v 1.899999976158142 5 -2
v 1.899999976158142 5 -2
v 1.899999976158142 6 -2
v 1.9500000476837158 6 -2
v 1.9500000476837158 5 -2
v 1.9500000476837158 5 -2
v 1.9500000476837158 6 -2
v 1.9500000476837158 6 2
v 1.9500000476837158 5 2
v 1.899999976158142 5 2
v 1.899999976158142 5 -2
v 1.9500000476837158 5 -2
v 1.9500000476837158 5 2
v 1.899999976158142 6 -2
v 1.899999976158142 6 2
v 1.9500000476837158 6 2
v 1.9500000476837158 6 -2
vt 0.375 0
vt 0.625 0
vt 0.625 0.25
vt 0.375 0.25
vt 0.375 0.25
vt 0.625 0.25
vt 0.625 0.5
vt 0.375 0.5
vt 0.375 0.5
vt 0.625 0.5
vt 0.625 0.75
vt 0.375 0.75
vt 0.375 0.75
vt 0.625 0.75
vt 0.625 1
vt 0.375 1
vt 0.125 0.5
vt 0.375 0.5
vt 0.375 0.75
vt 0.125 0.75
vt 0.625 0.5
vt 0.875 0.5
vt 0.875 0.75
vt 0.625 0.75
vn 0 0 1
vn 0 0 1
vn 0 0 1
vn 0 0 1
vn -1 0 0
vn -1 0 0
vn -1 0 0
vn -1 0 0
vn 0 0 -1
vn 0 0 -1
vn 0 0 -1
vn 0 0 -1
vn 1 0 0
vn 1 0 0
vn 1 0 0
vn 1 0 0
vn 0 -1 0
vn 0 -1 0
vn 0 -1 0
vn 0 -1 0
vn 0 1 0
vn 0 1 0
vn 0 1 0
vn 0 1 0
f 407/407/407 408/408/408 405/405/405
f 405/405/405 406/406/406 407/407/407
f 410/410/410 412/412/412 409/409/409
f 412/412/412 410/410/410 411/411/411
f 414/414/414 416/416/416 413/413/413
f 416/416/416 414/414/414 415/415/415
f 419/419/419 420/420/420 417/417/417
f 417/417/417 418/418/418 419/419/419
f 423/423/423 424/424/424 421/421/421
f 421/421/421 422/422/422 423/423/423
f 426/426/426 428/428/428 425/425/425
f 428/428/428 426/426/426 427/427/427
o Triangle_Connecter001
usemtl Ground
v 2 0.5 2
v 2 0.5 -2
v 1.8064639568328857 0.5 -2
v 1.8064639568328857 0.5 2
v 2 0 -2
v 2 0.5 -2
v 2 0.5 2
v 2 0 2
v 1.5 0 -2
v 1.5 0.19353599846363068 -2
v 1.8064639568328857 0.5 -2
v 2 0.5 -2
v 2 0 -2
v 2 0 -2
v 2 0 2
v 1.5 0 2
v 1.5 0 -2
v 2 0 2
v 2 0.5 2
v 1.8064639568328857 0.5 2
v 1.5 0.19353599846363068 2
v 1.5 0 2
v 1.8064639568328857 0.5 2
v 1.8064639568328857 0.5 -2
v 1.5 0.19353599846363068 -2
v 1.5 0.19353599846363068 2
v 1.5 0 2
v 1.5 0.19353599846363068 2
v 1.5 0.19353599846363068 -2
v 1.5 0 -2
vt 0.625 0.5
vt 0.875 0.5
vt 0.875 0.5967679917812347
vt 0.625 0.5967679917812347
vt 0.375 0.25
vt 0.625 0.25
vt 0.625 0.5
vt 0.375 0.5
vt 0.375 0
vt 0.47176799178123474 0
vt 0.625 0.15323197841644287
vt 0.625 0.25
vt 0.375 0.25
vt 0.125 0.5
vt 0.375 0.5
vt 0.375 0.75
vt 0.125 0.75
vt 0.375 0.5
vt 0.625 0.5
vt 0.625 0.5967679917812347
vt 0.47176799178123474 0.75
vt 0.375 0.75
vt 0.625 0.75
vt 0.625 1
vt 0.47176799178123474 1
vt 0.47176799178123474 0.75
vt 0.375 0.75
vt 0.47176799178123474 0.75
vt 0.47176799178123474 1
vt 0.375 1
vn 0 1 0
vn 0 1 0
vn 0 1 0
vn 0 1 0
vn 1 0 0
vn 1 0 0
vn 1 0 0
vn 1 0 0
vn 0 0 -1
vn 0 0 -1
vn 0 0 -1
vn 0 0 -1
vn 0 0 -1
vn 0 -1 0
vn 0 -1 0
vn 0 -1 0
vn 0 -1 0
vn 0 0 1
vn 0 0 1
vn 0 0 1
vn 0 0 1
vn 0 0 1
vn -0.7071067811865476 0.7071067811865476 0
vn -0.7071067811865476 0.7071067811865476 0
vn -0.7071067811865476 0.7071067811865476 0
vn -0.7071067811865476 0.7071067811865476 0
vn -1 0 0
vn -1 0 0
vn -1 0 0
vn -1 0 0
f 430/430/430 432/432/432 429/429/429
f 432/432/432 430/430/430 431/431/431
f 435/435/435 436/436/436 433/433/433
f 433/433/433 434/434/434 435/435/435
f 438/438/438 441/441/441 437/437/437
f 441/441/441 439/439/439 440/440/440
f 439/439/439 441/441/441 438/438/438
f 444/444/444 445/445/445 442/442/442
f 442/442/442 443/443/443 444/444/444
f 449/449/449 450/450/450 446/446/446
f 446/446/446 447/447/447 448/448/448
f 448/448/448 449/449/449 446/446/446
f 452/452/452 454/454/454 451/451/451
f 454/454/454 452/452/452 453/453/453
f 456/456/456 458/458/458 455/455/455
f 458/458/458 456/456/456 457/457/457
