mtllib PowerCell.mtl
o Cube
usemtl Ground
v -0.5 0.75 1.5
v -0.5 1.5 1.5
v -0.5 1.5 -1.5
v -0.5 0.75 -1.5
v 0.5 0.75 -1.5
v -0.5 0.75 -1.5
v -0.5 1.5 -1.5
v -0.05689699947834015 1.5 -1.5
v -0.5 -1.5 -1.5
v 0.5 -1.5 -1.5
v 0.5 -1.5 1.5
v -0.5 -1.5 1.5
v -0.5 1.5 1.5
v -0.5 0.75 1.5
v 0.5 0.75 1.5
v -0.05689699947834015 1.5 1.5
v 0.5 -1.5 1.5
v 0.5 0 1.5
v -0.5 0 1.5
v -0.5 -1.5 1.5
v 0.5 0 1.5
v 0.5 -1.5 1.5
v 0.5 -1.5 -1.5
v 0.5 0 -1.5
v 0.5 0 -1.2000000476837158
v 0.5 -1.2000000476837158 -1.2000000476837158
v 0.5 -1.2000000476837158 1.2000000476837158
v 0.5 0 1.2000000476837158
v -0.5 -1.5 -1.5
v -0.5 0 -1.5
v 0.5 0 -1.5
v 0.5 -1.5 -1.5
v -0.5 -1.5 1.5
v -0.5 0 1.5
v -0.5 0 -1.5
v -0.5 -1.5 -1.5
v 0.5 0.75 -1.5
v 0.5 0.75 1.5
v 0.5 0.6000000238418579 1.2000000476837158
v 0.5 0.6000000238418579 -1.2000000476837158
v -0.05689699947834015 1.5 -1.5
v -0.05689699947834015 1.5 1.5
v 0.5 0.75 1.5
v 0.5 0.75 -1.5
v -0.05689699947834015 1.5 -1.5
v -0.5 1.5 -1.5
v -0.5 1.5 1.5
v -0.05689699947834015 1.5 1.5
v 0.20000000298023224 -1.2000000476837158 1.2000000476837158
v 0.20000000298023224 -1.2000000476837158 -1.2000000476837158
v 0.20000000298023224 0.6000000238418579 -1.2000000476837158
v 0.20000000298023224 0.6000000238418579 1.2000000476837158
v 0.5 0.6000000238418579 -1.2000000476837158
v 0.20000000298023224 0.6000000238418579 -1.2000000476837158
v 0.20000000298023224 -1.2000000476837158 -1.2000000476837158
v 0.5 -1.2000000476837158 -1.2000000476837158
v 0.5 0 -1.2000000476837158
v 0.5 -1.2000000476837158 1.2000000476837158
v 0.20000000298023224 -1.2000000476837158 1.2000000476837158
v 0.20000000298023224 0.6000000238418579 1.2000000476837158
v 0.5 0.6000000238418579 1.2000000476837158
v 0.5 0 1.2000000476837158
v 0.20000000298023224 -1.2000000476837158 -1.2000000476837158
v 0.20000000298023224 -1.2000000476837158 1.2000000476837158
v 0.5 -1.2000000476837158 1.2000000476837158
v 0.5 -1.2000000476837158 -1.2000000476837158
v 0.20000000298023224 0.6000000238418579 1.2000000476837158
v 0.20000000298023224 0.6000000238418579 -1.2000000476837158
v 0.5 0.6000000238418579 -1.2000000476837158
v 0.5 0.6000000238418579 1.2000000476837158
vt 0.5625 0
vt 0.625 0
vt 0.625 0.25
vt 0.5625 0.25
vt 0.5625 0.5
vt 0.5625 0.25
vt 0.625 0.25
vt 0.625 0.36077600717544556
vt 0.125 0.5
vt 0.375 0.5
vt 0.375 0.75
vt 0.125 0.75
vt 0.625 1
vt 0.5625 1
vt 0.5625 0.75
vt 0.625 0.889224000275135
vt 0.375 0.75
vt 0.5 0.75
vt 0.5 1
vt 0.375 1
vt 0.5 0.75
vt 0.375 0.75
vt 0.375 0.5
vt 0.5 0.5
vt 0.5 0.5250000059604645
vt 0.4000000059604645 0.5250000059604645
vt 0.4000000059604645 0.7249999940395355
vt 0.5 0.7249999940395355
vt 0.375 0.25
vt 0.5 0.25
vt 0.5 0.5
vt 0.375 0.5
vt 0.375 0
vt 0.5 0
vt 0.5 0.25
vt 0.375 0.25
vt 0.5625 0.5
vt 0.5625 0.75
vt 0.550000011920929 0.7249999940395355
vt 0.550000011920929 0.5250000059604645
vt 0.7642239928245544 0.5
vt 0.7642239928245544 0.75
vt 0.5625 0.75
vt 0.5625 0.5
vt 0.7642239928245544 0.5
vt 0.875 0.5
vt 0.875 0.75
vt 0.7642239928245544 0.75
vt 0.375 0
vt 0.375 0.25
vt 0.625 0.25
vt 0.625 0
vt 0.625 0.375
vt 0.625 0.25
vt 0.375 0.25
vt 0.375 0.375
vt 0.5416669845581055 0.375
vt 0.375 0.875
vt 0.375 1
vt 0.625 1
vt 0.625 0.875
vt 0.5416669845581055 0.875
vt 0.125 0.5
vt 0.125 0.75
vt 0.25 0.75
vt 0.25 0.5
vt 0.875 0.75
vt 0.875 0.5
vt 0.75 0.5
vt 0.75 0.75
vn -1 0 0
vn -1 0 0
vn -1 0 0
vn -1 0 0
vn 0 0 -1
vn 0 0 -1
vn 0 0 -1
vn 0 0 -1
vn 0 -1 0
vn 0 -1 0
vn 0 -1 0
vn 0 -1 0
vn 0 0 1
vn 0 0 1
vn 0 0 1
vn 0 0 1
vn 0 0 1
vn 0 0 1
vn 0 0 1
vn 0 0 1
vn 1 0 0
vn 1 0 0
vn 1 0 0
vn 1 0 0
vn 1 0 0
vn 1 0 0
vn 1 0 0
vn 1 0 0
vn 0 0 -1
vn 0 0 -1
vn 0 0 -1
vn 0 0 -1
vn -1 0 0
vn -1 0 0
vn -1 0 0
vn -1 0 0
vn 1 0 0
vn 1 0 0
vn 1 0 0
vn 1 0 0
vn 0.8028587080471522 0.5961693508667295 0
vn 0.8028587080471522 0.5961693508667295 0
vn 0.8028587080471522 0.5961693508667295 0
vn 0.8028587080471522 0.5961693508667295 0
vn 0 1 0
vn 0 1 0
vn 0 1 0
vn 0 1 0
vn 1 0 0
vn 1 0 0
vn 1 0 0
vn 1 0 0
vn 0 0 1
vn 0 0 1
vn 0 0 1
vn 0 0 1
vn 0 0 1
vn 0 0 -1
vn 0 0 -1
vn 0 0 -1
vn 0 0 -1
vn 0 0 -1
vn 0 1 0
vn 0 1 0
vn 0 1 0
vn 0 1 0
vn 0 -1 0
vn 0 -1 0
vn 0 -1 0
vn 0 -1 0
f 2/2/2 4/4/4 1/1/1
f 4/4/4 2/2/2 3/3/3
f 6/6/6 8/8/8 5/5/5
f 8/8/8 6/6/6 7/7/7
f 11/11/11 12/12/12 9/9/9
f 9/9/9 10/10/10 11/11/11
f 15/15/15 16/16/16 13/13/13
f 13/13/13 14/14/14 15/15/15
f 19/19/19 20/20/20 17/17/17
f 17/17/17 18/18/18 19/19/19
f 27/27/27 28/28/28 21/21/21
f 23/23/23 24/24/24 25/25/25
f 27/27/27 21/21/21 22/22/22
f 23/23/23 25/25/25 26/26/26
f 26/26/26 27/27/27 22/22/22
f 22/22/22 23/23/23 26/26/26
f 30/30/30 32/32/32 29/29/29
f 32/32/32 30/30/30 31/31/31
f 34/34/34 36/36/36 33/33/33
f 36/36/36 34/34/34 35/35/35
f 14/14/14 19/19/19 18/18/18
f 18/18/18 15/15/15 14/14/14
f 40/40/40 25/25/25 24/24/24
f 38/38/38 21/21/21 28/28/28
f 40/40/40 24/24/24 37/37/37
f 38/38/38 28/28/28 39/39/39
f 39/39/39 40/40/40 37/37/37
f 37/37/37 38/38/38 39/39/39
f 6/6/6 31/31/31 30/30/30
f 31/31/31 6/6/6 5/5/5
f 1/1/1 35/35/35 34/34/34
f 35/35/35 1/1/1 4/4/4
f 43/43/43 44/44/44 41/41/41
f 41/41/41 42/42/42 43/43/43
f 46/46/46 48/48/48 45/45/45
f 48/48/48 46/46/46 47/47/47
f 51/51/51 52/52/52 49/49/49
f 49/49/49 50/50/50 51/51/51
f 57/57/57 53/53/53 54/54/54
f 54/54/54 55/55/55 56/56/56
f 56/56/56 57/57/57 54/54/54
f 59/59/59 62/62/62 58/58/58
f 62/62/62 60/60/60 61/61/61
f 60/60/60 62/62/62 59/59/59
f 64/64/64 66/66/66 63/63/63
f 66/66/66 64/64/64 65/65/65
f 69/69/69 70/70/70 67/67/67
f 67/67/67 68/68/68 69/69/69
o Cylinder
usemtl Blue
v 0.30000001192092896 -1.2000000476837158 0.8500000238418579
v 0.30000001192092896 0.6000000238418579 0.8500000238418579
v 0.3574030101299286 0.6000000238418579 0.8614180088043213
v 0.3574030101299286 -1.2000000476837158 0.8614180088043213
v 0.3574030101299286 -1.2000000476837158 0.8614180088043213
v 0.3574030101299286 0.6000000238418579 0.8614180088043213
v 0.40606600046157837 0.6000000238418579 0.8939340114593506
v 0.40606600046157837 -1.2000000476837158 0.8939340114593506
v 0.40606600046157837 -1.2000000476837158 0.8939340114593506
v 0.40606600046157837 0.6000000238418579 0.8939340114593506
v 0.43858200311660767 0.6000000238418579 0.9425979852676392
v 0.43858200311660767 -1.2000000476837158 0.9425979852676392
v 0.43858200311660767 -1.2000000476837158 0.9425979852676392
v 0.43858200311660767 0.6000000238418579 0.9425979852676392
v 0.44999998807907104 0.6000000238418579 1
v 0.44999998807907104 -1.2000000476837158 1
v 0.44999998807907104 -1.2000000476837158 1
v 0.44999998807907104 0.6000000238418579 1
v 0.43858200311660767 0.6000000238418579 1.0574020147323608
v 0.43858200311660767 -1.2000000476837158 1.0574020147323608
v 0.43858200311660767 -1.2000000476837158 1.0574020147323608
v 0.43858200311660767 0.6000000238418579 1.0574020147323608
v 0.40606600046157837 0.6000000238418579 1.1060659885406494
v 0.40606600046157837 -1.2000000476837158 1.1060659885406494
v 0.40606600046157837 -1.2000000476837158 1.1060659885406494
v 0.40606600046157837 0.6000000238418579 1.1060659885406494
v 0.3574030101299286 0.6000000238418579 1.1385819911956787
v 0.3574030101299286 -1.2000000476837158 1.1385819911956787
v 0.3574030101299286 -1.2000000476837158 1.1385819911956787
v 0.3574030101299286 0.6000000238418579 1.1385819911956787
v 0.30000001192092896 0.6000000238418579 1.149999976158142
v 0.30000001192092896 -1.2000000476837158 1.149999976158142
v 0.30000001192092896 -1.2000000476837158 1.149999976158142
v 0.30000001192092896 0.6000000238418579 1.149999976158142
v 0.24259699881076813 0.6000000238418579 1.1385819911956787
v 0.24259699881076813 -1.2000000476837158 1.1385819911956787
v 0.24259699881076813 -1.2000000476837158 1.1385819911956787
v 0.24259699881076813 0.6000000238418579 1.1385819911956787
v 0.19393399357795715 0.6000000238418579 1.1060659885406494
v 0.19393399357795715 -1.2000000476837158 1.1060659885406494
v 0.19393399357795715 -1.2000000476837158 1.1060659885406494
v 0.19393399357795715 0.6000000238418579 1.1060659885406494
v 0.16141800582408905 0.6000000238418579 1.0574020147323608
v 0.16141800582408905 -1.2000000476837158 1.0574020147323608
v 0.16141800582408905 -1.2000000476837158 1.0574020147323608
v 0.16141800582408905 0.6000000238418579 1.0574020147323608
v 0.15000000596046448 0.6000000238418579 1
v 0.15000000596046448 -1.2000000476837158 1
v 0.15000000596046448 -1.2000000476837158 1
v 0.15000000596046448 0.6000000238418579 1
v 0.16141800582408905 0.6000000238418579 0.9425979852676392
v 0.16141800582408905 -1.2000000476837158 0.9425979852676392
v 0.16141800582408905 -1.2000000476837158 0.9425979852676392
v 0.16141800582408905 0.6000000238418579 0.9425979852676392
v 0.19393399357795715 0.6000000238418579 0.8939340114593506
v 0.19393399357795715 -1.2000000476837158 0.8939340114593506
v 0.3574030101299286 0.6000000238418579 0.8614180088043213
v 0.30000001192092896 0.6000000238418579 0.8500000238418579
v 0.24259699881076813 0.6000000238418579 0.8614180088043213
v 0.19393399357795715 0.6000000238418579 0.8939340114593506
v 0.16141800582408905 0.6000000238418579 0.9425979852676392
v 0.15000000596046448 0.6000000238418579 1
v 0.16141800582408905 0.6000000238418579 1.0574020147323608
v 0.19393399357795715 0.6000000238418579 1.1060659885406494
v 0.24259699881076813 0.6000000238418579 1.1385819911956787
v 0.30000001192092896 0.6000000238418579 1.149999976158142
v 0.3574030101299286 0.6000000238418579 1.1385819911956787
v 0.40606600046157837 0.6000000238418579 1.1060659885406494
v 0.43858200311660767 0.6000000238418579 1.0574020147323608
v 0.44999998807907104 0.6000000238418579 1
v 0.43858200311660767 0.6000000238418579 0.9425979852676392
v 0.40606600046157837 0.6000000238418579 0.8939340114593506
v 0.19393399357795715 -1.2000000476837158 0.8939340114593506
v 0.19393399357795715 0.6000000238418579 0.8939340114593506
v 0.24259699881076813 0.6000000238418579 0.8614180088043213
v 0.24259699881076813 -1.2000000476837158 0.8614180088043213
v 0.24259699881076813 -1.2000000476837158 0.8614180088043213
v 0.24259699881076813 0.6000000238418579 0.8614180088043213
v 0.30000001192092896 0.6000000238418579 0.8500000238418579
v 0.30000001192092896 -1.2000000476837158 0.8500000238418579
v 0.30000001192092896 -1.2000000476837158 0.8500000238418579
v 0.3574030101299286 -1.2000000476837158 0.8614180088043213
v 0.40606600046157837 -1.2000000476837158 0.8939340114593506
v 0.43858200311660767 -1.2000000476837158 0.9425979852676392
v 0.44999998807907104 -1.2000000476837158 1
v 0.43858200311660767 -1.2000000476837158 1.0574020147323608
v 0.40606600046157837 -1.2000000476837158 1.1060659885406494
v 0.3574030101299286 -1.2000000476837158 1.1385819911956787
v 0.30000001192092896 -1.2000000476837158 1.149999976158142
v 0.24259699881076813 -1.2000000476837158 1.1385819911956787
v 0.19393399357795715 -1.2000000476837158 1.1060659885406494
v 0.16141800582408905 -1.2000000476837158 1.0574020147323608
v 0.15000000596046448 -1.2000000476837158 1
v 0.16141800582408905 -1.2000000476837158 0.9425979852676392
v 0.19393399357795715 -1.2000000476837158 0.8939340114593506
v 0.24259699881076813 -1.2000000476837158 0.8614180088043213
vt 1 0.5
vt 1 1
vt 0.9375 1
vt 0.9375 0.5
vt 0.9375 0.5
vt 0.9375 1
vt 0.875 1
vt 0.875 0.5
vt 0.875 0.5
vt 0.875 1
vt 0.8125 1
vt 0.8125 0.5
vt 0.8125 0.5
vt 0.8125 1
vt 0.75 1
vt 0.75 0.5
vt 0.75 0.5
vt 0.75 1
vt 0.6875 1
vt 0.6875 0.5
vt 0.6875 0.5
vt 0.6875 1
vt 0.625 1
vt 0.625 0.5
vt 0.625 0.5
vt 0.625 1
vt 0.5625 1
vt 0.5625 0.5
vt 0.5625 0.5
vt 0.5625 1
vt 0.5 1
vt 0.5 0.5
vt 0.5 0.5
vt 0.5 1
vt 0.4375 1
vt 0.4375 0.5
vt 0.4375 0.5
vt 0.4375 1
vt 0.375 1
vt 0.375 0.5
vt 0.375 0.5
vt 0.375 1
vt 0.3125 1
vt 0.3125 0.5
vt 0.3125 0.5
vt 0.3125 1
vt 0.25 1
vt 0.25 0.5
vt 0.25 0.5
vt 0.25 1
vt 0.1875 1
vt 0.1875 0.5
vt 0.1875 0.5
vt 0.1875 1
vt 0.125 1
vt 0.125 0.5
vt 0.34184399247169495 0.4717310070991516
vt 0.25 0.49000000953674316
vt 0.15815599262714386 0.4717310070991516
vt 0.08029399812221527 0.41970598697662354
vt 0.028269000351428986 0.34184402227401733
vt 0.009999999776482582 0.25
vt 0.028269000351428986 0.15815597772598267
vt 0.08029399812221527 0.08029401302337646
vt 0.15815599262714386 0.02826899290084839
vt 0.25 0.009999990463256836
vt 0.34184399247169495 0.02826899290084839
vt 0.41970598697662354 0.08029401302337646
vt 0.4717310070991516 0.15815597772598267
vt 0.49000000953674316 0.25
vt 0.4717310070991516 0.34184402227401733
vt 0.41970598697662354 0.41970598697662354
vt 0.125 0.5
vt 0.125 1
vt 0.0625 1
vt 0.0625 0.5
vt 0.0625 0.5
vt 0.0625 1
vt 0 1
vt 0 0.5
vt 0.75 0.49000000953674316
vt 0.8418440222740173 0.4717310070991516
vt 0.9197059869766235 0.41970598697662354
vt 0.9717310070991516 0.34184402227401733
vt 0.9900000095367432 0.25
vt 0.9717310070991516 0.15815597772598267
vt 0.9197059869766235 0.08029401302337646
vt 0.8418440222740173 0.02826899290084839
vt 0.75 0.009999990463256836
vt 0.6581559777259827 0.02826899290084839
vt 0.5802940130233765 0.08029401302337646
vt 0.5282689929008484 0.15815597772598267
vt 0.5099999904632568 0.25
vt 0.5282689929008484 0.34184402227401733
vt 0.5802940130233765 0.41970598697662354
vt 0.6581559777259827 0.4717310070991516
vn 0.19509681844353616 0 -0.9807839881611087
vn 0.19509681844353616 0 -0.9807839881611087
vn 0.19509681844353616 0 -0.9807839881611087
vn 0.19509681844353616 0 -0.9807839881611087
vn 0.5555767916856909 0 -0.8314652299045551
vn 0.5555767916856909 0 -0.8314652299045551
vn 0.5555767916856909 0 -0.8314652299045551
vn 0.5555767916856909 0 -0.8314652299045551
vn 0.8314652299045551 0 -0.5555767916856909
vn 0.8314652299045551 0 -0.5555767916856909
vn 0.8314652299045551 0 -0.5555767916856909
vn 0.8314652299045551 0 -0.5555767916856909
vn 0.9807839881611087 0 -0.19509681844353616
vn 0.9807839881611087 0 -0.19509681844353616
vn 0.9807839881611087 0 -0.19509681844353616
vn 0.9807839881611087 0 -0.19509681844353616
vn 0.9807839881611087 0 0.19509681844353616
vn 0.9807839881611087 0 0.19509681844353616
vn 0.9807839881611087 0 0.19509681844353616
vn 0.9807839881611087 0 0.19509681844353616
vn 0.8314652299045551 0 0.5555767916856909
vn 0.8314652299045551 0 0.5555767916856909
vn 0.8314652299045551 0 0.5555767916856909
vn 0.8314652299045551 0 0.5555767916856909
vn 0.5555767916856909 0 0.8314652299045551
vn 0.5555767916856909 0 0.8314652299045551
vn 0.5555767916856909 0 0.8314652299045551
vn 0.5555767916856909 0 0.8314652299045551
vn 0.19509681844353616 0 0.9807839881611087
vn 0.19509681844353616 0 0.9807839881611087
vn 0.19509681844353616 0 0.9807839881611087
vn 0.19509681844353616 0 0.9807839881611087
vn -0.19509681844353616 0 0.9807839881611087
vn -0.19509681844353616 0 0.9807839881611087
vn -0.19509681844353616 0 0.9807839881611087
vn -0.19509681844353616 0 0.9807839881611087
vn -0.5555767916856909 0 0.8314652299045551
vn -0.5555767916856909 0 0.8314652299045551
vn -0.5555767916856909 0 0.8314652299045551
vn -0.5555767916856909 0 0.8314652299045551
vn -0.8314652299045551 0 0.5555767916856909
vn -0.8314652299045551 0 0.5555767916856909
vn -0.8314652299045551 0 0.5555767916856909
vn -0.8314652299045551 0 0.5555767916856909
vn -0.9807839881611087 0 0.19509681844353616
vn -0.9807839881611087 0 0.19509681844353616
vn -0.9807839881611087 0 0.19509681844353616
vn -0.9807839881611087 0 0.19509681844353616
vn -0.9807839881611087 0 -0.19509681844353616
vn -0.9807839881611087 0 -0.19509681844353616
vn -0.9807839881611087 0 -0.19509681844353616
vn -0.9807839881611087 0 -0.19509681844353616
vn -0.8314652299045551 0 -0.5555767916856909
vn -0.8314652299045551 0 -0.5555767916856909
vn -0.8314652299045551 0 -0.5555767916856909
vn -0.8314652299045551 0 -0.5555767916856909
vn 0 1 0
vn 0 1 0
vn 0 1 0
vn 0 1 0
vn 0 1 0
vn 0 1 0
vn 0 1 0
vn 0 1 0
vn 0 1 0
vn 0 1 0
vn 0 1 0
vn 0 1 0
vn 0 1 0
vn 0 1 0
vn 0 1 0
vn 0 1 0
vn -0.5555767916856909 0 -0.8314652299045551
vn -0.5555767916856909 0 -0.8314652299045551
vn -0.5555767916856909 0 -0.8314652299045551
vn -0.5555767916856909 0 -0.8314652299045551
vn -0.19509681844353616 0 -0.9807839881611087
vn -0.19509681844353616 0 -0.9807839881611087
vn -0.19509681844353616 0 -0.9807839881611087
vn -0.19509681844353616 0 -0.9807839881611087
vn 0 -1 0
vn 0 -1 0
vn 0 -1 0
vn 0 -1 0
vn 0 -1 0
vn 0 -1 0
vn 0 -1 0
vn 0 -1 0
vn 0 -1 0
vn 0 -1 0
vn 0 -1 0
vn 0 -1 0
vn 0 -1 0
vn 0 -1 0
vn 0 -1 0
vn 0 -1 0
f 72/72/72 74/74/74 71/71/71
f 74/74/74 72/72/72 73/73/73
f 76/76/76 78/78/78 75/75/75
f 78/78/78 76/76/76 77/77/77
f 81/81/81 82/82/82 79/79/79
f 79/79/79 80/80/80 81/81/81
f 85/85/85 86/86/86 83/83/83
f 83/83/83 84/84/84 85/85/85
f 89/89/89 90/90/90 87/87/87
f 87/87/87 88/88/88 89/89/89
f 93/93/93 94/94/94 91/91/91
f 91/91/91 92/92/92 93/93/93
f 97/97/97 98/98/98 95/95/95
f 95/95/95 96/96/96 97/97/97
f 101/101/101 102/102/102 99/99/99
f 99/99/99 100/100/100 101/101/101
f 105/105/105 106/106/106 103/103/103
f 103/103/103 104/104/104 105/105/105
f 109/109/109 110/110/110 107/107/107
f 107/107/107 108/108/108 109/109/109
f 112/112/112 114/114/114 111/111/111
f 114/114/114 112/112/112 113/113/113
f 116/116/116 118/118/118 115/115/115
f 118/118/118 116/116/116 117/117/117
f 120/120/120 122/122/122 119/119/119
f 122/122/122 120/120/120 121/121/121
f 124/124/124 126/126/126 123/123/123
f 126/126/126 124/124/124 125/125/125
f 128/128/128 142/142/142 127/127/127
f 142/142/142 140/140/140 141/141/141
f 140/140/140 138/138/138 139/139/139
f 138/138/138 136/136/136 137/137/137
f 136/136/136 134/134/134 135/135/135
f 134/134/134 132/132/132 133/133/133
f 132/132/132 130/130/130 131/131/131
f 130/130/130 128/128/128 129/129/129
f 128/128/128 140/140/140 142/142/142
f 140/140/140 136/136/136 138/138/138
f 136/136/136 132/132/132 134/134/134
f 132/132/132 128/128/128 130/130/130
f 128/128/128 136/136/136 140/140/140
f 136/136/136 128/128/128 132/132/132
f 144/144/144 146/146/146 143/143/143
f 146/146/146 144/144/144 145/145/145
f 148/148/148 150/150/150 147/147/147
f 150/150/150 148/148/148 149/149/149
f 165/165/165 166/166/166 151/151/151
f 151/151/151 152/152/152 153/153/153
f 153/153/153 154/154/154 155/155/155
f 155/155/155 156/156/156 157/157/157
f 157/157/157 158/158/158 159/159/159
f 159/159/159 160/160/160 161/161/161
f 161/161/161 162/162/162 163/163/163
f 163/163/163 164/164/164 165/165/165
f 165/165/165 151/151/151 153/153/153
f 153/153/153 155/155/155 157/157/157
f 157/157/157 159/159/159 161/161/161
f 161/161/161 163/163/163 165/165/165
f 165/165/165 153/153/153 157/157/157
f 157/157/157 161/161/161 165/165/165
o Cylinder001
usemtl Blue
v 0.30000001192092896 -1.2000000476837158 0.3499999940395355
v 0.30000001192092896 0.6000000238418579 0.3499999940395355
v 0.3574030101299286 0.6000000238418579 0.3614180088043213
v 0.3574030101299286 -1.2000000476837158 0.3614180088043213
v 0.3574030101299286 -1.2000000476837158 0.3614180088043213
v 0.3574030101299286 0.6000000238418579 0.3614180088043213
v 0.40606600046157837 0.6000000238418579 0.3939340114593506
v 0.40606600046157837 -1.2000000476837158 0.3939340114593506
v 0.40606600046157837 -1.2000000476837158 0.3939340114593506
v 0.40606600046157837 0.6000000238418579 0.3939340114593506
v 0.43858200311660767 0.6000000238418579 0.44259700179100037
v 0.43858200311660767 -1.2000000476837158 0.44259700179100037
v 0.43858200311660767 -1.2000000476837158 0.44259700179100037
v 0.43858200311660767 0.6000000238418579 0.44259700179100037
v 0.44999998807907104 0.6000000238418579 0.5
v 0.44999998807907104 -1.2000000476837158 0.5
v 0.44999998807907104 -1.2000000476837158 0.5
v 0.44999998807907104 0.6000000238418579 0.5
v 0.43858200311660767 0.6000000238418579 0.5574020147323608
v 0.43858200311660767 -1.2000000476837158 0.5574020147323608
v 0.43858200311660767 -1.2000000476837158 0.5574020147323608
v 0.43858200311660767 0.6000000238418579 0.5574020147323608
v 0.40606600046157837 0.6000000238418579 0.6060659885406494
v 0.40606600046157837 -1.2000000476837158 0.6060659885406494
v 0.40606600046157837 -1.2000000476837158 0.6060659885406494
v 0.40606600046157837 0.6000000238418579 0.6060659885406494
v 0.3574030101299286 0.6000000238418579 0.6385819911956787
v 0.3574030101299286 -1.2000000476837158 0.6385819911956787
v 0.3574030101299286 -1.2000000476837158 0.6385819911956787
v 0.3574030101299286 0.6000000238418579 0.6385819911956787
v 0.30000001192092896 0.6000000238418579 0.6499999761581421
v 0.30000001192092896 -1.2000000476837158 0.6499999761581421
v 0.30000001192092896 -1.2000000476837158 0.6499999761581421
v 0.30000001192092896 0.6000000238418579 0.6499999761581421
v 0.24259699881076813 0.6000000238418579 0.6385819911956787
v 0.24259699881076813 -1.2000000476837158 0.6385819911956787
v 0.24259699881076813 -1.2000000476837158 0.6385819911956787
v 0.24259699881076813 0.6000000238418579 0.6385819911956787
v 0.19393399357795715 0.6000000238418579 0.6060659885406494
v 0.19393399357795715 -1.2000000476837158 0.6060659885406494
v 0.19393399357795715 -1.2000000476837158 0.6060659885406494
v 0.19393399357795715 0.6000000238418579 0.6060659885406494
v 0.16141800582408905 0.6000000238418579 0.5574020147323608
v 0.16141800582408905 -1.2000000476837158 0.5574020147323608
v 0.16141800582408905 -1.2000000476837158 0.5574020147323608
v 0.16141800582408905 0.6000000238418579 0.5574020147323608
v 0.15000000596046448 0.6000000238418579 0.5
v 0.15000000596046448 -1.2000000476837158 0.5
v 0.15000000596046448 -1.2000000476837158 0.5
v 0.15000000596046448 0.6000000238418579 0.5
v 0.16141800582408905 0.6000000238418579 0.44259700179100037
v 0.16141800582408905 -1.2000000476837158 0.44259700179100037
v 0.16141800582408905 -1.2000000476837158 0.44259700179100037
v 0.16141800582408905 0.6000000238418579 0.44259700179100037
v 0.19393399357795715 0.6000000238418579 0.3939340114593506
v 0.19393399357795715 -1.2000000476837158 0.3939340114593506
v 0.3574030101299286 0.6000000238418579 0.3614180088043213
v 0.30000001192092896 0.6000000238418579 0.3499999940395355
v 0.24259699881076813 0.6000000238418579 0.3614180088043213
v 0.19393399357795715 0.6000000238418579 0.3939340114593506
v 0.16141800582408905 0.6000000238418579 0.44259700179100037
v 0.15000000596046448 0.6000000238418579 0.5
v 0.16141800582408905 0.6000000238418579 0.5574020147323608
v 0.19393399357795715 0.6000000238418579 0.6060659885406494
v 0.24259699881076813 0.6000000238418579 0.6385819911956787
v 0.30000001192092896 0.6000000238418579 0.6499999761581421
v 0.3574030101299286 0.6000000238418579 0.6385819911956787
v 0.40606600046157837 0.6000000238418579 0.6060659885406494
v 0.43858200311660767 0.6000000238418579 0.5574020147323608
v 0.44999998807907104 0.6000000238418579 0.5
v 0.43858200311660767 0.6000000238418579 0.44259700179100037
v 0.40606600046157837 0.6000000238418579 0.3939340114593506
v 0.19393399357795715 -1.2000000476837158 0.3939340114593506
v 0.19393399357795715 0.6000000238418579 0.3939340114593506
v 0.24259699881076813 0.6000000238418579 0.3614180088043213
v 0.24259699881076813 -1.2000000476837158 0.3614180088043213
v 0.24259699881076813 -1.2000000476837158 0.3614180088043213
v 0.24259699881076813 0.6000000238418579 0.3614180088043213
v 0.30000001192092896 0.6000000238418579 0.3499999940395355
v 0.30000001192092896 -1.2000000476837158 0.3499999940395355
v 0.30000001192092896 -1.2000000476837158 0.3499999940395355
v 0.3574030101299286 -1.2000000476837158 0.3614180088043213
v 0.40606600046157837 -1.2000000476837158 0.3939340114593506
v 0.43858200311660767 -1.2000000476837158 0.44259700179100037
v 0.44999998807907104 -1.2000000476837158 0.5
v 0.43858200311660767 -1.2000000476837158 0.5574020147323608
v 0.40606600046157837 -1.2000000476837158 0.6060659885406494
v 0.3574030101299286 -1.2000000476837158 0.6385819911956787
v 0.30000001192092896 -1.2000000476837158 0.6499999761581421
v 0.24259699881076813 -1.2000000476837158 0.6385819911956787
v 0.19393399357795715 -1.2000000476837158 0.6060659885406494
v 0.16141800582408905 -1.2000000476837158 0.5574020147323608
v 0.15000000596046448 -1.2000000476837158 0.5
v 0.16141800582408905 -1.2000000476837158 0.44259700179100037
v 0.19393399357795715 -1.2000000476837158 0.3939340114593506
v 0.24259699881076813 -1.2000000476837158 0.3614180088043213
vt 1 0.5
vt 1 1
vt 0.9375 1
vt 0.9375 0.5
vt 0.9375 0.5
vt 0.9375 1
vt 0.875 1
vt 0.875 0.5
vt 0.875 0.5
vt 0.875 1
vt 0.8125 1
vt 0.8125 0.5
vt 0.8125 0.5
vt 0.8125 1
vt 0.75 1
vt 0.75 0.5
vt 0.75 0.5
vt 0.75 1
vt 0.6875 1
vt 0.6875 0.5
vt 0.6875 0.5
vt 0.6875 1
vt 0.625 1
vt 0.625 0.5
vt 0.625 0.5
vt 0.625 1
vt 0.5625 1
vt 0.5625 0.5
vt 0.5625 0.5
vt 0.5625 1
vt 0.5 1
vt 0.5 0.5
vt 0.5 0.5
vt 0.5 1
vt 0.4375 1
vt 0.4375 0.5
vt 0.4375 0.5
vt 0.4375 1
vt 0.375 1
vt 0.375 0.5
vt 0.375 0.5
vt 0.375 1
vt 0.3125 1
vt 0.3125 0.5
vt 0.3125 0.5
vt 0.3125 1
vt 0.25 1
vt 0.25 0.5
vt 0.25 0.5
vt 0.25 1
vt 0.1875 1
vt 0.1875 0.5
vt 0.1875 0.5
vt 0.1875 1
vt 0.125 1
vt 0.125 0.5
vt 0.34184399247169495 0.4717310070991516
vt 0.25 0.49000000953674316
vt 0.15815599262714386 0.4717310070991516
vt 0.08029399812221527 0.41970598697662354
vt 0.028269000351428986 0.34184402227401733
vt 0.009999999776482582 0.25
vt 0.028269000351428986 0.15815597772598267
vt 0.08029399812221527 0.08029401302337646
vt 0.15815599262714386 0.02826899290084839
vt 0.25 0.009999990463256836
vt 0.34184399247169495 0.02826899290084839
vt 0.41970598697662354 0.08029401302337646
vt 0.4717310070991516 0.15815597772598267
vt 0.49000000953674316 0.25
vt 0.4717310070991516 0.34184402227401733
vt 0.41970598697662354 0.41970598697662354
vt 0.125 0.5
vt 0.125 1
vt 0.0625 1
vt 0.0625 0.5
vt 0.0625 0.5
vt 0.0625 1
vt 0 1
vt 0 0.5
vt 0.75 0.49000000953674316
vt 0.8418440222740173 0.4717310070991516
vt 0.9197059869766235 0.41970598697662354
vt 0.9717310070991516 0.34184402227401733
vt 0.9900000095367432 0.25
vt 0.9717310070991516 0.15815597772598267
vt 0.9197059869766235 0.08029401302337646
vt 0.8418440222740173 0.02826899290084839
vt 0.75 0.009999990463256836
vt 0.6581559777259827 0.02826899290084839
vt 0.5802940130233765 0.08029401302337646
vt 0.5282689929008484 0.15815597772598267
vt 0.5099999904632568 0.25
vt 0.5282689929008484 0.34184402227401733
vt 0.5802940130233765 0.41970598697662354
vt 0.6581559777259827 0.4717310070991516
vn 0.19509681844353616 0 -0.9807839881611087
vn 0.19509681844353616 0 -0.9807839881611087
vn 0.19509681844353616 0 -0.9807839881611087
vn 0.19509681844353616 0 -0.9807839881611087
vn 0.5555767916856909 0 -0.8314652299045551
vn 0.5555767916856909 0 -0.8314652299045551
vn 0.5555767916856909 0 -0.8314652299045551
vn 0.5555767916856909 0 -0.8314652299045551
vn 0.8314652299045551 0 -0.5555767916856909
vn 0.8314652299045551 0 -0.5555767916856909
vn 0.8314652299045551 0 -0.5555767916856909
vn 0.8314652299045551 0 -0.5555767916856909
vn 0.9807839881611087 0 -0.19509681844353616
vn 0.9807839881611087 0 -0.19509681844353616
vn 0.9807839881611087 0 -0.19509681844353616
vn 0.9807839881611087 0 -0.19509681844353616
vn 0.9807839881611087 0 0.19509681844353616
vn 0.9807839881611087 0 0.19509681844353616
vn 0.9807839881611087 0 0.19509681844353616
vn 0.9807839881611087 0 0.19509681844353616
vn 0.8314652299045551 0 0.5555767916856909
vn 0.8314652299045551 0 0.5555767916856909
vn 0.8314652299045551 0 0.5555767916856909
vn 0.8314652299045551 0 0.5555767916856909
vn 0.5555767916856909 0 0.8314652299045551
vn 0.5555767916856909 0 0.8314652299045551
vn 0.5555767916856909 0 0.8314652299045551
vn 0.5555767916856909 0 0.8314652299045551
vn 0.19509681844353616 0 0.9807839881611087
vn 0.19509681844353616 0 0.9807839881611087
vn 0.19509681844353616 0 0.9807839881611087
vn 0.19509681844353616 0 0.9807839881611087
vn -0.19509681844353616 0 0.9807839881611087
vn -0.19509681844353616 0 0.9807839881611087
vn -0.19509681844353616 0 0.9807839881611087
vn -0.19509681844353616 0 0.9807839881611087
vn -0.5555767916856909 0 0.8314652299045551
vn -0.5555767916856909 0 0.8314652299045551
vn -0.5555767916856909 0 0.8314652299045551
vn -0.5555767916856909 0 0.8314652299045551
vn -0.8314652299045551 0 0.5555767916856909
vn -0.8314652299045551 0 0.5555767916856909
vn -0.8314652299045551 0 0.5555767916856909
vn -0.8314652299045551 0 0.5555767916856909
vn -0.9807839881611087 0 0.19509681844353616
vn -0.9807839881611087 0 0.19509681844353616
vn -0.9807839881611087 0 0.19509681844353616
vn -0.9807839881611087 0 0.19509681844353616
vn -0.9807839881611087 0 -0.19509681844353616
vn -0.9807839881611087 0 -0.19509681844353616
vn -0.9807839881611087 0 -0.19509681844353616
vn -0.9807839881611087 0 -0.19509681844353616
vn -0.8314652299045551 0 -0.5555767916856909
vn -0.8314652299045551 0 -0.5555767916856909
vn -0.8314652299045551 0 -0.5555767916856909
vn -0.8314652299045551 0 -0.5555767916856909
vn 0 1 0
vn 0 1 0
vn 0 1 0
vn 0 1 0
vn 0 1 0
vn 0 1 0
vn 0 1 0
vn 0 1 0
vn 0 1 0
vn 0 1 0
vn 0 1 0
vn 0 1 0
vn 0 1 0
vn 0 1 0
vn 0 1 0
vn 0 1 0
vn -0.5555767916856909 0 -0.8314652299045551
vn -0.5555767916856909 0 -0.8314652299045551
vn -0.5555767916856909 0 -0.8314652299045551
vn -0.5555767916856909 0 -0.8314652299045551
vn -0.19509681844353616 0 -0.9807839881611087
vn -0.19509681844353616 0 -0.9807839881611087
vn -0.19509681844353616 0 -0.9807839881611087
vn -0.19509681844353616 0 -0.9807839881611087
vn 0 -1 0
vn 0 -1 0
vn 0 -1 0
vn 0 -1 0
vn 0 -1 0
vn 0 -1 0
vn 0 -1 0
vn 0 -1 0
vn 0 -1 0
vn 0 -1 0
vn 0 -1 0
vn 0 -1 0
vn 0 -1 0
vn 0 -1 0
vn 0 -1 0
vn 0 -1 0
f 168/168/168 170/170/170 167/167/167
f 170/170/170 168/168/168 169/169/169
f 172/172/172 174/174/174 171/171/171
f 174/174/174 172/172/172 173/173/173
f 177/177/177 178/178/178 175/175/175
f 175/175/175 176/176/176 177/177/177
f 181/181/181 182/182/182 179/179/179
f 179/179/179 180/180/180 181/181/181
f 185/185/185 186/186/186 183/183/183
f 183/183/183 184/184/184 185/185/185
f 189/189/189 190/190/190 187/187/187
f 187/187/187 188/188/188 189/189/189
f 193/193/193 194/194/194 191/191/191
f 191/191/191 192/192/192 193/193/193
f 197/197/197 198/198/198 195/195/195
f 195/195/195 196/196/196 197/197/197
f 201/201/201 202/202/202 199/199/199
f 199/199/199 200/200/200 201/201/201
f 205/205/205 206/206/206 203/203/203
f 203/203/203 204/204/204 205/205/205
f 208/208/208 210/210/210 207/207/207
f 210/210/210 208/208/208 209/209/209
f 212/212/212 214/214/214 211/211/211
f 214/214/214 212/212/212 213/213/213
f 216/216/216 218/218/218 215/215/215
f 218/218/218 216/216/216 217/217/217
f 220/220/220 222/222/222 219/219/219
f 222/222/222 220/220/220 221/221/221
f 224/224/224 238/238/238 223/223/223
f 238/238/238 236/236/236 237/237/237
f 236/236/236 234/234/234 235/235/235
f 234/234/234 232/232/232 233/233/233
f 232/232/232 230/230/230 231/231/231
f 230/230/230 228/228/228 229/229/229
f 228/228/228 226/226/226 227/227/227
f 226/226/226 224/224/224 225/225/225
f 224/224/224 236/236/236 238/238/238
f 236/236/236 232/232/232 234/234/234
f 232/232/232 228/228/228 230/230/230
f 228/228/228 224/224/224 226/226/226
f 224/224/224 232/232/232 236/236/236
f 232/232/232 224/224/224 228/228/228
f 240/240/240 242/242/242 239/239/239
f 242/242/242 240/240/240 241/241/241
f 244/244/244 246/246/246 243/243/243
f 246/246/246 244/244/244 245/245/245
f 261/261/261 262/262/262 247/247/247
f 247/247/247 248/248/248 249/249/249
f 249/249/249 250/250/250 251/251/251
f 251/251/251 252/252/252 253/253/253
f 253/253/253 254/254/254 255/255/255
f 255/255/255 256/256/256 257/257/257
f 257/257/257 258/258/258 259/259/259
f 259/259/259 260/260/260 261/261/261
f 261/261/261 247/247/247 249/249/249
f 249/249/249 251/251/251 253/253/253
f 253/253/253 255/255/255 257/257/257
f 257/257/257 259/259/259 261/261/261
f 261/261/261 249/249/249 253/253/253
f 253/253/253 257/257/257 261/261/261
o Cylinder002
usemtl Blue
v 0.30000001192092896 -1.2000000476837158 -0.15000000596046448
v 0.30000001192092896 0.6000000238418579 -0.15000000596046448
v 0.3574030101299286 0.6000000238418579 -0.1385820060968399
v 0.3574030101299286 -1.2000000476837158 -0.1385820060968399
v 0.3574030101299286 -1.2000000476837158 -0.1385820060968399
v 0.3574030101299286 0.6000000238418579 -0.1385820060968399
v 0.40606600046157837 0.6000000238418579 -0.10606600344181061
v 0.40606600046157837 -1.2000000476837158 -0.10606600344181061
v 0.40606600046157837 -1.2000000476837158 -0.10606600344181061
v 0.40606600046157837 0.6000000238418579 -0.10606600344181061
v 0.43858200311660767 0.6000000238418579 -0.057402998208999634
v 0.43858200311660767 -1.2000000476837158 -0.057402998208999634
v 0.43858200311660767 -1.2000000476837158 -0.057402998208999634
v 0.43858200311660767 0.6000000238418579 -0.057402998208999634
v 0.44999998807907104 0.6000000238418579 0
v 0.44999998807907104 -1.2000000476837158 0
v 0.44999998807907104 -1.2000000476837158 0
v 0.44999998807907104 0.6000000238418579 0
v 0.43858200311660767 0.6000000238418579 0.057402998208999634
v 0.43858200311660767 -1.2000000476837158 0.057402998208999634
v 0.43858200311660767 -1.2000000476837158 0.057402998208999634
v 0.43858200311660767 0.6000000238418579 0.057402998208999634
v 0.40606600046157837 0.6000000238418579 0.10606600344181061
v 0.40606600046157837 -1.2000000476837158 0.10606600344181061
v 0.40606600046157837 -1.2000000476837158 0.10606600344181061
v 0.40606600046157837 0.6000000238418579 0.10606600344181061
v 0.3574030101299286 0.6000000238418579 0.1385820060968399
v 0.3574030101299286 -1.2000000476837158 0.1385820060968399
v 0.3574030101299286 -1.2000000476837158 0.1385820060968399
v 0.3574030101299286 0.6000000238418579 0.1385820060968399
v 0.30000001192092896 0.6000000238418579 0.15000000596046448
v 0.30000001192092896 -1.2000000476837158 0.15000000596046448
v 0.30000001192092896 -1.2000000476837158 0.15000000596046448
v 0.30000001192092896 0.6000000238418579 0.15000000596046448
v 0.24259699881076813 0.6000000238418579 0.1385820060968399
v 0.24259699881076813 -1.2000000476837158 0.1385820060968399
v 0.24259699881076813 -1.2000000476837158 0.1385820060968399
v 0.24259699881076813 0.6000000238418579 0.1385820060968399
v 0.19393399357795715 0.6000000238418579 0.10606600344181061
v 0.19393399357795715 -1.2000000476837158 0.10606600344181061
v 0.19393399357795715 -1.2000000476837158 0.10606600344181061
v 0.19393399357795715 0.6000000238418579 0.10606600344181061
v 0.16141800582408905 0.6000000238418579 0.057402998208999634
v 0.16141800582408905 -1.2000000476837158 0.057402998208999634
v 0.16141800582408905 -1.2000000476837158 0.057402998208999634
v 0.16141800582408905 0.6000000238418579 0.057402998208999634
v 0.15000000596046448 0.6000000238418579 0
v 0.15000000596046448 -1.2000000476837158 0
v 0.15000000596046448 -1.2000000476837158 0
v 0.15000000596046448 0.6000000238418579 0
v 0.16141800582408905 0.6000000238418579 -0.057402998208999634
v 0.16141800582408905 -1.2000000476837158 -0.057402998208999634
v 0.16141800582408905 -1.2000000476837158 -0.057402998208999634
v 0.16141800582408905 0.6000000238418579 -0.057402998208999634
v 0.19393399357795715 0.6000000238418579 -0.10606600344181061
v 0.19393399357795715 -1.2000000476837158 -0.10606600344181061
v 0.3574030101299286 0.6000000238418579 -0.1385820060968399
v 0.30000001192092896 0.6000000238418579 -0.15000000596046448
v 0.24259699881076813 0.6000000238418579 -0.1385820060968399
v 0.19393399357795715 0.6000000238418579 -0.10606600344181061
v 0.16141800582408905 0.6000000238418579 -0.057402998208999634
v 0.15000000596046448 0.6000000238418579 0
v 0.16141800582408905 0.6000000238418579 0.057402998208999634
v 0.19393399357795715 0.6000000238418579 0.10606600344181061
v 0.24259699881076813 0.6000000238418579 0.1385820060968399
v 0.30000001192092896 0.6000000238418579 0.15000000596046448
v 0.3574030101299286 0.6000000238418579 0.1385820060968399
v 0.40606600046157837 0.6000000238418579 0.10606600344181061
v 0.43858200311660767 0.6000000238418579 0.057402998208999634
v 0.44999998807907104 0.6000000238418579 0
v 0.43858200311660767 0.6000000238418579 -0.057402998208999634
v 0.40606600046157837 0.6000000238418579 -0.10606600344181061
v 0.19393399357795715 -1.2000000476837158 -0.10606600344181061
v 0.19393399357795715 0.6000000238418579 -0.10606600344181061
v 0.24259699881076813 0.6000000238418579 -0.1385820060968399
v 0.24259699881076813 -1.2000000476837158 -0.1385820060968399
v 0.24259699881076813 -1.2000000476837158 -0.1385820060968399
v 0.24259699881076813 0.6000000238418579 -0.1385820060968399
v 0.30000001192092896 0.6000000238418579 -0.15000000596046448
v 0.30000001192092896 -1.2000000476837158 -0.15000000596046448
v 0.30000001192092896 -1.2000000476837158 -0.15000000596046448
v 0.3574030101299286 -1.2000000476837158 -0.1385820060968399
v 0.40606600046157837 -1.2000000476837158 -0.10606600344181061
v 0.43858200311660767 -1.2000000476837158 -0.057402998208999634
v 0.44999998807907104 -1.2000000476837158 0
v 0.43858200311660767 -1.2000000476837158 0.057402998208999634
v 0.40606600046157837 -1.2000000476837158 0.10606600344181061
v 0.3574030101299286 -1.2000000476837158 0.1385820060968399
v 0.30000001192092896 -1.2000000476837158 0.15000000596046448
v 0.24259699881076813 -1.2000000476837158 0.1385820060968399
v 0.19393399357795715 -1.2000000476837158 0.10606600344181061
v 0.16141800582408905 -1.2000000476837158 0.057402998208999634
v 0.15000000596046448 -1.2000000476837158 0
v 0.16141800582408905 -1.2000000476837158 -0.057402998208999634
v 0.19393399357795715 -1.2000000476837158 -0.10606600344181061
v 0.24259699881076813 -1.2000000476837158 -0.1385820060968399
vt 1 0.5
vt 1 1
vt 0.9375 1
vt 0.9375 0.5
vt 0.9375 0.5
vt 0.9375 1
vt 0.875 1
vt 0.875 0.5
vt 0.875 0.5
vt 0.875 1
vt 0.8125 1
vt 0.8125 0.5
vt 0.8125 0.5
vt 0.8125 1
vt 0.75 1
vt 0.75 0.5
vt 0.75 0.5
vt 0.75 1
vt 0.6875 1
vt 0.6875 0.5
vt 0.6875 0.5
vt 0.6875 1
vt 0.625 1
vt 0.625 0.5
vt 0.625 0.5
vt 0.625 1
vt 0.5625 1
vt 0.5625 0.5
vt 0.5625 0.5
vt 0.5625 1
vt 0.5 1
vt 0.5 0.5
vt 0.5 0.5
vt 0.5 1
vt 0.4375 1
vt 0.4375 0.5
vt 0.4375 0.5
vt 0.4375 1
vt 0.375 1
vt 0.375 0.5
vt 0.375 0.5
vt 0.375 1
vt 0.3125 1
vt 0.3125 0.5
vt 0.3125 0.5
vt 0.3125 1
vt 0.25 1
vt 0.25 0.5
vt 0.25 0.5
vt 0.25 1
vt 0.1875 1
vt 0.1875 0.5
vt 0.1875 0.5
vt 0.1875 1
vt 0.125 1
vt 0.125 0.5
vt 0.34184399247169495 0.4717310070991516
vt 0.25 0.49000000953674316
vt 0.15815599262714386 0.4717310070991516
vt 0.08029399812221527 0.41970598697662354
vt 0.028269000351428986 0.34184402227401733
vt 0.009999999776482582 0.25
vt 0.028269000351428986 0.15815597772598267
vt 0.08029399812221527 0.08029401302337646
vt 0.15815599262714386 0.02826899290084839
vt 0.25 0.009999990463256836
vt 0.34184399247169495 0.02826899290084839
vt 0.41970598697662354 0.08029401302337646
vt 0.4717310070991516 0.15815597772598267
vt 0.49000000953674316 0.25
vt 0.4717310070991516 0.34184402227401733
vt 0.41970598697662354 0.41970598697662354
vt 0.125 0.5
vt 0.125 1
vt 0.0625 1
vt 0.0625 0.5
vt 0.0625 0.5
vt 0.0625 1
vt 0 1
vt 0 0.5
vt 0.75 0.49000000953674316
vt 0.8418440222740173 0.4717310070991516
vt 0.9197059869766235 0.41970598697662354
vt 0.9717310070991516 0.34184402227401733
vt 0.9900000095367432 0.25
vt 0.9717310070991516 0.15815597772598267
vt 0.9197059869766235 0.08029401302337646
vt 0.8418440222740173 0.02826899290084839
vt 0.75 0.009999990463256836
vt 0.6581559777259827 0.02826899290084839
vt 0.5802940130233765 0.08029401302337646
vt 0.5282689929008484 0.15815597772598267
vt 0.5099999904632568 0.25
vt 0.5282689929008484 0.34184402227401733
vt 0.5802940130233765 0.41970598697662354
vt 0.6581559777259827 0.4717310070991516
vn 0.19509681844353616 0 -0.9807839881611087
vn 0.19509681844353616 0 -0.9807839881611087
vn 0.19509681844353616 0 -0.9807839881611087
vn 0.19509681844353616 0 -0.9807839881611087
vn 0.5555767916856909 0 -0.8314652299045551
vn 0.5555767916856909 0 -0.8314652299045551
vn 0.5555767916856909 0 -0.8314652299045551
vn 0.5555767916856909 0 -0.8314652299045551
vn 0.8314652299045551 0 -0.5555767916856909
vn 0.8314652299045551 0 -0.5555767916856909
vn 0.8314652299045551 0 -0.5555767916856909
vn 0.8314652299045551 0 -0.5555767916856909
vn 0.9807839881611087 0 -0.19509681844353616
vn 0.9807839881611087 0 -0.19509681844353616
vn 0.9807839881611087 0 -0.19509681844353616
vn 0.9807839881611087 0 -0.19509681844353616
vn 0.9807839881611087 0 0.19509681844353616
vn 0.9807839881611087 0 0.19509681844353616
vn 0.9807839881611087 0 0.19509681844353616
vn 0.9807839881611087 0 0.19509681844353616
vn 0.8314652299045551 0 0.5555767916856909
vn 0.8314652299045551 0 0.5555767916856909
vn 0.8314652299045551 0 0.5555767916856909
vn 0.8314652299045551 0 0.5555767916856909
vn 0.5555767916856909 0 0.8314652299045551
vn 0.5555767916856909 0 0.8314652299045551
vn 0.5555767916856909 0 0.8314652299045551
vn 0.5555767916856909 0 0.8314652299045551
vn 0.19509681844353616 0 0.9807839881611087
vn 0.19509681844353616 0 0.9807839881611087
vn 0.19509681844353616 0 0.9807839881611087
vn 0.19509681844353616 0 0.9807839881611087
vn -0.19509681844353616 0 0.9807839881611087
vn -0.19509681844353616 0 0.9807839881611087
vn -0.19509681844353616 0 0.9807839881611087
vn -0.19509681844353616 0 0.9807839881611087
vn -0.5555767916856909 0 0.8314652299045551
vn -0.5555767916856909 0 0.8314652299045551
vn -0.5555767916856909 0 0.8314652299045551
vn -0.5555767916856909 0 0.8314652299045551
vn -0.8314652299045551 0 0.5555767916856909
vn -0.8314652299045551 0 0.5555767916856909
vn -0.8314652299045551 0 0.5555767916856909
vn -0.8314652299045551 0 0.5555767916856909
vn -0.9807839881611087 0 0.19509681844353616
vn -0.9807839881611087 0 0.19509681844353616
vn -0.9807839881611087 0 0.19509681844353616
vn -0.9807839881611087 0 0.19509681844353616
vn -0.9807839881611087 0 -0.19509681844353616
vn -0.9807839881611087 0 -0.19509681844353616
vn -0.9807839881611087 0 -0.19509681844353616
vn -0.9807839881611087 0 -0.19509681844353616
vn -0.8314652299045551 0 -0.5555767916856909
vn -0.8314652299045551 0 -0.5555767916856909
vn -0.8314652299045551 0 -0.5555767916856909
vn -0.8314652299045551 0 -0.5555767916856909
vn 0 1 0
vn 0 1 0
vn 0 1 0
vn 0 1 0
vn 0 1 0
vn 0 1 0
vn 0 1 0
vn 0 1 0
vn 0 1 0
vn 0 1 0
vn 0 1 0
vn 0 1 0
vn 0 1 0
vn 0 1 0
vn 0 1 0
vn 0 1 0
vn -0.5555767916856909 0 -0.8314652299045551
vn -0.5555767916856909 0 -0.8314652299045551
vn -0.5555767916856909 0 -0.8314652299045551
vn -0.5555767916856909 0 -0.8314652299045551
vn -0.19509681844353616 0 -0.9807839881611087
vn -0.19509681844353616 0 -0.9807839881611087
vn -0.19509681844353616 0 -0.9807839881611087
vn -0.19509681844353616 0 -0.9807839881611087
vn 0 -1 0
vn 0 -1 0
vn 0 -1 0
vn 0 -1 0
vn 0 -1 0
vn 0 -1 0
vn 0 -1 0
vn 0 -1 0
vn 0 -1 0
vn 0 -1 0
vn 0 -1 0
vn 0 -1 0
vn 0 -1 0
vn 0 -1 0
vn 0 -1 0
vn 0 -1 0
f 264/264/264 266/266/266 263/263/263
f 266/266/266 264/264/264 265/265/265
f 268/268/268 270/270/270 267/267/267
f 270/270/270 268/268/268 269/269/269
f 273/273/273 274/274/274 271/271/271
f 271/271/271 272/272/272 273/273/273
f 277/277/277 278/278/278 275/275/275
f 275/275/275 276/276/276 277/277/277
f 281/281/281 282/282/282 279/279/279
f 279/279/279 280/280/280 281/281/281
f 285/285/285 286/286/286 283/283/283
f 283/283/283 284/284/284 285/285/285
f 289/289/289 290/290/290 287/287/287
f 287/287/287 288/288/288 289/289/289
f 293/293/293 294/294/294 291/291/291
f 291/291/291 292/292/292 293/293/293
f 297/297/297 298/298/298 295/295/295
f 295/295/295 296/296/296 297/297/297
f 301/301/301 302/302/302 299/299/299
f 299/299/299 300/300/300 301/301/301
f 304/304/304 306/306/306 303/303/303
f 306/306/306 304/304/304 305/305/305
f 308/308/308 310/310/310 307/307/307
f 310/310/310 308/308/308 309/309/309
f 312/312/312 314/314/314 311/311/311
f 314/314/314 312/312/312 313/313/313
f 316/316/316 318/318/318 315/315/315
f 318/318/318 316/316/316 317/317/317
f 320/320/320 334/334/334 319/319/319
f 334/334/334 332/332/332 333/333/333
f 332/332/332 330/330/330 331/331/331
f 330/330/330 328/328/328 329/329/329
f 328/328/328 326/326/326 327/327/327
f 326/326/326 324/324/324 325/325/325
f 324/324/324 322/322/322 323/323/323
f 322/322/322 320/320/320 321/321/321
f 320/320/320 332/332/332 334/334/334
f 332/332/332 328/328/328 330/330/330
f 328/328/328 324/324/324 326/326/326
f 324/324/324 320/320/320 322/322/322
f 320/320/320 328/328/328 332/332/332
f 328/328/328 320/320/320 324/324/324
f 336/336/336 338/338/338 335/335/335
f 338/338/338 336/336/336 337/337/337
f 340/340/340 342/342/342 339/339/339
f 342/342/342 340/340/340 341/341/341
f 357/357/357 358/358/358 343/343/343
f 343/343/343 344/344/344 345/345/345
f 345/345/345 346/346/346 347/347/347
f 347/347/347 348/348/348 349/349/349
f 349/349/349 350/350/350 351/351/351
f 351/351/351 352/352/352 353/353/353
f 353/353/353 354/354/354 355/355/355
f 355/355/355 356/356/356 357/357/357
f 357/357/357 343/343/343 345/345/345
f 345/345/345 347/347/347 349/349/349
f 349/349/349 351/351/351 353/353/353
f 353/353/353 355/355/355 357/357/357
f 357/357/357 345/345/345 349/349/349
f 349/349/349 353/353/353 357/357/357
o Cylinder003
usemtl Blue
v 0.30000001192092896 -1.2000000476837158 -0.6499999761581421
v 0.30000001192092896 0.6000000238418579 -0.6499999761581421
v 0.3574030101299286 0.6000000238418579 -0.6385819911956787
v 0.3574030101299286 -1.2000000476837158 -0.6385819911956787
v 0.3574030101299286 -1.2000000476837158 -0.6385819911956787
v 0.3574030101299286 0.6000000238418579 -0.6385819911956787
v 0.40606600046157837 0.6000000238418579 -0.6060659885406494
v 0.40606600046157837 -1.2000000476837158 -0.6060659885406494
v 0.40606600046157837 -1.2000000476837158 -0.6060659885406494
v 0.40606600046157837 0.6000000238418579 -0.6060659885406494
v 0.43858200311660767 0.6000000238418579 -0.5574020147323608
v 0.43858200311660767 -1.2000000476837158 -0.5574020147323608
v 0.43858200311660767 -1.2000000476837158 -0.5574020147323608
v 0.43858200311660767 0.6000000238418579 -0.5574020147323608
v 0.44999998807907104 0.6000000238418579 -0.5
v 0.44999998807907104 -1.2000000476837158 -0.5
v 0.44999998807907104 -1.2000000476837158 -0.5
v 0.44999998807907104 0.6000000238418579 -0.5
v 0.43858200311660767 0.6000000238418579 -0.44259700179100037
v 0.43858200311660767 -1.2000000476837158 -0.44259700179100037
v 0.43858200311660767 -1.2000000476837158 -0.44259700179100037
v 0.43858200311660767 0.6000000238418579 -0.44259700179100037
v 0.40606600046157837 0.6000000238418579 -0.3939340114593506
v 0.40606600046157837 -1.2000000476837158 -0.3939340114593506
v 0.40606600046157837 -1.2000000476837158 -0.3939340114593506
v 0.40606600046157837 0.6000000238418579 -0.3939340114593506
v 0.3574030101299286 0.6000000238418579 -0.3614180088043213
v 0.3574030101299286 -1.2000000476837158 -0.3614180088043213
v 0.3574030101299286 -1.2000000476837158 -0.3614180088043213
v 0.3574030101299286 0.6000000238418579 -0.3614180088043213
v 0.30000001192092896 0.6000000238418579 -0.3499999940395355
v 0.30000001192092896 -1.2000000476837158 -0.3499999940395355
v 0.30000001192092896 -1.2000000476837158 -0.3499999940395355
v 0.30000001192092896 0.6000000238418579 -0.3499999940395355
v 0.24259699881076813 0.6000000238418579 -0.3614180088043213
v 0.24259699881076813 -1.2000000476837158 -0.3614180088043213
v 0.24259699881076813 -1.2000000476837158 -0.3614180088043213
v 0.24259699881076813 0.6000000238418579 -0.3614180088043213
v 0.19393399357795715 0.6000000238418579 -0.3939340114593506
v 0.19393399357795715 -1.2000000476837158 -0.3939340114593506
v 0.19393399357795715 -1.2000000476837158 -0.3939340114593506
v 0.19393399357795715 0.6000000238418579 -0.3939340114593506
v 0.16141800582408905 0.6000000238418579 -0.44259700179100037
v 0.16141800582408905 -1.2000000476837158 -0.44259700179100037
v 0.16141800582408905 -1.2000000476837158 -0.44259700179100037
v 0.16141800582408905 0.6000000238418579 -0.44259700179100037
v 0.15000000596046448 0.6000000238418579 -0.5
v 0.15000000596046448 -1.2000000476837158 -0.5
v 0.15000000596046448 -1.2000000476837158 -0.5
v 0.15000000596046448 0.6000000238418579 -0.5
v 0.16141800582408905 0.6000000238418579 -0.5574020147323608
v 0.16141800582408905 -1.2000000476837158 -0.5574020147323608
v 0.16141800582408905 -1.2000000476837158 -0.5574020147323608
v 0.16141800582408905 0.6000000238418579 -0.5574020147323608
v 0.19393399357795715 0.6000000238418579 -0.6060659885406494
v 0.19393399357795715 -1.2000000476837158 -0.6060659885406494
v 0.3574030101299286 0.6000000238418579 -0.6385819911956787
v 0.30000001192092896 0.6000000238418579 -0.6499999761581421
v 0.24259699881076813 0.6000000238418579 -0.6385819911956787
v 0.19393399357795715 0.6000000238418579 -0.6060659885406494
v 0.16141800582408905 0.6000000238418579 -0.5574020147323608
v 0.15000000596046448 0.6000000238418579 -0.5
v 0.16141800582408905 0.6000000238418579 -0.44259700179100037
v 0.19393399357795715 0.6000000238418579 -0.3939340114593506
v 0.24259699881076813 0.6000000238418579 -0.3614180088043213
v 0.30000001192092896 0.6000000238418579 -0.3499999940395355
v 0.3574030101299286 0.6000000238418579 -0.3614180088043213
v 0.40606600046157837 0.6000000238418579 -0.3939340114593506
v 0.43858200311660767 0.6000000238418579 -0.44259700179100037
v 0.44999998807907104 0.6000000238418579 -0.5
v 0.43858200311660767 0.6000000238418579 -0.5574020147323608
v 0.40606600046157837 0.6000000238418579 -0.6060659885406494
v 0.19393399357795715 -1.2000000476837158 -0.6060659885406494
v 0.19393399357795715 0.6000000238418579 -0.6060659885406494
v 0.24259699881076813 0.6000000238418579 -0.6385819911956787
v 0.24259699881076813 -1.2000000476837158 -0.6385819911956787
v 0.24259699881076813 -1.2000000476837158 -0.6385819911956787
v 0.24259699881076813 0.6000000238418579 -0.6385819911956787
v 0.30000001192092896 0.6000000238418579 -0.6499999761581421
v 0.30000001192092896 -1.2000000476837158 -0.6499999761581421
v 0.30000001192092896 -1.2000000476837158 -0.6499999761581421
v 0.3574030101299286 -1.2000000476837158 -0.6385819911956787
v 0.40606600046157837 -1.2000000476837158 -0.6060659885406494
v 0.43858200311660767 -1.2000000476837158 -0.5574020147323608
v 0.44999998807907104 -1.2000000476837158 -0.5
v 0.43858200311660767 -1.2000000476837158 -0.44259700179100037
v 0.40606600046157837 -1.2000000476837158 -0.3939340114593506
v 0.3574030101299286 -1.2000000476837158 -0.3614180088043213
v 0.30000001192092896 -1.2000000476837158 -0.3499999940395355
v 0.24259699881076813 -1.2000000476837158 -0.3614180088043213
v 0.19393399357795715 -1.2000000476837158 -0.3939340114593506
v 0.16141800582408905 -1.2000000476837158 -0.44259700179100037
v 0.15000000596046448 -1.2000000476837158 -0.5
v 0.16141800582408905 -1.2000000476837158 -0.5574020147323608
v 0.19393399357795715 -1.2000000476837158 -0.6060659885406494
v 0.24259699881076813 -1.2000000476837158 -0.6385819911956787
vt 1 0.5
vt 1 1
vt 0.9375 1
vt 0.9375 0.5
vt 0.9375 0.5
vt 0.9375 1
vt 0.875 1
vt 0.875 0.5
vt 0.875 0.5
vt 0.875 1
vt 0.8125 1
vt 0.8125 0.5
vt 0.8125 0.5
vt 0.8125 1
vt 0.75 1
vt 0.75 0.5
vt 0.75 0.5
vt 0.75 1
vt 0.6875 1
vt 0.6875 0.5
vt 0.6875 0.5
vt 0.6875 1
vt 0.625 1
vt 0.625 0.5
vt 0.625 0.5
vt 0.625 1
vt 0.5625 1
vt 0.5625 0.5
vt 0.5625 0.5
vt 0.5625 1
vt 0.5 1
vt 0.5 0.5
vt 0.5 0.5
vt 0.5 1
vt 0.4375 1
vt 0.4375 0.5
vt 0.4375 0.5
vt 0.4375 1
vt 0.375 1
vt 0.375 0.5
vt 0.375 0.5
vt 0.375 1
vt 0.3125 1
vt 0.3125 0.5
vt 0.3125 0.5
vt 0.3125 1
vt 0.25 1
vt 0.25 0.5
vt 0.25 0.5
vt 0.25 1
vt 0.1875 1
vt 0.1875 0.5
vt 0.1875 0.5
vt 0.1875 1
vt 0.125 1
vt 0.125 0.5
vt 0.34184399247169495 0.4717310070991516
vt 0.25 0.49000000953674316
vt 0.15815599262714386 0.4717310070991516
vt 0.08029399812221527 0.41970598697662354
vt 0.028269000351428986 0.34184402227401733
vt 0.009999999776482582 0.25
vt 0.028269000351428986 0.15815597772598267
vt 0.08029399812221527 0.08029401302337646
vt 0.15815599262714386 0.02826899290084839
vt 0.25 0.009999990463256836
vt 0.34184399247169495 0.02826899290084839
vt 0.41970598697662354 0.08029401302337646
vt 0.4717310070991516 0.15815597772598267
vt 0.49000000953674316 0.25
vt 0.4717310070991516 0.34184402227401733
vt 0.41970598697662354 0.41970598697662354
vt 0.125 0.5
vt 0.125 1
vt 0.0625 1
vt 0.0625 0.5
vt 0.0625 0.5
vt 0.0625 1
vt 0 1
vt 0 0.5
vt 0.75 0.49000000953674316
vt 0.8418440222740173 0.4717310070991516
vt 0.9197059869766235 0.41970598697662354
vt 0.9717310070991516 0.34184402227401733
vt 0.9900000095367432 0.25
vt 0.9717310070991516 0.15815597772598267
vt 0.9197059869766235 0.08029401302337646
vt 0.8418440222740173 0.02826899290084839
vt 0.75 0.009999990463256836
vt 0.6581559777259827 0.02826899290084839
vt 0.5802940130233765 0.08029401302337646
vt 0.5282689929008484 0.15815597772598267
vt 0.5099999904632568 0.25
vt 0.5282689929008484 0.34184402227401733
vt 0.5802940130233765 0.41970598697662354
vt 0.6581559777259827 0.4717310070991516
vn 0.19509681844353616 0 -0.9807839881611087
vn 0.19509681844353616 0 -0.9807839881611087
vn 0.19509681844353616 0 -0.9807839881611087
vn 0.19509681844353616 0 -0.9807839881611087
vn 0.5555767916856909 0 -0.8314652299045551
vn 0.5555767916856909 0 -0.8314652299045551
vn 0.5555767916856909 0 -0.8314652299045551
vn 0.5555767916856909 0 -0.8314652299045551
vn 0.8314652299045551 0 -0.5555767916856909
vn 0.8314652299045551 0 -0.5555767916856909
vn 0.8314652299045551 0 -0.5555767916856909
vn 0.8314652299045551 0 -0.5555767916856909
vn 0.9807839881611087 0 -0.19509681844353616
vn 0.9807839881611087 0 -0.19509681844353616
vn 0.9807839881611087 0 -0.19509681844353616
vn 0.9807839881611087 0 -0.19509681844353616
vn 0.9807839881611087 0 0.19509681844353616
vn 0.9807839881611087 0 0.19509681844353616
vn 0.9807839881611087 0 0.19509681844353616
vn 0.9807839881611087 0 0.19509681844353616
vn 0.8314652299045551 0 0.5555767916856909
vn 0.8314652299045551 0 0.5555767916856909
vn 0.8314652299045551 0 0.5555767916856909
vn 0.8314652299045551 0 0.5555767916856909
vn 0.5555767916856909 0 0.8314652299045551
vn 0.5555767916856909 0 0.8314652299045551
vn 0.5555767916856909 0 0.8314652299045551
vn 0.5555767916856909 0 0.8314652299045551
vn 0.19509681844353616 0 0.9807839881611087
vn 0.19509681844353616 0 0.9807839881611087
vn 0.19509681844353616 0 0.9807839881611087
vn 0.19509681844353616 0 0.9807839881611087
vn -0.19509681844353616 0 0.9807839881611087
vn -0.19509681844353616 0 0.9807839881611087
vn -0.19509681844353616 0 0.9807839881611087
vn -0.19509681844353616 0 0.9807839881611087
vn -0.5555767916856909 0 0.8314652299045551
vn -0.5555767916856909 0 0.8314652299045551
vn -0.5555767916856909 0 0.8314652299045551
vn -0.5555767916856909 0 0.8314652299045551
vn -0.8314652299045551 0 0.5555767916856909
vn -0.8314652299045551 0 0.5555767916856909
vn -0.8314652299045551 0 0.5555767916856909
vn -0.8314652299045551 0 0.5555767916856909
vn -0.9807839881611087 0 0.19509681844353616
vn -0.9807839881611087 0 0.19509681844353616
vn -0.9807839881611087 0 0.19509681844353616
vn -0.9807839881611087 0 0.19509681844353616
vn -0.9807839881611087 0 -0.19509681844353616
vn -0.9807839881611087 0 -0.19509681844353616
vn -0.9807839881611087 0 -0.19509681844353616
vn -0.9807839881611087 0 -0.19509681844353616
vn -0.8314652299045551 0 -0.5555767916856909
vn -0.8314652299045551 0 -0.5555767916856909
vn -0.8314652299045551 0 -0.5555767916856909
vn -0.8314652299045551 0 -0.5555767916856909
vn 0 1 0
vn 0 1 0
vn 0 1 0
vn 0 1 0
vn 0 1 0
vn 0 1 0
vn 0 1 0
vn 0 1 0
vn 0 1 0
vn 0 1 0
vn 0 1 0
vn 0 1 0
vn 0 1 0
vn 0 1 0
vn 0 1 0
vn 0 1 0
vn -0.5555767916856909 0 -0.8314652299045551
vn -0.5555767916856909 0 -0.8314652299045551
vn -0.5555767916856909 0 -0.8314652299045551
vn -0.5555767916856909 0 -0.8314652299045551
vn -0.19509681844353616 0 -0.9807839881611087
vn -0.19509681844353616 0 -0.9807839881611087
vn -0.19509681844353616 0 -0.9807839881611087
vn -0.19509681844353616 0 -0.9807839881611087
vn 0 -1 0
vn 0 -1 0
vn 0 -1 0
vn 0 -1 0
vn 0 -1 0
vn 0 -1 0
vn 0 -1 0
vn 0 -1 0
vn 0 -1 0
vn 0 -1 0
vn 0 -1 0
vn 0 -1 0
vn 0 -1 0
vn 0 -1 0
vn 0 -1 0
vn 0 -1 0
f 360/360/360 362/362/362 359/359/359
f 362/362/362 360/360/360 361/361/361
f 364/364/364 366/366/366 363/363/363
f 366/366/366 364/364/364 365/365/365
f 369/369/369 370/370/370 367/367/367
f 367/367/367 368/368/368 369/369/369
f 373/373/373 374/374/374 371/371/371
f 371/371/371 372/372/372 373/373/373
f 377/377/377 378/378/378 375/375/375
f 375/375/375 376/376/376 377/377/377
f 381/381/381 382/382/382 379/379/379
f 379/379/379 380/380/380 381/381/381
f 385/385/385 386/386/386 383/383/383
f 383/383/383 384/384/384 385/385/385
f 389/389/389 390/390/390 387/387/387
f 387/387/387 388/388/388 389/389/389
f 393/393/393 394/394/394 391/391/391
f 391/391/391 392/392/392 393/393/393
f 397/397/397 398/398/398 395/395/395
f 395/395/395 396/396/396 397/397/397
f 400/400/400 402/402/402 399/399/399
f 402/402/402 400/400/400 401/401/401
f 404/404/404 406/406/406 403/403/403
f 406/406/406 404/404/404 405/405/405
f 408/408/408 410/410/410 407/407/407
f 410/410/410 408/408/408 409/409/409
f 412/412/412 414/414/414 411/411/411
f 414/414/414 412/412/412 413/413/413
f 416/416/416 430/430/430 415/415/415
f 430/430/430 428/428/428 429/429/429
f 428/428/428 426/426/426 427/427/427
f 426/426/426 424/424/424 425/425/425
f 424/424/424 422/422/422 423/423/423
f 422/422/422 420/420/420 421/421/421
f 420/420/420 418/418/418 419/419/419
f 418/418/418 416/416/416 417/417/417
f 416/416/416 428/428/428 430/430/430
f 428/428/428 424/424/424 426/426/426
f 424/424/424 420/420/420 422/422/422
f 420/420/420 416/416/416 418/418/418
f 416/416/416 424/424/424 428/428/428
f 424/424/424 416/416/416 420/420/420
f 432/432/432 434/434/434 431/431/431
f 434/434/434 432/432/432 433/433/433
f 436/436/436 438/438/438 435/435/435
f 438/438/438 436/436/436 437/437/437
f 453/453/453 454/454/454 439/439/439
f 439/439/439 440/440/440 441/441/441
f 441/441/441 442/442/442 443/443/443
f 443/443/443 444/444/444 445/445/445
f 445/445/445 446/446/446 447/447/447
f 447/447/447 448/448/448 449/449/449
f 449/449/449 450/450/450 451/451/451
f 451/451/451 452/452/452 453/453/453
f 453/453/453 439/439/439 441/441/441
f 441/441/441 443/443/443 445/445/445
f 445/445/445 447/447/447 449/449/449
f 449/449/449 451/451/451 453/453/453
f 453/453/453 441/441/441 445/445/445
f 445/445/445 449/449/449 453/453/453
o Cylinder004
usemtl Blue
v 0.30000001192092896 -1.2000000476837158 -1.149999976158142
v 0.30000001192092896 0.6000000238418579 -1.149999976158142
v 0.3574030101299286 0.6000000238418579 -1.1385819911956787
v 0.3574030101299286 -1.2000000476837158 -1.1385819911956787
v 0.3574030101299286 -1.2000000476837158 -1.1385819911956787
v 0.3574030101299286 0.6000000238418579 -1.1385819911956787
v 0.40606600046157837 0.6000000238418579 -1.1060659885406494
v 0.40606600046157837 -1.2000000476837158 -1.1060659885406494
v 0.40606600046157837 -1.2000000476837158 -1.1060659885406494
v 0.40606600046157837 0.6000000238418579 -1.1060659885406494
v 0.43858200311660767 0.6000000238418579 -1.0574020147323608
v 0.43858200311660767 -1.2000000476837158 -1.0574020147323608
v 0.43858200311660767 -1.2000000476837158 -1.0574020147323608
v 0.43858200311660767 0.6000000238418579 -1.0574020147323608
v 0.44999998807907104 0.6000000238418579 -1
v 0.44999998807907104 -1.2000000476837158 -1
v 0.44999998807907104 -1.2000000476837158 -1
v 0.44999998807907104 0.6000000238418579 -1
v 0.43858200311660767 0.6000000238418579 -0.9425979852676392
v 0.43858200311660767 -1.2000000476837158 -0.9425979852676392
v 0.43858200311660767 -1.2000000476837158 -0.9425979852676392
v 0.43858200311660767 0.6000000238418579 -0.9425979852676392
v 0.40606600046157837 0.6000000238418579 -0.8939340114593506
v 0.40606600046157837 -1.2000000476837158 -0.8939340114593506
v 0.40606600046157837 -1.2000000476837158 -0.8939340114593506
v 0.40606600046157837 0.6000000238418579 -0.8939340114593506
v 0.3574030101299286 0.6000000238418579 -0.8614180088043213
v 0.3574030101299286 -1.2000000476837158 -0.8614180088043213
v 0.3574030101299286 -1.2000000476837158 -0.8614180088043213
v 0.3574030101299286 0.6000000238418579 -0.8614180088043213
v 0.30000001192092896 0.6000000238418579 -0.8500000238418579
v 0.30000001192092896 -1.2000000476837158 -0.8500000238418579
v 0.30000001192092896 -1.2000000476837158 -0.8500000238418579
v 0.30000001192092896 0.6000000238418579 -0.8500000238418579
v 0.24259699881076813 0.6000000238418579 -0.8614180088043213
v 0.24259699881076813 -1.2000000476837158 -0.8614180088043213
v 0.24259699881076813 -1.2000000476837158 -0.8614180088043213
v 0.24259699881076813 0.6000000238418579 -0.8614180088043213
v 0.19393399357795715 0.6000000238418579 -0.8939340114593506
v 0.19393399357795715 -1.2000000476837158 -0.8939340114593506
v 0.19393399357795715 -1.2000000476837158 -0.8939340114593506
v 0.19393399357795715 0.6000000238418579 -0.8939340114593506
v 0.16141800582408905 0.6000000238418579 -0.9425979852676392
v 0.16141800582408905 -1.2000000476837158 -0.9425979852676392
v 0.16141800582408905 -1.2000000476837158 -0.9425979852676392
v 0.16141800582408905 0.6000000238418579 -0.9425979852676392
v 0.15000000596046448 0.6000000238418579 -1
v 0.15000000596046448 -1.2000000476837158 -1
v 0.15000000596046448 -1.2000000476837158 -1
v 0.15000000596046448 0.6000000238418579 -1
v 0.16141800582408905 0.6000000238418579 -1.0574020147323608
v 0.16141800582408905 -1.2000000476837158 -1.0574020147323608
v 0.16141800582408905 -1.2000000476837158 -1.0574020147323608
v 0.16141800582408905 0.6000000238418579 -1.0574020147323608
v 0.19393399357795715 0.6000000238418579 -1.1060659885406494
v 0.19393399357795715 -1.2000000476837158 -1.1060659885406494
v 0.3574030101299286 0.6000000238418579 -1.1385819911956787
v 0.30000001192092896 0.6000000238418579 -1.149999976158142
v 0.24259699881076813 0.6000000238418579 -1.1385819911956787
v 0.19393399357795715 0.6000000238418579 -1.1060659885406494
v 0.16141800582408905 0.6000000238418579 -1.0574020147323608
v 0.15000000596046448 0.6000000238418579 -1
v 0.16141800582408905 0.6000000238418579 -0.9425979852676392
v 0.19393399357795715 0.6000000238418579 -0.8939340114593506
v 0.24259699881076813 0.6000000238418579 -0.8614180088043213
v 0.30000001192092896 0.6000000238418579 -0.8500000238418579
v 0.3574030101299286 0.6000000238418579 -0.8614180088043213
v 0.40606600046157837 0.6000000238418579 -0.8939340114593506
v 0.43858200311660767 0.6000000238418579 -0.9425979852676392
v 0.44999998807907104 0.6000000238418579 -1
v 0.43858200311660767 0.6000000238418579 -1.0574020147323608
v 0.40606600046157837 0.6000000238418579 -1.1060659885406494
v 0.19393399357795715 -1.2000000476837158 -1.1060659885406494
v 0.19393399357795715 0.6000000238418579 -1.1060659885406494
v 0.24259699881076813 0.6000000238418579 -1.1385819911956787
v 0.24259699881076813 -1.2000000476837158 -1.1385819911956787
v 0.24259699881076813 -1.2000000476837158 -1.1385819911956787
v 0.24259699881076813 0.6000000238418579 -1.1385819911956787
v 0.30000001192092896 0.6000000238418579 -1.149999976158142
v 0.30000001192092896 -1.2000000476837158 -1.149999976158142
v 0.30000001192092896 -1.2000000476837158 -1.149999976158142
v 0.3574030101299286 -1.2000000476837158 -1.1385819911956787
v 0.40606600046157837 -1.2000000476837158 -1.1060659885406494
v 0.43858200311660767 -1.2000000476837158 -1.0574020147323608
v 0.44999998807907104 -1.2000000476837158 -1
v 0.43858200311660767 -1.2000000476837158 -0.9425979852676392
v 0.40606600046157837 -1.2000000476837158 -0.8939340114593506
v 0.3574030101299286 -1.2000000476837158 -0.8614180088043213
v 0.30000001192092896 -1.2000000476837158 -0.8500000238418579
v 0.24259699881076813 -1.2000000476837158 -0.8614180088043213
v 0.19393399357795715 -1.2000000476837158 -0.8939340114593506
v 0.16141800582408905 -1.2000000476837158 -0.9425979852676392
v 0.15000000596046448 -1.2000000476837158 -1
v 0.16141800582408905 -1.2000000476837158 -1.0574020147323608
v 0.19393399357795715 -1.2000000476837158 -1.1060659885406494
v 0.24259699881076813 -1.2000000476837158 -1.1385819911956787
vt 1 0.5
vt 1 1
vt 0.9375 1
vt 0.9375 0.5
vt 0.9375 0.5
vt 0.9375 1
vt 0.875 1
vt 0.875 0.5
vt 0.875 0.5
vt 0.875 1
vt 0.8125 1
vt 0.8125 0.5
vt 0.8125 0.5
vt 0.8125 1
vt 0.75 1
vt 0.75 0.5
vt 0.75 0.5
vt 0.75 1
vt 0.6875 1
vt 0.6875 0.5
vt 0.6875 0.5
vt 0.6875 1
vt 0.625 1
vt 0.625 0.5
vt 0.625 0.5
vt 0.625 1
vt 0.5625 1
vt 0.5625 0.5
vt 0.5625 0.5
vt 0.5625 1
vt 0.5 1
vt 0.5 0.5
vt 0.5 0.5
vt 0.5 1
vt 0.4375 1
vt 0.4375 0.5
vt 0.4375 0.5
vt 0.4375 1
vt 0.375 1
vt 0.375 0.5
vt 0.375 0.5
vt 0.375 1
vt 0.3125 1
vt 0.3125 0.5
vt 0.3125 0.5
vt 0.3125 1
vt 0.25 1
vt 0.25 0.5
vt 0.25 0.5
vt 0.25 1
vt 0.1875 1
vt 0.1875 0.5
vt 0.1875 0.5
vt 0.1875 1
vt 0.125 1
vt 0.125 0.5
vt 0.34184399247169495 0.4717310070991516
vt 0.25 0.49000000953674316
vt 0.15815599262714386 0.4717310070991516
vt 0.08029399812221527 0.41970598697662354
vt 0.028269000351428986 0.34184402227401733
vt 0.009999999776482582 0.25
vt 0.028269000351428986 0.15815597772598267
vt 0.08029399812221527 0.08029401302337646
vt 0.15815599262714386 0.02826899290084839
vt 0.25 0.009999990463256836
vt 0.34184399247169495 0.02826899290084839
vt 0.41970598697662354 0.08029401302337646
vt 0.4717310070991516 0.15815597772598267
vt 0.49000000953674316 0.25
vt 0.4717310070991516 0.34184402227401733
vt 0.41970598697662354 0.41970598697662354
vt 0.125 0.5
vt 0.125 1
vt 0.0625 1
vt 0.0625 0.5
vt 0.0625 0.5
vt 0.0625 1
vt 0 1
vt 0 0.5
vt 0.75 0.49000000953674316
vt 0.8418440222740173 0.4717310070991516
vt 0.9197059869766235 0.41970598697662354
vt 0.9717310070991516 0.34184402227401733
vt 0.9900000095367432 0.25
vt 0.9717310070991516 0.15815597772598267
vt 0.9197059869766235 0.08029401302337646
vt 0.8418440222740173 0.02826899290084839
vt 0.75 0.009999990463256836
vt 0.6581559777259827 0.02826899290084839
vt 0.5802940130233765 0.08029401302337646
vt 0.5282689929008484 0.15815597772598267
vt 0.5099999904632568 0.25
vt 0.5282689929008484 0.34184402227401733
vt 0.5802940130233765 0.41970598697662354
vt 0.6581559777259827 0.4717310070991516
vn 0.19509681844353616 0 -0.9807839881611087
vn 0.19509681844353616 0 -0.9807839881611087
vn 0.19509681844353616 0 -0.9807839881611087
vn 0.19509681844353616 0 -0.9807839881611087
vn 0.5555767916856909 0 -0.8314652299045551
vn 0.5555767916856909 0 -0.8314652299045551
vn 0.5555767916856909 0 -0.8314652299045551
vn 0.5555767916856909 0 -0.8314652299045551
vn 0.8314652299045551 0 -0.5555767916856909
vn 0.8314652299045551 0 -0.5555767916856909
vn 0.8314652299045551 0 -0.5555767916856909
vn 0.8314652299045551 0 -0.5555767916856909
vn 0.9807839881611087 0 -0.19509681844353616
vn 0.9807839881611087 0 -0.19509681844353616
vn 0.9807839881611087 0 -0.19509681844353616
vn 0.9807839881611087 0 -0.19509681844353616
vn 0.9807839881611087 0 0.19509681844353616
vn 0.9807839881611087 0 0.19509681844353616
vn 0.9807839881611087 0 0.19509681844353616
vn 0.9807839881611087 0 0.19509681844353616
vn 0.8314652299045551 0 0.5555767916856909
vn 0.8314652299045551 0 0.5555767916856909
vn 0.8314652299045551 0 0.5555767916856909
vn 0.8314652299045551 0 0.5555767916856909
vn 0.5555767916856909 0 0.8314652299045551
vn 0.5555767916856909 0 0.8314652299045551
vn 0.5555767916856909 0 0.8314652299045551
vn 0.5555767916856909 0 0.8314652299045551
vn 0.19509681844353616 0 0.9807839881611087
vn 0.19509681844353616 0 0.9807839881611087
vn 0.19509681844353616 0 0.9807839881611087
vn 0.19509681844353616 0 0.9807839881611087
vn -0.19509681844353616 0 0.9807839881611087
vn -0.19509681844353616 0 0.9807839881611087
vn -0.19509681844353616 0 0.9807839881611087
vn -0.19509681844353616 0 0.9807839881611087
vn -0.5555767916856909 0 0.8314652299045551
vn -0.5555767916856909 0 0.8314652299045551
vn -0.5555767916856909 0 0.8314652299045551
vn -0.5555767916856909 0 0.8314652299045551
vn -0.8314652299045551 0 0.5555767916856909
vn -0.8314652299045551 0 0.5555767916856909
vn -0.8314652299045551 0 0.5555767916856909
vn -0.8314652299045551 0 0.5555767916856909
vn -0.9807839881611087 0 0.19509681844353616
vn -0.9807839881611087 0 0.19509681844353616
vn -0.9807839881611087 0 0.19509681844353616
vn -0.9807839881611087 0 0.19509681844353616
vn -0.9807839881611087 0 -0.19509681844353616
vn -0.9807839881611087 0 -0.19509681844353616
vn -0.9807839881611087 0 -0.19509681844353616
vn -0.9807839881611087 0 -0.19509681844353616
vn -0.8314652299045551 0 -0.5555767916856909
vn -0.8314652299045551 0 -0.5555767916856909
vn -0.8314652299045551 0 -0.5555767916856909
vn -0.8314652299045551 0 -0.5555767916856909
vn 0 1 0
vn 0 1 0
vn 0 1 0
vn 0 1 0
vn 0 1 0
vn 0 1 0
vn 0 1 0
vn 0 1 0
vn 0 1 0
vn 0 1 0
vn 0 1 0
vn 0 1 0
vn 0 1 0
vn 0 1 0
vn 0 1 0
vn 0 1 0
vn -0.5555767916856909 0 -0.8314652299045551
vn -0.5555767916856909 0 -0.8314652299045551
vn -0.5555767916856909 0 -0.8314652299045551
vn -0.5555767916856909 0 -0.8314652299045551
vn -0.19509681844353616 0 -0.9807839881611087
vn -0.19509681844353616 0 -0.9807839881611087
vn -0.19509681844353616 0 -0.9807839881611087
vn -0.19509681844353616 0 -0.9807839881611087
vn 0 -1 0
vn 0 -1 0
vn 0 -1 0
vn 0 -1 0
vn 0 -1 0
vn 0 -1 0
vn 0 -1 0
vn 0 -1 0
vn 0 -1 0
vn 0 -1 0
vn 0 -1 0
vn 0 -1 0
vn 0 -1 0
vn 0 -1 0
vn 0 -1 0
vn 0 -1 0
f 456/456/456 458/458/458 455/455/455
f 458/458/458 456/456/456 457/457/457
f 460/460/460 462/462/462 459/459/459
f 462/462/462 460/460/460 461/461/461
f 465/465/465 466/466/466 463/463/463
f 463/463/463 464/464/464 465/465/465
f 469/469/469 470/470/470 467/467/467
f 467/467/467 468/468/468 469/469/469
f 473/473/473 474/474/474 471/471/471
f 471/471/471 472/472/472 473/473/473
f 477/477/477 478/478/478 475/475/475
f 475/475/475 476/476/476 477/477/477
f 481/481/481 482/482/482 479/479/479
f 479/479/479 480/480/480 481/481/481
f 485/485/485 486/486/486 483/483/483
f 483/483/483 484/484/484 485/485/485
f 489/489/489 490/490/490 487/487/487
f 487/487/487 488/488/488 489/489/489
f 493/493/493 494/494/494 491/491/491
f 491/491/491 492/492/492 493/493/493
f 496/496/496 498/498/498 495/495/495
f 498/498/498 496/496/496 497/497/497
f 500/500/500 502/502/502 499/499/499
f 502/502/502 500/500/500 501/501/501
f 504/504/504 506/506/506 503/503/503
f 506/506/506 504/504/504 505/505/505
f 508/508/508 510/510/510 507/507/507
f 510/510/510 508/508/508 509/509/509
f 512/512/512 526/526/526 511/511/511
f 526/526/526 524/524/524 525/525/525
f 524/524/524 522/522/522 523/523/523
f 522/522/522 520/520/520 521/521/521
f 520/520/520 518/518/518 519/519/519
f 518/518/518 516/516/516 517/517/517
f 516/516/516 514/514/514 515/515/515
f 514/514/514 512/512/512 513/513/513
f 512/512/512 524/524/524 526/526/526
f 524/524/524 520/520/520 522/522/522
f 520/520/520 516/516/516 518/518/518
f 516/516/516 512/512/512 514/514/514
f 512/512/512 520/520/520 524/524/524
f 520/520/520 512/512/512 516/516/516
f 528/528/528 530/530/530 527/527/527
f 530/530/530 528/528/528 529/529/529
f 532/532/532 534/534/534 531/531/531
f 534/534/534 532/532/532 533/533/533
f 549/549/549 550/550/550 535/535/535
f 535/535/535 536/536/536 537/537/537
f 537/537/537 538/538/538 539/539/539
f 539/539/539 540/540/540 541/541/541
f 541/541/541 542/542/542 543/543/543
f 543/543/543 544/544/544 545/545/545
f 545/545/545 546/546/546 547/547/547
f 547/547/547 548/548/548 549/549/549
f 549/549/549 535/535/535 537/537/537
f 537/537/537 539/539/539 541/541/541
f 541/541/541 543/543/543 545/545/545
f 545/545/545 547/547/547 549/549/549
f 549/549/549 537/537/537 541/541/541
f 541/541/541 545/545/545 549/549/549
o Cube001
usemtl Ground
v 0.30000001192092896 -1.2999999523162842 0.8999999761581421
v 0.30000001192092896 0.699999988079071 0.8999999761581421
v 0.30000001192092896 0.699999988079071 0.6000000238418579
v 0.30000001192092896 -1.2999999523162842 0.6000000238418579
v 0.30000001192092896 -1.2999999523162842 0.6000000238418579
v 0.30000001192092896 0.699999988079071 0.6000000238418579
v 0.5 0.699999988079071 0.6000000238418579
v 0.5 -1.2999999523162842 0.6000000238418579
v 0.5 -1.2999999523162842 0.6000000238418579
v 0.5 0.699999988079071 0.6000000238418579
v 0.5 0.699999988079071 0.8999999761581421
v 0.5 -1.2999999523162842 0.8999999761581421
v 0.5 -1.2999999523162842 0.8999999761581421
v 0.5 0.699999988079071 0.8999999761581421
v 0.30000001192092896 0.699999988079071 0.8999999761581421
v 0.30000001192092896 -1.2999999523162842 0.8999999761581421
v 0.30000001192092896 -1.2999999523162842 0.6000000238418579
v 0.5 -1.2999999523162842 0.6000000238418579
v 0.5 -1.2999999523162842 0.8999999761581421
v 0.30000001192092896 -1.2999999523162842 0.8999999761581421
v 0.5 0.699999988079071 0.6000000238418579
v 0.30000001192092896 0.699999988079071 0.6000000238418579
v 0.30000001192092896 0.699999988079071 0.8999999761581421
v 0.5 0.699999988079071 0.8999999761581421
vt 0.375 0
vt 0.625 0
vt 0.625 0.25
vt 0.375 0.25
vt 0.375 0.25
vt 0.625 0.25
vt 0.625 0.5
vt 0.375 0.5
vt 0.375 0.5
vt 0.625 0.5
vt 0.625 0.75
vt 0.375 0.75
vt 0.375 0.75
vt 0.625 0.75
vt 0.625 1
vt 0.375 1
vt 0.125 0.5
vt 0.375 0.5
vt 0.375 0.75
vt 0.125 0.75
vt 0.625 0.5
vt 0.875 0.5
vt 0.875 0.75
vt 0.625 0.75
vn -1 0 0
vn -1 0 0
vn -1 0 0
vn -1 0 0
vn 0 0 -1
vn 0 0 -1
vn 0 0 -1
vn 0 0 -1
vn 1 0 0
vn 1 0 0
vn 1 0 0
vn 1 0 0
vn 0 0 1
vn 0 0 1
vn 0 0 1
vn 0 0 1
vn 0 -1 0
vn 0 -1 0
vn 0 -1 0
vn 0 -1 0
vn 0 1 0
vn 0 1 0
vn 0 1 0
vn 0 1 0
f 552/552/552 554/554/554 551/551/551
f 554/554/554 552/552/552 553/553/553
f 556/556/556 558/558/558 555/555/555
f 558/558/558 556/556/556 557/557/557
f 561/561/561 562/562/562 559/559/559
f 559/559/559 560/560/560 561/561/561
f 565/565/565 566/566/566 563/563/563
f 563/563/563 564/564/564 565/565/565
f 569/569/569 570/570/570 567/567/567
f 567/567/567 568/568/568 569/569/569
f 572/572/572 574/574/574 571/571/571
f 574/574/574 572/572/572 573/573/573
o Cube002
usemtl Ground
v 0.30000001192092896 -1.2999999523162842 0.4000000059604645
v 0.30000001192092896 0.699999988079071 0.4000000059604645
v 0.30000001192092896 0.699999988079071 0.10000000149011612
v 0.30000001192092896 -1.2999999523162842 0.10000000149011612
v 0.30000001192092896 -1.2999999523162842 0.10000000149011612
v 0.30000001192092896 0.699999988079071 0.10000000149011612
v 0.5 0.699999988079071 0.10000000149011612
v 0.5 -1.2999999523162842 0.10000000149011612
v 0.5 -1.2999999523162842 0.10000000149011612
v 0.5 0.699999988079071 0.10000000149011612
v 0.5 0.699999988079071 0.4000000059604645
v 0.5 -1.2999999523162842 0.4000000059604645
v 0.5 -1.2999999523162842 0.4000000059604645
v 0.5 0.699999988079071 0.4000000059604645
v 0.30000001192092896 0.699999988079071 0.4000000059604645
v 0.30000001192092896 -1.2999999523162842 0.4000000059604645
v 0.30000001192092896 -1.2999999523162842 0.10000000149011612
v 0.5 -1.2999999523162842 0.10000000149011612
v 0.5 -1.2999999523162842 0.4000000059604645
v 0.30000001192092896 -1.2999999523162842 0.4000000059604645
v 0.5 0.699999988079071 0.10000000149011612
v 0.30000001192092896 0.699999988079071 0.10000000149011612
v 0.30000001192092896 0.699999988079071 0.4000000059604645
v 0.5 0.699999988079071 0.4000000059604645
vt 0.375 0
vt 0.625 0
vt 0.625 0.25
vt 0.375 0.25
vt 0.375 0.25
vt 0.625 0.25
vt 0.625 0.5
vt 0.375 0.5
vt 0.375 0.5
vt 0.625 0.5
vt 0.625 0.75
vt 0.375 0.75
vt 0.375 0.75
vt 0.625 0.75
vt 0.625 1
vt 0.375 1
vt 0.125 0.5
vt 0.375 0.5
vt 0.375 0.75
vt 0.125 0.75
vt 0.625 0.5
vt 0.875 0.5
vt 0.875 0.75
vt 0.625 0.75
vn -1 0 0
vn -1 0 0
vn -1 0 0
vn -1 0 0
vn 0 0 -1
vn 0 0 -1
vn 0 0 -1
vn 0 0 -1
vn 1 0 0
vn 1 0 0
vn 1 0 0
vn 1 0 0
vn 0 0 1
vn 0 0 1
vn 0 0 1
vn 0 0 1
vn 0 -1 0
vn 0 -1 0
vn 0 -1 0
vn 0 -1 0
vn 0 1 0
vn 0 1 0
vn 0 1 0
vn 0 1 0
f 576/576/576 578/578/578 575/575/575
f 578/578/578 576/576/576 577/577/577
f 580/580/580 582/582/582 579/579/579
f 582/582/582 580/580/580 581/581/581
f 585/585/585 586/586/586 583/583/583
f 583/583/583 584/584/584 585/585/585
f 589/589/589 590/590/590 587/587/587
f 587/587/587 588/588/588 589/589/589
f 593/593/593 594/594/594 591/591/591
f 591/591/591 592/592/592 593/593/593
f 596/596/596 598/598/598 595/595/595
f 598/598/598 596/596/596 597/597/597
o Cube003
usemtl Ground
v 0.30000001192092896 -1.2999999523162842 -0.10000000149011612
v 0.30000001192092896 0.699999988079071 -0.10000000149011612
v 0.30000001192092896 0.699999988079071 -0.4000000059604645
v 0.30000001192092896 -1.2999999523162842 -0.4000000059604645
v 0.30000001192092896 -1.2999999523162842 -0.4000000059604645
v 0.30000001192092896 0.699999988079071 -0.4000000059604645
v 0.5 0.699999988079071 -0.4000000059604645
v 0.5 -1.2999999523162842 -0.4000000059604645
v 0.5 -1.2999999523162842 -0.4000000059604645
v 0.5 0.699999988079071 -0.4000000059604645
v 0.5 0.699999988079071 -0.10000000149011612
v 0.5 -1.2999999523162842 -0.10000000149011612
v 0.5 -1.2999999523162842 -0.10000000149011612
v 0.5 0.699999988079071 -0.10000000149011612
v 0.30000001192092896 0.699999988079071 -0.10000000149011612
v 0.30000001192092896 -1.2999999523162842 -0.10000000149011612
v 0.30000001192092896 -1.2999999523162842 -0.4000000059604645
v 0.5 -1.2999999523162842 -0.4000000059604645
v 0.5 -1.2999999523162842 -0.10000000149011612
v 0.30000001192092896 -1.2999999523162842 -0.10000000149011612
v 0.5 0.699999988079071 -0.4000000059604645
v 0.30000001192092896 0.699999988079071 -0.4000000059604645
v 0.30000001192092896 0.699999988079071 -0.10000000149011612
v 0.5 0.699999988079071 -0.10000000149011612
vt 0.375 0
vt 0.625 0
vt 0.625 0.25
vt 0.375 0.25
vt 0.375 0.25
vt 0.625 0.25
vt 0.625 0.5
vt 0.375 0.5
vt 0.375 0.5
vt 0.625 0.5
vt 0.625 0.75
vt 0.375 0.75
vt 0.375 0.75
vt 0.625 0.75
vt 0.625 1
vt 0.375 1
vt 0.125 0.5
vt 0.375 0.5
vt 0.375 0.75
vt 0.125 0.75
vt 0.625 0.5
vt 0.875 0.5
vt 0.875 0.75
vt 0.625 0.75
vn -1 0 0
vn -1 0 0
vn -1 0 0
vn -1 0 0
vn 0 0 -1
vn 0 0 -1
vn 0 0 -1
vn 0 0 -1
vn 1 0 0
vn 1 0 0
vn 1 0 0
vn 1 0 0
vn 0 0 1
vn 0 0 1
vn 0 0 1
vn 0 0 1
vn 0 -1 0
vn 0 -1 0
vn 0 -1 0
vn 0 -1 0
vn 0 1 0
vn 0 1 0
vn 0 1 0
vn 0 1 0
f 600/600/600 602/602/602 599/599/599
f 602/602/602 600/600/600 601/601/601
f 604/604/604 606/606/606 603/603/603
f 606/606/606 604/604/604 605/605/605
f 609/609/609 610/610/610 607/607/607
f 607/607/607 608/608/608 609/609/609
f 613/613/613 614/614/614 611/611/611
f 611/611/611 612/612/612 613/613/613
f 617/617/617 618/618/618 615/615/615
f 615/615/615 616/616/616 617/617/617
f 620/620/620 622/622/622 619/619/619
f 622/622/622 620/620/620 621/621/621
o Cube004
usemtl Ground
v 0.30000001192092896 -1.2999999523162842 -0.6000000238418579
v 0.30000001192092896 0.699999988079071 -0.6000000238418579
v 0.30000001192092896 0.699999988079071 -0.8999999761581421
v 0.30000001192092896 -1.2999999523162842 -0.8999999761581421
v 0.30000001192092896 -1.2999999523162842 -0.8999999761581421
v 0.30000001192092896 0.699999988079071 -0.8999999761581421
v 0.5 0.699999988079071 -0.8999999761581421
v 0.5 -1.2999999523162842 -0.8999999761581421
v 0.5 -1.2999999523162842 -0.8999999761581421
v 0.5 0.699999988079071 -0.8999999761581421
v 0.5 0.699999988079071 -0.6000000238418579
v 0.5 -1.2999999523162842 -0.6000000238418579
v 0.5 -1.2999999523162842 -0.6000000238418579
v 0.5 0.699999988079071 -0.6000000238418579
v 0.30000001192092896 0.699999988079071 -0.6000000238418579
v 0.30000001192092896 -1.2999999523162842 -0.6000000238418579
v 0.30000001192092896 -1.2999999523162842 -0.8999999761581421
v 0.5 -1.2999999523162842 -0.8999999761581421
v 0.5 -1.2999999523162842 -0.6000000238418579
v 0.30000001192092896 -1.2999999523162842 -0.6000000238418579
v 0.5 0.699999988079071 -0.8999999761581421
v 0.30000001192092896 0.699999988079071 -0.8999999761581421
v 0.30000001192092896 0.699999988079071 -0.6000000238418579
v 0.5 0.699999988079071 -0.6000000238418579
vt 0.375 0
vt 0.625 0
vt 0.625 0.25
vt 0.375 0.25
vt 0.375 0.25
vt 0.625 0.25
vt 0.625 0.5
vt 0.375 0.5
vt 0.375 0.5
vt 0.625 0.5
vt 0.625 0.75
vt 0.375 0.75
vt 0.375 0.75
vt 0.625 0.75
vt 0.625 1
vt 0.375 1
vt 0.125 0.5
vt 0.375 0.5
vt 0.375 0.75
vt 0.125 0.75
vt 0.625 0.5
vt 0.875 0.5
vt 0.875 0.75
vt 0.625 0.75
vn -1 0 0
vn -1 0 0
vn -1 0 0
vn -1 0 0
vn 0 0 -1
vn 0 0 -1
vn 0 0 -1
vn 0 0 -1
vn 1 0 0
vn 1 0 0
vn 1 0 0
vn 1 0 0
vn 0 0 1
vn 0 0 1
vn 0 0 1
vn 0 0 1
vn 0 -1 0
vn 0 -1 0
vn 0 -1 0
vn 0 -1 0
vn 0 1 0
vn 0 1 0
vn 0 1 0
vn 0 1 0
f 624/624/624 626/626/626 623/623/623
f 626/626/626 624/624/624 625/625/625
f 628/628/628 630/630/630 627/627/627
f 630/630/630 628/628/628 629/629/629
f 633/633/633 634/634/634 631/631/631
f 631/631/631 632/632/632 633/633/633
f 637/637/637 638/638/638 635/635/635
f 635/635/635 636/636/636 637/637/637
f 641/641/641 642/642/642 639/639/639
f 639/639/639 640/640/640 641/641/641
f 644/644/644 646/646/646 643/643/643
f 646/646/646 644/644/644 645/645/645
