mtllib Staircase.mtl
o Staircase
usemtl GreyMaterial
v -2 1.7000000476837158 -4.099999904632568
v -2 1.7000000476837158 -4.900000095367432
v -2 1.899999976158142 -4.900000095367432
v -2 1.899999976158142 -4.099999904632568
v -2 1.7000000476837158 -4.900000095367432
v 2 1.7000000476837158 -4.900000095367432
v 2 1.899999976158142 -4.900000095367432
v -2 1.899999976158142 -4.900000095367432
v 2 1.7000000476837158 -4.900000095367432
v 2 1.7000000476837158 -4.099999904632568
v 2 1.899999976158142 -4.099999904632568
v 2 1.899999976158142 -4.900000095367432
v 2 1.7000000476837158 -4.099999904632568
v -2 1.7000000476837158 -4.099999904632568
v -2 1.899999976158142 -4.099999904632568
v 2 1.899999976158142 -4.099999904632568
v -2 1.7000000476837158 -4.900000095367432
v -2 1.7000000476837158 -4.099999904632568
v 2 1.7000000476837158 -4.099999904632568
v 2 1.7000000476837158 -4.900000095367432
v 2 1.899999976158142 -4.900000095367432
v 2 1.899999976158142 -4.099999904632568
v -2 1.899999976158142 -4.099999904632568
v -2 1.899999976158142 -4.900000095367432
v -2 -0.10000000149011612 0.4000000059604645
v -2 -0.10000000149011612 -0.4000000059604645
v -2 0.10000000149011612 -0.4000000059604645
v -2 0.10000000149011612 0.4000000059604645
v -2 -0.10000000149011612 -0.4000000059604645
v 2 -0.10000000149011612 -0.4000000059604645
v 2 0.10000000149011612 -0.4000000059604645
v -2 0.10000000149011612 -0.4000000059604645
v 2 -0.10000000149011612 -0.4000000059604645
v 2 -0.10000000149011612 0.4000000059604645
v 2 0.10000000149011612 0.4000000059604645
v 2 0.10000000149011612 -0.4000000059604645
v 2 -0.10000000149011612 0.4000000059604645
v -2 -0.10000000149011612 0.4000000059604645
v -2 0.10000000149011612 0.4000000059604645
v 2 0.10000000149011612 0.4000000059604645
v -2 -0.10000000149011612 -0.4000000059604645
v -2 -0.10000000149011612 0.4000000059604645
v 2 -0.10000000149011612 0.4000000059604645
v 2 -0.10000000149011612 -0.4000000059604645
v 2 0.10000000149011612 -0.4000000059604645
v 2 0.10000000149011612 0.4000000059604645
v -2 0.10000000149011612 0.4000000059604645
v -2 0.10000000149011612 -0.4000000059604645
v -2 0.20000000298023224 -0.3499999940395355
v -2 0.20000000298023224 -1.149999976158142
v -2 0.4000000059604645 -1.149999976158142
v -2 0.4000000059604645 -0.3499999940395355
v -2 0.20000000298023224 -1.149999976158142
v 2 0.20000000298023224 -1.149999976158142
v 2 0.4000000059604645 -1.149999976158142
v -2 0.4000000059604645 -1.149999976158142
v 2 0.20000000298023224 -1.149999976158142
v 2 0.20000000298023224 -0.3499999940395355
v 2 0.4000000059604645 -0.3499999940395355
v 2 0.4000000059604645 -1.149999976158142
v 2 0.20000000298023224 -0.3499999940395355
v -2 0.20000000298023224 -0.3499999940395355
v -2 0.4000000059604645 -0.3499999940395355
v 2 0.4000000059604645 -0.3499999940395355
v -2 0.20000000298023224 -1.149999976158142
v -2 0.20000000298023224 -0.3499999940395355
v 2 0.20000000298023224 -0.3499999940395355
v 2 0.20000000298023224 -1.149999976158142
v 2 0.4000000059604645 -1.149999976158142
v 2 0.4000000059604645 -0.3499999940395355
v -2 0.4000000059604645 -0.3499999940395355
v -2 0.4000000059604645 -1.149999976158142
v -2 0.5 -1.100000023841858
v -2 0.5 -1.899999976158142
v -2 0.699999988079071 -1.899999976158142
v -2 0.699999988079071 -1.100000023841858
v -2 0.5 -1.899999976158142
v 2 0.5 -1.899999976158142
v 2 0.699999988079071 -1.899999976158142
v -2 0.699999988079071 -1.899999976158142
v 2 0.5 -1.899999976158142
v 2 0.5 -1.100000023841858
v 2 0.699999988079071 -1.100000023841858
v 2 0.699999988079071 -1.899999976158142
v 2 0.5 -1.100000023841858
v -2 0.5 -1.100000023841858
v -2 0.699999988079071 -1.100000023841858
v 2 0.699999988079071 -1.100000023841858
v -2 0.5 -1.899999976158142
v -2 0.5 -1.100000023841858
v 2 0.5 -1.100000023841858
v 2 0.5 -1.899999976158142
v 2 0.699999988079071 -1.899999976158142
v 2 0.699999988079071 -1.100000023841858
v -2 0.699999988079071 -1.100000023841858
v -2 0.699999988079071 -1.899999976158142
v -2 0.800000011920929 -1.850000023841858
v -2 0.800000011920929 -2.6500000953674316
v -2 1 -2.6500000953674316
v -2 1 -1.850000023841858
v -2 0.800000011920929 -2.6500000953674316
v 2 0.800000011920929 -2.6500000953674316
v 2 1 -2.6500000953674316
v -2 1 -2.6500000953674316
v 2 0.800000011920929 -2.6500000953674316
v 2 0.800000011920929 -1.850000023841858
v 2 1 -1.850000023841858
v 2 1 -2.6500000953674316
v 2 0.800000011920929 -1.850000023841858
v -2 0.800000011920929 -1.850000023841858
v -2 1 -1.850000023841858
v 2 1 -1.850000023841858
v -2 0.800000011920929 -2.6500000953674316
v -2 0.800000011920929 -1.850000023841858
v 2 0.800000011920929 -1.850000023841858
v 2 0.800000011920929 -2.6500000953674316
v 2 1 -2.6500000953674316
v 2 1 -1.850000023841858
v -2 1 -1.850000023841858
v -2 1 -2.6500000953674316
v -2 1.100000023841858 -2.599998950958252
v -2 1.100000023841858 -3.4000000953674316
v -2 1.2999999523162842 -3.4000000953674316
v -2 1.2999999523162842 -2.599998950958252
v -2 1.100000023841858 -3.4000000953674316
v 2 1.100000023841858 -3.4000000953674316
v 2 1.2999999523162842 -3.4000000953674316
v -2 1.2999999523162842 -3.4000000953674316
v 2 1.100000023841858 -3.4000000953674316
v 2 1.100000023841858 -2.599998950958252
v 2 1.2999999523162842 -2.599998950958252
v 2 1.2999999523162842 -3.4000000953674316
v 2 1.100000023841858 -2.599998950958252
v -2 1.100000023841858 -2.599998950958252
v -2 1.2999999523162842 -2.599998950958252
v 2 1.2999999523162842 -2.599998950958252
v -2 1.100000023841858 -3.4000000953674316
v -2 1.100000023841858 -2.599998950958252
v 2 1.100000023841858 -2.599998950958252
v 2 1.100000023841858 -3.4000000953674316
v 2 1.2999999523162842 -3.4000000953674316
v 2 1.2999999523162842 -2.599998950958252
v -2 1.2999999523162842 -2.599998950958252
v -2 1.2999999523162842 -3.4000000953674316
v -2 1.399999976158142 -3.349998950958252
v -2 1.399999976158142 -4.150000095367432
v -2 1.600000023841858 -4.150000095367432
v -2 1.600000023841858 -3.349998950958252
v -2 1.399999976158142 -4.150000095367432
v 2 1.399999976158142 -4.150000095367432
v 2 1.600000023841858 -4.150000095367432
v -2 1.600000023841858 -4.150000095367432
v 2 1.399999976158142 -4.150000095367432
v 2 1.399999976158142 -3.349998950958252
v 2 1.600000023841858 -3.349998950958252
v 2 1.600000023841858 -4.150000095367432
v 2 1.399999976158142 -3.349998950958252
v -2 1.399999976158142 -3.349998950958252
v -2 1.600000023841858 -3.349998950958252
v 2 1.600000023841858 -3.349998950958252
v -2 1.399999976158142 -4.150000095367432
v -2 1.399999976158142 -3.349998950958252
v 2 1.399999976158142 -3.349998950958252
v 2 1.399999976158142 -4.150000095367432
v 2 1.600000023841858 -4.150000095367432
v 2 1.600000023841858 -3.349998950958252
v -2 1.600000023841858 -3.349998950958252
v -2 1.600000023841858 -4.150000095367432
v -2 1.7000000476837158 -4.099999904632568
v -2 1.899999976158142 -4.099999904632568
v -2 1.899999976158142 -4.900000095367432
v -2 1.7000000476837158 -4.900000095367432
v -2 1.7000000476837158 -4.900000095367432
v -2 1.899999976158142 -4.900000095367432
v 2 1.899999976158142 -4.900000095367432
v 2 1.7000000476837158 -4.900000095367432
v 2 1.7000000476837158 -4.900000095367432
v 2 1.899999976158142 -4.900000095367432
v 2 1.899999976158142 -4.099999904632568
v 2 1.7000000476837158 -4.099999904632568
v 2 1.7000000476837158 -4.099999904632568
v 2 1.899999976158142 -4.099999904632568
v -2 1.899999976158142 -4.099999904632568
v -2 1.7000000476837158 -4.099999904632568
v -2 1.7000000476837158 -4.900000095367432
v 2 1.7000000476837158 -4.900000095367432
v 2 1.7000000476837158 -4.099999904632568
v -2 1.7000000476837158 -4.099999904632568
v 2 1.899999976158142 -4.900000095367432
v -2 1.899999976158142 -4.900000095367432
v -2 1.899999976158142 -4.099999904632568
v 2 1.899999976158142 -4.099999904632568
v -2 -0.10000000149011612 0.4000000059604645
v -2 0.10000000149011612 0.4000000059604645
v -2 0.10000000149011612 -0.4000000059604645
v -2 -0.10000000149011612 -0.4000000059604645
v -2 -0.10000000149011612 -0.4000000059604645
v -2 0.10000000149011612 -0.4000000059604645
v 2 0.10000000149011612 -0.4000000059604645
v 2 -0.10000000149011612 -0.4000000059604645
v 2 -0.10000000149011612 -0.4000000059604645
v 2 0.10000000149011612 -0.4000000059604645
v 2 0.10000000149011612 0.4000000059604645
v 2 -0.10000000149011612 0.4000000059604645
v 2 -0.10000000149011612 0.4000000059604645
v 2 0.10000000149011612 0.4000000059604645
v -2 0.10000000149011612 0.4000000059604645
v -2 -0.10000000149011612 0.4000000059604645
v -2 -0.10000000149011612 -0.4000000059604645
v 2 -0.10000000149011612 -0.4000000059604645
v 2 -0.10000000149011612 0.4000000059604645
v -2 -0.10000000149011612 0.4000000059604645
v 2 0.10000000149011612 -0.4000000059604645
v -2 0.10000000149011612 -0.4000000059604645
v -2 0.10000000149011612 0.4000000059604645
v 2 0.10000000149011612 0.4000000059604645
v -2 0.20000000298023224 -0.3499999940395355
v -2 0.4000000059604645 -0.3499999940395355
v -2 0.4000000059604645 -1.149999976158142
v -2 0.20000000298023224 -1.149999976158142
v -2 0.20000000298023224 -1.149999976158142
v -2 0.4000000059604645 -1.149999976158142
v 2 0.4000000059604645 -1.149999976158142
v 2 0.20000000298023224 -1.149999976158142
v 2 0.20000000298023224 -1.149999976158142
v 2 0.4000000059604645 -1.149999976158142
v 2 0.4000000059604645 -0.3499999940395355
v 2 0.20000000298023224 -0.3499999940395355
v 2 0.20000000298023224 -0.3499999940395355
v 2 0.4000000059604645 -0.3499999940395355
v -2 0.4000000059604645 -0.3499999940395355
v -2 0.20000000298023224 -0.3499999940395355
v -2 0.20000000298023224 -1.149999976158142
v 2 0.20000000298023224 -1.149999976158142
v 2 0.20000000298023224 -0.3499999940395355
v -2 0.20000000298023224 -0.3499999940395355
v 2 0.4000000059604645 -1.149999976158142
v -2 0.4000000059604645 -1.149999976158142
v -2 0.4000000059604645 -0.3499999940395355
v 2 0.4000000059604645 -0.3499999940395355
v -2 0.5 -1.100000023841858
v -2 0.699999988079071 -1.100000023841858
v -2 0.699999988079071 -1.899999976158142
v -2 0.5 -1.899999976158142
v -2 0.5 -1.899999976158142
v -2 0.699999988079071 -1.899999976158142
v 2 0.699999988079071 -1.899999976158142
v 2 0.5 -1.899999976158142
v 2 0.5 -1.899999976158142
v 2 0.699999988079071 -1.899999976158142
v 2 0.699999988079071 -1.100000023841858
v 2 0.5 -1.100000023841858
v 2 0.5 -1.100000023841858
v 2 0.699999988079071 -1.100000023841858
v -2 0.699999988079071 -1.100000023841858
v -2 0.5 -1.100000023841858
v -2 0.5 -1.899999976158142
v 2 0.5 -1.899999976158142
v 2 0.5 -1.100000023841858
v -2 0.5 -1.100000023841858
v 2 0.699999988079071 -1.899999976158142
v -2 0.699999988079071 -1.899999976158142
v -2 0.699999988079071 -1.100000023841858
v 2 0.699999988079071 -1.100000023841858
v -2 0.800000011920929 -1.850000023841858
v -2 1 -1.850000023841858
v -2 1 -2.6500000953674316
v -2 0.800000011920929 -2.6500000953674316
v -2 0.800000011920929 -2.6500000953674316
v -2 1 -2.6500000953674316
v 2 1 -2.6500000953674316
v 2 0.800000011920929 -2.6500000953674316
v 2 0.800000011920929 -2.6500000953674316
v 2 1 -2.6500000953674316
v 2 1 -1.850000023841858
v 2 0.800000011920929 -1.850000023841858
v 2 0.800000011920929 -1.850000023841858
v 2 1 -1.850000023841858
v -2 1 -1.850000023841858
v -2 0.800000011920929 -1.850000023841858
v -2 0.800000011920929 -2.6500000953674316
v 2 0.800000011920929 -2.6500000953674316
v 2 0.800000011920929 -1.850000023841858
v -2 0.800000011920929 -1.850000023841858
v 2 1 -2.6500000953674316
v -2 1 -2.6500000953674316
v -2 1 -1.850000023841858
v 2 1 -1.850000023841858
v -2 1.100000023841858 -2.599998950958252
v -2 1.2999999523162842 -2.599998950958252
v -2 1.2999999523162842 -3.4000000953674316
v -2 1.100000023841858 -3.4000000953674316
v -2 1.100000023841858 -3.4000000953674316
v -2 1.2999999523162842 -3.4000000953674316
v 2 1.2999999523162842 -3.4000000953674316
v 2 1.100000023841858 -3.4000000953674316
v 2 1.100000023841858 -3.4000000953674316
v 2 1.2999999523162842 -3.4000000953674316
v 2 1.2999999523162842 -2.599998950958252
v 2 1.100000023841858 -2.599998950958252
v 2 1.100000023841858 -2.599998950958252
v 2 1.2999999523162842 -2.599998950958252
v -2 1.2999999523162842 -2.599998950958252
v -2 1.100000023841858 -2.599998950958252
v -2 1.100000023841858 -3.4000000953674316
v 2 1.100000023841858 -3.4000000953674316
v 2 1.100000023841858 -2.599998950958252
v -2 1.100000023841858 -2.599998950958252
v 2 1.2999999523162842 -3.4000000953674316
v -2 1.2999999523162842 -3.4000000953674316
v -2 1.2999999523162842 -2.599998950958252
v 2 1.2999999523162842 -2.599998950958252
v -2 1.399999976158142 -3.349998950958252
v -2 1.600000023841858 -3.349998950958252
v -2 1.600000023841858 -4.150000095367432
v -2 1.399999976158142 -4.150000095367432
v -2 1.399999976158142 -4.150000095367432
v -2 1.600000023841858 -4.150000095367432
v 2 1.600000023841858 -4.150000095367432
v 2 1.399999976158142 -4.150000095367432
v 2 1.399999976158142 -4.150000095367432
v 2 1.600000023841858 -4.150000095367432
v 2 1.600000023841858 -3.349998950958252
v 2 1.399999976158142 -3.349998950958252
v 2 1.399999976158142 -3.349998950958252
v 2 1.600000023841858 -3.349998950958252
v -2 1.600000023841858 -3.349998950958252
v -2 1.399999976158142 -3.349998950958252
v -2 1.399999976158142 -4.150000095367432
v 2 1.399999976158142 -4.150000095367432
v 2 1.399999976158142 -3.349998950958252
v -2 1.399999976158142 -3.349998950958252
v 2 1.600000023841858 -4.150000095367432
v -2 1.600000023841858 -4.150000095367432
v -2 1.600000023841858 -3.349998950958252
v 2 1.600000023841858 -3.349998950958252
v -2 3.799999952316284 -9.34999942779541
v -2 3.799999952316284 -10.149999618530273
v -2 4 -10.149999618530273
v -2 4 -9.34999942779541
v -2 3.799999952316284 -10.149999618530273
v 2 3.799999952316284 -10.149999618530273
v 2 4 -10.149999618530273
v -2 4 -10.149999618530273
v 2 3.799999952316284 -10.149999618530273
v 2 3.799999952316284 -9.34999942779541
v 2 4 -9.34999942779541
v 2 4 -10.149999618530273
v 2 3.799999952316284 -9.34999942779541
v -2 3.799999952316284 -9.34999942779541
v -2 4 -9.34999942779541
v 2 4 -9.34999942779541
v -2 3.799999952316284 -10.149999618530273
v -2 3.799999952316284 -9.34999942779541
v 2 3.799999952316284 -9.34999942779541
v 2 3.799999952316284 -10.149999618530273
v 2 4 -10.149999618530273
v 2 4 -9.34999942779541
v -2 4 -9.34999942779541
v -2 4 -10.149999618530273
v -2 2 -4.849998950958252
v -2 2 -5.650000095367432
v -2 2.200000047683716 -5.650000095367432
v -2 2.200000047683716 -4.849998950958252
v -2 2 -5.650000095367432
v 2 2 -5.650000095367432
v 2 2.200000047683716 -5.650000095367432
v -2 2.200000047683716 -5.650000095367432
v 2 2 -5.650000095367432
v 2 2 -4.849998950958252
v 2 2.200000047683716 -4.849998950958252
v 2 2.200000047683716 -5.650000095367432
v 2 2 -4.849998950958252
v -2 2 -4.849998950958252
v -2 2.200000047683716 -4.849998950958252
v 2 2.200000047683716 -4.849998950958252
v -2 2 -5.650000095367432
v -2 2 -4.849998950958252
v 2 2 -4.849998950958252
v 2 2 -5.650000095367432
v 2 2.200000047683716 -5.650000095367432
v 2 2.200000047683716 -4.849998950958252
v -2 2.200000047683716 -4.849998950958252
v -2 2.200000047683716 -5.650000095367432
v -2 2.299999952316284 -5.599998950958252
v -2 2.299999952316284 -6.400000095367432
v -2 2.5 -6.400000095367432
v -2 2.5 -5.599998950958252
v -2 2.299999952316284 -6.400000095367432
v 2 2.299999952316284 -6.400000095367432
v 2 2.5 -6.400000095367432
v -2 2.5 -6.400000095367432
v 2 2.299999952316284 -6.400000095367432
v 2 2.299999952316284 -5.599998950958252
v 2 2.5 -5.599998950958252
v 2 2.5 -6.400000095367432
v 2 2.299999952316284 -5.599998950958252
v -2 2.299999952316284 -5.599998950958252
v -2 2.5 -5.599998950958252
v 2 2.5 -5.599998950958252
v -2 2.299999952316284 -6.400000095367432
v -2 2.299999952316284 -5.599998950958252
v 2 2.299999952316284 -5.599998950958252
v 2 2.299999952316284 -6.400000095367432
v 2 2.5 -6.400000095367432
v 2 2.5 -5.599998950958252
v -2 2.5 -5.599998950958252
v -2 2.5 -6.400000095367432
v -2 2.5999999046325684 -6.349998950958252
v -2 2.5999999046325684 -7.150000095367432
v -2 2.799999952316284 -7.150000095367432
v -2 2.799999952316284 -6.349998950958252
v -2 2.5999999046325684 -7.150000095367432
v 2 2.5999999046325684 -7.150000095367432
v 2 2.799999952316284 -7.150000095367432
v -2 2.799999952316284 -7.150000095367432
v 2 2.5999999046325684 -7.150000095367432
v 2 2.5999999046325684 -6.349998950958252
v 2 2.799999952316284 -6.349998950958252
v 2 2.799999952316284 -7.150000095367432
v 2 2.5999999046325684 -6.349998950958252
v -2 2.5999999046325684 -6.349998950958252
v -2 2.799999952316284 -6.349998950958252
v 2 2.799999952316284 -6.349998950958252
v -2 2.5999999046325684 -7.150000095367432
v -2 2.5999999046325684 -6.349998950958252
v 2 2.5999999046325684 -6.349998950958252
v 2 2.5999999046325684 -7.150000095367432
v 2 2.799999952316284 -7.150000095367432
v 2 2.799999952316284 -6.349998950958252
v -2 2.799999952316284 -6.349998950958252
v -2 2.799999952316284 -7.150000095367432
v -2 2.9000000953674316 -7.099998950958252
v -2 2.9000000953674316 -7.900000095367432
v -2 3.0999999046325684 -7.900000095367432
v -2 3.0999999046325684 -7.099998950958252
v -2 2.9000000953674316 -7.900000095367432
v 2 2.9000000953674316 -7.900000095367432
v 2 3.0999999046325684 -7.900000095367432
v -2 3.0999999046325684 -7.900000095367432
v 2 2.9000000953674316 -7.900000095367432
v 2 2.9000000953674316 -7.099998950958252
v 2 3.0999999046325684 -7.099998950958252
v 2 3.0999999046325684 -7.900000095367432
v 2 2.9000000953674316 -7.099998950958252
v -2 2.9000000953674316 -7.099998950958252
v -2 3.0999999046325684 -7.099998950958252
v 2 3.0999999046325684 -7.099998950958252
v -2 2.9000000953674316 -7.900000095367432
v -2 2.9000000953674316 -7.099998950958252
v 2 2.9000000953674316 -7.099998950958252
v 2 2.9000000953674316 -7.900000095367432
v 2 3.0999999046325684 -7.900000095367432
v 2 3.0999999046325684 -7.099998950958252
v -2 3.0999999046325684 -7.099998950958252
v -2 3.0999999046325684 -7.900000095367432
v -2 3.200000047683716 -7.849998950958252
v -2 3.200000047683716 -8.649999618530273
v -2 3.4000000953674316 -8.649999618530273
v -2 3.4000000953674316 -7.849998950958252
v -2 3.200000047683716 -8.649999618530273
v 2 3.200000047683716 -8.649999618530273
v 2 3.4000000953674316 -8.649999618530273
v -2 3.4000000953674316 -8.649999618530273
v 2 3.200000047683716 -8.649999618530273
v 2 3.200000047683716 -7.849998950958252
v 2 3.4000000953674316 -7.849998950958252
v 2 3.4000000953674316 -8.649999618530273
v 2 3.200000047683716 -7.849998950958252
v -2 3.200000047683716 -7.849998950958252
v -2 3.4000000953674316 -7.849998950958252
v 2 3.4000000953674316 -7.849998950958252
v -2 3.200000047683716 -8.649999618530273
v -2 3.200000047683716 -7.849998950958252
v 2 3.200000047683716 -7.849998950958252
v 2 3.200000047683716 -8.649999618530273
v 2 3.4000000953674316 -8.649999618530273
v 2 3.4000000953674316 -7.849998950958252
v -2 3.4000000953674316 -7.849998950958252
v -2 3.4000000953674316 -8.649999618530273
v -2 3.5 -8.599998474121094
v -2 3.5 -9.399999618530273
v -2 3.700000047683716 -9.399999618530273
v -2 3.700000047683716 -8.599998474121094
v -2 3.5 -9.399999618530273
v 2 3.5 -9.399999618530273
v 2 3.700000047683716 -9.399999618530273
v -2 3.700000047683716 -9.399999618530273
v 2 3.5 -9.399999618530273
v 2 3.5 -8.599998474121094
v 2 3.700000047683716 -8.599998474121094
v 2 3.700000047683716 -9.399999618530273
v 2 3.5 -8.599998474121094
v -2 3.5 -8.599998474121094
v -2 3.700000047683716 -8.599998474121094
v 2 3.700000047683716 -8.599998474121094
v -2 3.5 -9.399999618530273
v -2 3.5 -8.599998474121094
v 2 3.5 -8.599998474121094
v 2 3.5 -9.399999618530273
v 2 3.700000047683716 -9.399999618530273
v 2 3.700000047683716 -8.599998474121094
v -2 3.700000047683716 -8.599998474121094
v -2 3.700000047683716 -9.399999618530273
v -2 3.799999952316284 -9.34999942779541
v -2 4 -9.34999942779541
v -2 4 -10.149999618530273
v -2 3.799999952316284 -10.149999618530273
v -2 3.799999952316284 -10.149999618530273
v -2 4 -10.149999618530273
v 2 4 -10.149999618530273
v 2 3.799999952316284 -10.149999618530273
v 2 3.799999952316284 -10.149999618530273
v 2 4 -10.149999618530273
v 2 4 -9.34999942779541
v 2 3.799999952316284 -9.34999942779541
v 2 3.799999952316284 -9.34999942779541
v 2 4 -9.34999942779541
v -2 4 -9.34999942779541
v -2 3.799999952316284 -9.34999942779541
v -2 3.799999952316284 -10.149999618530273
v 2 3.799999952316284 -10.149999618530273
v 2 3.799999952316284 -9.34999942779541
v -2 3.799999952316284 -9.34999942779541
v 2 4 -10.149999618530273
v -2 4 -10.149999618530273
v -2 4 -9.34999942779541
v 2 4 -9.34999942779541
v -2 2 -4.849998950958252
v -2 2.200000047683716 -4.849998950958252
v -2 2.200000047683716 -5.650000095367432
v -2 2 -5.650000095367432
v -2 2 -5.650000095367432
v -2 2.200000047683716 -5.650000095367432
v 2 2.200000047683716 -5.650000095367432
v 2 2 -5.650000095367432
v 2 2 -5.650000095367432
v 2 2.200000047683716 -5.650000095367432
v 2 2.200000047683716 -4.849998950958252
v 2 2 -4.849998950958252
v 2 2 -4.849998950958252
v 2 2.200000047683716 -4.849998950958252
v -2 2.200000047683716 -4.849998950958252
v -2 2 -4.849998950958252
v -2 2 -5.650000095367432
v 2 2 -5.650000095367432
v 2 2 -4.849998950958252
v -2 2 -4.849998950958252
v 2 2.200000047683716 -5.650000095367432
v -2 2.200000047683716 -5.650000095367432
v -2 2.200000047683716 -4.849998950958252
v 2 2.200000047683716 -4.849998950958252
v -2 2.299999952316284 -5.599998950958252
v -2 2.5 -5.599998950958252
v -2 2.5 -6.400000095367432
v -2 2.299999952316284 -6.400000095367432
v -2 2.299999952316284 -6.400000095367432
v -2 2.5 -6.400000095367432
v 2 2.5 -6.400000095367432
v 2 2.299999952316284 -6.400000095367432
v 2 2.299999952316284 -6.400000095367432
v 2 2.5 -6.400000095367432
v 2 2.5 -5.599998950958252
v 2 2.299999952316284 -5.599998950958252
v 2 2.299999952316284 -5.599998950958252
v 2 2.5 -5.599998950958252
v -2 2.5 -5.599998950958252
v -2 2.299999952316284 -5.599998950958252
v -2 2.299999952316284 -6.400000095367432
v 2 2.299999952316284 -6.400000095367432
v 2 2.299999952316284 -5.599998950958252
v -2 2.299999952316284 -5.599998950958252
v 2 2.5 -6.400000095367432
v -2 2.5 -6.400000095367432
v -2 2.5 -5.599998950958252
v 2 2.5 -5.599998950958252
v -2 2.5999999046325684 -6.349998950958252
v -2 2.799999952316284 -6.349998950958252
v -2 2.799999952316284 -7.150000095367432
v -2 2.5999999046325684 -7.150000095367432
v -2 2.5999999046325684 -7.150000095367432
v -2 2.799999952316284 -7.150000095367432
v 2 2.799999952316284 -7.150000095367432
v 2 2.5999999046325684 -7.150000095367432
v 2 2.5999999046325684 -7.150000095367432
v 2 2.799999952316284 -7.150000095367432
v 2 2.799999952316284 -6.349998950958252
v 2 2.5999999046325684 -6.349998950958252
v 2 2.5999999046325684 -6.349998950958252
v 2 2.799999952316284 -6.349998950958252
v -2 2.799999952316284 -6.349998950958252
v -2 2.5999999046325684 -6.349998950958252
v -2 2.5999999046325684 -7.150000095367432
v 2 2.5999999046325684 -7.150000095367432
v 2 2.5999999046325684 -6.349998950958252
v -2 2.5999999046325684 -6.349998950958252
v 2 2.799999952316284 -7.150000095367432
v -2 2.799999952316284 -7.150000095367432
v -2 2.799999952316284 -6.349998950958252
v 2 2.799999952316284 -6.349998950958252
v -2 2.9000000953674316 -7.099998950958252
v -2 3.0999999046325684 -7.099998950958252
v -2 3.0999999046325684 -7.900000095367432
v -2 2.9000000953674316 -7.900000095367432
v -2 2.9000000953674316 -7.900000095367432
v -2 3.0999999046325684 -7.900000095367432
v 2 3.0999999046325684 -7.900000095367432
v 2 2.9000000953674316 -7.900000095367432
v 2 2.9000000953674316 -7.900000095367432
v 2 3.0999999046325684 -7.900000095367432
v 2 3.0999999046325684 -7.099998950958252
v 2 2.9000000953674316 -7.099998950958252
v 2 2.9000000953674316 -7.099998950958252
v 2 3.0999999046325684 -7.099998950958252
v -2 3.0999999046325684 -7.099998950958252
v -2 2.9000000953674316 -7.099998950958252
v -2 2.9000000953674316 -7.900000095367432
v 2 2.9000000953674316 -7.900000095367432
v 2 2.9000000953674316 -7.099998950958252
v -2 2.9000000953674316 -7.099998950958252
v 2 3.0999999046325684 -7.900000095367432
v -2 3.0999999046325684 -7.900000095367432
v -2 3.0999999046325684 -7.099998950958252
v 2 3.0999999046325684 -7.099998950958252
v -2 3.200000047683716 -7.849998950958252
v -2 3.4000000953674316 -7.849998950958252
v -2 3.4000000953674316 -8.649999618530273
v -2 3.200000047683716 -8.649999618530273
v -2 3.200000047683716 -8.649999618530273
v -2 3.4000000953674316 -8.649999618530273
v 2 3.4000000953674316 -8.649999618530273
v 2 3.200000047683716 -8.649999618530273
v 2 3.200000047683716 -8.649999618530273
v 2 3.4000000953674316 -8.649999618530273
v 2 3.4000000953674316 -7.849998950958252
v 2 3.200000047683716 -7.849998950958252
v 2 3.200000047683716 -7.849998950958252
v 2 3.4000000953674316 -7.849998950958252
v -2 3.4000000953674316 -7.849998950958252
v -2 3.200000047683716 -7.849998950958252
v -2 3.200000047683716 -8.649999618530273
v 2 3.200000047683716 -8.649999618530273
v 2 3.200000047683716 -7.849998950958252
v -2 3.200000047683716 -7.849998950958252
v 2 3.4000000953674316 -8.649999618530273
v -2 3.4000000953674316 -8.649999618530273
v -2 3.4000000953674316 -7.849998950958252
v 2 3.4000000953674316 -7.849998950958252
v -2 3.5 -8.599998474121094
v -2 3.700000047683716 -8.599998474121094
v -2 3.700000047683716 -9.399999618530273
v -2 3.5 -9.399999618530273
v -2 3.5 -9.399999618530273
v -2 3.700000047683716 -9.399999618530273
v 2 3.700000047683716 -9.399999618530273
v 2 3.5 -9.399999618530273
v 2 3.5 -9.399999618530273
v 2 3.700000047683716 -9.399999618530273
v 2 3.700000047683716 -8.599998474121094
v 2 3.5 -8.599998474121094
v 2 3.5 -8.599998474121094
v 2 3.700000047683716 -8.599998474121094
v -2 3.700000047683716 -8.599998474121094
v -2 3.5 -8.599998474121094
v -2 3.5 -9.399999618530273
v 2 3.5 -9.399999618530273
v 2 3.5 -8.599998474121094
v -2 3.5 -8.599998474121094
v 2 3.700000047683716 -9.399999618530273
v -2 3.700000047683716 -9.399999618530273
v -2 3.700000047683716 -8.599998474121094
v 2 3.700000047683716 -8.599998474121094
v -2 -0.4000000059604645 1.149999976158142
v -2 -0.20000000298023224 1.149999976158142
v -2 -0.20000000298023224 0.3499999940395355
v -2 -0.4000000059604645 0.3499999940395355
v -2 -0.4000000059604645 0.3499999940395355
v -2 -0.20000000298023224 0.3499999940395355
v 2 -0.20000000298023224 0.3499999940395355
v 2 -0.4000000059604645 0.3499999940395355
v 2 -0.4000000059604645 0.3499999940395355
v 2 -0.20000000298023224 0.3499999940395355
v 2 -0.20000000298023224 1.149999976158142
v 2 -0.4000000059604645 1.149999976158142
v 2 -0.4000000059604645 1.149999976158142
v 2 -0.20000000298023224 1.149999976158142
v -2 -0.20000000298023224 1.149999976158142
v -2 -0.4000000059604645 1.149999976158142
v -2 -0.4000000059604645 0.3499999940395355
v 2 -0.4000000059604645 0.3499999940395355
v 2 -0.4000000059604645 1.149999976158142
v -2 -0.4000000059604645 1.149999976158142
v 2 -0.20000000298023224 0.3499999940395355
v -2 -0.20000000298023224 0.3499999940395355
v -2 -0.20000000298023224 1.149999976158142
v 2 -0.20000000298023224 1.149999976158142
vt 0.375 0
vt 0.375 0.25
vt 0.625 0.25
vt 0.625 0
vt 0.375 0.25
vt 0.375 0.5
vt 0.625 0.5
vt 0.625 0.25
vt 0.375 0.5
vt 0.375 0.75
vt 0.625 0.75
vt 0.625 0.5
vt 0.375 0.75
vt 0.375 1
vt 0.625 1
vt 0.625 0.75
vt 0.125 0.5
vt 0.125 0.75
vt 0.375 0.75
vt 0.375 0.5
vt 0.625 0.5
vt 0.625 0.75
vt 0.875 0.75
vt 0.875 0.5
vt 0.375 0
vt 0.375 0.25
vt 0.625 0.25
vt 0.625 0
vt 0.375 0.25
vt 0.375 0.5
vt 0.625 0.5
vt 0.625 0.25
vt 0.375 0.5
vt 0.375 0.75
vt 0.625 0.75
vt 0.625 0.5
vt 0.375 0.75
vt 0.375 1
vt 0.625 1
vt 0.625 0.75
vt 0.125 0.5
vt 0.125 0.75
vt 0.375 0.75
vt 0.375 0.5
vt 0.625 0.5
vt 0.625 0.75
vt 0.875 0.75
vt 0.875 0.5
vt 0.375 0
vt 0.375 0.25
vt 0.625 0.25
vt 0.625 0
vt 0.375 0.25
vt 0.375 0.5
vt 0.625 0.5
vt 0.625 0.25
vt 0.375 0.5
vt 0.375 0.75
vt 0.625 0.75
vt 0.625 0.5
vt 0.375 0.75
vt 0.375 1
vt 0.625 1
vt 0.625 0.75
vt 0.125 0.5
vt 0.125 0.75
vt 0.375 0.75
vt 0.375 0.5
vt 0.625 0.5
vt 0.625 0.75
vt 0.875 0.75
vt 0.875 0.5
vt 0.375 0
vt 0.375 0.25
vt 0.625 0.25
vt 0.625 0
vt 0.375 0.25
vt 0.375 0.5
vt 0.625 0.5
vt 0.625 0.25
vt 0.375 0.5
vt 0.375 0.75
vt 0.625 0.75
vt 0.625 0.5
vt 0.375 0.75
vt 0.375 1
vt 0.625 1
vt 0.625 0.75
vt 0.125 0.5
vt 0.125 0.75
vt 0.375 0.75
vt 0.375 0.5
vt 0.625 0.5
vt 0.625 0.75
vt 0.875 0.75
vt 0.875 0.5
vt 0.375 0
vt 0.375 0.25
vt 0.625 0.25
vt 0.625 0
vt 0.375 0.25
vt 0.375 0.5
vt 0.625 0.5
vt 0.625 0.25
vt 0.375 0.5
vt 0.375 0.75
vt 0.625 0.75
vt 0.625 0.5
vt 0.375 0.75
vt 0.375 1
vt 0.625 1
vt 0.625 0.75
vt 0.125 0.5
vt 0.125 0.75
vt 0.375 0.75
vt 0.375 0.5
vt 0.625 0.5
vt 0.625 0.75
vt 0.875 0.75
vt 0.875 0.5
vt 0.375 0
vt 0.375 0.25
vt 0.625 0.25
vt 0.625 0
vt 0.375 0.25
vt 0.375 0.5
vt 0.625 0.5
vt 0.625 0.25
vt 0.375 0.5
vt 0.375 0.75
vt 0.625 0.75
vt 0.625 0.5
vt 0.375 0.75
vt 0.375 1
vt 0.625 1
vt 0.625 0.75
vt 0.125 0.5
vt 0.125 0.75
vt 0.375 0.75
vt 0.375 0.5
vt 0.625 0.5
vt 0.625 0.75
vt 0.875 0.75
vt 0.875 0.5
vt 0.375 0
vt 0.375 0.25
vt 0.625 0.25
vt 0.625 0
vt 0.375 0.25
vt 0.375 0.5
vt 0.625 0.5
vt 0.625 0.25
vt 0.375 0.5
vt 0.375 0.75
vt 0.625 0.75
vt 0.625 0.5
vt 0.375 0.75
vt 0.375 1
vt 0.625 1
vt 0.625 0.75
vt 0.125 0.5
vt 0.125 0.75
vt 0.375 0.75
vt 0.375 0.5
vt 0.625 0.5
vt 0.625 0.75
vt 0.875 0.75
vt 0.875 0.5
vt 0.375 0
vt 0.625 0
vt 0.625 0.25
vt 0.375 0.25
vt 0.375 0.25
vt 0.625 0.25
vt 0.625 0.5
vt 0.375 0.5
vt 0.375 0.5
vt 0.625 0.5
vt 0.625 0.75
vt 0.375 0.75
vt 0.375 0.75
vt 0.625 0.75
vt 0.625 1
vt 0.375 1
vt 0.125 0.5
vt 0.375 0.5
vt 0.375 0.75
vt 0.125 0.75
vt 0.625 0.5
vt 0.875 0.5
vt 0.875 0.75
vt 0.625 0.75
vt 0.375 0
vt 0.625 0
vt 0.625 0.25
vt 0.375 0.25
vt 0.375 0.25
vt 0.625 0.25
vt 0.625 0.5
vt 0.375 0.5
vt 0.375 0.5
vt 0.625 0.5
vt 0.625 0.75
vt 0.375 0.75
vt 0.375 0.75
vt 0.625 0.75
vt 0.625 1
vt 0.375 1
vt 0.125 0.5
vt 0.375 0.5
vt 0.375 0.75
vt 0.125 0.75
vt 0.625 0.5
vt 0.875 0.5
vt 0.875 0.75
vt 0.625 0.75
vt 0.375 0
vt 0.625 0
vt 0.625 0.25
vt 0.375 0.25
vt 0.375 0.25
vt 0.625 0.25
vt 0.625 0.5
vt 0.375 0.5
vt 0.375 0.5
vt 0.625 0.5
vt 0.625 0.75
vt 0.375 0.75
vt 0.375 0.75
vt 0.625 0.75
vt 0.625 1
vt 0.375 1
vt 0.125 0.5
vt 0.375 0.5
vt 0.375 0.75
vt 0.125 0.75
vt 0.625 0.5
vt 0.875 0.5
vt 0.875 0.75
vt 0.625 0.75
vt 0.375 0
vt 0.625 0
vt 0.625 0.25
vt 0.375 0.25
vt 0.375 0.25
vt 0.625 0.25
vt 0.625 0.5
vt 0.375 0.5
vt 0.375 0.5
vt 0.625 0.5
vt 0.625 0.75
vt 0.375 0.75
vt 0.375 0.75
vt 0.625 0.75
vt 0.625 1
vt 0.375 1
vt 0.125 0.5
vt 0.375 0.5
vt 0.375 0.75
vt 0.125 0.75
vt 0.625 0.5
vt 0.875 0.5
vt 0.875 0.75
vt 0.625 0.75
vt 0.375 0
vt 0.625 0
vt 0.625 0.25
vt 0.375 0.25
vt 0.375 0.25
vt 0.625 0.25
vt 0.625 0.5
vt 0.375 0.5
vt 0.375 0.5
vt 0.625 0.5
vt 0.625 0.75
vt 0.375 0.75
vt 0.375 0.75
vt 0.625 0.75
vt 0.625 1
vt 0.375 1
vt 0.125 0.5
vt 0.375 0.5
vt 0.375 0.75
vt 0.125 0.75
vt 0.625 0.5
vt 0.875 0.5
vt 0.875 0.75
vt 0.625 0.75
vt 0.375 0
vt 0.625 0
vt 0.625 0.25
vt 0.375 0.25
vt 0.375 0.25
vt 0.625 0.25
vt 0.625 0.5
vt 0.375 0.5
vt 0.375 0.5
vt 0.625 0.5
vt 0.625 0.75
vt 0.375 0.75
vt 0.375 0.75
vt 0.625 0.75
vt 0.625 1
vt 0.375 1
vt 0.125 0.5
vt 0.375 0.5
vt 0.375 0.75
vt 0.125 0.75
vt 0.625 0.5
vt 0.875 0.5
vt 0.875 0.75
vt 0.625 0.75
vt 0.375 0
vt 0.625 0
vt 0.625 0.25
vt 0.375 0.25
vt 0.375 0.25
vt 0.625 0.25
vt 0.625 0.5
vt 0.375 0.5
vt 0.375 0.5
vt 0.625 0.5
vt 0.625 0.75
vt 0.375 0.75
vt 0.375 0.75
vt 0.625 0.75
vt 0.625 1
vt 0.375 1
vt 0.125 0.5
vt 0.375 0.5
vt 0.375 0.75
vt 0.125 0.75
vt 0.625 0.5
vt 0.875 0.5
vt 0.875 0.75
vt 0.625 0.75
vt 0.375 0
vt 0.375 0.25
vt 0.625 0.25
vt 0.625 0
vt 0.375 0.25
vt 0.375 0.5
vt 0.625 0.5
vt 0.625 0.25
vt 0.375 0.5
vt 0.375 0.75
vt 0.625 0.75
vt 0.625 0.5
vt 0.375 0.75
vt 0.375 1
vt 0.625 1
vt 0.625 0.75
vt 0.125 0.5
vt 0.125 0.75
vt 0.375 0.75
vt 0.375 0.5
vt 0.625 0.5
vt 0.625 0.75
vt 0.875 0.75
vt 0.875 0.5
vt 0.375 0
vt 0.375 0.25
vt 0.625 0.25
vt 0.625 0
vt 0.375 0.25
vt 0.375 0.5
vt 0.625 0.5
vt 0.625 0.25
vt 0.375 0.5
vt 0.375 0.75
vt 0.625 0.75
vt 0.625 0.5
vt 0.375 0.75
vt 0.375 1
vt 0.625 1
vt 0.625 0.75
vt 0.125 0.5
vt 0.125 0.75
vt 0.375 0.75
vt 0.375 0.5
vt 0.625 0.5
vt 0.625 0.75
vt 0.875 0.75
vt 0.875 0.5
vt 0.375 0
vt 0.375 0.25
vt 0.625 0.25
vt 0.625 0
vt 0.375 0.25
vt 0.375 0.5
vt 0.625 0.5
vt 0.625 0.25
vt 0.375 0.5
vt 0.375 0.75
vt 0.625 0.75
vt 0.625 0.5
vt 0.375 0.75
vt 0.375 1
vt 0.625 1
vt 0.625 0.75
vt 0.125 0.5
vt 0.125 0.75
vt 0.375 0.75
vt 0.375 0.5
vt 0.625 0.5
vt 0.625 0.75
vt 0.875 0.75
vt 0.875 0.5
vt 0.375 0
vt 0.375 0.25
vt 0.625 0.25
vt 0.625 0
vt 0.375 0.25
vt 0.375 0.5
vt 0.625 0.5
vt 0.625 0.25
vt 0.375 0.5
vt 0.375 0.75
vt 0.625 0.75
vt 0.625 0.5
vt 0.375 0.75
vt 0.375 1
vt 0.625 1
vt 0.625 0.75
vt 0.125 0.5
vt 0.125 0.75
vt 0.375 0.75
vt 0.375 0.5
vt 0.625 0.5
vt 0.625 0.75
vt 0.875 0.75
vt 0.875 0.5
vt 0.375 0
vt 0.375 0.25
vt 0.625 0.25
vt 0.625 0
vt 0.375 0.25
vt 0.375 0.5
vt 0.625 0.5
vt 0.625 0.25
vt 0.375 0.5
vt 0.375 0.75
vt 0.625 0.75
vt 0.625 0.5
vt 0.375 0.75
vt 0.375 1
vt 0.625 1
vt 0.625 0.75
vt 0.125 0.5
vt 0.125 0.75
vt 0.375 0.75
vt 0.375 0.5
vt 0.625 0.5
vt 0.625 0.75
vt 0.875 0.75
vt 0.875 0.5
vt 0.375 0
vt 0.375 0.25
vt 0.625 0.25
vt 0.625 0
vt 0.375 0.25
vt 0.375 0.5
vt 0.625 0.5
vt 0.625 0.25
vt 0.375 0.5
vt 0.375 0.75
vt 0.625 0.75
vt 0.625 0.5
vt 0.375 0.75
vt 0.375 1
vt 0.625 1
vt 0.625 0.75
vt 0.125 0.5
vt 0.125 0.75
vt 0.375 0.75
vt 0.375 0.5
vt 0.625 0.5
vt 0.625 0.75
vt 0.875 0.75
vt 0.875 0.5
vt 0.375 0
vt 0.375 0.25
vt 0.625 0.25
vt 0.625 0
vt 0.375 0.25
vt 0.375 0.5
vt 0.625 0.5
vt 0.625 0.25
vt 0.375 0.5
vt 0.375 0.75
vt 0.625 0.75
vt 0.625 0.5
vt 0.375 0.75
vt 0.375 1
vt 0.625 1
vt 0.625 0.75
vt 0.125 0.5
vt 0.125 0.75
vt 0.375 0.75
vt 0.375 0.5
vt 0.625 0.5
vt 0.625 0.75
vt 0.875 0.75
vt 0.875 0.5
vt 0.375 0
vt 0.625 0
vt 0.625 0.25
vt 0.375 0.25
vt 0.375 0.25
vt 0.625 0.25
vt 0.625 0.5
vt 0.375 0.5
vt 0.375 0.5
vt 0.625 0.5
vt 0.625 0.75
vt 0.375 0.75
vt 0.375 0.75
vt 0.625 0.75
vt 0.625 1
vt 0.375 1
vt 0.125 0.5
vt 0.375 0.5
vt 0.375 0.75
vt 0.125 0.75
vt 0.625 0.5
vt 0.875 0.5
vt 0.875 0.75
vt 0.625 0.75
vt 0.375 0
vt 0.625 0
vt 0.625 0.25
vt 0.375 0.25
vt 0.375 0.25
vt 0.625 0.25
vt 0.625 0.5
vt 0.375 0.5
vt 0.375 0.5
vt 0.625 0.5
vt 0.625 0.75
vt 0.375 0.75
vt 0.375 0.75
vt 0.625 0.75
vt 0.625 1
vt 0.375 1
vt 0.125 0.5
vt 0.375 0.5
vt 0.375 0.75
vt 0.125 0.75
vt 0.625 0.5
vt 0.875 0.5
vt 0.875 0.75
vt 0.625 0.75
vt 0.375 0
vt 0.625 0
vt 0.625 0.25
vt 0.375 0.25
vt 0.375 0.25
vt 0.625 0.25
vt 0.625 0.5
vt 0.375 0.5
vt 0.375 0.5
vt 0.625 0.5
vt 0.625 0.75
vt 0.375 0.75
vt 0.375 0.75
vt 0.625 0.75
vt 0.625 1
vt 0.375 1
vt 0.125 0.5
vt 0.375 0.5
vt 0.375 0.75
vt 0.125 0.75
vt 0.625 0.5
vt 0.875 0.5
vt 0.875 0.75
vt 0.625 0.75
vt 0.375 0
vt 0.625 0
vt 0.625 0.25
vt 0.375 0.25
vt 0.375 0.25
vt 0.625 0.25
vt 0.625 0.5
vt 0.375 0.5
vt 0.375 0.5
vt 0.625 0.5
vt 0.625 0.75
vt 0.375 0.75
vt 0.375 0.75
vt 0.625 0.75
vt 0.625 1
vt 0.375 1
vt 0.125 0.5
vt 0.375 0.5
vt 0.375 0.75
vt 0.125 0.75
vt 0.625 0.5
vt 0.875 0.5
vt 0.875 0.75
vt 0.625 0.75
vt 0.375 0
vt 0.625 0
vt 0.625 0.25
vt 0.375 0.25
vt 0.375 0.25
vt 0.625 0.25
vt 0.625 0.5
vt 0.375 0.5
vt 0.375 0.5
vt 0.625 0.5
vt 0.625 0.75
vt 0.375 0.75
vt 0.375 0.75
vt 0.625 0.75
vt 0.625 1
vt 0.375 1
vt 0.125 0.5
vt 0.375 0.5
vt 0.375 0.75
vt 0.125 0.75
vt 0.625 0.5
vt 0.875 0.5
vt 0.875 0.75
vt 0.625 0.75
vt 0.375 0
vt 0.625 0
vt 0.625 0.25
vt 0.375 0.25
vt 0.375 0.25
vt 0.625 0.25
vt 0.625 0.5
vt 0.375 0.5
vt 0.375 0.5
vt 0.625 0.5
vt 0.625 0.75
vt 0.375 0.75
vt 0.375 0.75
vt 0.625 0.75
vt 0.625 1
vt 0.375 1
vt 0.125 0.5
vt 0.375 0.5
vt 0.375 0.75
vt 0.125 0.75
vt 0.625 0.5
vt 0.875 0.5
vt 0.875 0.75
vt 0.625 0.75
vt 0.375 0
vt 0.625 0
vt 0.625 0.25
vt 0.375 0.25
vt 0.375 0.25
vt 0.625 0.25
vt 0.625 0.5
vt 0.375 0.5
vt 0.375 0.5
vt 0.625 0.5
vt 0.625 0.75
vt 0.375 0.75
vt 0.375 0.75
vt 0.625 0.75
vt 0.625 1
vt 0.375 1
vt 0.125 0.5
vt 0.375 0.5
vt 0.375 0.75
vt 0.125 0.75
vt 0.625 0.5
vt 0.875 0.5
vt 0.875 0.75
vt 0.625 0.75
vt 0.375 0
vt 0.625 0
vt 0.625 0.25
vt 0.375 0.25
vt 0.375 0.25
vt 0.625 0.25
vt 0.625 0.5
vt 0.375 0.5
vt 0.375 0.5
vt 0.625 0.5
vt 0.625 0.75
vt 0.375 0.75
vt 0.375 0.75
vt 0.625 0.75
vt 0.625 1
vt 0.375 1
vt 0.125 0.5
vt 0.375 0.5
vt 0.375 0.75
vt 0.125 0.75
vt 0.625 0.5
vt 0.875 0.5
vt 0.875 0.75
vt 0.625 0.75
vn 1 0 0
vn 1 0 0
vn 1 0 0
vn 1 0 0
vn 0 0 1
vn 0 0 1
vn 0 0 1
vn 0 0 1
vn -1 0 0
vn -1 0 0
vn -1 0 0
vn -1 0 0
vn 0 0 -1
vn 0 0 -1
vn 0 0 -1
vn 0 0 -1
vn 0 1 0
vn 0 1 0
vn 0 1 0
vn 0 1 0
vn 0 -1 0
vn 0 -1 0
vn 0 -1 0
vn 0 -1 0
vn 1 0 0
vn 1 0 0
vn 1 0 0
vn 1 0 0
vn 0 0 1
vn 0 0 1
vn 0 0 1
vn 0 0 1
vn -1 0 0
vn -1 0 0
vn -1 0 0
vn -1 0 0
vn 0 0 -1
vn 0 0 -1
vn 0 0 -1
vn 0 0 -1
vn 0 1 0
vn 0 1 0
vn 0 1 0
vn 0 1 0
vn 0 -1 0
vn 0 -1 0
vn 0 -1 0
vn 0 -1 0
vn 1 0 0
vn 1 0 0
vn 1 0 0
vn 1 0 0
vn 0 0 1
vn 0 0 1
vn 0 0 1
vn 0 0 1
vn -1 0 0
vn -1 0 0
vn -1 0 0
vn -1 0 0
vn 0 0 -1
vn 0 0 -1
vn 0 0 -1
vn 0 0 -1
vn 0 1 0
vn 0 1 0
vn 0 1 0
vn 0 1 0
vn 0 -1 0
vn 0 -1 0
vn 0 -1 0
vn 0 -1 0
vn 1 0 0
vn 1 0 0
vn 1 0 0
vn 1 0 0
vn 0 0 1
vn 0 0 1
vn 0 0 1
vn 0 0 1
vn -1 0 0
vn -1 0 0
vn -1 0 0
vn -1 0 0
vn 0 0 -1
vn 0 0 -1
vn 0 0 -1
vn 0 0 -1
vn 0 1 0
vn 0 1 0
vn 0 1 0
vn 0 1 0
vn 0 -1 0
vn 0 -1 0
vn 0 -1 0
vn 0 -1 0
vn 1 0 0
vn 1 0 0
vn 1 0 0
vn 1 0 0
vn 0 0 1
vn 0 0 1
vn 0 0 1
vn 0 0 1
vn -1 0 0
vn -1 0 0
vn -1 0 0
vn -1 0 0
vn 0 0 -1
vn 0 0 -1
vn 0 0 -1
vn 0 0 -1
vn 0 1 0
vn 0 1 0
vn 0 1 0
vn 0 1 0
vn 0 -1 0
vn 0 -1 0
vn 0 -1 0
vn 0 -1 0
vn 1 0 0
vn 1 0 0
vn 1 0 0
vn 1 0 0
vn 0 0 1
vn 0 0 1
vn 0 0 1
vn 0 0 1
vn -1 0 0
vn -1 0 0
vn -1 0 0
vn -1 0 0
vn 0 0 -1
vn 0 0 -1
vn 0 0 -1
vn 0 0 -1
vn 0 1 0
vn 0 1 0
vn 0 1 0
vn 0 1 0
vn 0 -1 0
vn 0 -1 0
vn 0 -1 0
vn 0 -1 0
vn 1 0 0
vn 1 0 0
vn 1 0 0
vn 1 0 0
vn 0 0 1
vn 0 0 1
vn 0 0 1
vn 0 0 1
vn -1 0 0
vn -1 0 0
vn -1 0 0
vn -1 0 0
vn 0 0 -1
vn 0 0 -1
vn 0 0 -1
vn 0 0 -1
vn 0 1 0
vn 0 1 0
vn 0 1 0
vn 0 1 0
vn 0 -1 0
vn 0 -1 0
vn 0 -1 0
vn 0 -1 0
vn -1 0 0
vn -1 0 0
vn -1 0 0
vn -1 0 0
vn 0 0 -1
vn 0 0 -1
vn 0 0 -1
vn 0 0 -1
vn 1 0 0
vn 1 0 0
vn 1 0 0
vn 1 0 0
vn 0 0 1
vn 0 0 1
vn 0 0 1
vn 0 0 1
vn 0 -1 0
vn 0 -1 0
vn 0 -1 0
vn 0 -1 0
vn 0 1 0
vn 0 1 0
vn 0 1 0
vn 0 1 0
vn -1 0 0
vn -1 0 0
vn -1 0 0
vn -1 0 0
vn 0 0 -1
vn 0 0 -1
vn 0 0 -1
vn 0 0 -1
vn 1 0 0
vn 1 0 0
vn 1 0 0
vn 1 0 0
vn 0 0 1
vn 0 0 1
vn 0 0 1
vn 0 0 1
vn 0 -1 0
vn 0 -1 0
vn 0 -1 0
vn 0 -1 0
vn 0 1 0
vn 0 1 0
vn 0 1 0
vn 0 1 0
vn -1 0 0
vn -1 0 0
vn -1 0 0
vn -1 0 0
vn 0 0 -1
vn 0 0 -1
vn 0 0 -1
vn 0 0 -1
vn 1 0 0
vn 1 0 0
vn 1 0 0
vn 1 0 0
vn 0 0 1
vn 0 0 1
vn 0 0 1
vn 0 0 1
vn 0 -1 0
vn 0 -1 0
vn 0 -1 0
vn 0 -1 0
vn 0 1 0
vn 0 1 0
vn 0 1 0
vn 0 1 0
vn -1 0 0
vn -1 0 0
vn -1 0 0
vn -1 0 0
vn 0 0 -1
vn 0 0 -1
vn 0 0 -1
vn 0 0 -1
vn 1 0 0
vn 1 0 0
vn 1 0 0
vn 1 0 0
vn 0 0 1
vn 0 0 1
vn 0 0 1
vn 0 0 1
vn 0 -1 0
vn 0 -1 0
vn 0 -1 0
vn 0 -1 0
vn 0 1 0
vn 0 1 0
vn 0 1 0
vn 0 1 0
vn -1 0 0
vn -1 0 0
vn -1 0 0
vn -1 0 0
vn 0 0 -1
vn 0 0 -1
vn 0 0 -1
vn 0 0 -1
vn 1 0 0
vn 1 0 0
vn 1 0 0
vn 1 0 0
vn 0 0 1
vn 0 0 1
vn 0 0 1
vn 0 0 1
vn 0 -1 0
vn 0 -1 0
vn 0 -1 0
vn 0 -1 0
vn 0 1 0
vn 0 1 0
vn 0 1 0
vn 0 1 0
vn -1 0 0
vn -1 0 0
vn -1 0 0
vn -1 0 0
vn 0 0 -1
vn 0 0 -1
vn 0 0 -1
vn 0 0 -1
vn 1 0 0
vn 1 0 0
vn 1 0 0
vn 1 0 0
vn 0 0 1
vn 0 0 1
vn 0 0 1
vn 0 0 1
vn 0 -1 0
vn 0 -1 0
vn 0 -1 0
vn 0 -1 0
vn 0 1 0
vn 0 1 0
vn 0 1 0
vn 0 1 0
vn -1 0 0
vn -1 0 0
vn -1 0 0
vn -1 0 0
vn 0 0 -1
vn 0 0 -1
vn 0 0 -1
vn 0 0 -1
vn 1 0 0
vn 1 0 0
vn 1 0 0
vn 1 0 0
vn 0 0 1
vn 0 0 1
vn 0 0 1
vn 0 0 1
vn 0 -1 0
vn 0 -1 0
vn 0 -1 0
vn 0 -1 0
vn 0 1 0
vn 0 1 0
vn 0 1 0
vn 0 1 0
vn 1 0 0
vn 1 0 0
vn 1 0 0
vn 1 0 0
vn 0 0 1
vn 0 0 1
vn 0 0 1
vn 0 0 1
vn -1 0 0
vn -1 0 0
vn -1 0 0
vn -1 0 0
vn 0 0 -1
vn 0 0 -1
vn 0 0 -1
vn 0 0 -1
vn 0 1 0
vn 0 1 0
vn 0 1 0
vn 0 1 0
vn 0 -1 0
vn 0 -1 0
vn 0 -1 0
vn 0 -1 0
vn 1 0 0
vn 1 0 0
vn 1 0 0
vn 1 0 0
vn 0 0 1
vn 0 0 1
vn 0 0 1
vn 0 0 1
vn -1 0 0
vn -1 0 0
vn -1 0 0
vn -1 0 0
vn 0 0 -1
vn 0 0 -1
vn 0 0 -1
vn 0 0 -1
vn 0 1 0
vn 0 1 0
vn 0 1 0
vn 0 1 0
vn 0 -1 0
vn 0 -1 0
vn 0 -1 0
vn 0 -1 0
vn 1 0 0
vn 1 0 0
vn 1 0 0
vn 1 0 0
vn 0 0 1
vn 0 0 1
vn 0 0 1
vn 0 0 1
vn -1 0 0
vn -1 0 0
vn -1 0 0
vn -1 0 0
vn 0 0 -1
vn 0 0 -1
vn 0 0 -1
vn 0 0 -1
vn 0 1 0
vn 0 1 0
vn 0 1 0
vn 0 1 0
vn 0 -1 0
vn 0 -1 0
vn 0 -1 0
vn 0 -1 0
vn 1 0 0
vn 1 0 0
vn 1 0 0
vn 1 0 0
vn 0 0 1
vn 0 0 1
vn 0 0 1
vn 0 0 1
vn -1 0 0
vn -1 0 0
vn -1 0 0
vn -1 0 0
vn 0 0 -1
vn 0 0 -1
vn 0 0 -1
vn 0 0 -1
vn 0 1 0
vn 0 1 0
vn 0 1 0
vn 0 1 0
vn 0 -1 0
vn 0 -1 0
vn 0 -1 0
vn 0 -1 0
vn 1 0 0
vn 1 0 0
vn 1 0 0
vn 1 0 0
vn 0 0 1
vn 0 0 1
vn 0 0 1
vn 0 0 1
vn -1 0 0
vn -1 0 0
vn -1 0 0
vn -1 0 0
vn 0 0 -1
vn 0 0 -1
vn 0 0 -1
vn 0 0 -1
vn 0 1 0
vn 0 1 0
vn 0 1 0
vn 0 1 0
vn 0 -1 0
vn 0 -1 0
vn 0 -1 0
vn 0 -1 0
vn 1 0 0
vn 1 0 0
vn 1 0 0
vn 1 0 0
vn 0 0 1
vn 0 0 1
vn 0 0 1
vn 0 0 1
vn -1 0 0
vn -1 0 0
vn -1 0 0
vn -1 0 0
vn 0 0 -1
vn 0 0 -1
vn 0 0 -1
vn 0 0 -1
vn 0 1 0
vn 0 1 0
vn 0 1 0
vn 0 1 0
vn 0 -1 0
vn 0 -1 0
vn 0 -1 0
vn 0 -1 0
vn 1 0 0
vn 1 0 0
vn 1 0 0
vn 1 0 0
vn 0 0 1
vn 0 0 1
vn 0 0 1
vn 0 0 1
vn -1 0 0
vn -1 0 0
vn -1 0 0
vn -1 0 0
vn 0 0 -1
vn 0 0 -1
vn 0 0 -1
vn 0 0 -1
vn 0 1 0
vn 0 1 0
vn 0 1 0
vn 0 1 0
vn 0 -1 0
vn 0 -1 0
vn 0 -1 0
vn 0 -1 0
vn -1 0 0
vn -1 0 0
vn -1 0 0
vn -1 0 0
vn 0 0 -1
vn 0 0 -1
vn 0 0 -1
vn 0 0 -1
vn 1 0 0
vn 1 0 0
vn 1 0 0
vn 1 0 0
vn 0 0 1
vn 0 0 1
vn 0 0 1
vn 0 0 1
vn 0 -1 0
vn 0 -1 0
vn 0 -1 0
vn 0 -1 0
vn 0 1 0
vn 0 1 0
vn 0 1 0
vn 0 1 0
vn -1 0 0
vn -1 0 0
vn -1 0 0
vn -1 0 0
vn 0 0 -1
vn 0 0 -1
vn 0 0 -1
vn 0 0 -1
vn 1 0 0
vn 1 0 0
vn 1 0 0
vn 1 0 0
vn 0 0 1
vn 0 0 1
vn 0 0 1
vn 0 0 1
vn 0 -1 0
vn 0 -1 0
vn 0 -1 0
vn 0 -1 0
vn 0 1 0
vn 0 1 0
vn 0 1 0
vn 0 1 0
vn -1 0 0
vn -1 0 0
vn -1 0 0
vn -1 0 0
vn 0 0 -1
vn 0 0 -1
vn 0 0 -1
vn 0 0 -1
vn 1 0 0
vn 1 0 0
vn 1 0 0
vn 1 0 0
vn 0 0 1
vn 0 0 1
vn 0 0 1
vn 0 0 1
vn 0 -1 0
vn 0 -1 0
vn 0 -1 0
vn 0 -1 0
vn 0 1 0
vn 0 1 0
vn 0 1 0
vn 0 1 0
vn -1 0 0
vn -1 0 0
vn -1 0 0
vn -1 0 0
vn 0 0 -1
vn 0 0 -1
vn 0 0 -1
vn 0 0 -1
vn 1 0 0
vn 1 0 0
vn 1 0 0
vn 1 0 0
vn 0 0 1
vn 0 0 1
vn 0 0 1
vn 0 0 1
vn 0 -1 0
vn 0 -1 0
vn 0 -1 0
vn 0 -1 0
vn 0 1 0
vn 0 1 0
vn 0 1 0
vn 0 1 0
vn -1 0 0
vn -1 0 0
vn -1 0 0
vn -1 0 0
vn 0 0 -1
vn 0 0 -1
vn 0 0 -1
vn 0 0 -1
vn 1 0 0
vn 1 0 0
vn 1 0 0
vn 1 0 0
vn 0 0 1
vn 0 0 1
vn 0 0 1
vn 0 0 1
vn 0 -1 0
vn 0 -1 0
vn 0 -1 0
vn 0 -1 0
vn 0 1 0
vn 0 1 0
vn 0 1 0
vn 0 1 0
vn -1 0 0
vn -1 0 0
vn -1 0 0
vn -1 0 0
vn 0 0 -1
vn 0 0 -1
vn 0 0 -1
vn 0 0 -1
vn 1 0 0
vn 1 0 0
vn 1 0 0
vn 1 0 0
vn 0 0 1
vn 0 0 1
vn 0 0 1
vn 0 0 1
vn 0 -1 0
vn 0 -1 0
vn 0 -1 0
vn 0 -1 0
vn 0 1 0
vn 0 1 0
vn 0 1 0
vn 0 1 0
vn -1 0 0
vn -1 0 0
vn -1 0 0
vn -1 0 0
vn 0 0 -1
vn 0 0 -1
vn 0 0 -1
vn 0 0 -1
vn 1 0 0
vn 1 0 0
vn 1 0 0
vn 1 0 0
vn 0 0 1
vn 0 0 1
vn 0 0 1
vn 0 0 1
vn 0 -1 0
vn 0 -1 0
vn 0 -1 0
vn 0 -1 0
vn 0 1 0
vn 0 1 0
vn 0 1 0
vn 0 1 0
vn -1 0 0
vn -1 0 0
vn -1 0 0
vn -1 0 0
vn 0 0 -1
vn 0 0 -1
vn 0 0 -1
vn 0 0 -1
vn 1 0 0
vn 1 0 0
vn 1 0 0
vn 1 0 0
vn 0 0 1
vn 0 0 1
vn 0 0 1
vn 0 0 1
vn 0 -1 0
vn 0 -1 0
vn 0 -1 0
vn 0 -1 0
vn 0 1 0
vn 0 1 0
vn 0 1 0
vn 0 1 0
f 3/3/3 4/4/4 1/1/1
f 1/1/1 2/2/2 3/3/3
f 7/7/7 8/8/8 5/5/5
f 5/5/5 6/6/6 7/7/7
f 10/10/10 12/12/12 9/9/9
f 12/12/12 10/10/10 11/11/11
f 14/14/14 16/16/16 13/13/13
f 16/16/16 14/14/14 15/15/15
f 18/18/18 20/20/20 17/17/17
f 20/20/20 18/18/18 19/19/19
f 23/23/23 24/24/24 21/21/21
f 21/21/21 22/22/22 23/23/23
f 27/27/27 28/28/28 25/25/25
f 25/25/25 26/26/26 27/27/27
f 31/31/31 32/32/32 29/29/29
f 29/29/29 30/30/30 31/31/31
f 34/34/34 36/36/36 33/33/33
f 36/36/36 34/34/34 35/35/35
f 38/38/38 40/40/40 37/37/37
f 40/40/40 38/38/38 39/39/39
f 42/42/42 44/44/44 41/41/41
f 44/44/44 42/42/42 43/43/43
f 47/47/47 48/48/48 45/45/45
f 45/45/45 46/46/46 47/47/47
f 51/51/51 52/52/52 49/49/49
f 49/49/49 50/50/50 51/51/51
f 55/55/55 56/56/56 53/53/53
f 53/53/53 54/54/54 55/55/55
f 58/58/58 60/60/60 57/57/57
f 60/60/60 58/58/58 59/59/59
f 62/62/62 64/64/64 61/61/61
f 64/64/64 62/62/62 63/63/63
f 66/66/66 68/68/68 65/65/65
f 68/68/68 66/66/66 67/67/67
f 71/71/71 72/72/72 69/69/69
f 69/69/69 70/70/70 71/71/71
f 75/75/75 76/76/76 73/73/73
f 73/73/73 74/74/74 75/75/75
f 79/79/79 80/80/80 77/77/77
f 77/77/77 78/78/78 79/79/79
f 82/82/82 84/84/84 81/81/81
f 84/84/84 82/82/82 83/83/83
f 86/86/86 88/88/88 85/85/85
f 88/88/88 86/86/86 87/87/87
f 90/90/90 92/92/92 89/89/89
f 92/92/92 90/90/90 91/91/91
f 95/95/95 96/96/96 93/93/93
f 93/93/93 94/94/94 95/95/95
f 99/99/99 100/100/100 97/97/97
f 97/97/97 98/98/98 99/99/99
f 103/103/103 104/104/104 101/101/101
f 101/101/101 102/102/102 103/103/103
f 106/106/106 108/108/108 105/105/105
f 108/108/108 106/106/106 107/107/107
f 110/110/110 112/112/112 109/109/109
f 112/112/112 110/110/110 111/111/111
f 114/114/114 116/116/116 113/113/113
f 116/116/116 114/114/114 115/115/115
f 119/119/119 120/120/120 117/117/117
f 117/117/117 118/118/118 119/119/119
f 123/123/123 124/124/124 121/121/121
f 121/121/121 122/122/122 123/123/123
f 127/127/127 128/128/128 125/125/125
f 125/125/125 126/126/126 127/127/127
f 130/130/130 132/132/132 129/129/129
f 132/132/132 130/130/130 131/131/131
f 134/134/134 136/136/136 133/133/133
f 136/136/136 134/134/134 135/135/135
f 138/138/138 140/140/140 137/137/137
f 140/140/140 138/138/138 139/139/139
f 143/143/143 144/144/144 141/141/141
f 141/141/141 142/142/142 143/143/143
f 147/147/147 148/148/148 145/145/145
f 145/145/145 146/146/146 147/147/147
f 151/151/151 152/152/152 149/149/149
f 149/149/149 150/150/150 151/151/151
f 154/154/154 156/156/156 153/153/153
f 156/156/156 154/154/154 155/155/155
f 158/158/158 160/160/160 157/157/157
f 160/160/160 158/158/158 159/159/159
f 162/162/162 164/164/164 161/161/161
f 164/164/164 162/162/162 163/163/163
f 167/167/167 168/168/168 165/165/165
f 165/165/165 166/166/166 167/167/167
f 170/170/170 172/172/172 169/169/169
f 172/172/172 170/170/170 171/171/171
f 174/174/174 176/176/176 173/173/173
f 176/176/176 174/174/174 175/175/175
f 179/179/179 180/180/180 177/177/177
f 177/177/177 178/178/178 179/179/179
f 183/183/183 184/184/184 181/181/181
f 181/181/181 182/182/182 183/183/183
f 187/187/187 188/188/188 185/185/185
f 185/185/185 186/186/186 187/187/187
f 190/190/190 192/192/192 189/189/189
f 192/192/192 190/190/190 191/191/191
f 194/194/194 196/196/196 193/193/193
f 196/196/196 194/194/194 195/195/195
f 198/198/198 200/200/200 197/197/197
f 200/200/200 198/198/198 199/199/199
f 203/203/203 204/204/204 201/201/201
f 201/201/201 202/202/202 203/203/203
f 207/207/207 208/208/208 205/205/205
f 205/205/205 206/206/206 207/207/207
f 211/211/211 212/212/212 209/209/209
f 209/209/209 210/210/210 211/211/211
f 214/214/214 216/216/216 213/213/213
f 216/216/216 214/214/214 215/215/215
f 218/218/218 220/220/220 217/217/217
f 220/220/220 218/218/218 219/219/219
f 222/222/222 224/224/224 221/221/221
f 224/224/224 222/222/222 223/223/223
f 227/227/227 228/228/228 225/225/225
f 225/225/225 226/226/226 227/227/227
f 231/231/231 232/232/232 229/229/229
f 229/229/229 230/230/230 231/231/231
f 235/235/235 236/236/236 233/233/233
f 233/233/233 234/234/234 235/235/235
f 238/238/238 240/240/240 237/237/237
f 240/240/240 238/238/238 239/239/239
f 242/242/242 244/244/244 241/241/241
f 244/244/244 242/242/242 243/243/243
f 246/246/246 248/248/248 245/245/245
f 248/248/248 246/246/246 247/247/247
f 251/251/251 252/252/252 249/249/249
f 249/249/249 250/250/250 251/251/251
f 255/255/255 256/256/256 253/253/253
f 253/253/253 254/254/254 255/255/255
f 259/259/259 260/260/260 257/257/257
f 257/257/257 258/258/258 259/259/259
f 262/262/262 264/264/264 261/261/261
f 264/264/264 262/262/262 263/263/263
f 266/266/266 268/268/268 265/265/265
f 268/268/268 266/266/266 267/267/267
f 270/270/270 272/272/272 269/269/269
f 272/272/272 270/270/270 271/271/271
f 275/275/275 276/276/276 273/273/273
f 273/273/273 274/274/274 275/275/275
f 279/279/279 280/280/280 277/277/277
f 277/277/277 278/278/278 279/279/279
f 283/283/283 284/284/284 281/281/281
f 281/281/281 282/282/282 283/283/283
f 286/286/286 288/288/288 285/285/285
f 288/288/288 286/286/286 287/287/287
f 290/290/290 292/292/292 289/289/289
f 292/292/292 290/290/290 291/291/291
f 294/294/294 296/296/296 293/293/293
f 296/296/296 294/294/294 295/295/295
f 299/299/299 300/300/300 297/297/297
f 297/297/297 298/298/298 299/299/299
f 303/303/303 304/304/304 301/301/301
f 301/301/301 302/302/302 303/303/303
f 307/307/307 308/308/308 305/305/305
f 305/305/305 306/306/306 307/307/307
f 310/310/310 312/312/312 309/309/309
f 312/312/312 310/310/310 311/311/311
f 314/314/314 316/316/316 313/313/313
f 316/316/316 314/314/314 315/315/315
f 318/318/318 320/320/320 317/317/317
f 320/320/320 318/318/318 319/319/319
f 323/323/323 324/324/324 321/321/321
f 321/321/321 322/322/322 323/323/323
f 327/327/327 328/328/328 325/325/325
f 325/325/325 326/326/326 327/327/327
f 331/331/331 332/332/332 329/329/329
f 329/329/329 330/330/330 331/331/331
f 334/334/334 336/336/336 333/333/333
f 336/336/336 334/334/334 335/335/335
f 339/339/339 340/340/340 337/337/337
f 337/337/337 338/338/338 339/339/339
f 343/343/343 344/344/344 341/341/341
f 341/341/341 342/342/342 343/343/343
f 346/346/346 348/348/348 345/345/345
f 348/348/348 346/346/346 347/347/347
f 350/350/350 352/352/352 349/349/349
f 352/352/352 350/350/350 351/351/351
f 354/354/354 356/356/356 353/353/353
f 356/356/356 354/354/354 355/355/355
f 359/359/359 360/360/360 357/357/357
f 357/357/357 358/358/358 359/359/359
f 363/363/363 364/364/364 361/361/361
f 361/361/361 362/362/362 363/363/363
f 367/367/367 368/368/368 365/365/365
f 365/365/365 366/366/366 367/367/367
f 370/370/370 372/372/372 369/369/369
f 372/372/372 370/370/370 371/371/371
f 374/374/374 376/376/376 373/373/373
f 376/376/376 374/374/374 375/375/375
f 378/378/378 380/380/380 377/377/377
f 380/380/380 378/378/378 379/379/379
f 383/383/383 384/384/384 381/381/381
f 381/381/381 382/382/382 383/383/383
f 387/387/387 388/388/388 385/385/385
f 385/385/385 386/386/386 387/387/387
f 391/391/391 392/392/392 389/389/389
f 389/389/389 390/390/390 391/391/391
f 394/394/394 396/396/396 393/393/393
f 396/396/396 394/394/394 395/395/395
f 398/398/398 400/400/400 397/397/397
f 400/400/400 398/398/398 399/399/399
f 402/402/402 404/404/404 401/401/401
f 404/404/404 402/402/402 403/403/403
f 407/407/407 408/408/408 405/405/405
f 405/405/405 406/406/406 407/407/407
f 411/411/411 412/412/412 409/409/409
f 409/409/409 410/410/410 411/411/411
f 415/415/415 416/416/416 413/413/413
f 413/413/413 414/414/414 415/415/415
f 418/418/418 420/420/420 417/417/417
f 420/420/420 418/418/418 419/419/419
f 422/422/422 424/424/424 421/421/421
f 424/424/424 422/422/422 423/423/423
f 426/426/426 428/428/428 425/425/425
f 428/428/428 426/426/426 427/427/427
f 431/431/431 432/432/432 429/429/429
f 429/429/429 430/430/430 431/431/431
f 435/435/435 436/436/436 433/433/433
f 433/433/433 434/434/434 435/435/435
f 439/439/439 440/440/440 437/437/437
f 437/437/437 438/438/438 439/439/439
f 442/442/442 444/444/444 441/441/441
f 444/444/444 442/442/442 443/443/443
f 446/446/446 448/448/448 445/445/445
f 448/448/448 446/446/446 447/447/447
f 450/450/450 452/452/452 449/449/449
f 452/452/452 450/450/450 451/451/451
f 455/455/455 456/456/456 453/453/453
f 453/453/453 454/454/454 455/455/455
f 459/459/459 460/460/460 457/457/457
f 457/457/457 458/458/458 459/459/459
f 463/463/463 464/464/464 461/461/461
f 461/461/461 462/462/462 463/463/463
f 466/466/466 468/468/468 465/465/465
f 468/468/468 466/466/466 467/467/467
f 470/470/470 472/472/472 469/469/469
f 472/472/472 470/470/470 471/471/471
f 474/474/474 476/476/476 473/473/473
f 476/476/476 474/474/474 475/475/475
f 479/479/479 480/480/480 477/477/477
f 477/477/477 478/478/478 479/479/479
f 483/483/483 484/484/484 481/481/481
f 481/481/481 482/482/482 483/483/483
f 487/487/487 488/488/488 485/485/485
f 485/485/485 486/486/486 487/487/487
f 490/490/490 492/492/492 489/489/489
f 492/492/492 490/490/490 491/491/491
f 494/494/494 496/496/496 493/493/493
f 496/496/496 494/494/494 495/495/495
f 498/498/498 500/500/500 497/497/497
f 500/500/500 498/498/498 499/499/499
f 503/503/503 504/504/504 501/501/501
f 501/501/501 502/502/502 503/503/503
f 506/506/506 508/508/508 505/505/505
f 508/508/508 506/506/506 507/507/507
f 510/510/510 512/512/512 509/509/509
f 512/512/512 510/510/510 511/511/511
f 515/515/515 516/516/516 513/513/513
f 513/513/513 514/514/514 515/515/515
f 519/519/519 520/520/520 517/517/517
f 517/517/517 518/518/518 519/519/519
f 523/523/523 524/524/524 521/521/521
f 521/521/521 522/522/522 523/523/523
f 526/526/526 528/528/528 525/525/525
f 528/528/528 526/526/526 527/527/527
f 530/530/530 532/532/532 529/529/529
f 532/532/532 530/530/530 531/531/531
f 534/534/534 536/536/536 533/533/533
f 536/536/536 534/534/534 535/535/535
f 539/539/539 540/540/540 537/537/537
f 537/537/537 538/538/538 539/539/539
f 543/543/543 544/544/544 541/541/541
f 541/541/541 542/542/542 543/543/543
f 547/547/547 548/548/548 545/545/545
f 545/545/545 546/546/546 547/547/547
f 550/550/550 552/552/552 549/549/549
f 552/552/552 550/550/550 551/551/551
f 554/554/554 556/556/556 553/553/553
f 556/556/556 554/554/554 555/555/555
f 558/558/558 560/560/560 557/557/557
f 560/560/560 558/558/558 559/559/559
f 563/563/563 564/564/564 561/561/561
f 561/561/561 562/562/562 563/563/563
f 567/567/567 568/568/568 565/565/565
f 565/565/565 566/566/566 567/567/567
f 571/571/571 572/572/572 569/569/569
f 569/569/569 570/570/570 571/571/571
f 574/574/574 576/576/576 573/573/573
f 576/576/576 574/574/574 575/575/575
f 578/578/578 580/580/580 577/577/577
f 580/580/580 578/578/578 579/579/579
f 582/582/582 584/584/584 581/581/581
f 584/584/584 582/582/582 583/583/583
f 587/587/587 588/588/588 585/585/585
f 585/585/585 586/586/586 587/587/587
f 591/591/591 592/592/592 589/589/589
f 589/589/589 590/590/590 591/591/591
f 595/595/595 596/596/596 593/593/593
f 593/593/593 594/594/594 595/595/595
f 598/598/598 600/600/600 597/597/597
f 600/600/600 598/598/598 599/599/599
f 602/602/602 604/604/604 601/601/601
f 604/604/604 602/602/602 603/603/603
f 606/606/606 608/608/608 605/605/605
f 608/608/608 606/606/606 607/607/607
f 611/611/611 612/612/612 609/609/609
f 609/609/609 610/610/610 611/611/611
f 615/615/615 616/616/616 613/613/613
f 613/613/613 614/614/614 615/615/615
f 619/619/619 620/620/620 617/617/617
f 617/617/617 618/618/618 619/619/619
f 622/622/622 624/624/624 621/621/621
f 624/624/624 622/622/622 623/623/623
f 626/626/626 628/628/628 625/625/625
f 628/628/628 626/626/626 627/627/627
f 630/630/630 632/632/632 629/629/629
f 632/632/632 630/630/630 631/631/631
f 635/635/635 636/636/636 633/633/633
f 633/633/633 634/634/634 635/635/635
f 639/639/639 640/640/640 637/637/637
f 637/637/637 638/638/638 639/639/639
f 643/643/643 644/644/644 641/641/641
f 641/641/641 642/642/642 643/643/643
f 646/646/646 648/648/648 645/645/645
f 648/648/648 646/646/646 647/647/647
f 650/650/650 652/652/652 649/649/649
f 652/652/652 650/650/650 651/651/651
f 654/654/654 656/656/656 653/653/653
f 656/656/656 654/654/654 655/655/655
f 659/659/659 660/660/660 657/657/657
f 657/657/657 658/658/658 659/659/659
f 663/663/663 664/664/664 661/661/661
f 661/661/661 662/662/662 663/663/663
f 667/667/667 668/668/668 665/665/665
f 665/665/665 666/666/666 667/667/667
f 670/670/670 672/672/672 669/669/669
f 672/672/672 670/670/670 671/671/671
f 674/674/674 676/676/676 673/673/673
f 676/676/676 674/674/674 675/675/675
f 678/678/678 680/680/680 677/677/677
f 680/680/680 678/678/678 679/679/679
f 683/683/683 684/684/684 681/681/681
f 681/681/681 682/682/682 683/683/683
f 687/687/687 688/688/688 685/685/685
f 685/685/685 686/686/686 687/687/687
f 691/691/691 692/692/692 689/689/689
f 689/689/689 690/690/690 691/691/691
f 694/694/694 696/696/696 693/693/693
f 696/696/696 694/694/694 695/695/695
o Supporter
usemtl GreyMaterial
v -0.10000000149011612 -0.8210690021514893 -0.004738000221550465
v -0.10000000149011612 -0.2639769911766052 0.218081995844841
v -0.10000000149011612 3.8210690021514893 -9.995262145996094
v -0.10000000149011612 3.2639780044555664 -10.218082427978516
v -0.10000000149011612 3.2639780044555664 -10.218082427978516
v -0.10000000149011612 3.8210690021514893 -9.995262145996094
v 0.10000000149011612 3.8210690021514893 -9.995262145996094
v 0.10000000149011612 3.2639780044555664 -10.218082427978516
v 0.10000000149011612 3.2639780044555664 -10.218082427978516
v 0.10000000149011612 3.8210690021514893 -9.995262145996094
v 0.10000000149011612 -0.2639769911766052 0.218081995844841
v 0.10000000149011612 -0.8210690021514893 -0.004738000221550465
v 0.10000000149011612 -0.8210690021514893 -0.004738000221550465
v 0.10000000149011612 -0.2639769911766052 0.218081995844841
v -0.10000000149011612 -0.2639769911766052 0.218081995844841
v -0.10000000149011612 -0.8210690021514893 -0.004738000221550465
v -0.10000000149011612 3.2639780044555664 -10.218082427978516
v 0.10000000149011612 3.2639780044555664 -10.218082427978516
v 0.10000000149011612 -0.8210690021514893 -0.004738000221550465
v -0.10000000149011612 -0.8210690021514893 -0.004738000221550465
v 0.10000000149011612 3.8210690021514893 -9.995262145996094
v -0.10000000149011612 3.8210690021514893 -9.995262145996094
v -0.10000000149011612 -0.2639769911766052 0.218081995844841
v 0.10000000149011612 -0.2639769911766052 0.218081995844841
vt 0.375 0
vt 0.625 0
vt 0.625 0.25
vt 0.375 0.25
vt 0.375 0.25
vt 0.625 0.25
vt 0.625 0.5
vt 0.375 0.5
vt 0.375 0.5
vt 0.625 0.5
vt 0.625 0.75
vt 0.375 0.75
vt 0.375 0.75
vt 0.625 0.75
vt 0.625 1
vt 0.375 1
vt 0.125 0.5
vt 0.375 0.5
vt 0.375 0.75
vt 0.125 0.75
vt 0.625 0.5
vt 0.875 0.5
vt 0.875 0.75
vt 0.625 0.75
vn -1 0 0
vn -1 0 0
vn -1 0 0
vn -1 0 0
vn 0 0.37139067121577224 -0.9284766929405919
vn 0 0.37139067121577224 -0.9284766929405919
vn 0 0.37139067121577224 -0.9284766929405919
vn 0 0.37139067121577224 -0.9284766929405919
vn 1 0 0
vn 1 0 0
vn 1 0 0
vn 1 0 0
vn 0 -0.37139067121577224 0.9284766929405919
vn 0 -0.37139067121577224 0.9284766929405919
vn 0 -0.37139067121577224 0.9284766929405919
vn 0 -0.37139067121577224 0.9284766929405919
vn 0 -0.9284766929405919 -0.37139067121577224
vn 0 -0.9284766929405919 -0.37139067121577224
vn 0 -0.9284766929405919 -0.37139067121577224
vn 0 -0.9284766929405919 -0.37139067121577224
vn 0 0.9284766929405919 0.37139067121577224
vn 0 0.9284766929405919 0.37139067121577224
vn 0 0.9284766929405919 0.37139067121577224
vn 0 0.9284766929405919 0.37139067121577224
f 698/698/698 700/700/700 697/697/697
f 700/700/700 698/698/698 699/699/699
f 702/702/702 704/704/704 701/701/701
f 704/704/704 702/702/702 703/703/703
f 707/707/707 708/708/708 705/705/705
f 705/705/705 706/706/706 707/707/707
f 711/711/711 712/712/712 709/709/709
f 709/709/709 710/710/710 711/711/711
f 715/715/715 716/716/716 713/713/713
f 713/713/713 714/714/714 715/715/715
f 718/718/718 720/720/720 717/717/717
f 720/720/720 718/718/718 719/719/719
